<svg xmlns="http://www.w3.org/2000/svg" viewBox="0 0 120 120"><defs><style>.cls-3{fill:#ffea27}.cls-4{mix-blend-mode:multiply}.cls-5{fill:#f4d314}.cls-6{fill:#95a6b1}</style></defs><g style="isolation:isolate"><g id="Capa_1" data-name="Capa 1"><path fill="none" d="M0 0h120v120H0z"/><path class="cls-3" d="M57.09 115.86H38.88a2 2 0 010-4h18.21a2 2 0 010 4zm21.91 0h-9.1a2 2 0 010-4H79a2 2 0 010 4zm12.82 0a2 2 0 01-1.41-.59 1.88 1.88 0 01-.44-.64 2 2 0 01.44-2.18 2.06 2.06 0 012.83 0 2 2 0 010 2.82 2.51 2.51 0 01-.31.26 2.21 2.21 0 01-.34.18 2.2 2.2 0 01-.77.15z"/><g class="cls-4"><path class="cls-5" d="M46.38 115.86h-18.2a2 2 0 110-4h18.2a2 2 0 110 4z"/></g><path class="cls-3" d="M73.56 103.64H28.18a2 2 0 110-4h45.38a2 2 0 010 4z"/><g class="cls-4"><path class="cls-5" d="M28.18 103.64a2 2 0 01-1.42-.59 2.16 2.16 0 01-.43-.65 2 2 0 01-.15-.76 2 2 0 01.58-1.42l.31-.25a2.21 2.21 0 01.34-.18 2.4 2.4 0 01.38-.12 2 2 0 01.78 0 2.29 2.29 0 01.37.12 2.31 2.31 0 01.35.18 2.48 2.48 0 01.3.25 2.34 2.34 0 01.25.3 1.66 1.66 0 01.18.35 2.65 2.65 0 01.12.37 2.58 2.58 0 010 .4 2 2 0 01-.15.76 2 2 0 01-.44.65 2 2 0 01-1.37.59z"/></g><g class="cls-4"><path class="cls-5" d="M91.82 103.64H66.06a2 2 0 010-4h25.76a2 2 0 010 4z"/></g><path class="cls-3" d="M26 48.19a9.54 9.54 0 01-3.32-.6 9.43 9.43 0 01-5.33-5 9.5 9.5 0 0117.28-7.9A9.5 9.5 0 0130 47.33a9.4 9.4 0 01-4 .86zm0-15a5.5 5.5 0 102.29 10.5 5.5 5.5 0 00-.37-10.15 5.52 5.52 0 00-1.92-.35z"/><path class="cls-6" d="M94 91.14H26a2 2 0 01-2-2V52.8a2 2 0 012-2 2 2 0 012 2v34.41h64v-79H28V24.4a2 2 0 11-3.93 0V6.29a1.95 1.95 0 012-2H94a2 2 0 012 2v82.89a1.92 1.92 0 01-.57 1.38 2 2 0 01-1.43.58z"/><path class="cls-6" d="M85.05 81.24H36a2 2 0 010-3.93h49a2 2 0 010 3.93zm0-10.69h-17a2 2 0 01-2-2v-21a2 2 0 012-2h17a2 2 0 012 2v21a2 2 0 01-2 2zm-15-3.93h13V49.53h-13zm-12.13-12.8H36a2 2 0 010-3.93h21.9a2 2 0 110 3.93zm0 14.37H36a2 2 0 010-3.93h21.9a2 2 0 110 3.93zm-13.01-48.6v7.78L45 28v.63c0 .47.05.95.07 1.43H45l-5.5-10.48h-3.75v14h2.65v-7.81c0-.46 0-.89-.07-1.31s-.05-1-.09-1.46h.09l5.5 10.59h3.76v-14zm13.41 2.43v-2.43h-8.06v14h8.06v-2.45h-5.09v-3.61h4.74v-2.44h-4.74v-3.07h5.09zm16.42-2.43l-1.59 7.64c0 .1-.05.25-.08.45s-.08.41-.12.65-.09.5-.14.77-.1.53-.14.78-.08.5-.12.72-.06.4-.08.54c0-.14 0-.32-.08-.54s-.08-.45-.12-.69-.08-.5-.13-.76-.08-.51-.13-.74-.08-.42-.11-.6-.06-.3-.08-.38l-1.95-7.84h-2.6l-2 7.84c0 .08 0 .2-.08.38s-.07.38-.11.6-.08.47-.13.74-.09.51-.13.76-.07.47-.11.69-.06.4-.08.54c0-.14 0-.32-.08-.54s-.08-.46-.13-.72-.09-.51-.14-.78-.09-.53-.14-.77-.08-.46-.12-.65-.06-.35-.08-.45l-1.54-7.64h-2.92l3.37 14h3.38l1.71-6.89c0-.1.06-.24.09-.42s.08-.37.12-.59.09-.45.13-.68.08-.47.12-.69.07-.42.1-.61 0-.34.06-.45c0 .11 0 .26.06.45s.07.4.1.62.08.45.13.69.09.46.13.68.09.41.12.58.07.31.09.41l1.73 6.9h3.37l3.37-14zm12.11 8.68a3.53 3.53 0 00-.67-1.1 5.31 5.31 0 00-1-.88 13.53 13.53 0 00-1.32-.78c-.4-.21-.74-.4-1-.57a3.63 3.63 0 01-.68-.49 1.51 1.51 0 01-.39-.51 1.54 1.54 0 01-.12-.63 1.42 1.42 0 01.4-1 1.55 1.55 0 011.15-.4 5.19 5.19 0 01.68.05 5.73 5.73 0 01.69.16c.24.07.48.16.73.26l.81.35 1-2.31c-.33-.16-.66-.3-1-.42a9.42 9.42 0 00-1-.3 8.19 8.19 0 00-1-.2 8.1 8.1 0 00-1-.06 5.88 5.88 0 00-1.84.27 3.64 3.64 0 00-1.39.78 3.52 3.52 0 00-.9 1.2 4.49 4.49 0 00-.31 1.68 3.72 3.72 0 00.36 1.63 3.82 3.82 0 00.81 1.17 5.25 5.25 0 001 .81c.36.22.69.4 1 .56s.67.36.95.52a4.43 4.43 0 01.73.52 2 2 0 01.47.56 1.42 1.42 0 01.17.7 1.63 1.63 0 01-.1.59 1.1 1.1 0 01-.32.47 1.43 1.43 0 01-.56.31 2.9 2.9 0 01-.84.11 4.47 4.47 0 01-1-.1 8.64 8.64 0 01-1-.25c-.32-.11-.64-.24-1-.37l-.93-.43v2.76a7.14 7.14 0 001.75.63 9 9 0 002 .21 6.47 6.47 0 002-.29 4.14 4.14 0 001.51-.82 3.41 3.41 0 00.94-1.28 4.31 4.31 0 00.32-1.69 3.86 3.86 0 00-.1-1.42z"/></g></g></svg>