<svg xmlns="http://www.w3.org/2000/svg" viewBox="0 0 120 120"><defs><style>.cls-3{fill:#ffea27}.cls-4{mix-blend-mode:multiply}.cls-5{fill:#f4d314}.cls-6{fill:#95a6b1}</style></defs><g style="isolation:isolate"><g id="Capa_1" data-name="Capa 1"><path fill="none" d="M-.18.06h120.36v119.87H-.18z"/><path class="cls-3" d="M53.77 116.23h-18.2a2 2 0 010-4h18.2a2 2 0 010 4zm21.94 0H66.6a2 2 0 010-4h9.11a2 2 0 010 4zm12.8 0a2 2 0 01-1.42-.59 1.85 1.85 0 01-.43-.64 2 2 0 01-.15-.77 1.72 1.72 0 010-.39 1.58 1.58 0 01.11-.37 1.92 1.92 0 01.18-.35 2.48 2.48 0 01.25-.3 2.06 2.06 0 012.83 0 1.81 1.81 0 01.25.3 1.92 1.92 0 01.18.35 2.29 2.29 0 01.12.37 2.58 2.58 0 010 .39 2 2 0 01-.16.77 1.85 1.85 0 01-.43.64 2 2 0 01-1.33.59z"/><g class="cls-4"><path class="cls-5" d="M43.07 116.23H24.86a2 2 0 010-4h18.21a2 2 0 110 4z"/></g><path class="cls-3" d="M70.25 104H24.86a2 2 0 010-4h45.39a2 2 0 010 4z"/><g class="cls-4"><path class="cls-5" d="M24.86 104a2 2 0 01-2-2 2.09 2.09 0 01.15-.76 1.86 1.86 0 01.19-.34 1.48 1.48 0 01.25-.31 2 2 0 011.8-.55 2.4 2.4 0 01.38.12 2.21 2.21 0 01.34.18 2.42 2.42 0 01.31.25 2.6 2.6 0 01.25.31 1.83 1.83 0 01.18.34 2.09 2.09 0 01.15.76 2 2 0 01-.58 1.42 2 2 0 01-1.42.58z"/></g><g class="cls-4"><path class="cls-5" d="M88.51 104H62.75a2 2 0 010-4h25.76a2 2 0 010 4z"/></g><path class="cls-6" d="M65.32 70.53H9.07a2 2 0 110-4h54.25v-12.2H9.07a2 2 0 010-4h56.25a2 2 0 012 2v16.2a2 2 0 01-2 2z"/><path class="cls-6" d="M75.16 72.54h-9.82a2 2 0 01-2-2V50.32a2 2 0 012-2h9.82a2 2 0 012 2v20.22a2 2 0 01-2 2zm-7.82-4h5.82V52.32h-5.82zm-23.15 1.99a2 2 0 01-2-2v-4.48a2 2 0 014 0v4.48a2 2 0 01-2 2zm0-11.65a2 2 0 01-2-2v-4.55a2 2 0 014 0v4.55a2 2 0 01-2 2z"/><path class="cls-3" d="M20.8 45.5a9.49 9.49 0 118.62-13.44A9.44 9.44 0 0129.8 39a9.54 9.54 0 01-5.07 5.66 9.44 9.44 0 01-3.93.84zm0-15a5.43 5.43 0 00-2.28.5 5.5 5.5 0 104.57 10A5.41 5.41 0 0026 37.73a5.5 5.5 0 00-.21-4 5.52 5.52 0 00-5.01-3.22z"/><path class="cls-6" d="M55.23 54.33h-29a2 2 0 110-4h27V38.71h-18.7a2 2 0 010-4h20.7a2 2 0 012 2v15.62a2 2 0 01-2 2z"/><path class="cls-6" d="M40.71 38.71a2 2 0 01-2-2v-9.53a2 2 0 014 0v9.53a2 2 0 01-2 2z"/><path class="cls-6" d="M47.38 29.18H34.53a2 2 0 010-4h12.85a2 2 0 010 4zm7.85 17.34h-20.8a2 2 0 010-4h20.8a2 2 0 010 4zM85 72.53h-9.84a2 2 0 01-2-2V50.32a2 2 0 012-2H85a2 2 0 012 2v20.21a2 2 0 01-2 2zm-7.81-4H83V52.32h-5.84z"/><path class="cls-6" d="M80.74 52.32a2 2 0 01-2-2v-3.09a2 2 0 01.42-1.23l18.71-24a2 2 0 011.58-.77h13.87a2 2 0 010 4h-12.89L82.74 47.92v2.4a2 2 0 01-2 2zm0 40.24a2 2 0 01-2-2v-20a2 2 0 014 0v20a2 2 0 01-2 2z"/><path class="cls-6" d="M113.32 49.23H80.74a2 2 0 010-4h32.58a2 2 0 010 4zm-1.7 43.39H9.07a2 2 0 110-4h102.55a2 2 0 010 4z"/><path class="cls-6" d="M47.57 92.62H25.06a13 13 0 010-26.09h22.51a13 13 0 010 26.09zM25.06 70.53a9 9 0 000 18.09h22.51a9 9 0 000-18.09zM110.87 14a10.65 10.65 0 01-6.07-1.78 7.27 7.27 0 00-8.06 0 11.26 11.26 0 01-12.15 0 7.27 7.27 0 00-8.06 0 11.26 11.26 0 01-12.15 0 7.27 7.27 0 00-8.06 0A10.62 10.62 0 0150.25 14a10.66 10.66 0 01-6.08-1.78 7.27 7.27 0 00-8.06 0A10.66 10.66 0 0130 14a10.62 10.62 0 01-6-1.76 6.69 6.69 0 00-4-1.22 6.66 6.66 0 00-4 1.22A10.66 10.66 0 019.81 14a2 2 0 010-4 6.76 6.76 0 004-1.22A10.55 10.55 0 0119.92 7 10.58 10.58 0 0126 8.8a6.75 6.75 0 004 1.2 6.76 6.76 0 004-1.22A10.52 10.52 0 0140.14 7a10.58 10.58 0 016.08 1.8 7.27 7.27 0 008.06 0 11.26 11.26 0 0112.15 0 6.7 6.7 0 004 1.22 6.75 6.75 0 004-1.22 11.24 11.24 0 0112.14 0 6.75 6.75 0 004 1.22 6.7 6.7 0 004-1.22 11.26 11.26 0 0112.15 0 6.75 6.75 0 004 1.22 2 2 0 010 4z"/></g></g></svg>