<svg version="1.1" id="Capa_1" xmlns="http://www.w3.org/2000/svg" x="0" y="0" viewBox="0 0 120 120" xml:space="preserve"><style>.st1{fill:#ffea27}.st2{fill:#f4d314}.st3{fill:#95a6b1}</style><path fill="none" d="M0 0h120v120H0z"/><path class="st1" d="M57.09 115.06H38.88c-1.1 0-2-.9-2-2s.9-2 2-2h18.21c1.1 0 2 .9 2 2s-.9 2-2 2zm21.93 0h-9.1c-1.1 0-2-.9-2-2s.9-2 2-2h9.1c1.1 0 2 .9 2 2s-.9 2-2 2zm12.8 0c-.27 0-.52-.05-.77-.15-.24-.1-.46-.25-.64-.44a1.983 1.983 0 010-2.82c.46-.47 1.15-.68 1.8-.55.13.02.25.06.37.11s.24.11.35.19c.11.07.21.15.3.25.1.09.18.19.25.3.08.11.14.22.19.34s.08.25.11.38.04.26.04.39c0 .54-.21 1.04-.59 1.41-.37.38-.88.59-1.41.59z"/><path class="st2" d="M46.38 115.06h-18.2c-1.1 0-2-.9-2-2s.9-2 2-2h18.2c1.1 0 2 .9 2 2s-.9 2-2 2z"/><path class="st1" d="M73.56 102.83H28.18c-1.1 0-2-.9-2-2s.9-2 2-2h45.38c1.1 0 2 .9 2 2s-.9 2-2 2z"/><path class="st2" d="M28.18 102.83c-.27 0-.52-.05-.77-.15-.24-.1-.46-.25-.65-.44-.37-.37-.58-.88-.58-1.41 0-.53.21-1.04.58-1.41.1-.1.2-.18.31-.25s.22-.14.35-.19c.12-.05.24-.09.37-.11.65-.13 1.34.08 1.8.55.38.37.59.88.59 1.41 0 .54-.21 1.04-.59 1.41-.37.38-.88.59-1.41.59zm63.64 0H66.06c-1.1 0-2-.9-2-2s.9-2 2-2h25.76c1.1 0 2 .9 2 2s-.9 2-2 2z"/><path class="st3" d="M71.6 64.38c-15.42 0-27.96-12.54-27.96-27.96 0-15.41 12.54-27.95 27.96-27.95 1.74 0 3.48.16 5.17.48 1.29.24 2.14 1.49 1.9 2.78a2.385 2.385 0 01-2.78 1.9c-1.41-.26-2.85-.4-4.29-.4-12.79 0-23.2 10.4-23.2 23.19 0 12.79 10.41 23.2 23.2 23.2s23.19-10.41 23.19-23.2c0-1.31 1.07-2.38 2.38-2.38s2.38 1.07 2.38 2.38c0 15.42-12.54 27.96-27.95 27.96z"/><path class="st3" d="M107.47 91.34c-.76 0-1.51-.37-1.97-1.05L84.23 58.8a2.383 2.383 0 113.95-2.67l21.27 31.49a2.383 2.383 0 01-1.98 3.72zm-88.1.29c-.69 0-1.37-.3-1.84-.87L9.3 80.74c-.4-.49-.59-1.12-.53-1.75s.38-1.21.87-1.61l35.98-29.17a2.382 2.382 0 013 3.7L14.5 79.57l5.21 6.35 35.62-28.6a2.384 2.384 0 012.98 3.72L20.86 91.11c-.44.35-.97.52-1.49.52z"/><path d="M36.1 78.22c-.35 0-.71-.08-1.05-.25L22.26 71.7a2.386 2.386 0 01-1.09-3.19 2.386 2.386 0 013.19-1.09l12.79 6.28c1.18.58 1.67 2.01 1.09 3.19-.42.84-1.26 1.33-2.14 1.33zm11.98-9.6c-.35 0-.71-.08-1.05-.24l-12.8-6.28a2.386 2.386 0 01-1.09-3.19 2.386 2.386 0 013.19-1.09l12.8 6.28c1.18.58 1.67 2.01 1.09 3.19-.42.84-1.26 1.33-2.14 1.33z" fill="#94a5b0"/><path class="st3" d="M69.55 55.89c-.69 0-1.37-.3-1.84-.87L54.2 38.57c-.4-.49-.59-1.12-.53-1.74.06-.63.37-1.21.86-1.61l8.12-6.66a2.38 2.38 0 013.35.33l13.5 16.45c.4.49.59 1.12.53 1.74-.06.63-.37 1.21-.86 1.61l-8.12 6.66c-.43.36-.97.54-1.5.54zM59.39 37.38l10.49 12.77 4.44-3.64-10.49-12.77-4.44 3.64z"/><path class="st3" d="M80.54 51.89c-1.11 0-2.22-.48-2.98-1.4L60.58 29.78c-1.35-1.63-1.11-4.07.53-5.43l3.45-2.83a3.858 3.858 0 015.43.53l16.99 20.69c1.33 1.67 1.08 4.1-.54 5.44l-.01.01-3.44 2.82c-.72.59-1.59.88-2.45.88zm-.58-4.56zM64.83 27.46l15.82 19.3 2.06-1.69-15.84-19.29-2.04 1.68zm20.08 18.89zm-20.65-19.6c0 .01 0 .01 0 0zm3.31-1.54zM60.23 61.7a2.38 2.38 0 01-1.51-4.22l6.58-5.4-8.89-10.82-6.89 5.66a2.38 2.38 0 01-3.35-.33 2.38 2.38 0 01.33-3.35l8.73-7.17a2.37 2.37 0 013.35.33l11.91 14.5c.4.49.59 1.12.53 1.74-.06.63-.37 1.21-.86 1.61l-8.42 6.91c-.44.36-.98.54-1.51.54z"/><path class="st1" d="M90.33 30.42c-3.61 0-7.06-2.06-8.65-5.54a9.448 9.448 0 01-.26-7.27 9.46 9.46 0 014.95-5.33c4.77-2.18 10.41-.07 12.59 4.69 1 2.18 1.13 4.64.38 6.93-.82 2.49-2.67 4.55-5.06 5.66a9.61 9.61 0 01-3.95.86zm-.03-15c-.76 0-1.54.16-2.28.5-1.33.61-2.35 1.7-2.86 3.08-.51 1.38-.46 2.87.15 4.21 1.26 2.75 4.53 3.97 7.29 2.71a5.521 5.521 0 002.93-3.28 5.45 5.45 0 00-.22-4.01 5.497 5.497 0 00-5.01-3.21z"/></svg>