<svg xmlns="http://www.w3.org/2000/svg" width="120" height="120"><g data-name="01-icon_ocenza_hitos_hitos-1"><g data-name="Capa 1"><path data-name="Rectángulo 2938" fill="none" d="M0 0h120v120H0z"/><path data-name="Trazado 7003" d="M54 115.86H35.74a2 2 0 010-4H54a2 2 0 110 4z" fill="#ffea27"/><path data-name="Trazado 7004" d="M75.88 115.86h-9.1a2 2 0 010-4h9.1a2 2 0 010 4z" fill="#ffea27"/><path data-name="Trazado 7005" d="M88.68 115.86a1.72 1.72 0 01-.39 0 1.66 1.66 0 01-.38-.11 2.211 2.211 0 01-.34-.18 2.51 2.51 0 01-.31-.26 2 2 0 010-2.82 2.06 2.06 0 012.83 0 2 2 0 01.44 2.18 1.88 1.88 0 01-.44.64 2 2 0 01-1.41.55z" fill="#ffea27"/><g data-name="Grupo 8562"><path data-name="Trazado 7006" d="M43.24 115.86H25a2 2 0 010-4h18.2a2 2 0 110 4z" fill="#f4d314"/></g><path data-name="Trazado 7007" d="M70.42 103.64H25a2 2 0 110-4h45.42a2 2 0 010 4z" fill="#ffea27"/><g data-name="Grupo 8563"><path data-name="Trazado 7008" d="M25 103.64a2.019 2.019 0 11.39-4 2.651 2.651 0 01.37.12 2.31 2.31 0 01.35.18 2.48 2.48 0 01.3.25 2.339 2.339 0 01.25.3 2.31 2.31 0 01.18.35 2.65 2.65 0 01.12.37 2.6 2.6 0 010 .4 2 2 0 01-2 2z" fill="#f4d314"/></g><g data-name="Grupo 8564"><path data-name="Trazado 7009" d="M88.68 103.64H62.92a2 2 0 110-4h25.76a2 2 0 010 4z" fill="#f4d314"/></g><path data-name="Trazado 7010" d="M104.78 75.13h-10a2 2 0 01-2-2V48.3a2 2 0 012-2h10a2 2 0 012 2v24.83a2 2 0 01-2 2zm-8-4h6V50.3h-6z" fill="#95a6b1"/><path data-name="Trazado 7011" d="M111.69 80.05h-5.19a3.73 3.73 0 01-3.72-3.72V45.1a3.73 3.73 0 013.72-3.72h5.19a3.73 3.73 0 013.72 3.72v31.23a3.73 3.73 0 01-3.72 3.72zm-4.91-4h4.63V45.38h-4.63z" fill="#95a6b1"/><path data-name="Trazado 7012" d="M29.76 75.13h-8.7a2 2 0 01-2-2V48.3a2 2 0 012-2h8.7a2 2 0 012 2v24.83a2 2 0 01-2 2zm-6.7-4h4.7V50.3h-4.7z" fill="#95a6b1"/><path data-name="Trazado 7013" d="M19.34 80.05h-5.19a3.73 3.73 0 01-3.72-3.72V45.1a3.73 3.73 0 013.72-3.72h5.19a3.73 3.73 0 013.72 3.72v31.23a3.73 3.73 0 01-3.72 3.72zm-4.91-4h4.63V45.38h-4.63z" fill="#95a6b1"/><path data-name="Trazado 7014" d="M94.77 73.48h-65a2 2 0 01-2-2V49.59a2 2 0 012-2h65a2 2 0 012 2v21.89a2 2 0 01-2 2zm-63-4h61V51.59h-61z" fill="#95a6b1"/><path data-name="Trazado 7015" d="M43.54 37a9.5 9.5 0 118.63-13.45A9.5 9.5 0 0143.54 37zm0-15a5.514 5.514 0 11-.02 0z" fill="#ffea27"/><path data-name="Trazado 7016" d="M23.25 33.7a5.94 5.94 0 01-4.8-2.7c-.82-1-1.11-1.26-1.71-1.26a2 2 0 010-4 6 6 0 014.81 2.74c.82 1 1.11 1.26 1.7 1.26s.88-.25 1.71-1.26a5.94 5.94 0 014.8-2.74 2 2 0 110 4c-.6 0-.88.25-1.7 1.26a6 6 0 01-4.81 2.7z" fill="#95a6b1"/><path data-name="Trazado 7017" d="M109.1 33.7a9.23 9.23 0 01-6.34-2.43 5.57 5.57 0 00-7.75 0 9.49 9.49 0 01-12.68 0 5.54 5.54 0 00-7.74 0 9.53 9.53 0 01-12.69 0A5.43 5.43 0 0058 29.7a2 2 0 010-4 9.26 9.26 0 016.34 2.43 5.57 5.57 0 007.75 0 9.49 9.49 0 0112.68 0 5.57 5.57 0 007.75 0 9.49 9.49 0 0112.68 0 5.43 5.43 0 003.87 1.57 2 2 0 110 4z" fill="#95a6b1"/><path data-name="Trazado 7018" d="M65.6 73.44H29.76a2 2 0 01-2-2V49.59a2 2 0 012-2h12.3A2 2 0 0144 49c.79 2.71 1.71 5.72 2.22 7.21a32.08 32.08 0 004.29-1 2 2 0 012.35 1l2.46 5.21h6.47a2 2 0 011.77 1.11l3.86 8a2 2 0 01-1.77 2.81zm-33.87-3.93h30.75l-2-4.09H54a2 2 0 01-1.78-1.13L50 59.47c-5.39 1.44-6.39.57-7-.55-.41-.78-1.54-4.5-2.4-7.36h-8.87z" fill="#95a6b1"/><path data-name="Trazado 7019" d="M111.91 62.68H72.69a2 2 0 110-3.93h39.22a2 2 0 010 3.93z" fill="#95a6b1"/><path data-name="Trazado 7020" d="M75.86 67.74a2 2 0 01-2-2V55.65a2 2 0 113.93 0v10.13a2 2 0 01-1.93 1.96z" fill="#95a6b1"/><path data-name="Trazado 7021" d="M83.24 67.74a2 2 0 01-2-2V55.65a2 2 0 113.93 0v10.13a2 2 0 01-1.93 1.96z" fill="#95a6b1"/><path data-name="Trazado 7022" d="M39 67.3a2 2 0 01-1.48-.67l-2.17-2.49a2 2 0 013-2.58L40.51 64A2 2 0 0139 67.3z" fill="#95a6b1"/><path data-name="Trazado 7023" d="M46.09 68.78a2.16 2.16 0 01-.65-.11 2 2 0 01-1.21-2.5l1.23-3.52a2 2 0 013.71 1.29l-1.23 3.52a2 2 0 01-1.85 1.32z" fill="#95a6b1"/><path data-name="Trazado 7024" d="M35.1 59a1.956 1.956 0 01-.79-3.75l3.2-1.48a2 2 0 011.65 3.57l-3.2 1.47a1.89 1.89 0 01-.86.19z" fill="#95a6b1"/></g></g></svg>