<svg xmlns="http://www.w3.org/2000/svg" width="120" height="119.87"><g data-name="02-icon_ocenza_home_monoboya"><g data-name="Capa 1"><path data-name="Rectángulo 2937" fill="none" d="M0 0h120v119.87H0z"/><path data-name="Trazado 6965" d="M58.67 116.23H40.52a2 2 0 110-4h18.2a2 2 0 010 4z" fill="#ffea27"/><path data-name="Trazado 6966" d="M80.6 116.23h-9.08a2 2 0 010-4h9.1a2 2 0 010 4z" fill="#ffea27"/><path data-name="Trazado 6967" d="M93.4 116.24a2 2 0 01-1.88-1.24 1.82 1.82 0 01-.16-.76 2.578 2.578 0 010-.4 2.649 2.649 0 01.12-.37 2.31 2.31 0 01.18-.35 1.809 1.809 0 01.25-.3 2.06 2.06 0 012.83 0 2.48 2.48 0 01.25.3 2.309 2.309 0 01.18.35 1.73 1.73 0 01.11.37 1.749 1.749 0 010 .4 2 2 0 01-.15.76 2.16 2.16 0 01-.43.65 2 2 0 01-1.3.59z" fill="#ffea27"/><g data-name="Grupo 8553"><path data-name="Trazado 6968" d="M47.97 116.23H29.76a2 2 0 110-4h18.21a2 2 0 010 4z" fill="#f4d314"/></g><path data-name="Trazado 6969" d="M75.15 104.01H29.76a2 2 0 110-4h45.39a2 2 0 010 4z" fill="#ffea27"/><g data-name="Grupo 8554"><path data-name="Trazado 6970" d="M29.76 104.01a2 2 0 01-2-2 1.72 1.72 0 010-.39 1.66 1.66 0 01.11-.38 1.63 1.63 0 01.19-.34 1.76 1.76 0 01.24-.3 2 2 0 011.81-.55 1.58 1.58 0 01.37.11 1.48 1.48 0 01.35.19 2.16 2.16 0 01.55.55 2.27 2.27 0 01.19.34 2.379 2.379 0 01.11.38 1.72 1.72 0 010 .39 2 2 0 01-2 2z" fill="#f4d314"/></g><g data-name="Grupo 8555"><path data-name="Trazado 6971" d="M93.4 104.01H67.64a2 2 0 010-4H93.4a2 2 0 010 4z" fill="#f4d314"/></g><path data-name="Trazado 6972" d="M109.15 76.81c-3.88 0-5.91-2-7.54-3.57-1.44-1.41-2.49-2.43-4.74-2.43s-3.3 1-4.75 2.43c-1.6 1.59-3.6 3.57-7.54 3.57s-5.91-2-7.54-3.57c-1.44-1.41-2.48-2.43-4.74-2.43s-3.3 1-4.74 2.43c-1.63 1.59-3.66 3.57-7.54 3.57s-5.92-2-7.55-3.57c-1.44-1.41-2.49-2.43-4.74-2.43s-3.3 1-4.75 2.43c-1.63 1.59-3.65 3.57-7.54 3.57s-5.91-2-7.54-3.57c-1.45-1.41-2.49-2.43-4.75-2.43s-3.31 1-4.75 2.43c-1.63 1.59-3.66 3.57-7.55 3.57a2 2 0 010-4c2.26 0 3.31-1 4.75-2.44 1.63-1.59 3.66-3.56 7.55-3.56s5.91 2 7.54 3.56c1.45 1.42 2.49 2.44 4.75 2.44s3.3-1 4.75-2.43c1.62-1.59 3.65-3.57 7.54-3.57s5.91 2 7.54 3.57c1.44 1.41 2.49 2.43 4.75 2.43s3.3-1 4.74-2.43c1.63-1.59 3.65-3.57 7.54-3.57s5.91 2 7.54 3.57c1.44 1.41 2.49 2.43 4.74 2.43s3.3-1 4.75-2.43c1.63-1.59 3.65-3.57 7.54-3.57s5.91 2 7.54 3.57c1.44 1.41 2.49 2.43 4.74 2.43a2 2 0 010 4z" fill="#95a6b1"/><path data-name="Trazado 6973" d="M109.15 88.23c-3.88 0-5.91-2-7.54-3.57-1.44-1.41-2.49-2.43-4.74-2.43s-3.3 1-4.75 2.43c-1.6 1.59-3.6 3.57-7.54 3.57s-5.91-2-7.54-3.57c-1.44-1.41-2.48-2.43-4.74-2.43s-3.3 1-4.74 2.43c-1.63 1.59-3.66 3.57-7.54 3.57s-5.92-2-7.55-3.57c-1.44-1.41-2.49-2.43-4.74-2.43s-3.3 1-4.75 2.43c-1.63 1.59-3.65 3.57-7.54 3.57s-5.91-2-7.54-3.57c-1.45-1.41-2.49-2.43-4.75-2.43s-3.31 1-4.75 2.43c-1.63 1.59-3.66 3.57-7.55 3.57a2 2 0 010-4c2.26 0 3.31-1 4.75-2.43 1.63-1.59 3.66-3.57 7.55-3.57s5.91 2 7.54 3.57c1.45 1.41 2.49 2.43 4.75 2.43s3.3-1 4.75-2.43c1.62-1.59 3.65-3.57 7.54-3.57s5.91 2 7.54 3.57c1.44 1.41 2.49 2.43 4.75 2.43s3.3-1 4.74-2.43c1.63-1.59 3.65-3.57 7.54-3.57s5.91 2 7.54 3.57c1.44 1.41 2.49 2.43 4.74 2.43s3.3-1 4.75-2.43c1.63-1.59 3.65-3.57 7.54-3.57s5.91 2 7.54 3.57c1.44 1.41 2.49 2.43 4.74 2.43a2 2 0 010 4z" fill="#95a6b1"/><path data-name="Trazado 6974" d="M42.87 65.34H30.96a2 2 0 010-4h11.91a2 2 0 010 4z" fill="#95a6b1"/><path data-name="Trazado 6975" d="M83.97 42.52a2.03 2.03 0 01-1.45-3.42 2.08 2.08 0 012.83 0 2 2 0 01-1.41 3.42z" fill="#95a6b1"/><path data-name="Trazado 6976" d="M68.58 42.52h-36a2 2 0 01-2-2v-6.3a2 2 0 014 0v4.3h34a2 2 0 010 4z" fill="#95a6b1"/><path data-name="Trazado 6977" d="M32.34 30.39a9.51 9.51 0 113.93-.86 9.33 9.33 0 01-3.93.86zm0-15a5.473 5.473 0 105.18 7.23 5.46 5.46 0 00-.22-4 5.5 5.5 0 00-4.99-3.22z" fill="#ffea27"/><path data-name="Trazado 6978" d="M90.31 42.52h-6.34a2 2 0 010-4h4.34v-17a.36.36 0 00-.36-.36H46.23a2 2 0 010-4h41.72a4.37 4.37 0 014.36 4.36v19a2 2 0 01-2 2z" fill="#95a6b1"/><path data-name="Trazado 6979" d="M80.52 21.18H51.78a2 2 0 01-2-2v-6.93a4.24 4.24 0 014.24-4.24h24.55a3.93 3.93 0 013.95 3.93v7.24a2 2 0 01-2 2zm-26.72-4h24.72v-5.17h-24.5a.24.24 0 00-.24.24zm24.79-5.17z" fill="#95a6b1"/><path data-name="Trazado 6980" d="M90.4 29.14H45.52a2 2 0 010-4H90.4a2 2 0 010 4z" fill="#95a6b1"/><path data-name="Trazado 6981" d="M23.2 70.09a2 2 0 01-2-2V43.23a4.71 4.71 0 014.7-4.69h42.68a2 2 0 010 4H25.9a.69.69 0 00-.7.69v24.86a2 2 0 01-2 2z" fill="#95a6b1"/><path data-name="Trazado 6982" d="M100.27 71.72a2 2 0 01-2-2V42.86a.33.33 0 00-.33-.32h-14a2 2 0 010-4h14a4.33 4.33 0 014.32 4.32v26.86a2 2 0 01-1.99 2z" fill="#95a6b1"/><path data-name="Trazado 6983" d="M23.21 49.8a2 2 0 110-4H50.6a2 2 0 010 4z" fill="#95a6b1"/><path data-name="Línea 1774" fill="#fff" d="M42.88 47.77v22.67"/><path data-name="Trazado 6984" d="M42.88 72.44a2 2 0 01-2-2V47.77a2 2 0 014 0v22.67a2 2 0 01-2 2z" fill="#95a6b1"/><path data-name="Trazado 6985" d="M42.87 56.87H30.96a2 2 0 110-4h11.91a2 2 0 110 4z" fill="#95a6b1"/><path data-name="Trazado 6986" d="M30.92 74.81a2 2 0 01-2-2v-25a2 2 0 014 0v25a2 2 0 01-2 2z" fill="#95a6b1"/><path data-name="Trazado 6987" d="M50.6 70.65a2 2 0 01-2-2V40.52a2 2 0 014 0v28.13a2 2 0 01-2 2z" fill="#95a6b1"/><path data-name="Trazado 6988" d="M83.94 54.33H68.52a2 2 0 01-2-2V40.58a2 2 0 012-2 2 2 0 012 2v9.74h11.42v-9.76a2 2 0 114 0v11.77a2 2 0 01-2 2z" fill="#95a6b1"/><path data-name="Trazado 6989" d="M59.09 21.18a2 2 0 01-2-2v-9.17a2 2 0 114 0v9.17a2 2 0 01-2 2z" fill="#95a6b1"/><path data-name="Trazado 6990" d="M66.14 21.18a2 2 0 01-2-2v-9.17a2 2 0 114 0v9.17a2 2 0 01-2 2z" fill="#95a6b1"/><path data-name="Trazado 6991" d="M73.43 21.18a2 2 0 01-2-2v-9.17a2 2 0 114 0v9.17a2 2 0 01-2 2z" fill="#95a6b1"/><path data-name="Trazado 6992" d="M92.12 55.11a2 2 0 01-2-2V40.56a2 2 0 114 0v12.55a2 2 0 01-2 2z" fill="#95a6b1"/><path data-name="Trazado 6993" d="M59.57 55.11a2 2 0 01-2-2V40.56a2 2 0 114 0v12.55a2 2 0 01-2 2z" fill="#95a6b1"/></g></g></svg>