<svg version="1.1" id="Capa_1" xmlns="http://www.w3.org/2000/svg" x="0" y="0" viewBox="0 0 120 120" xml:space="preserve"><style>.st1{fill:#ffea27}.st2{fill:#f4d314}.st3{fill:#95a6b1}</style><path fill="none" d="M0 0h120v120H0z"/><path class="st1" d="M57.09 115.06H38.88c-1.1 0-2-.9-2-2s.9-2 2-2h18.21c1.1 0 2 .9 2 2s-.9 2-2 2zm21.93 0h-9.1c-1.1 0-2-.9-2-2s.9-2 2-2h9.1c1.1 0 2 .9 2 2s-.9 2-2 2zm12.8 0c-.27 0-.52-.05-.77-.15-.24-.1-.46-.25-.64-.44a1.983 1.983 0 010-2.82c.46-.47 1.15-.68 1.8-.55.13.02.25.06.37.11s.24.11.35.19c.11.07.21.15.3.25.1.09.18.19.25.3.08.11.14.22.19.34s.08.25.11.38.04.26.04.39c0 .54-.21 1.04-.59 1.41-.37.38-.88.59-1.41.59z"/><path class="st2" d="M46.38 115.06h-18.2c-1.1 0-2-.9-2-2s.9-2 2-2h18.2c1.1 0 2 .9 2 2s-.9 2-2 2z"/><path class="st1" d="M73.56 102.83H28.18c-1.1 0-2-.9-2-2s.9-2 2-2h45.38c1.1 0 2 .9 2 2s-.9 2-2 2z"/><path class="st2" d="M28.18 102.83c-.27 0-.52-.05-.77-.15-.24-.1-.46-.25-.65-.44-.37-.37-.58-.88-.58-1.41 0-.53.21-1.04.58-1.41.1-.1.2-.18.31-.25s.22-.14.35-.19c.12-.05.24-.09.37-.11.65-.13 1.34.08 1.8.55.38.37.59.88.59 1.41 0 .54-.21 1.04-.59 1.41-.37.38-.88.59-1.41.59zm63.64 0H66.06c-1.1 0-2-.9-2-2s.9-2 2-2h25.76c1.1 0 2 .9 2 2s-.9 2-2 2z"/><path class="st1" d="M57.07 20.75c-3.61 0-7.06-2.06-8.65-5.54-2.17-4.77-.07-10.41 4.69-12.59C57.88.44 63.52 2.55 65.7 7.31c1 2.18 1.13 4.64.38 6.93-.82 2.49-2.67 4.55-5.06 5.66-1.29.57-2.63.85-3.95.85zm-.03-15c-.76 0-1.54.16-2.28.5-2.75 1.26-3.97 4.53-2.71 7.29 1.26 2.75 4.53 3.97 7.29 2.71a5.521 5.521 0 002.93-3.28 5.45 5.45 0 00-.22-4.01 5.514 5.514 0 00-5.01-3.21z"/><path class="st3" d="M49.07 54.96h-9.09c-1.1 0-2-.9-2-2s.9-2 2-2h9.09c1.1 0 2 .9 2 2s-.9 2-2 2zm59.58 16.34H63.06c-1.1 0-2-.9-2-2s.9-2 2-2h43.59V54.96h-43c-1.1 0-2-.9-2-2s.9-2 2-2h45c1.1 0 2 .9 2 2V69.3c0 1.1-.9 2-2 2zm-59.06 0h-9.61c-1.1 0-2-.9-2-2s.9-2 2-2h9.61c1.1 0 2 .9 2 2s-.9 2-2 2zm28.83-38.96H39.74c-1.1 0-2-.9-2-2s.9-2 2-2h36.68V16h-5.67c-1.1 0-2-.9-2-2s.9-2 2-2h7.67c1.1 0 2 .9 2 2v16.34c0 1.1-.9 2-2 2z"/><path class="st3" d="M57.1 32.01c-1.1 0-2-.9-2-2v-5c0-1.1.9-2 2-2s2 .9 2 2v5c0 1.1-.9 2-2 2zM43.45 16.03h-5.23c-1.1 0-2-.9-2-2s.9-2 2-2h5.23c1.1 0 2 .9 2 2s-.9 2-2 2zM28.56 43.84c-1.1 0-2-.9-2-2 0-7.41 6.03-13.44 13.44-13.44 1.1 0 2 .9 2 2s-.9 2-2 2c-5.21 0-9.44 4.23-9.44 9.44 0 1.1-.9 2-2 2zm10.51 27.47c-5.03 0-9.03-.91-13-2.94-.98-.5-1.37-1.71-.87-2.69.5-.98 1.71-1.37 2.69-.87 3.37 1.73 6.81 2.5 11.17 2.5l9.91-.01a2 2 0 110 4l-9.9.01z"/><path class="st3" d="M16.22 59.47c-.61 0-1.21-.28-1.6-.8-3.6-4.8-5.27-10.23-5.27-17.08 0-16.3 13.28-29.57 29.61-29.57 1.1 0 2 .9 2 2s-.9 2-2 2c-14.12 0-25.61 11.47-25.61 25.57 0 6.03 1.38 10.55 4.47 14.68.66.88.48 2.14-.4 2.8-.36.27-.78.4-1.2.4zm69.11 11.5c-1.1 0-2-.9-2-2v-15c0-1.1.9-2 2-2s2 .9 2 2v15c0 1.1-.9 2-2 2z"/><path class="st3" d="M35.13 32.61c-.71 0-1.39-.38-1.76-1.04L25.9 17.93A2.004 2.004 0 0129.41 16l7.48 13.64a2.006 2.006 0 01-1.76 2.97zm21.31 45.16c-3.27 0-7.01-1.76-7.42-1.96a1.993 1.993 0 01-1.13-1.8V48.35c0-.48.18-.95.49-1.32.28-.32 2.89-3.13 8.23-3.13 5.41 0 7.8 2.9 8.05 3.23.27.35.42.78.42 1.22v25.66c0 .77-.45 1.48-1.15 1.81-.42.2-4.24 1.95-7.49 1.95zm6.64-3.76zm-11.19-1.32c1.26.49 3.11 1.08 4.55 1.08 1.45 0 3.35-.6 4.64-1.09V49.2c-.64-.49-2.06-1.3-4.47-1.3-2.44 0-3.98.83-4.72 1.36v23.43zm-28.47-1.58c-.2 0-.41-.03-.61-.1-.45-.14-4.42-1.46-6.81-3.67-2.4-2.23-3.95-6.06-4.11-6.49-.28-.72-.13-1.53.4-2.09l17.46-18.79c.33-.35.78-.58 1.26-.63.43-.04 4.25-.33 8.16 3.3 3.97 3.68 3.74 7.44 3.7 7.85-.04.44-.23.85-.53 1.17L24.89 70.47c-.39.42-.92.64-1.47.64zm-7.31-10.59c.59 1.22 1.55 2.91 2.61 3.89 1.06.98 2.86 1.84 4.14 2.36l15.97-17.2c-.13-.8-.62-2.35-2.39-3.99-1.79-1.67-3.48-2.11-4.38-2.22L16.11 60.52zm89.58 28.01c-3.25 0-4.98-1.34-6.36-2.42-1.17-.92-2.02-1.58-3.9-1.58s-2.73.66-3.9 1.58c-1.38 1.08-3.11 2.42-6.36 2.42s-4.98-1.34-6.36-2.42c-1.17-.92-2.02-1.58-3.9-1.58s-2.73.66-3.9 1.58c-1.38 1.08-3.11 2.42-6.36 2.42s-4.98-1.34-6.36-2.42c-1.17-.92-2.02-1.58-3.9-1.58s-2.73.66-3.9 1.58c-1.38 1.08-3.11 2.42-6.36 2.42s-4.98-1.34-6.36-2.42c-1.17-.92-2.02-1.58-3.9-1.58s-2.73.66-3.9 1.58c-1.39 1.08-3.11 2.42-6.37 2.42s-4.98-1.34-6.36-2.42c-1.17-.92-2.02-1.58-3.91-1.58-1.1 0-2-.9-2-2s.9-2 2-2c3.26 0 4.98 1.34 6.36 2.42 1.17.92 2.02 1.58 3.91 1.58 1.88 0 2.73-.66 3.91-1.58 1.38-1.08 3.11-2.42 6.36-2.42 3.25 0 4.98 1.34 6.36 2.42 1.17.92 2.02 1.58 3.9 1.58s2.73-.66 3.9-1.58c1.38-1.08 3.11-2.42 6.36-2.42 3.25 0 4.98 1.34 6.36 2.42 1.17.92 2.02 1.58 3.9 1.58s2.73-.66 3.9-1.58c1.38-1.08 3.11-2.42 6.36-2.42s4.98 1.34 6.36 2.42c1.17.92 2.02 1.58 3.9 1.58s2.73-.66 3.9-1.58c1.38-1.08 3.11-2.42 6.36-2.42 3.25 0 4.98 1.34 6.36 2.42 1.17.92 2.02 1.58 3.9 1.58 1.1 0 2 .9 2 2s-.9 2-2 2z"/></svg>