<svg xmlns="http://www.w3.org/2000/svg" width="120" height="120"><g data-name="01-icon_ocenza_hitos_hitos-9"><g data-name="Capa 1"><path data-name="Rectángulo 2946" fill="none" d="M0 0h120v120H0z"/><path data-name="Trazado 7262" d="M54 115.86H35.74a2 2 0 010-4H54a2 2 0 110 4z" fill="#ffea27"/><path data-name="Trazado 7263" d="M75.88 115.86h-9.1a2 2 0 010-4h9.1a2 2 0 010 4z" fill="#ffea27"/><path data-name="Trazado 7264" d="M88.68 115.86a2 2 0 01-2-2 1.72 1.72 0 010-.39 2.38 2.38 0 01.11-.38 1.631 1.631 0 01.19-.34 1.79 1.79 0 01.25-.31 2.07 2.07 0 012.82 0 2 2 0 01-1.41 3.42z" fill="#ffea27"/><g data-name="Grupo 8586"><path data-name="Trazado 7265" d="M43.24 115.86H25a2 2 0 010-4h18.2a2 2 0 110 4z" fill="#f4d314"/></g><path data-name="Trazado 7266" d="M70.42 103.64H25a2 2 0 110-4h45.42a2 2 0 010 4z" fill="#ffea27"/><g data-name="Grupo 8587"><path data-name="Trazado 7267" d="M25 103.63a2 2 0 01-2-2 1.72 1.72 0 010-.39 1.58 1.58 0 01.11-.37 2.31 2.31 0 01.18-.35 2.48 2.48 0 01.25-.3 1.89 1.89 0 01.31-.25 1.83 1.83 0 01.34-.18 2.4 2.4 0 01.38-.12 2 2 0 01.78 0 2.649 2.649 0 01.37.12 2.309 2.309 0 01.35.18 2.341 2.341 0 01.3.25 2 2 0 01.59 1.41 2.08 2.08 0 01-.59 1.42 2 2 0 01-1.37.58z" fill="#f4d314"/></g><g data-name="Grupo 8588"><path data-name="Trazado 7268" d="M88.68 103.64H62.92a2 2 0 110-4h25.76a2 2 0 010 4z" fill="#f4d314"/></g><path data-name="Trazado 7269" d="M60 56.05a2 2 0 01-2-2v-9.71a2 2 0 014 0v9.71a2 2 0 01-2 2z" fill="#95a6b1"/><path data-name="Trazado 7270" d="M60 58.81a2 2 0 01-1.41-.58l-4-4a2 2 0 012.83-2.82L60 54l2.56-2.55a2 2 0 012.83 2.82l-4 4a2 2 0 01-1.39.54z" fill="#95a6b1"/><path data-name="Trazado 7271" d="M29.45 81h-3.23a2 2 0 010-4h3.23a2 2 0 010 4z" fill="#95a6b1"/><path data-name="Trazado 7272" d="M93.93 81.48H90.7a2 2 0 010-4h3.23a2 2 0 010 4z" fill="#95a6b1"/><path data-name="Trazado 7273" d="M93.92 86.05H26.07a2 2 0 01-2-2V62.74a2 2 0 012-2h67.85a2 2 0 012 2v21.31a2 2 0 01-2 2zm-65.85-4h63.85V64.74H28.07z" fill="#95a6b1"/><path data-name="Trazado 7274" d="M26.07 88.06h-9.82a2 2 0 01-2-2V60.74a2 2 0 012-2h9.82a2 2 0 012 2v25.32a2 2 0 01-2 2zm-7.82-4h5.82V62.74h-5.82z" fill="#95a6b1"/><path data-name="Trazado 7275" d="M29.41 75.4h-3.19a2 2 0 010-4h3.19a2 2 0 010 4z" fill="#95a6b1"/><path data-name="Trazado 7276" d="M29.45 69.81h-3.23a2 2 0 010-4h3.23a2 2 0 010 4z" fill="#95a6b1"/><path data-name="Trazado 7277" d="M103.75 88.06h-9.82a2 2 0 01-2-2V60.74a2 2 0 012-2h9.82a2 2 0 012 2v25.32a2 2 0 01-2 2zm-7.82-4h5.82V62.74h-5.82z" fill="#95a6b1"/><path data-name="Trazado 7278" d="M93.93 75.4h-3.29a2 2 0 010-4h3.29a2 2 0 010 4z" fill="#95a6b1"/><path data-name="Trazado 7279" d="M93.93 69.3H90.7a2 2 0 010-4h3.23a2 2 0 010 4z" fill="#95a6b1"/><path data-name="Trazado 7280" d="M64.28 86.05a2 2 0 01-2-2v-9.58a2 2 0 014 0v9.58a2 2 0 01-2 2z" fill="#95a6b1"/><path data-name="Trazado 7281" d="M64.28 69.3a2 2 0 01-2-2v-4.56a2 2 0 014 0v4.56a2 2 0 01-2 2z" fill="#95a6b1"/><path data-name="Trazado 7282" d="M44.57 26.53a9.579 9.579 0 113.95-.88 9.5 9.5 0 01-3.95.88zm0-15a5.42 5.42 0 00-2.29.51 5.5 5.5 0 107.29 2.71 5.46 5.46 0 00-3.08-2.87 5.57 5.57 0 00-1.92-.36z" fill="#ffea27"/><path data-name="Trazado 7283" d="M60 46.34a20.35 20.35 0 01-19.88-16.18 2 2 0 013.92-.8 16.27 16.27 0 1011.14-18.87A2 2 0 0154 6.67a20.29 20.29 0 116 39.67z" fill="#95a6b1"/><path data-name="Trazado 7284" d="M60 28.06a2 2 0 01-1.41-3.42l6.36-6.36a2 2 0 012.83 2.82l-6.36 6.37a2 2 0 01-1.42.59z" fill="#95a6b1"/><path data-name="Trazado 7285" d="M60 13.28a2 2 0 01-2-2V7.77a2 2 0 114 0v3.51a2 2 0 01-2 2z" fill="#95a6b1"/><path data-name="Trazado 7286" d="M60 46.34a2 2 0 01-2-2v-3.51a2 2 0 014 0v3.51a2 2 0 01-2 2z" fill="#95a6b1"/><path data-name="Trazado 7287" d="M78.29 28.06h-3.52a2 2 0 010-4h3.52a2 2 0 010 4z" fill="#95a6b1"/><path data-name="Trazado 7288" d="M70.45 17.61A2 2 0 0169 14.19l2.49-2.48a2 2 0 112.82 2.83L71.86 17a2 2 0 01-1.41.61z" fill="#95a6b1"/><path data-name="Trazado 7289" d="M47.07 41a2 2 0 01-1.41-3.42l2.48-2.48A2.008 2.008 0 0151 37.92l-2.52 2.48a2 2 0 01-1.41.6z" fill="#95a6b1"/><path data-name="Trazado 7290" d="M72.93 41a2 2 0 01-1.41-.59L69 37.92a2 2 0 012.83-2.83l2.48 2.48A2 2 0 0172.93 41z" fill="#95a6b1"/></g></g></svg>