<svg version="1.1" id="Capa_1" xmlns="http://www.w3.org/2000/svg" x="0" y="0" viewBox="0 0 120 120" xml:space="preserve"><style>.st1{fill:#ffea27}.st2{fill:#f4d314}.st3{fill:#95a6b1}</style><path fill="none" d="M0 0h120v120H0z"/><path class="st1" d="M57.09 115.06H38.88c-1.1 0-2-.9-2-2s.9-2 2-2h18.21c1.1 0 2 .9 2 2s-.9 2-2 2zm21.93 0h-9.1c-1.1 0-2-.9-2-2s.9-2 2-2h9.1c1.1 0 2 .9 2 2s-.9 2-2 2zm12.8 0c-.27 0-.52-.05-.77-.15-.24-.1-.46-.25-.64-.44a1.983 1.983 0 010-2.82c.46-.47 1.15-.68 1.8-.55.13.02.25.06.37.11s.24.11.35.19c.11.07.21.15.3.25.1.09.18.19.25.3.08.11.14.22.19.34s.08.25.11.38.04.26.04.39c0 .54-.21 1.04-.59 1.41-.37.38-.88.59-1.41.59z"/><path class="st2" d="M46.38 115.06h-18.2c-1.1 0-2-.9-2-2s.9-2 2-2h18.2c1.1 0 2 .9 2 2s-.9 2-2 2z"/><path class="st1" d="M73.56 102.83H28.18c-1.1 0-2-.9-2-2s.9-2 2-2h45.38c1.1 0 2 .9 2 2s-.9 2-2 2z"/><path class="st2" d="M28.18 102.83c-.27 0-.52-.05-.77-.15-.24-.1-.46-.25-.65-.44-.37-.37-.58-.88-.58-1.41 0-.53.21-1.04.58-1.41.1-.1.2-.18.31-.25s.22-.14.35-.19c.12-.05.24-.09.37-.11.65-.13 1.34.08 1.8.55.38.37.59.88.59 1.41 0 .54-.21 1.04-.59 1.41-.37.38-.88.59-1.41.59zm63.64 0H66.06c-1.1 0-2-.9-2-2s.9-2 2-2h25.76c1.1 0 2 .9 2 2s-.9 2-2 2z"/><path class="st1" d="M34.67 25.28c-3.61 0-7.06-2.06-8.65-5.54-2.18-4.76-.08-10.41 4.69-12.59 4.77-2.17 10.41-.07 12.59 4.69 1 2.18 1.13 4.64.38 6.93-.82 2.49-2.67 4.55-5.06 5.66-1.29.57-2.63.85-3.95.85zm-.03-15c-.76 0-1.54.16-2.28.5-2.76 1.26-3.97 4.53-2.71 7.29 1.26 2.76 4.53 3.97 7.29 2.71a5.521 5.521 0 002.93-3.28c.44-1.32.36-2.75-.22-4.01a5.514 5.514 0 00-5.01-3.21z"/><path class="st3" d="M67.87 90.89H47.18c-8.28 0-15.02-6.74-15.02-15.02v-44.6c0-1.1.9-2 2-2s2 .9 2 2v44.6c0 6.08 4.94 11.02 11.02 11.02l43.66-.05V15.66H49.59c-1.1 0-2-.9-2-2s.9-2 2-2h43.25c1.1 0 2 .9 2 2v75.18a2 2 0 01-2 2l-24.97.05z"/><path class="st3" d="M62.9 73.79h-.04c-.57-.01-1.12-.27-1.49-.71l-2.35-2.77c-.71-.84-.61-2.1.23-2.82.84-.71 2.11-.61 2.82.23l.88 1.04 4.11-4.49c.75-.82 2.01-.87 2.83-.13.82.75.87 2.01.13 2.83l-5.64 6.17c-.38.41-.92.65-1.48.65z"/><path class="st3" d="M64.7 80.81c-1.46 0-2.93-.26-4.34-.79a12.343 12.343 0 01-6.96-6.48c-1.38-3.01-1.5-6.39-.34-9.5 1.16-3.11 3.46-5.58 6.48-6.96 6.22-2.84 13.6-.08 16.45 6.14 1.3 2.85 1.48 6.07.5 9.06-1.09 3.27-3.5 5.97-6.62 7.4-1.66.75-3.42 1.13-5.17 1.13zm-.03-20.85c-1.17 0-2.35.24-3.48.76a8.314 8.314 0 00-4.39 4.72c-.79 2.11-.7 4.4.23 6.44a8.314 8.314 0 004.72 4.39c2.11.78 4.4.7 6.44-.23a8.467 8.467 0 004.49-5.02 8.46 8.46 0 00-.34-6.14c-1.41-3.09-4.48-4.92-7.67-4.92zm20.62-10.72H42c-1.1 0-2-.9-2-2V35.87c0-1.1.9-2 2-2h43.16c1.1 0 1.99.88 2 1.98l.13 11.37c.01.53-.2 1.05-.58 1.43-.37.38-.89.59-1.42.59zm-41.29-4h39.27l-.08-7.37H44v7.37z"/><path class="st3" d="M50.43 49.01c-1.1 0-2-.9-2-2V36.57c0-1.1.9-2 2-2s2 .9 2 2v10.44c0 1.1-.9 2-2 2zm13.6 0c-1.1 0-2-.9-2-2V36.57c0-1.1.9-2 2-2s2 .9 2 2v10.44c0 1.1-.9 2-2 2zm12.73 0c-1.1 0-2-.9-2-2V36.57c0-1.1.9-2 2-2s2 .9 2 2v10.44c0 1.1-.9 2-2 2zm15.68 4.85h-7c-1.1 0-2-.9-2-2v-20.6c0-1.1.9-2 2-2h6.47c1.1 0 2 .9 2 2s-.9 2-2 2h-4.47v16.6h5c1.1 0 2 .9 2 2s-.9 2-2 2zm-50.61 0h-7c-1.1 0-2-.9-2-2s.9-2 2-2h5v-16.6h-5.47c-1.1 0-2-.9-2-2s.9-2 2-2h7.47c1.1 0 2 .9 2 2v20.6c0 1.1-.9 2-2 2z"/></svg>