<svg version="1.1" id="Capa_1" xmlns="http://www.w3.org/2000/svg" x="0" y="0" viewBox="0 0 120 120" xml:space="preserve"><style>.st1{fill:#ffea27}.st2{fill:#f4d314}.st3{fill:#95a6b1}</style><path fill="none" d="M0 0h120v120H0z"/><g id="Grupo_8472" transform="translate(-10.823 -25.462)"><g id="Grupo_8468"><g id="Grupo_8466"><path class="st1" d="M67.91 130.64h-18.2c-1.1 0-2-.9-2-2s.9-2 2-2h18.2c1.1 0 2 .9 2 2s-.9 2-2 2z" id="Línea_2915"/><path class="st1" d="M89.85 130.64h-9.11c-1.1 0-2-.9-2-2s.9-2 2-2h9.11c1.1 0 2 .9 2 2s-.9 2-2 2z" id="Línea_2916"/><path class="st1" d="M102.65 130.64c-.54 0-1.04-.21-1.42-.59s-.58-.88-.58-1.41c0-.13.01-.27.04-.39.02-.13.06-.26.11-.38s.11-.23.18-.34c.08-.11.16-.22.25-.31s.2-.17.31-.25c.11-.07.22-.13.34-.18s.25-.09.38-.11c.65-.13 1.34.08 1.8.54.09.09.18.2.25.31a2.211 2.211 0 01.3.72c.02.12.04.26.04.39 0 .53-.21 1.03-.59 1.41s-.88.59-1.41.59z" id="Línea_2917"/><path class="st2" d="M57.21 130.64H39c-1.1 0-2-.9-2-2s.9-2 2-2h18.21c1.1 0 2 .9 2 2s-.9 2-2 2z" id="Línea_2918"/></g><g id="Grupo_8467"><path class="st1" d="M84.39 118.42H39c-1.1 0-2-.9-2-2s.9-2 2-2h45.39c1.1 0 2 .9 2 2s-.9 2-2 2z" id="Línea_2919"/><path class="st2" d="M39 118.42c-.54 0-1.04-.21-1.42-.59s-.58-.88-.58-1.41.21-1.04.58-1.42c.09-.09.2-.17.31-.24.1-.08.22-.14.34-.19s.25-.09.38-.11c.25-.06.52-.06.78 0 .12.02.25.06.37.11s.24.11.35.19c.11.07.21.15.3.24.37.37.59.89.59 1.42s-.21 1.03-.59 1.41-.88.59-1.41.59z" id="Línea_2920"/><path class="st2" d="M102.65 118.42H76.89c-1.1 0-2-.9-2-2s.9-2 2-2h25.76c1.1 0 2 .9 2 2s-.9 2-2 2z" id="Línea_2921"/></g></g><path class="st1" d="M51.43 59.29c-1.12 0-2.24-.2-3.32-.6-2.38-.88-4.27-2.64-5.32-4.95s-1.15-4.89-.26-7.27a9.38 9.38 0 014.95-5.32c4.73-2.18 10.36-.11 12.56 4.62.01.02.02.05.03.07a9.45 9.45 0 01.26 7.27 9.38 9.38 0 01-4.95 5.32c-1.26.57-2.6.86-3.95.86zm0-15.01c-.77 0-1.54.16-2.28.5a5.46 5.46 0 00-2.87 3.08c-.51 1.38-.46 2.87.15 4.21s1.7 2.35 3.08 2.86c1.38.51 2.87.46 4.21-.15s2.35-1.7 2.86-3.08c.51-1.37.46-2.86-.15-4.19-.01-.02-.02-.03-.02-.05-.92-2-2.91-3.18-4.98-3.18zm8.82 2.39z" id="Trazado_7181"/><g id="Grupo_8469"><path class="st3" d="M117 106.88c-3.25 0-4.98-1.34-6.36-2.42-1.17-.92-2.02-1.58-3.9-1.58s-2.73.66-3.9 1.58c-1.38 1.08-3.11 2.42-6.36 2.42s-4.98-1.34-6.36-2.42c-1.17-.92-2.02-1.58-3.9-1.58s-2.73.66-3.9 1.58c-1.38 1.08-3.11 2.42-6.36 2.42s-4.98-1.34-6.36-2.42c-1.17-.92-2.02-1.58-3.9-1.58s-2.73.66-3.9 1.58c-1.38 1.08-3.11 2.42-6.36 2.42s-4.98-1.34-6.36-2.42c-1.17-.92-2.02-1.58-3.9-1.58s-2.73.66-3.9 1.58c-1.39 1.08-3.11 2.42-6.37 2.42s-4.98-1.34-6.36-2.42c-1.17-.92-2.02-1.58-3.91-1.58-1.1 0-2-.9-2-2s.9-2 2-2c3.26 0 4.98 1.34 6.36 2.42 1.17.92 2.02 1.58 3.91 1.58 1.88 0 2.73-.66 3.91-1.58 1.38-1.08 3.11-2.42 6.36-2.42s4.98 1.34 6.36 2.42c1.17.92 2.02 1.58 3.9 1.58s2.73-.66 3.9-1.58c1.38-1.08 3.11-2.42 6.36-2.42s4.98 1.34 6.36 2.42c1.17.92 2.02 1.58 3.9 1.58s2.73-.66 3.9-1.58c1.38-1.08 3.11-2.42 6.36-2.42s4.98 1.34 6.36 2.42c1.17.92 2.02 1.58 3.9 1.58s2.73-.66 3.9-1.58c1.38-1.08 3.11-2.42 6.36-2.42s4.98 1.34 6.36 2.42c1.17.92 2.02 1.58 3.9 1.58 1.1 0 2 .9 2 2s-.9 2-2 2z" id="Trazado_7182"/></g><g id="Grupo_8470"><path class="st3" d="M31.16 55.95c-2.58 0-3.92-1.65-4.81-2.74-.82-1.01-1.1-1.26-1.7-1.26-1.1 0-2-.9-2-2s.9-2 2-2c2.57 0 3.91 1.65 4.8 2.74.82 1.01 1.11 1.26 1.71 1.26.61 0 .89-.26 1.7-1.26.89-1.09 2.23-2.74 4.81-2.74 1.1 0 2 .9 2 2s-.9 2-2 2c-.61 0-.89.26-1.7 1.26-.89 1.09-2.23 2.74-4.81 2.74z" id="Trazado_7183"/></g><g id="Grupo_8471"><path class="st3" d="M117 55.95c-3.25 0-4.96-1.35-6.34-2.43-1.17-.91-2.01-1.57-3.87-1.57s-2.7.66-3.87 1.57c-1.38 1.08-3.1 2.43-6.34 2.43s-4.96-1.34-6.34-2.42c-1.17-.91-2.01-1.58-3.87-1.58s-2.7.66-3.87 1.57c-1.38 1.08-3.1 2.43-6.35 2.43s-4.96-1.34-6.34-2.43c-1.17-.91-2.01-1.57-3.88-1.57-1.1 0-2-.9-2-2s.9-2 2-2c3.24 0 4.96 1.34 6.34 2.42 1.17.91 2.01 1.58 3.88 1.58s2.71-.66 3.88-1.58c1.38-1.08 3.1-2.42 6.34-2.42s4.96 1.34 6.34 2.43c1.17.91 2.01 1.57 3.87 1.57s2.71-.66 3.87-1.58c1.38-1.08 3.1-2.42 6.34-2.42s4.96 1.34 6.33 2.42c1.17.92 2.01 1.58 3.88 1.58 1.1 0 2 .9 2 2s-.9 2-2 2z" id="Trazado_7184"/></g><path class="st3" d="M38.65 87.15h-3.24c-1.1 0-2-.9-2-2s.9-2 2-2h3.24c1.1 0 2 .9 2 2s-.9 2-2 2z" id="Línea_2922"/><path class="st3" d="M103.13 87.66h-3.24c-1.1 0-2-.9-2-2s.9-2 2-2h3.24c1.1 0 2 .9 2 2s-.9 2-2 2z" id="Línea_2923"/><path class="st3" d="M103.11 92.24H35.26c-1.1 0-2-.9-2-2V68.93c0-1.1.9-2 2-2h67.85c1.1 0 2 .9 2 2v21.31c0 1.1-.9 2-2 2zm-65.85-4h63.85V70.93H37.26v17.31z" id="Rectángulo_2906"/><path class="st3" d="M35.27 94.24h-9.82c-1.1 0-2-.9-2-2V66.92c0-1.1.9-2 2-2h9.82c1.1 0 2 .9 2 2v25.32c0 1.1-.9 2-2 2zm-7.82-4h5.82V68.92h-5.82v21.32z" id="Rectángulo_2907"/><path class="st3" d="M38.61 81.58h-3.2c-1.1 0-2-.9-2-2s.9-2 2-2h3.2c1.1 0 2 .9 2 2s-.9 2-2 2z" id="Línea_2924"/><path class="st3" d="M38.65 75.99h-3.24c-1.1 0-2-.9-2-2s.9-2 2-2h3.24c1.1 0 2 .9 2 2s-.9 2-2 2z" id="Línea_2925"/><path class="st3" d="M112.95 94.24h-9.82c-1.1 0-2-.9-2-2V66.92c0-1.1.9-2 2-2h9.82c1.1 0 2 .9 2 2v25.32c0 1.1-.9 2-2 2zm-7.82-4h5.82V68.92h-5.82v21.32z" id="Rectángulo_2908"/><path class="st3" d="M103.13 81.58h-3.29c-1.1 0-2-.9-2-2s.9-2 2-2h3.29c1.1 0 2 .9 2 2s-.9 2-2 2z" id="Línea_2926"/><path class="st3" d="M103.13 75.48h-3.24c-1.1 0-2-.9-2-2s.9-2 2-2h3.24c1.1 0 2 .9 2 2s-.9 2-2 2z" id="Línea_2927"/><path class="st3" d="M73.48 92.24c-1.1 0-2-.9-2-2v-9.58c0-1.1.9-2 2-2s2 .9 2 2v9.58c0 1.1-.9 2-2 2z" id="Línea_2928"/><path class="st3" d="M73.48 75.48c-1.1 0-2-.9-2-2v-4.55c0-1.1.9-2 2-2s2 .9 2 2v4.55c0 1.1-.9 2-2 2z" id="Línea_2929"/></g></svg>