<svg version="1.1" id="Capa_1" xmlns="http://www.w3.org/2000/svg" x="0" y="0" viewBox="0 0 120 120" xml:space="preserve"><style>.st1{fill:#ffea27}.st2{fill:#f4d314}.st3{fill:#95a6b1}</style><path fill="none" d="M0 0h120v120H0z"/><g id="Grupo_8394" transform="translate(-15.711 -13.769)"><g id="Grupo_8391"><g id="Grupo_8389"><path class="st1" d="M72.75 124.81H54.54c-1.1 0-2-.9-2-2s.9-2 2-2h18.21c1.1 0 2 .9 2 2s-.9 2-2 2z" id="Línea_2745"/><path class="st1" d="M94.68 124.81h-9.1c-1.1 0-2-.9-2-2s.9-2 2-2h9.1c1.1 0 2 .9 2 2s-.9 2-2 2z" id="Línea_2746"/><path class="st1" d="M107.48 124.81c-.54 0-1.04-.21-1.42-.59-.18-.18-.33-.4-.43-.64a2.03 2.03 0 01.18-1.88c.08-.11.16-.21.25-.3.75-.75 2.08-.75 2.83 0 .09.09.18.19.25.3s.13.23.18.35c.05.12.09.24.12.37.02.13.04.26.04.39 0 .27-.05.52-.15.77-.1.24-.25.46-.44.64-.38.38-.88.59-1.41.59z" id="Línea_2747"/><path class="st2" d="M62.04 124.81h-18.2c-1.1 0-2-.9-2-2s.9-2 2-2h18.2c1.1 0 2 .9 2 2s-.9 2-2 2z" id="Línea_2748"/></g><g id="Grupo_8390"><path class="st1" d="M89.22 112.58H43.84c-1.1 0-2-.9-2-2s.9-2 2-2h45.38c1.1 0 2 .9 2 2s-.9 2-2 2z" id="Línea_2749"/><path class="st2" d="M43.84 112.58a1.998 1.998 0 01-1.96-2.39c.02-.13.06-.25.11-.38.05-.12.11-.23.19-.34.07-.11.15-.21.24-.3a2.022 2.022 0 012.18-.44c.12.05.24.12.35.19.11.07.21.15.3.25.38.37.59.88.59 1.41 0 .53-.21 1.04-.59 1.41-.37.38-.88.59-1.41.59z" id="Línea_2750"/><path class="st2" d="M107.48 112.58H81.72c-1.1 0-2-.9-2-2s.9-2 2-2h25.76c1.1 0 2 .9 2 2s-.9 2-2 2z" id="Línea_2751"/></g></g><path class="st3" d="M75.68 103.04c-5.75 0-11.48-1.27-16.85-3.79C49.26 94.74 42 86.77 38.42 76.81c-3.59-9.96-3.08-20.72 1.42-30.3.02-.05.05-.09.07-.14l.95-1.67a2.001 2.001 0 113.48 1.98l-.91 1.6c-4.02 8.6-4.47 18.24-1.25 27.18 3.23 8.96 9.75 16.12 18.36 20.17 8.61 4.05 18.29 4.51 27.25 1.28 8.96-3.23 16.12-9.75 20.17-18.36 4.05-8.61 4.51-18.29 1.28-27.25-3.23-8.96-9.75-16.12-18.36-20.17a35.507 35.507 0 00-21.16-2.88l-1.67.43c-1.07.27-2.16-.37-2.44-1.44-.27-1.07.37-2.16 1.44-2.44l1.75-.45.16-.03c8.07-1.39 16.23-.28 23.62 3.19 9.58 4.51 16.83 12.48 20.42 22.44 3.59 9.96 3.08 20.72-1.42 30.3-4.51 9.58-12.48 16.83-22.44 20.42a39.408 39.408 0 01-13.46 2.37z" id="Trazado_7115"/><g id="Grupo_8393"><g id="Grupo_8392"><path class="st3" d="M54.74 75.7h-6.38c-2.1 0-3.8-1.7-3.8-3.8V56.4c0-2.1 1.7-3.8 3.8-3.8h6.38c2.1 0 3.8 1.7 3.8 3.8v15.5c0 2.1-1.7 3.8-3.8 3.8zm-6.18-4h5.98V56.6h-5.98v15.1zm6.18-15.1z" id="Rectángulo_2890"/><path class="st3" d="M74.54 84.95c-.65 0-1.27-.16-1.82-.45l-16.13-8.51a3.787 3.787 0 01-2.04-3.37V55.7c0-1.43.79-2.72 2.06-3.38l16.15-8.34c.89-.47 1.92-.56 2.89-.25a3.79 3.79 0 012.65 3.63v33.78c.03 2.07-1.66 3.79-3.76 3.81zm-.23-3.79zm.29-.19zM58.55 72.5l15.76 8.31V47.69l-15.76 8.14V72.5zm-.11-.06zm16.17-24.91z" id="Trazado_7116"/></g><path class="st3" d="M83.9 78.42A2.004 2.004 0 0182.49 75c.04-.04 4.62-4.75 4.62-11.18-.02-3.84-1.62-7.6-4.38-10.29-.79-.77-.81-2.04-.04-2.83s2.04-.81 2.83-.04c3.53 3.43 5.57 8.23 5.6 13.15 0 8.12-5.56 13.78-5.8 14.01-.4.41-.91.6-1.42.6z" id="Trazado_7117"/><path class="st3" d="M91.03 84.73c-.51 0-1.02-.2-1.41-.58-.78-.78-.78-2.05 0-2.83.07-.07 7.32-7.51 7.32-17.71-.03-6.11-2.57-12.08-6.97-16.37-.79-.77-.81-2.04-.04-2.83s2.04-.81 2.83-.04c5.17 5.03 8.15 12.04 8.18 19.22 0 11.9-8.15 20.2-8.49 20.54-.4.4-.91.6-1.42.6z" id="Trazado_7118"/><path class="st3" d="M77.67 70.45c-.49 0-.98-.18-1.36-.54-.81-.75-.85-2.02-.1-2.83.77-.83 1.22-1.91 1.26-3.05-.01-.9-.41-1.85-1.12-2.53-.79-.77-.81-2.04-.04-2.83s2.04-.81 2.83-.04a7.787 7.787 0 012.33 5.46c-.08 2.18-.91 4.18-2.34 5.72-.39.43-.92.64-1.46.64z" id="Trazado_7119"/></g><path class="st1" d="M53.7 43.53c-5.73 0-10.4-4.67-10.4-10.4s4.67-10.4 10.4-10.4h.05c5.69 0 10.33 4.62 10.35 10.33v.07c0 5.73-4.67 10.4-10.4 10.4zm.04-16.8h-.03c-3.54 0-6.41 2.87-6.41 6.4 0 3.53 2.87 6.4 6.4 6.4 3.53 0 6.4-2.87 6.4-6.4v-.06c-.01-3.5-2.87-6.34-6.36-6.34z" id="Trazado_7120"/></g></svg>