<svg version="1.1" id="Capa_1" xmlns="http://www.w3.org/2000/svg" x="0" y="0" viewBox="0 0 120 120" xml:space="preserve"><style>.st1{fill:#ffea27}.st2{fill:#f4d314}.st3{fill:#95a6b1}</style><path fill="none" d="M0 0h120v120H0z"/><path class="st1" d="M57.09 115.06H38.88c-1.1 0-2-.9-2-2s.9-2 2-2h18.21c1.1 0 2 .9 2 2s-.9 2-2 2zm21.93 0h-9.1c-1.1 0-2-.9-2-2s.9-2 2-2h9.1c1.1 0 2 .9 2 2s-.9 2-2 2zm12.8 0c-.27 0-.52-.05-.77-.15-.24-.1-.46-.25-.64-.44a1.983 1.983 0 010-2.82c.46-.47 1.15-.68 1.8-.55.13.02.25.06.37.11s.24.11.35.19c.11.07.21.15.3.25.1.09.18.19.25.3.08.11.14.22.19.34s.08.25.11.38.04.26.04.39c0 .54-.21 1.04-.59 1.41-.37.38-.88.59-1.41.59z"/><path class="st2" d="M46.38 115.06h-18.2c-1.1 0-2-.9-2-2s.9-2 2-2h18.2c1.1 0 2 .9 2 2s-.9 2-2 2z"/><path class="st1" d="M73.56 102.83H28.18c-1.1 0-2-.9-2-2s.9-2 2-2h45.38c1.1 0 2 .9 2 2s-.9 2-2 2z"/><path class="st2" d="M28.18 102.83c-.27 0-.52-.05-.77-.15-.24-.1-.46-.25-.65-.44-.37-.37-.58-.88-.58-1.41 0-.53.21-1.04.58-1.41.1-.1.2-.18.31-.25s.22-.14.35-.19c.12-.05.24-.09.37-.11.65-.13 1.34.08 1.8.55.38.37.59.88.59 1.41 0 .54-.21 1.04-.59 1.41-.37.38-.88.59-1.41.59zm63.64 0H66.06c-1.1 0-2-.9-2-2s.9-2 2-2h25.76c1.1 0 2 .9 2 2s-.9 2-2 2z"/><path class="st1" d="M95.43 57.36c-3.61 0-7.06-2.06-8.65-5.54-2.17-4.77-.07-10.41 4.69-12.59 4.76-2.17 10.41-.07 12.59 4.68 1 2.18 1.13 4.64.38 6.93-.82 2.49-2.67 4.55-5.06 5.66a9.61 9.61 0 01-3.95.86zm-.03-15c-.76 0-1.54.16-2.28.5-2.75 1.26-3.97 4.53-2.71 7.29 1.26 2.75 4.53 3.97 7.29 2.71a5.521 5.521 0 002.93-3.28c.44-1.32.36-2.75-.22-4.01a5.525 5.525 0 00-5.01-3.21z"/><path class="st3" d="M65.08 92.04H53.71c-1.1 0-2-.9-2-2V15.67c0-1.1.9-2 2-2h11.37c1.1 0 2 .9 2 2v74.37c0 1.1-.9 2-2 2zm-9.37-4h7.37V17.67h-7.37v70.37z"/><path class="st3" d="M76.47 92.03H65.09c-1.1 0-2-.9-2-2V65.85c0-.57.07-14.2 12.52-19.48 8.01-3.39 7.91-14.43 7.91-14.54v-8.17c0-1.1.9-2 2-2H96.9c1.1 0 2 .9 2 2v10.18c0 1.1-.9 2-2 2s-2-.9-2-2v-8.18h-7.38v6.13c.01.53.12 13.83-10.35 18.26-9.97 4.22-10.08 15.32-10.08 15.79v22.19h7.38v-18.2c0-1.1.9-2 2-2s2 .9 2 2v20.2c0 1.1-.9 2-2 2z"/><path class="st3" d="M76.45 72.92c-1.1 0-1.99-.88-2-1.99 0-.46.03-11.28 8.81-17.45.9-.63 2.15-.42 2.79.49.64.9.42 2.15-.49 2.79-7.03 4.95-7.11 14.06-7.11 14.16 0 1.1-.89 1.99-2 2zM53.74 92.03H42.37c-1.1 0-2-.9-2-2v-20.2c0-1.1.9-2 2-2s2 .9 2 2v18.2h7.37V65.85c0-.48-.11-11.57-10.08-15.8-10.47-4.44-10.36-17.73-10.35-18.3v-6.09h-7.37v5.48c0 1.1-.9 2-2 2s-2-.9-2-2v-7.48c0-1.1.9-2 2-2h11.37c1.1 0 2 .9 2 2v8.13c0 .14-.06 11.2 7.91 14.58 12.45 5.28 12.52 18.91 12.52 19.49v24.17c0 1.1-.9 2-2 2z"/><path class="st3" d="M42.38 72.92h-.01c-1.1-.01-1.99-.9-1.99-2.01 0-.48-.12-11.57-10.08-15.79-10.47-4.44-10.36-17.73-10.35-18.3V26.74c0-1.1.9-2 2-2s2 .9 2 2v10.12c0 .14-.06 11.2 7.91 14.58 12.45 5.28 12.52 18.92 12.52 19.49-.01 1.1-.9 1.99-2 1.99zm27.56-55.24H48.87c-1.1 0-2-.9-2-2V9.2c0-1.1.9-2 2-2h21.07c1.1 0 2 .9 2 2v6.48c0 1.1-.9 2-2 2zm-19.07-4h17.07V11.2H50.87v2.48zm50.51 12H80.31c-1.1 0-2-.9-2-2V17.2c0-1.1.9-2 2-2h21.07c1.1 0 2 .9 2 2v6.48c0 1.1-.9 2-2 2zm-19.07-4h17.07V19.2H82.31v2.48z"/><path class="st3" d="M38.16 25.68H17.09c-1.1 0-2-.9-2-2V17.2c0-1.1.9-2 2-2h21.07c1.1 0 2 .9 2 2v6.48c0 1.1-.9 2-2 2zm-19.07-4h17.07V19.2H19.09v2.48zM64.86 82.6H54.42c-1.1 0-2-.9-2-2s.9-2 2-2h10.44c1.1 0 2 .9 2 2s-.9 2-2 2zm0-18.6H54.42c-1.1 0-2-.9-2-2s.9-2 2-2h10.44c1.1 0 2 .9 2 2s-.9 2-2 2zm0-18.67H54.42c-1.1 0-2-.9-2-2s.9-2 2-2h10.44c1.1 0 2 .9 2 2s-.9 2-2 2z"/><path class="st3" d="M64.86 45.27H54.42c-1.1 0-2-.9-2-2s.9-2 2-2h10.44c1.1 0 2 .9 2 2s-.9 2-2 2zm0-18.59H54.42c-1.1 0-2-.9-2-2s.9-2 2-2h10.44c1.1 0 2 .9 2 2s-.9 2-2 2zM53.12 73.57H42.68c-1.1 0-2-.9-2-2s.9-2 2-2h10.44c1.1 0 2 .9 2 2s-.9 2-2 2zM32.98 35.85H22.54c-1.1 0-2-.9-2-2s.9-2 2-2h10.44c1.1 0 2 .9 2 2s-.9 2-2 2zm63.88 0H85.93c-1.1 0-2-.9-2-2s.9-2 2-2h10.93c1.1 0 2 .9 2 2s-.9 2-2 2zM76.21 73.57H65.77c-1.1 0-2-.9-2-2s.9-2 2-2h10.44c1.1 0 2 .9 2 2s-.9 2-2 2zm3.7-12.73c-.43 0-.86-.14-1.22-.42l-8.49-6.55a1.995 1.995 0 01-.36-2.81c.67-.88 1.93-1.04 2.81-.36l8.49 6.55c.88.67 1.04 1.93.36 2.81-.4.51-.99.78-1.59.78zm-40.49 0c-.6 0-1.19-.27-1.58-.78-.67-.87-.51-2.13.36-2.81l8.49-6.55c.87-.68 2.13-.51 2.81.36.67.87.51 2.13-.36 2.81l-8.49 6.55c-.37.28-.8.42-1.23.42zm-11.65-8.89c-.6 0-1.19-.27-1.58-.78-.67-.87-.51-2.13.36-2.81l8.48-6.55c.87-.68 2.13-.51 2.81.36.67.87.51 2.13-.36 2.81L29 51.53c-.37.28-.8.42-1.23.42z"/></svg>