<svg xmlns="http://www.w3.org/2000/svg" width="120" height="120"><g data-name="01-icon_ocenza_hitos_hitos-8"><g data-name="Capa 1"><path data-name="Rectángulo 2945" fill="none" d="M0 0h120v120H0z"/><path data-name="Trazado 7227" d="M54 115.86H35.74a2 2 0 010-4H54a2 2 0 110 4z" fill="#ffea27"/><path data-name="Trazado 7228" d="M75.88 115.86h-9.1a2 2 0 010-4h9.1a2 2 0 010 4z" fill="#ffea27"/><path data-name="Trazado 7229" d="M88.67 115.86a2.008 2.008 0 01-1.41-3.42 2.08 2.08 0 012.83 0 2 2 0 01-1.42 3.42z" fill="#ffea27"/><g data-name="Grupo 8583"><path data-name="Trazado 7230" d="M43.24 115.86H25a2 2 0 010-4h18.2a2 2 0 110 4z" fill="#f4d314"/></g><path data-name="Trazado 7231" d="M70.42 103.64H25a2 2 0 110-4h45.42a2 2 0 010 4z" fill="#ffea27"/><g data-name="Grupo 8584"><path data-name="Trazado 7232" d="M25 103.63a2.07 2.07 0 01-.77-.15 1.85 1.85 0 01-.64-.43 2 2 0 01-.59-1.42 1.72 1.72 0 010-.39 2.26 2.26 0 01.11-.37 1.7 1.7 0 01.19-.35 1.42 1.42 0 01.25-.3 2 2 0 011.8-.55 2.4 2.4 0 01.38.12 2.21 2.21 0 01.34.18 2.42 2.42 0 01.31.25 1.76 1.76 0 01.24.3 1.7 1.7 0 01.19.35 1.58 1.58 0 01.11.37 1.72 1.72 0 010 .39 1.982 1.982 0 01-1.92 2z" fill="#f4d314"/></g><g data-name="Grupo 8585"><path data-name="Trazado 7233" d="M88.68 103.64H62.92a2 2 0 110-4h25.76a2 2 0 010 4z" fill="#f4d314"/></g><path data-name="Trazado 7234" d="M42.57 59.65H31.33a2 2 0 110-4h11.24a2 2 0 010 4z" fill="#95a6b1"/><path data-name="Trazado 7235" d="M81.33 38.12a2 2 0 01-1.41-3.42 2.481 2.481 0 01.3-.25 2.21 2.21 0 01.34-.18 1.82 1.82 0 01.38-.11 1.71 1.71 0 01.78 0 1.82 1.82 0 01.38.11 2.21 2.21 0 01.34.18l.31.25a2 2 0 010 2.83 2.42 2.42 0 01-.31.25 2.27 2.27 0 01-.34.19 2.38 2.38 0 01-.38.11 2.58 2.58 0 01-.39.04z" fill="#95a6b1"/><path data-name="Trazado 7236" d="M66.82 38.12H32.88a2 2 0 01-2-2v-5.94a2 2 0 014 0v3.94h31.94a2 2 0 010 4z" fill="#95a6b1"/><path data-name="Trazado 7237" d="M31.5 26.18a9.492 9.492 0 118.68-13.45 9.5 9.5 0 01-8.68 13.45zm0-15a5.36 5.36 0 00-2.28.5 5.5 5.5 0 107.51 6.72 5.56 5.56 0 00-.22-4 5.49 5.49 0 00-3.08-2.87 5.61 5.61 0 00-1.94-.35z" fill="#ffea27"/><path data-name="Trazado 7238" d="M87.32 38.12h-6a2 2 0 010-4h4v-15.9a.23.23 0 00-.23-.23H45.73a2 2 0 010-4h39.36a4.24 4.24 0 014.23 4.23v17.9a2 2 0 01-2 2z" fill="#95a6b1"/><path data-name="Trazado 7239" d="M78.07 18H51a2 2 0 01-2-2V9.45a4.12 4.12 0 014.11-4.12h23.13a3.84 3.84 0 013.83 3.83V16a2 2 0 01-2 2zM53 14h23.1V9.33h-23a.11.11 0 00-.11.12zm23.24-4.67z" fill="#95a6b1"/><path data-name="Trazado 7240" d="M87.4 25.49H45.07a2 2 0 010-4H87.4a2 2 0 010 4z" fill="#95a6b1"/><path data-name="Trazado 7241" d="M24 66.35a2 2 0 01-2-2V38.68a4.55 4.55 0 014.54-4.54h40.28a2 2 0 010 4H26.55a.54.54 0 00-.54.54v25.67a2 2 0 01-2.01 2z" fill="#95a6b1"/><path data-name="Trazado 7242" d="M96.71 66.35a2 2 0 01-2-2v-26a.19.19 0 00-.19-.19H81.33a2 2 0 010-4h13.18a4.2 4.2 0 014.19 4.19v26a2 2 0 01-1.99 2z" fill="#95a6b1"/><path data-name="Trazado 7243" d="M24 45a2 2 0 010-4h25.85a2 2 0 110 4z" fill="#95a6b1"/><path data-name="Línea 1777" fill="#fff" d="M42.57 42.96v21.39"/><path data-name="Trazado 7244" d="M42.57 66.35a2 2 0 01-2-2V43a2 2 0 014 0v21.35a2 2 0 01-2 2z" fill="#95a6b1"/><path data-name="Trazado 7245" d="M42.57 51.66H31.33a2 2 0 010-4h11.24a2 2 0 010 4z" fill="#95a6b1"/><path data-name="Trazado 7246" d="M31.29 66.35a2 2 0 01-2-2V43a2 2 0 114 0v21.35a2 2 0 01-2 2z" fill="#95a6b1"/><path data-name="Trazado 7247" d="M49.85 66.35a2 2 0 01-2-2V36.12a2 2 0 014 0v28.23a2 2 0 01-2 2z" fill="#95a6b1"/><path data-name="Trazado 7248" d="M81.31 49.26H66.78a2 2 0 01-2-2.01V36.17a2 2 0 012-2 2 2 0 012 2v9.08h10.53v-9.1a2 2 0 114 0v11.1a2 2 0 01-2 2.01z" fill="#95a6b1"/><path data-name="Trazado 7249" d="M57.87 18a2 2 0 01-2-2V7.33a2 2 0 114 0V16a2 2 0 01-2 2z" fill="#95a6b1"/><path data-name="Trazado 7250" d="M64.52 18a2 2 0 01-2-2V7.33a2 2 0 114 0V16a2 2 0 01-2 2z" fill="#95a6b1"/><path data-name="Trazado 7251" d="M71.4 18a2 2 0 01-2-2V7.33a2 2 0 114 0V16a2 2 0 01-2 2z" fill="#95a6b1"/><path data-name="Trazado 7252" d="M89 50a2 2 0 01-2-2V36.16a2 2 0 014 0V48a2 2 0 01-2 2z" fill="#95a6b1"/><path data-name="Trazado 7253" d="M58.32 50a2 2 0 01-2-2V36.16a2 2 0 014 0V48a2 2 0 01-2 2z" fill="#95a6b1"/><path data-name="Trazado 7254" d="M96.71 66.35H24a2 2 0 110-4h72.7a2 2 0 010 4z" fill="#95a6b1"/><path data-name="Trazado 7255" d="M84.56 88h-6.82a2 2 0 01-2-2V71a2 2 0 012-2h6.82a2 2 0 012 2v15a2 2 0 01-2 2zm-4.82-4h2.82V73h-2.82z" fill="#95a6b1"/><path data-name="Trazado 7256" d="M77.74 86.66H61.68a13.84 13.84 0 01-13.83-13.82v-8.49a2 2 0 012-2h12.27a2 2 0 012 2V69a1.38 1.38 0 001.36 1.37h12.26a2 2 0 012 2v12.29a2 2 0 01-2 2zM51.85 66.35v6.49a9.83 9.83 0 009.83 9.82h14.06v-8.27H65.47A5.38 5.38 0 0160.12 69v-2.65z" fill="#95a6b1"/><path data-name="Trazado 7257" d="M113.52 66.37a7.34 7.34 0 01-5.52-2.56c-1-1-1.53-1.44-2.73-1.44s-1.73.47-2.73 1.44A7.34 7.34 0 0197 66.37a2 2 0 010-4c1.2 0 1.73-.46 2.73-1.43a7.19 7.19 0 0111 0c1 1 1.53 1.43 2.73 1.43a2 2 0 010 4z" fill="#95a6b1"/><path data-name="Trazado 7258" d="M24.16 66.36a7.93 7.93 0 01-5.76-2.52 4.008 4.008 0 00-3.08-1.48c-1.44 0-2.06.56-3.08 1.48a7.93 7.93 0 01-5.76 2.52 2 2 0 110-4c1.44 0 2.06-.56 3.08-1.48a7.84 7.84 0 0111.52 0 4.008 4.008 0 003.08 1.48 2 2 0 010 4z" fill="#95a6b1"/><path data-name="Trazado 7259" d="M105.89 74.39H84.63a2 2 0 010-4h21.26a2 2 0 010 4z" fill="#95a6b1"/><path data-name="Trazado 7260" d="M105.89 86.66H84.63a2 2 0 010-4h21.26a2 2 0 010 4z" fill="#95a6b1"/><path data-name="Trazado 7261" d="M53.49 83.36a2 2 0 01-1.35-3.48l10.31-9.44a2.018 2.018 0 012.7 3l-10.31 9.39a2 2 0 01-1.35.53z" fill="#95a6b1"/></g></g></svg>