<svg version="1.1" id="Capa_1" xmlns="http://www.w3.org/2000/svg" x="0" y="0" width="120" height="120" xml:space="preserve"><style>.st1{fill:#ffea27}.st2{fill:#f4d314}.st3{fill:#95a6b1}</style><path fill="none" d="M0 0h120v120H0z"/><path class="st1" d="M57.09 115.86H38.88c-1.1 0-2-.9-2-2s.9-2 2-2h18.21c1.1 0 2 .9 2 2s-.9 2-2 2zm21.93 0h-9.1c-1.1 0-2-.9-2-2s.9-2 2-2h9.1a2 2 0 110 4zm12.8 0c-.26 0-.52-.05-.76-.15-.25-.1-.46-.25-.65-.44a1.95 1.95 0 01-.59-1.41c0-.53.21-1.04.59-1.41.74-.75 2.08-.75 2.82 0 .38.37.59.88.59 1.41 0 .27-.05.53-.15.77-.1.24-.25.46-.44.64-.09.1-.19.18-.3.26-.11.07-.22.13-.34.18s-.25.09-.37.11c-.13.03-.26.04-.4.04z"/><path class="st2" d="M46.38 115.86h-18.2c-1.1 0-2-.9-2-2s.9-2 2-2h18.21c1.1 0 2 .9 2 2s-.9 2-2.01 2z"/><path class="st1" d="M73.56 103.64H28.18c-1.1 0-2-.9-2-2s.9-2 2-2h45.39c1.1 0 2 .9 2 2s-.9 2-2.01 2z"/><path class="st2" d="M28.18 103.63a1.994 1.994 0 01-1.42-.58 2.016 2.016 0 01-.43-2.18 2.254 2.254 0 01.43-.65c.75-.74 2.09-.74 2.83 0 .09.09.18.2.25.3.07.11.13.23.18.35.05.12.09.25.12.37.02.13.04.26.04.4 0 .53-.21 1.03-.59 1.41-.37.38-.88.58-1.41.58zm63.64.01H66.06c-1.1 0-2-.9-2-2s.9-2 2-2h25.76a2 2 0 110 4z"/><path class="st3" d="M87.38 92.53H32.12c-4.89 0-8.87-3.98-8.87-8.87V60.77c0-1.1.9-2 2-2s2 .9 2 2v22.89c0 2.69 2.19 4.87 4.87 4.87h53.26V13.64H32.12c-2.69 0-4.87 2.19-4.87 4.87v11.17c0 1.1-.9 2-2 2s-2-.9-2-2V18.51c0-4.89 3.98-8.87 8.87-8.87h55.26c1.1 0 2 .9 2 2v78.89c0 1.1-.9 2-2 2z"/><path class="st3" d="M25.24 85.65a2 2 0 01-1.99-1.83c-.02-.25-.46-6.07 2.93-9.75 1.75-1.91 4.14-2.87 7.1-2.87H87c1.1 0 2 .9 2 2s-.9 2-2 2H33.28c-1.81 0-3.16.51-4.14 1.57-2.2 2.37-1.89 6.68-1.89 6.72a2.01 2.01 0 01-1.84 2.15c-.06.01-.11.01-.17.01z"/><path class="st3" d="M87.2 84.18H32.78c-1.1 0-2-.9-2-2s.9-2 2-2H87.2c1.1 0 2 .9 2 2s-.9 2-2 2zM33.28 75.2c-1.1 0-2-.9-2-2V60c0-1.1.9-2 2-2s2 .9 2 2v13.2a2 2 0 01-2 2zm0-42.1c-1.1 0-2-.9-2-2V11.98c0-1.1.9-2 2-2s2 .9 2 2V31.1a2 2 0 01-2 2zm21.37 18.72c-.71 0-1.4-.38-1.76-1.04l-4.91-9.03-4.71 8.99a1.99 1.99 0 01-2.7.84 1.99 1.99 0 01-.84-2.7l6.45-12.31c.34-.65 1.02-1.07 1.76-1.07.72 0 1.42.4 1.77 1.04l6.7 12.32c.53.97.17 2.18-.8 2.71-.31.17-.64.25-.96.25z"/><path class="st3" d="M51.93 49.26h-7.85c-1.1 0-2-.9-2-2s.9-2 2-2h7.85c1.1 0 2 .9 2 2s-.9 2-2 2zm9.33-4.08h-2.55c-1.1 0-2-.9-2-2s.9-2 2-2h2.55a2 2 0 110 4zm16.46 6.8h-9.93c-.76 0-1.46-.43-1.79-1.12-.34-.68-.25-1.5.21-2.1l7.17-9.27h-5.19c-1.1 0-2-.9-2-2s.9-2 2-2h9.27c.76 0 1.46.43 1.79 1.12.34.68.25 1.5-.21 2.1l-7.17 9.27h5.85c1.1 0 2 .9 2 2s-.9 2-2 2z"/><path class="st1" d="M24.26 54.49c-3.61 0-7.06-2.06-8.65-5.55-2.18-4.76-.07-10.41 4.69-12.59 4.76-2.18 10.41-.07 12.59 4.69 1 2.19 1.13 4.65.38 6.93a9.544 9.544 0 01-5.07 5.66 9.53 9.53 0 01-3.94.86zm-.02-15c-.76 0-1.54.16-2.28.5a5.495 5.495 0 00-2.71 7.29 5.495 5.495 0 007.29 2.71 5.415 5.415 0 002.93-3.27c.44-1.32.36-2.75-.22-4.01a5.528 5.528 0 00-5.01-3.22z"/></svg>