<svg version="1.1" id="Capa_1" xmlns="http://www.w3.org/2000/svg" x="0" y="0" viewBox="0 0 120 120" xml:space="preserve"><style>.st1{fill:#ffea27}.st2{fill:#f4d314}.st3{fill:#94a5b0}</style><path fill="none" d="M0 0h120v120H0z"/><g id="Grupo_8481" transform="translate(-17.17 -8.447)"><g id="Grupo_8479"><g id="Grupo_8477"><path class="st1" d="M74.26 122.15H56.05c-1.1 0-2-.9-2-2s.9-2 2-2h18.21c1.1 0 2 .9 2 2s-.9 2-2 2z" id="Línea_2938"/><path class="st1" d="M96.19 122.15h-9.1c-1.1 0-2-.9-2-2s.9-2 2-2h9.1c1.1 0 2 .9 2 2s-.9 2-2 2z" id="Línea_2939"/><path class="st1" d="M108.99 122.15c-.54 0-1.04-.21-1.41-.58-.19-.19-.34-.41-.44-.65a1.994 1.994 0 01-.11-1.16c.02-.13.06-.25.11-.37s.11-.24.19-.35c.07-.11.15-.21.25-.3.09-.09.19-.18.3-.25a2.211 2.211 0 01.72-.3c.65-.13 1.34.08 1.8.55.1.09.18.19.25.3.07.11.14.23.19.35s.08.24.11.37.04.26.04.39c0 .27-.05.53-.15.77a2.022 2.022 0 01-1.08 1.08c-.25.1-.5.15-.77.15z" id="Línea_2940"/><path class="st2" d="M63.55 122.15h-18.2c-1.1 0-2-.9-2-2s.9-2 2-2h18.2c1.1 0 2 .9 2 2s-.9 2-2 2z" id="Línea_2941"/></g><g id="Grupo_8478"><path class="st1" d="M90.74 109.92H45.35c-1.1 0-2-.9-2-2s.9-2 2-2h45.39c1.1 0 2 .9 2 2s-.9 2-2 2z" id="Línea_2942"/><path class="st2" d="M45.35 109.92a1.998 1.998 0 01-2-2c0-.52.21-1.04.59-1.41.74-.75 2.08-.75 2.82 0a1.989 1.989 0 010 2.83c-.37.37-.88.58-1.41.58z" id="Línea_2943"/><path class="st2" d="M108.99 109.92H83.24c-1.1 0-2-.9-2-2s.9-2 2-2h25.75c1.1 0 2 .9 2 2s-.9 2-2 2z" id="Línea_2944"/></g></g><path class="st3" d="M58.51 25.8c-.58 0-1.15-.25-1.54-.73-.7-.85-.58-2.11.27-2.82l.1-.08c2.91-2.41 3.46-2.47 8.55-2.48h46.54c1.1 0 2 .9 2 2s-.9 2-2 2H65.88c-4.09 0-4.11 0-6 1.56l-.1.08c-.37.32-.82.47-1.27.47z" id="Trazado_7193"/><path class="st3" d="M58.67 89.22H39.39c-1.1 0-2-.89-2-1.99l-.13-38.83c0-4.35.17-5.1 2.04-8.86a1.998 1.998 0 113.58 1.78c-1.62 3.27-1.62 3.34-1.62 7.08l.12 36.83h15.28l-.09-16.7a2 2 0 011.99-2.01h.01c1.1 0 1.99.89 2 1.99l.1 18.71c0 .53-.21 1.04-.58 1.42-.38.37-.89.58-1.42.58z" id="Trazado_7194"/><path class="st3" d="M75.42 43.38c-1.1 0-2-.9-2-2s.9-2 2-2l37.08-.01a2 2 0 110 4l-37.08.01z" id="Línea_2945"/><path class="st1" d="M45.01 36.3c-1.12 0-2.24-.2-3.32-.6a9.38 9.38 0 01-5.32-4.95 9.45 9.45 0 01-.26-7.27 9.38 9.38 0 014.95-5.32c.04-.02.08-.04.12-.05 4.72-2.1 10.28-.02 12.45 4.68.03.07.06.15.09.22a9.48 9.48 0 01.19 7.1 9.38 9.38 0 01-4.95 5.32c-1.26.58-2.6.87-3.95.87zm-2.38-14.46a5.456 5.456 0 00-2.77 3.03c-.51 1.38-.46 2.87.15 4.21 1.26 2.75 4.53 3.97 7.29 2.71 1.34-.61 2.35-1.7 2.86-3.08.51-1.38.46-2.87-.15-4.21-.02-.05-.04-.1-.06-.16-1.3-2.66-4.51-3.8-7.21-2.56-.04.03-.08.05-.11.06z" id="Trazado_7195"/><path class="st3" d="M63.88 97.73H33.67c-1.1 0-2-.9-2-2v-8.51c0-1.1.9-2 2-2h30.21c1.1 0 2 .9 2 2v8.51c0 1.1-.9 2-2 2zm-28.21-4h26.21v-4.51H35.67v4.51z" id="Rectángulo_2911"/><path class="st3" d="M120.68 50.34h-8.26c-1.1 0-2-.9-2-2V16.75c0-1.1.9-2 2-2h8.26c1.1 0 2 .9 2 2v31.59c0 1.1-.9 2-2 2zm-6.26-4h4.26V18.75h-4.26v27.59z" id="Rectángulo_2912"/><g id="Grupo_8480"><path class="st3" d="M72.08 66.11c-4.71 0-8.54-3.83-8.54-8.54s3.83-8.54 8.54-8.54 8.54 3.83 8.54 8.54-3.83 8.54-8.54 8.54zm0-13.08c-2.5 0-4.54 2.04-4.54 4.54s2.04 4.54 4.54 4.54 4.54-2.04 4.54-4.54-2.04-4.54-4.54-4.54z" id="Elipse_1197"/><path class="st3" d="M72.09 77.34c-1.03 0-2.06-.09-3.08-.26-.66-.11-1.22-.55-1.49-1.16L65.7 71.8a2.669 2.669 0 00-2.74-1.58l-4.49.49c-.67.08-1.35-.2-1.78-.73a19.79 19.79 0 01-3.04-5.28c-.25-.63-.15-1.35.25-1.9l2.66-3.64c.69-.95.69-2.22 0-3.17l-2.66-3.62c-.4-.55-.5-1.26-.25-1.9.73-1.91 1.76-3.69 3.04-5.29.43-.53 1.09-.81 1.78-.73l4.49.49c1.17.13 2.27-.5 2.74-1.57l1.82-4.12c.28-.63.86-1.07 1.55-1.17 1.03-.15 2-.23 2.98-.25h.01c1.04 0 2.07.09 3.1.26.67.11 1.23.55 1.5 1.17l1.82 4.12a2.66 2.66 0 002.74 1.58l4.49-.49c.68-.07 1.35.2 1.78.73 1.28 1.59 2.3 3.36 3.04 5.27.25.63.15 1.35-.25 1.9l-2.66 3.64c-.69.95-.69 2.22 0 3.17l2.66 3.64c.4.55.5 1.26.25 1.9-.73 1.91-1.76 3.69-3.04 5.29-.43.53-1.1.81-1.78.73l-4.49-.49c-1.18-.13-2.27.5-2.74 1.57l-1.81 4.12c-.27.62-.83 1.05-1.5 1.17-1.03.15-2.06.23-3.08.23zm-1.37-4.06c.91.09 1.82.09 2.73 0l1.36-3.09a6.626 6.626 0 016.85-3.94l3.34.36c.52-.75.98-1.54 1.36-2.37l-1.99-2.73a6.677 6.677 0 010-7.89l1.99-2.73c-.39-.83-.84-1.62-1.36-2.36l-3.36.37c-2.9.32-5.66-1.27-6.84-3.94l-1.37-3.09c-.46-.04-.91-.07-1.36-.07-.44.01-.9.04-1.37.08l-1.36 3.08a6.62 6.62 0 01-6.84 3.94l-3.35-.37c-.52.75-.98 1.54-1.36 2.37l1.99 2.72a6.677 6.677 0 010 7.89l-1.99 2.73c.39.83.84 1.63 1.36 2.37l3.36-.37a6.66 6.66 0 016.84 3.94l1.37 3.1z" id="Trazado_7196"/></g><path class="st3" d="M111.49 97.58c-.72 0-1.42-.39-1.77-1.07l-7.57-14.46h-.1c-2.45 0-4.85-.85-6.76-2.42-4.53-3.73-5.19-10.45-1.46-14.97.43-.52 1.08-.79 1.75-.72.67.07 1.25.47 1.57 1.06l2.44 4.66c.34.64 1.15.89 1.81.56.67-.34.93-1.17.59-1.84l-2.43-4.64a2.003 2.003 0 011.61-2.92c4.26-.34 8.3 1.88 10.28 5.66 1.86 3.56 1.53 7.85-.74 11.08l7.57 14.47c.25.47.29 1.02.14 1.53-.16.51-.51.93-.98 1.17l-5.01 2.62c-.31.16-.63.23-.94.23zm-8.18-19.63c.74 0 1.42.41 1.77 1.07l7.25 13.86 1.47-.77-7.25-13.86c-.39-.75-.27-1.67.31-2.29 1.93-2.07 2.35-5.14 1.04-7.63a6.58 6.58 0 00-2.93-2.86l.56 1.07c1.35 2.66.3 5.9-2.33 7.24-2.59 1.32-5.8.31-7.16-2.25l-.56-1.08a6.65 6.65 0 002.35 6.09 6.633 6.633 0 005.19 1.44c.09-.02.19-.03.29-.03z" id="Trazado_7197"/></g></svg>