<svg xmlns="http://www.w3.org/2000/svg" width="120" height="120"><g data-name="01-icon_ocenza_hitos_hitos-5"><g data-name="Capa 1"><path data-name="Rectángulo 2942" fill="none" d="M0 0h120v120H0z"/><path data-name="Trazado 7147" d="M54 115.86H35.74a2 2 0 010-4H54a2 2 0 110 4z" fill="#ffea27"/><path data-name="Trazado 7148" d="M75.88 115.86h-9.1a2 2 0 010-4h9.1a2 2 0 010 4z" fill="#ffea27"/><path data-name="Trazado 7149" d="M88.68 115.86a1.962 1.962 0 01-1.42-.59A1.81 1.81 0 0187 115a2.209 2.209 0 01-.18-.34 2.4 2.4 0 01-.12-.38 2.469 2.469 0 010-.39 2.56 2.56 0 010-.39 2.291 2.291 0 01.12-.37 1.92 1.92 0 01.18-.35 1.81 1.81 0 01.25-.3 2 2 0 011.81-.55 1.73 1.73 0 01.37.11 1.86 1.86 0 01.34.19 1.48 1.48 0 01.31.25 2 2 0 01.58 1.41 2.469 2.469 0 010 .39 2.4 2.4 0 01-.12.38 2.21 2.21 0 01-.18.34 1.811 1.811 0 01-.25.3 2 2 0 01-1.43.56z" fill="#ffea27"/><g data-name="Grupo 8574"><path data-name="Trazado 7150" d="M43.24 115.86H25a2 2 0 010-4h18.2a2 2 0 110 4z" fill="#f4d314"/></g><path data-name="Trazado 7151" d="M70.42 103.64H25a2 2 0 110-4h45.42a2 2 0 010 4z" fill="#ffea27"/><g data-name="Grupo 8575"><path data-name="Trazado 7152" d="M25 103.63a2.56 2.56 0 01-.39 0 2.4 2.4 0 01-.38-.12 2.791 2.791 0 01-.34-.18 1.81 1.81 0 01-.3-.25 1.48 1.48 0 01-.25-.31 1.41 1.41 0 01-.19-.34 1.58 1.58 0 01-.11-.37 1.72 1.72 0 010-.39 2 2 0 114 0 1.72 1.72 0 010 .39 1.58 1.58 0 01-.11.37 1.83 1.83 0 01-.18.34 1.94 1.94 0 01-.26.31 1.85 1.85 0 01-.64.43 2 2 0 01-.85.12z" fill="#f4d314"/></g><g data-name="Grupo 8576"><path data-name="Trazado 7153" d="M88.68 103.64H62.92a2 2 0 110-4h25.76a2 2 0 010 4z" fill="#f4d314"/></g><path data-name="Trazado 7154" d="M38.24 81.37H35a2 2 0 010-4h3.24a2 2 0 010 4z" fill="#95a6b1"/><path data-name="Trazado 7155" d="M113.39 86.46H34.85a2 2 0 01-2-2V63.15a2 2 0 012-2h78.54a2 2 0 110 4H36.85v17.31h76.54a2 2 0 010 4z" fill="#95a6b1"/><path data-name="Trazado 7156" d="M34.85 88.46H25a2 2 0 01-2-2V61.14a2 2 0 012-2h9.81a2 2 0 012 2v25.32a2 2 0 01-1.96 2zm-7.81-4h5.81V63.14H27z" fill="#95a6b1"/><path data-name="Trazado 7157" d="M38.2 75.8H35a2 2 0 010-4h3.2a2 2 0 010 4z" fill="#95a6b1"/><path data-name="Trazado 7158" d="M38.24 70.21H35a2 2 0 010-4h3.24a2 2 0 010 4z" fill="#95a6b1"/><path data-name="Trazado 7159" d="M66.26 86.46a2 2 0 01-2-2v-9.58a2 2 0 014 0v9.58a2 2 0 01-2 2z" fill="#95a6b1"/><path data-name="Trazado 7160" d="M66.26 69.7a2 2 0 01-2-2v-4.55a2 2 0 114 0v4.55a2 2 0 01-2 2z" fill="#95a6b1"/><path data-name="Trazado 7161" d="M42.87 56.33a9.5 9.5 0 118.63-13.45 9.5 9.5 0 01-8.63 13.45zm0-15a5.43 5.43 0 00-2.28.5 5.5 5.5 0 107.29 2.72 5.52 5.52 0 00-5.03-3.22z" fill="#ffea27"/><path data-name="Trazado 7162" d="M77.31 65.15H48.26a2 2 0 01-2-2v-3.72a2 2 0 014 0v1.72h25.05V49.54H56.6a2 2 0 010-4h20.71a2 2 0 012 2v15.61a2 2 0 01-2 2z" fill="#95a6b1"/><path data-name="Trazado 7163" d="M62.79 49.54a2 2 0 01-2-2V38a2 2 0 014 0v9.53a2 2 0 01-2 2.01z" fill="#95a6b1"/><path data-name="Trazado 7164" d="M69.46 40H56.6a2 2 0 010-4h12.86a2 2 0 010 4z" fill="#95a6b1"/><path data-name="Trazado 7165" d="M77.31 57.34H56.5a2 2 0 010-4h20.81a2 2 0 010 4z" fill="#95a6b1"/><path data-name="Trazado 7166" d="M113.77 24a11.07 11.07 0 01-7-2.35 7.43 7.43 0 00-9.34 0 11.44 11.44 0 01-13.89 0 7.45 7.45 0 00-9.35 0 11.42 11.42 0 01-13.88 0 7.45 7.45 0 00-9.35 0 11.44 11.44 0 01-13.89 0 7.45 7.45 0 00-9.35 0 11.07 11.07 0 01-6.9 2.35 11.07 11.07 0 01-7-2.35A7.11 7.11 0 009.19 20a2 2 0 010-4 11 11 0 017 2.35 7.391 7.391 0 009.31 0 11.44 11.44 0 0113.89 0 7.45 7.45 0 009.35 0 11.44 11.44 0 0113.89 0 7.43 7.43 0 009.34 0 11.44 11.44 0 0113.89 0 7.45 7.45 0 009.35 0 11.42 11.42 0 0113.88 0 7.13 7.13 0 004.68 1.65 2 2 0 010 4z" fill="#95a6b1"/><path data-name="Trazado 7167" d="M25 81.37h-6.8a2 2 0 01-2-2V67.7a2 2 0 012-2H25a2 2 0 012 2v11.67a2 2 0 01-2 2zm-4.84-4H23V69.7h-2.8z" fill="#95a6b1"/></g></g></svg>