<svg data-name="Grupo 8596" xmlns="http://www.w3.org/2000/svg" width="120" height="120"><path data-name="Rectángulo 2949" fill="none" d="M0 0h120v120H0z"/><g data-name="Grupo 8594" fill="none" stroke-linecap="round" stroke-linejoin="round" stroke-width="4"><g data-name="Grupo 8592"><path data-name="Línea 1778" stroke="#ffea27" d="M53.947 113.861H35.741"/><path data-name="Línea 1779" stroke="#ffea27" d="M75.88 113.861h-9.103"/><path data-name="Línea 1780" stroke="#ffea27" d="M88.679 113.861h0"/><path data-name="Línea 1781" stroke="#f4d314" style="mix-blend-mode:multiply;isolation:isolate" d="M43.241 113.861H25.035"/></g><g data-name="Grupo 8593"><path data-name="Línea 1782" stroke="#ffea27" d="M70.421 101.636H25.035"/><path data-name="Línea 1783" stroke="#f4d314" style="mix-blend-mode:multiply;isolation:isolate" d="M25.035 101.636h0"/><path data-name="Línea 1784" stroke="#f4d314" style="mix-blend-mode:multiply;isolation:isolate" d="M88.679 101.636H62.921"/></g></g><path data-name="Trazado 7294" d="M37.987 13.061a7.5 7.5 0 11-9.937-3.7 7.472 7.472 0 019.937 3.7z" fill="none" stroke="#ffea27" stroke-linecap="round" stroke-linejoin="round" stroke-width="4"/><path data-name="Línea 1785" fill="none" stroke="#95a6b1" stroke-linecap="round" stroke-linejoin="round" stroke-width="4" d="M44.844 10.956h24.502"/><path data-name="Trazado 7295" d="M86.449 28.059V88.5h-56.26V30" fill="none" stroke="#95a6b1" stroke-linecap="round" stroke-linejoin="round" stroke-width="4"/><path data-name="Trazado 7296" d="M69.346 28.059h17.1l-17.1-17.1z" fill="none" stroke="#95a6b1" stroke-linecap="round" stroke-linejoin="round" stroke-width="4"/><g data-name="Grupo 8595" fill="none" stroke="#95a6b1" stroke-linecap="round" stroke-linejoin="round" stroke-width="4"><rect data-name="Rectángulo 2950" width="13.088" height="17.206" rx="6.544" transform="translate(50.946 28.059)"/><path data-name="Trazado 7298" d="M64.035 36.662v14.632a6.1 6.1 0 01-6.1 6.1h-.883a6.1 6.1 0 01-6.1-6.1h0"/></g><path data-name="Línea 1786" fill="none" stroke="#95a6b1" stroke-linecap="round" stroke-linejoin="round" stroke-width="4" d="M38.667 66.346h14.249"/><path data-name="Línea 1787" fill="none" stroke="#95a6b1" stroke-linecap="round" stroke-linejoin="round" stroke-width="4" d="M38.667 76.958h14.249"/><path data-name="Línea 1788" fill="none" stroke="#95a6b1" stroke-linecap="round" stroke-linejoin="round" stroke-width="4" d="M64.204 66.346h14.249"/><path data-name="Línea 1789" fill="none" stroke="#95a6b1" stroke-linecap="round" stroke-linejoin="round" stroke-width="4" d="M64.204 76.958h14.249"/></svg>