<svg xmlns="http://www.w3.org/2000/svg" width="120" height="120"><g data-name="02-icon_ocenza_home_noticias"><g data-name="Capa 1"><path data-name="Rectángulo 2936" fill="none" d="M0 0h120v120H0z"/><path data-name="Trazado 6948" d="M57.09 115.86H38.88a2 2 0 110-4h18.21a2 2 0 110 4z" fill="#ffea27"/><path data-name="Trazado 6949" d="M79 115.86h-9.1a2 2 0 010-4H79a2 2 0 010 4z" fill="#ffea27"/><path data-name="Trazado 6950" d="M91.82 115.86a2 2 0 01-1.41-.59 1.88 1.88 0 01-.44-.64 2 2 0 01.44-2.18 2.06 2.06 0 012.83 0 2 2 0 010 2.82 2.509 2.509 0 01-.31.26 1.995 1.995 0 01-1.11.33z" fill="#ffea27"/><g data-name="Grupo 8550"><path data-name="Trazado 6951" d="M46.38 115.86h-18.2a2 2 0 010-4h18.2a2 2 0 010 4z" fill="#f4d314"/></g><path data-name="Trazado 6952" d="M73.56 103.64H28.18a2 2 0 010-4h45.38a2 2 0 010 4z" fill="#ffea27"/><g data-name="Grupo 8551"><path data-name="Trazado 6953" d="M28.18 103.64a2 2 0 01-1.42-.59 2.16 2.16 0 01-.43-.65 2.019 2.019 0 01.43-2.18l.31-.25a2.211 2.211 0 01.34-.18 2.4 2.4 0 01.38-.12 2 2 0 01.78 0 2.427 2.427 0 01.72.3 2.48 2.48 0 01.3.25 2.34 2.34 0 01.25.3 1.66 1.66 0 01.18.35 2.65 2.65 0 01.12.37 2.58 2.58 0 010 .4 2.016 2.016 0 01-1.96 2z" fill="#f4d314"/></g><g data-name="Grupo 8552"><path data-name="Trazado 6954" d="M91.82 103.64H66.06a2 2 0 110-4h25.76a2 2 0 010 4z" fill="#f4d314"/></g><path data-name="Trazado 6955" d="M26 48.19a9.54 9.54 0 01-3.32-.6 9.518 9.518 0 1111.95-12.9A9.5 9.5 0 0130 47.33a9.4 9.4 0 01-4 .86zm0-15a5.507 5.507 0 101.92.35 5.5 5.5 0 00-1.92-.35z" fill="#ffea27"/><path data-name="Trazado 6956" d="M94 91.14H26a2 2 0 01-2-2V52.8a2 2 0 012-2 2 2 0 012 2v34.41h64v-79H28V24.4a2 2 0 11-3.93 0V6.29a1.95 1.95 0 012-2H94a2 2 0 012 2v82.89a1.92 1.92 0 01-.57 1.38 2 2 0 01-1.43.58z" fill="#95a6b1"/><path data-name="Trazado 6957" d="M85.05 81.24H36a2 2 0 010-3.93h49a2 2 0 010 3.93z" fill="#95a6b1"/><path data-name="Trazado 6958" d="M85.05 70.55h-17a2 2 0 01-2-2v-21a2 2 0 012-2h17a2 2 0 012 2v21a2 2 0 01-2 2zm-15-3.93h13V49.53h-13z" fill="#95a6b1"/><path data-name="Trazado 6959" d="M57.92 53.82H36a2 2 0 010-3.93h21.9a2 2 0 110 3.93z" fill="#95a6b1"/><path data-name="Trazado 6960" d="M57.92 68.19H36a2 2 0 010-3.93h21.9a2 2 0 110 3.93z" fill="#95a6b1"/><path data-name="Trazado 6961" d="M44.91 19.59v7.78L45 28v.63c0 .47.05.95.07 1.43H45l-5.5-10.48h-3.75v14h2.65v-7.81a7.974 7.974 0 00-.07-1.31c-.07-.42-.05-1-.09-1.46h.09l5.5 10.59h3.76v-14z" fill="#95a6b1"/><path data-name="Trazado 6962" d="M58.32 22.02v-2.43h-8.06v14h8.06v-2.45h-5.09v-3.61h4.74v-2.44h-4.74v-3.07z" fill="#95a6b1"/><path data-name="Trazado 6963" d="M74.74 19.59l-1.59 7.64c0 .1-.05.25-.08.45s-.08.41-.12.65-.09.5-.14.77-.1.53-.14.78-.08.5-.12.72-.06.4-.08.54a1.464 1.464 0 00-.08-.54 3.824 3.824 0 01-.12-.69c-.04-.24-.08-.5-.13-.76s-.08-.51-.13-.74-.08-.42-.11-.6-.06-.3-.08-.38l-1.95-7.84h-2.6l-2 7.84a.841.841 0 01-.08.38 2.669 2.669 0 00-.11.6c-.04.22-.08.47-.13.74s-.09.51-.13.76-.07.47-.11.69-.06.4-.08.54a1.464 1.464 0 00-.08-.54 4.871 4.871 0 01-.13-.72c-.05-.26-.09-.51-.14-.78s-.09-.53-.14-.77-.08-.46-.12-.65-.06-.35-.08-.45l-1.54-7.64h-2.92l3.37 14h3.38l1.71-6.89c0-.1.06-.24.09-.42s.08-.37.12-.59.09-.45.13-.68.08-.47.12-.69.07-.42.1-.61a1.686 1.686 0 01.06-.45 1.385 1.385 0 00.06.45 3.826 3.826 0 01.1.62c.03.22.08.45.13.69s.09.46.13.68.09.41.12.58.07.31.09.41l1.73 6.9h3.37l3.37-14z" fill="#95a6b1"/><path data-name="Trazado 6964" d="M86.85 28.27a3.53 3.53 0 00-.67-1.1 5.31 5.31 0 00-1-.88 13.529 13.529 0 00-1.32-.78c-.4-.21-.74-.4-1-.57a3.63 3.63 0 01-.68-.49 1.51 1.51 0 01-.39-.51 1.54 1.54 0 01-.12-.63 1.42 1.42 0 01.4-1 1.55 1.55 0 011.15-.4 5.19 5.19 0 01.68.05 5.73 5.73 0 01.69.16c.24.07.48.16.73.26l.81.35 1-2.31a9.631 9.631 0 00-1-.42 9.419 9.419 0 00-1-.3 8.19 8.19 0 00-1-.2 8.1 8.1 0 00-1-.06 5.88 5.88 0 00-1.84.27 3.64 3.64 0 00-1.39.78 3.52 3.52 0 00-.9 1.2 4.49 4.49 0 00-.31 1.68 3.72 3.72 0 00.36 1.63 3.82 3.82 0 00.81 1.17 5.25 5.25 0 001 .81c.36.22.69.4 1 .56s.67.36.95.52a4.43 4.43 0 01.73.52 2 2 0 01.47.56 1.42 1.42 0 01.17.7 1.63 1.63 0 01-.1.59 1.1 1.1 0 01-.32.47 1.43 1.43 0 01-.56.31 2.9 2.9 0 01-.84.11 4.47 4.47 0 01-1-.1 8.64 8.64 0 01-1-.25c-.32-.11-.64-.24-1-.37l-.93-.43v2.76a7.14 7.14 0 001.75.63 9 9 0 002 .21 6.47 6.47 0 002-.29 4.14 4.14 0 001.51-.82 3.41 3.41 0 00.94-1.28 4.31 4.31 0 00.32-1.69 3.86 3.86 0 00-.1-1.42z" fill="#95a6b1"/></g></g></svg>