<svg version="1.1" id="Capa_1" xmlns="http://www.w3.org/2000/svg" x="0" y="0" viewBox="0 0 120 120" xml:space="preserve"><style>.st1{fill:#ffea27}.st2{fill:#f4d314}.st3{fill:#94a5b0}</style><path fill="none" d="M0 0h120v120H0z"/><path class="st1" d="M57.09 115.06H38.88c-1.1 0-2-.9-2-2s.9-2 2-2h18.21c1.1 0 2 .9 2 2s-.9 2-2 2zm21.93 0h-9.1c-1.1 0-2-.9-2-2s.9-2 2-2h9.1c1.1 0 2 .9 2 2s-.9 2-2 2zm12.8 0c-.27 0-.52-.05-.77-.15-.24-.1-.46-.25-.64-.44a1.983 1.983 0 010-2.82c.46-.47 1.15-.68 1.8-.55.13.02.25.06.37.11s.24.11.35.19c.11.07.21.15.3.25.1.09.18.19.25.3.08.11.14.22.19.34s.08.25.11.38.04.26.04.39c0 .54-.21 1.04-.59 1.41-.37.38-.88.59-1.41.59z"/><path class="st2" d="M46.38 115.06h-18.2c-1.1 0-2-.9-2-2s.9-2 2-2h18.2c1.1 0 2 .9 2 2s-.9 2-2 2z"/><path class="st1" d="M73.56 102.83H28.18c-1.1 0-2-.9-2-2s.9-2 2-2h45.38c1.1 0 2 .9 2 2s-.9 2-2 2z"/><path class="st2" d="M28.18 102.83c-.27 0-.52-.05-.77-.15-.24-.1-.46-.25-.65-.44-.37-.37-.58-.88-.58-1.41 0-.53.21-1.04.58-1.41.1-.1.2-.18.31-.25s.22-.14.35-.19c.12-.05.24-.09.37-.11.65-.13 1.34.08 1.8.55.38.37.59.88.59 1.41 0 .54-.21 1.04-.59 1.41-.37.38-.88.59-1.41.59zm63.64 0H66.06c-1.1 0-2-.9-2-2s.9-2 2-2h25.76c1.1 0 2 .9 2 2s-.9 2-2 2z"/><path class="st3" d="M43.22 55.97c-1.1 0-2-.9-2-2v-8.03c0-1.1.9-2 2-2s2 .9 2 2v8.03c0 1.1-.9 2-2 2z" id="Línea_1013"/><path class="st3" d="M54.99 55.97c-1.1 0-2-.9-2-2v-8.03c0-1.1.9-2 2-2s2 .9 2 2v8.03c0 1.1-.9 2-2 2z" id="Línea_1014"/><path class="st3" d="M76.66 91.77H21.32c-1.1 0-2-.9-2-2v-7.92c0-1.1.9-2 2-2s2 .9 2 2v5.92h51.34v-16.1c0-2.29-.59-4.38-1.71-6.03-.89-1.31-1.93-2.26-3.02-2.75l-15.76-7.08a1.987 1.987 0 01-1-2.64 1.987 1.987 0 012.64-1l15.76 7.08c1.77.79 3.39 2.23 4.7 4.15 1.57 2.32 2.41 5.18 2.41 8.27v18.1c-.02 1.1-.92 2-2.02 2z" id="Trazado_5700_3_"/><path class="st3" d="M32.92 60.76a2.003 2.003 0 01-.85-3.82l10.3-4.77c1-.46 2.19-.03 2.66.97s.03 2.19-.97 2.66l-10.3 4.77c-.27.13-.56.19-.84.19z" id="Línea_1015"/><path class="st3" d="M49.1 62.64c-.55 0-1.11-.23-1.5-.68l-5.88-6.67c-.73-.83-.65-2.09.18-2.82.83-.73 2.09-.65 2.82.18l5.88 6.67c.73.83.65 2.09-.18 2.82-.38.34-.85.5-1.32.5z" id="Línea_1016"/><path class="st3" d="M49.1 62.64c-.47 0-.94-.17-1.32-.5-.83-.73-.91-2-.18-2.82l5.89-6.67c.73-.83 1.99-.91 2.82-.18.83.73.91 2 .18 2.82l-5.89 6.67c-.4.45-.95.68-1.5.68z" id="Línea_1017"/><path class="st3" d="M49.06 49.63c-7.21 0-13.08-5.87-13.08-13.08 0-1.1.9-2 2-2s2 .9 2 2c0 5.01 4.07 9.08 9.08 9.08s9.08-4.07 9.08-9.08c0-1.1.9-2 2-2s2 .9 2 2c0 7.21-5.87 13.08-13.08 13.08z" id="Trazado_5701"/><path class="st3" d="M60.13 38.55c-1.1 0-2-.9-2-2V22.9c0-5.01-4.07-9.08-9.08-9.08s-9.08 4.07-9.08 9.08v13.65c0 1.1-.9 2-2 2s-2-.9-2-2V22.9c0-7.21 5.87-13.08 13.08-13.08s13.08 5.87 13.08 13.08v13.65c0 1.1-.9 2-2 2z" id="Trazado_5702"/><path class="st1" d="M21.83 77.44c-5.24 0-9.5-4.26-9.5-9.5 0-5.26 4.33-9.53 9.57-9.5 5.16 0 9.39 4.2 9.43 9.39v.12c0 5.23-4.26 9.49-9.5 9.49zm.05-15h-.04c-3.05 0-5.51 2.47-5.51 5.5s2.47 5.5 5.5 5.5 5.5-2.47 5.5-5.5v-.1c-.02-2.98-2.46-5.4-5.45-5.4z" id="Trazado_5703_1_"/><path d="M65.13 29.05H32.65c-.99 0-1.8-.81-1.8-1.8s.81-1.8 1.8-1.8h32.48c.99 0 1.8.81 1.8 1.8s-.81 1.8-1.8 1.8zm-11.88-7.52c-.99 0-1.8-.81-1.8-1.8v-6.62c0-.99.81-1.8 1.8-1.8s1.8.81 1.8 1.8v6.62c0 .99-.81 1.8-1.8 1.8zm-8.73 0c-.99 0-1.8-.81-1.8-1.8v-6.62c0-.99.81-1.8 1.8-1.8s1.8.81 1.8 1.8v6.62c0 .99-.81 1.8-1.8 1.8z" fill="#95a6b1"/><path class="st3" d="M99.68 47.8c-.28 0-.57-.07-.83-.21l-8.86-4.66-8.86 4.66c-.6.32-1.33.26-1.88-.13-.55-.4-.82-1.08-.71-1.74l1.69-9.87-7.17-7c-.49-.47-.66-1.18-.45-1.83.21-.65.77-1.12 1.44-1.21l9.9-1.44 4.44-8.98c.3-.61.92-.99 1.6-.99s1.3.39 1.6.99l4.43 8.98 9.9 1.44c.67.1 1.23.57 1.44 1.21.21.65.04 1.35-.45 1.83l-7.17 7 1.69 9.87c.11.67-.16 1.35-.71 1.74-.3.23-.67.34-1.04.34zm-9.69-8.66c.29 0 .57.07.83.21l6.49 3.42-1.24-7.23c-.1-.58.09-1.17.51-1.58l5.25-5.13-7.26-1.05c-.58-.08-1.08-.45-1.34-.98l-3.25-6.58-3.25 6.58c-.26.53-.76.89-1.34.98l-7.26 1.05 5.26 5.13c.42.41.61 1 .51 1.58l-1.24 7.23 6.49-3.42c.27-.14.56-.21.84-.21z"/></svg>