<svg xmlns="http://www.w3.org/2000/svg" width="120" height="120"><g data-name="01-icon_ocenza_hitos_hitos-2"><g data-name="Capa 1"><path data-name="Rectángulo 2939" fill="none" d="M0 0h120v120H0z"/><path data-name="Trazado 7025" d="M54 115.86H35.74a2 2 0 010-4H54a2 2 0 110 4z" fill="#ffea27"/><path data-name="Trazado 7026" d="M75.88 115.86h-9.1a2 2 0 010-4h9.1a2 2 0 010 4z" fill="#ffea27"/><path data-name="Trazado 7027" d="M88.67 115.86a2 2 0 01-1.41-.59 1.85 1.85 0 01-.43-.64 2 2 0 01.43-2.18 1.73 1.73 0 01.3-.25 1.66 1.66 0 01.35-.18 1.77 1.77 0 01.37-.12 2 2 0 11.39 3.96z" fill="#ffea27"/><g data-name="Grupo 8565"><path data-name="Trazado 7028" d="M43.24 115.86H25a2 2 0 010-4h18.2a2 2 0 110 4z" fill="#f4d314"/></g><path data-name="Trazado 7029" d="M70.42 103.64H25a2 2 0 110-4h45.42a2 2 0 010 4z" fill="#ffea27"/><g data-name="Grupo 8566"><path data-name="Trazado 7030" d="M25 103.64a2 2 0 01-1.41-3.42 2.479 2.479 0 01.3-.25 1.92 1.92 0 01.35-.18 2.29 2.29 0 01.37-.12 2 2 0 01.78 0 2.778 2.778 0 01.38.12 2.211 2.211 0 01.34.18 2.48 2.48 0 01.3.25 1.73 1.73 0 01.25.3 1.7 1.7 0 01.19.35 1.73 1.73 0 01.11.37 1.81 1.81 0 010 .4 2.016 2.016 0 01-1.96 2z" fill="#f4d314"/></g><g data-name="Grupo 8567"><path data-name="Trazado 7031" d="M88.68 103.64H62.92a2 2 0 110-4h25.76a2 2 0 010 4z" fill="#f4d314"/></g><path data-name="Trazado 7032" d="M41 57.8H29.75a2 2 0 010-4H41a2 2 0 010 4z" fill="#95a6b1"/><path data-name="Trazado 7033" d="M79.76 36.27a1.981 1.981 0 01-2-2 1.72 1.72 0 010-.39 1.58 1.58 0 01.11-.37 2.31 2.31 0 01.18-.35 2.48 2.48 0 01.25-.3 2 2 0 011.81-.55 2.59 2.59 0 01.37.11 2.37 2.37 0 01.35.19 1.42 1.42 0 01.3.25 1.811 1.811 0 01.25.3 2.427 2.427 0 01.3.72 2.58 2.58 0 010 .39 2 2 0 01-1.92 2z" fill="#95a6b1"/><path data-name="Trazado 7034" d="M65.25 36.27H31.31a2 2 0 01-2-2v-5.94a2 2 0 114 0v3.94h31.94a2 2 0 010 4z" fill="#95a6b1"/><path data-name="Trazado 7035" d="M29.94 24.33a9.5 9.5 0 113.93-.86 9.5 9.5 0 01-3.93.86zm0-15a5.42 5.42 0 00-2.27.5 5.5 5.5 0 107.28 2.71 5.5 5.5 0 00-5.04-3.21z" fill="#ffea27"/><path data-name="Trazado 7036" d="M85.75 36.27h-6a2 2 0 010-4h4v-15.9a.23.23 0 00-.23-.23H44.16a2 2 0 010-4h39.36a4.24 4.24 0 014.23 4.23v17.9a2 2 0 01-2 2z" fill="#95a6b1"/><path data-name="Trazado 7037" d="M76.49 16.14h-27.1a2 2 0 01-2-2V7.6a4.12 4.12 0 014.12-4.11h23.16a3.82 3.82 0 013.82 3.82v6.83a2 2 0 01-2 2zm-25.1-4h23.1V7.49h-23a.11.11 0 00-.12.11zm23.28-4.65z" fill="#95a6b1"/><path data-name="Trazado 7038" d="M85.83 23.65H43.49a2 2 0 010-4h42.34a2 2 0 010 4z" fill="#95a6b1"/><path data-name="Trazado 7039" d="M22.44 64.5a2 2 0 01-2-2V36.83A4.54 4.54 0 0125 32.29h40.25a2 2 0 010 4H25a.54.54 0 00-.54.54V62.5a2 2 0 01-2.02 2z" fill="#95a6b1"/><path data-name="Trazado 7040" d="M95.14 64.5a2 2 0 01-2-2v-26a.2.2 0 00-.19-.2H79.76a2 2 0 010-4h13.19a4.2 4.2 0 014.19 4.2v26a2 2 0 01-2 2z" fill="#95a6b1"/><path data-name="Trazado 7041" d="M22.44 43.14a2 2 0 110-4h25.84a2 2 0 010 4z" fill="#95a6b1"/><path data-name="Línea 1775" fill="#fff" d="M41 41.12V62.5"/><path data-name="Trazado 7042" d="M41 64.5a2 2 0 01-2-2V41.12a2 2 0 114 0V62.5a2 2 0 01-2 2z" fill="#95a6b1"/><path data-name="Trazado 7043" d="M41 49.81H29.75a2 2 0 110-4H41a2 2 0 010 4z" fill="#95a6b1"/><path data-name="Trazado 7044" d="M29.72 64.5a2 2 0 01-2-2V41.12a2 2 0 014 0V62.5a2 2 0 01-2 2z" fill="#95a6b1"/><path data-name="Trazado 7045" d="M48.28 64.5a2 2 0 01-2-2V34.27a2 2 0 014 0V62.5a2 2 0 01-2 2z" fill="#95a6b1"/><path data-name="Trazado 7046" d="M79.74 47.41H65.21a2 2 0 01-2-2V34.33a2 2 0 012-2 2 2 0 012 2v9.07h10.53v-9.1a2 2 0 014 0v11.1a2 2 0 01-2 2.01z" fill="#95a6b1"/><path data-name="Trazado 7047" d="M56.3 16.14a2 2 0 01-2-2V5.49a2 2 0 114 0v8.65a2 2 0 01-2 2z" fill="#95a6b1"/><path data-name="Trazado 7048" d="M62.94 16.14a2 2 0 01-2-2V5.49a2 2 0 114 0v8.65a2 2 0 01-2 2z" fill="#95a6b1"/><path data-name="Trazado 7049" d="M69.83 16.14a2 2 0 01-2-2V5.49a2 2 0 114 0v8.65a2 2 0 01-2 2z" fill="#95a6b1"/><path data-name="Trazado 7050" d="M87.45 48.15a2 2 0 01-2-2V34.31a2 2 0 114 0v11.84a2 2 0 01-2 2z" fill="#95a6b1"/><path data-name="Trazado 7051" d="M56.74 48.15a2 2 0 01-2-2V34.31a2 2 0 114 0v11.84a2 2 0 01-2 2z" fill="#95a6b1"/><path data-name="Trazado 7052" d="M95.14 64.5h-72.7a2 2 0 110-4h72.7a2 2 0 010 4z" fill="#95a6b1"/><path data-name="Trazado 7053" d="M87.9 91.62h-6.82a2 2 0 01-2-2v-12.7a2 2 0 012-2h6.82a2 2 0 012 2v12.7a2 2 0 01-2 2zm-4.82-4h2.82v-8.7h-2.82z" fill="#95a6b1"/><path data-name="Trazado 7054" d="M81.08 90.27H63.22a12 12 0 01-12-12v-5.14a2 2 0 012-2h10a2 2 0 012 2v2.51a.61.61 0 00.61.61h15.28a2 2 0 012 2v10a2 2 0 01-2.03 2.02zM55.19 75.13v3.11a8 8 0 008 8h15.89v-6H65.79a4.62 4.62 0 01-4.6-4.61v-.51z" fill="#95a6b1"/><path data-name="Trazado 7055" d="M36.42 71.7h-5.7a2 2 0 010-4h5.7a2 2 0 010 4z" fill="#95a6b1"/><path data-name="Trazado 7056" d="M34.74 81.79a2 2 0 01-1.42-3.41l4-4a2 2 0 112.83 2.82l-4 4a2 2 0 01-1.41.59z" fill="#95a6b1"/><path data-name="Trazado 7057" d="M44.12 85.48a2 2 0 01-2-2v-5.7a2 2 0 014 0v5.7a2 2 0 01-2 2z" fill="#95a6b1"/></g></g></svg>