<svg xmlns="http://www.w3.org/2000/svg" width="120" height="120"><g data-name="01-icon_ocenza_hitos_hitos-6"><g data-name="Capa 1"><path data-name="Rectángulo 2943" fill="none" d="M0 0h120v120H0z"/><path data-name="Trazado 7168" d="M54 115.86H35.74a2 2 0 010-4H54a2 2 0 110 4z" fill="#ffea27"/><path data-name="Trazado 7169" d="M75.88 115.86h-9.1a2 2 0 010-4h9.1a2 2 0 010 4z" fill="#ffea27"/><path data-name="Trazado 7170" d="M88.68 115.86a2 2 0 01-.77-.15A2.31 2.31 0 0187 115a2 2 0 01-.33-1.11 1.72 1.72 0 010-.39 1.58 1.58 0 01.11-.37 1.48 1.48 0 01.19-.35 1.42 1.42 0 01.25-.3 2 2 0 012.82 0 1.421 1.421 0 01.25.3 1.48 1.48 0 01.19.35 2.259 2.259 0 01.11.37 1.72 1.72 0 010 .39 2.2 2.2 0 01-.15.77 1.629 1.629 0 01-.19.34 1.42 1.42 0 01-.25.3 2 2 0 01-1.32.56z" fill="#ffea27"/><g data-name="Grupo 8577"><path data-name="Trazado 7171" d="M43.24 115.86H25a2 2 0 010-4h18.2a2 2 0 110 4z" fill="#f4d314"/></g><path data-name="Trazado 7172" d="M70.42 103.64H25a2 2 0 110-4h45.42a2 2 0 010 4z" fill="#ffea27"/><g data-name="Grupo 8578"><path data-name="Trazado 7173" d="M25 103.63a2 2 0 01-1.42-.58 1.89 1.89 0 01-.25-.31 1.831 1.831 0 01-.18-.34 1.58 1.58 0 01-.11-.37 1.72 1.72 0 010-.39 2 2 0 01.58-1.42 2.06 2.06 0 012.83 0 2 2 0 01.59 1.42 2.58 2.58 0 010 .39 2.29 2.29 0 01-.12.37 1.38 1.38 0 01-.18.34 1.89 1.89 0 01-.25.31 2 2 0 01-1.41.58z" fill="#f4d314"/></g><g data-name="Grupo 8579"><path data-name="Trazado 7174" d="M88.68 103.64H62.92a2 2 0 110-4h25.76a2 2 0 010 4z" fill="#f4d314"/></g><path data-name="Trazado 7175" d="M19.38 70.23h-3.24a2 2 0 010-4h3.24a2 2 0 010 4z" fill="#95a6b1"/><path data-name="Trazado 7176" d="M19.53 86.46h-12a2 2 0 010-4h10V65.15h-10a2 2 0 010-4h12a2 2 0 012 2v21.31a2 2 0 01-2 2z" fill="#95a6b1"/><path data-name="Trazado 7177" d="M29.34 88.46h-9.81a2 2 0 01-2-2V61.14a2 2 0 012-2h9.81a2 2 0 012 2v25.32a2 2 0 01-2 2zm-7.81-4h5.81V63.14h-5.81z" fill="#95a6b1"/><path data-name="Trazado 7178" d="M19.38 75.8h-3.2a2 2 0 110-4h3.2a2 2 0 010 4z" fill="#95a6b1"/><path data-name="Trazado 7179" d="M19.38 81.39h-3.24a2 2 0 010-4h3.24a2 2 0 010 4z" fill="#95a6b1"/><path data-name="Trazado 7180" d="M66.05 81.37h-3.24a2 2 0 110-4h3.24a2 2 0 010 4z" fill="#95a6b1"/><path data-name="Trazado 7181" d="M113.51 86.46H62.67a2 2 0 01-2-2V63.15a2 2 0 012-2h50.84a2 2 0 110 4H64.67v17.31h48.84a2 2 0 010 4z" fill="#95a6b1"/><path data-name="Trazado 7182" d="M62.67 88.46h-9.82a2 2 0 01-2-2V61.14a2 2 0 012-2h9.82a2 2 0 012 2v25.32a2 2 0 01-2 2zm-7.82-4h5.82V63.14h-5.82z" fill="#95a6b1"/><path data-name="Trazado 7183" d="M66 75.8h-3.2a2 2 0 010-4H66a2 2 0 010 4z" fill="#95a6b1"/><path data-name="Trazado 7184" d="M66.05 70.21h-3.24a2 2 0 110-4h3.24a2 2 0 010 4z" fill="#95a6b1"/><path data-name="Trazado 7185" d="M94.08 86.46a2 2 0 01-2-2v-9.58a2 2 0 014 0v9.58a2 2 0 01-2 2z" fill="#95a6b1"/><path data-name="Trazado 7186" d="M94.08 69.7a2 2 0 01-2-2v-4.55a2 2 0 114 0v4.55a2 2 0 01-2 2z" fill="#95a6b1"/><path data-name="Trazado 7187" d="M70.69 56.33a9.5 9.5 0 118.62-13.45 9.5 9.5 0 01-8.62 13.45zm0-15a5.38 5.38 0 00-2.27.5 5.5 5.5 0 107.28 2.72 5.51 5.51 0 00-5.04-3.22z" fill="#ffea27"/><path data-name="Trazado 7188" d="M105.12 65.15h-29a2 2 0 01-2-2v-3.72a2 2 0 014 0v1.72h25V49.54h-18.7a2 2 0 010-4h20.7a2 2 0 012 2v15.61a2 2 0 01-2 2z" fill="#95a6b1"/><path data-name="Trazado 7189" d="M90.6 49.54a2 2 0 01-2-2V38a2 2 0 014 0v9.53a2 2 0 01-2 2.01z" fill="#95a6b1"/><path data-name="Trazado 7190" d="M97.27 40H84.42a2 2 0 010-4h12.85a2 2 0 010 4z" fill="#95a6b1"/><path data-name="Trazado 7191" d="M105.12 57.34H84.31a2 2 0 010-4h20.81a2 2 0 010 4z" fill="#95a6b1"/><path data-name="Trazado 7192" d="M113.51 24a11.07 11.07 0 01-7-2.35 7.43 7.43 0 00-9.34 0 11.44 11.44 0 01-13.89 0 7.47 7.47 0 00-9.35 0 11.4 11.4 0 01-13.88 0 7.45 7.45 0 00-9.35 0 11.44 11.44 0 01-13.89 0 7.45 7.45 0 00-9.35 0 11.07 11.07 0 01-7 2.35 11.07 11.07 0 01-6.95-2.35A7.09 7.09 0 008.93 20a2 2 0 010-4 11 11 0 017 2.35 7.391 7.391 0 009.31 0 11.44 11.44 0 0113.89 0 7.45 7.45 0 009.35 0 11.44 11.44 0 0113.89 0 7.43 7.43 0 009.34 0 11.44 11.44 0 0113.89 0 7.45 7.45 0 009.35 0 11.42 11.42 0 0113.88 0 7.13 7.13 0 004.68 1.65 2 2 0 110 4z" fill="#95a6b1"/><path data-name="Trazado 7193" d="M44.57 75.8h-9.71a2 2 0 010-4h9.71a2 2 0 010 4z" fill="#95a6b1"/><path data-name="Trazado 7194" d="M43.36 79.77A2 2 0 0142 76.36l2.5-2.56-2.5-2.55a2 2 0 012.82-2.83l4 4a2 2 0 010 2.83l-4 4a2 2 0 01-1.46.52z" fill="#95a6b1"/></g></g></svg>