<svg xmlns="http://www.w3.org/2000/svg" width="120" height="120"><g data-name="01-icon_ocenza_hitos_hitos-7"><g data-name="Capa 1"><path data-name="Rectángulo 2944" fill="none" d="M0 0h120v120H0z"/><path data-name="Trazado 7195" d="M54 115.86H35.74a2 2 0 010-4H54a2 2 0 110 4z" fill="#ffea27"/><path data-name="Trazado 7196" d="M75.88 115.86h-9.1a2 2 0 010-4h9.1a2 2 0 010 4z" fill="#ffea27"/><path data-name="Trazado 7197" d="M88.68 115.86a2.008 2.008 0 01-1.42-3.42 2.08 2.08 0 012.83 0 1.992 1.992 0 010 2.83 1.42 1.42 0 01-.3.25 1.7 1.7 0 01-.35.19 1.58 1.58 0 01-.37.11 1.721 1.721 0 01-.39.04z" fill="#ffea27"/><g data-name="Grupo 8580"><path data-name="Trazado 7198" d="M43.24 115.86H25a2 2 0 010-4h18.2a2 2 0 110 4z" fill="#f4d314"/></g><path data-name="Trazado 7199" d="M70.42 103.64H25a2 2 0 110-4h45.42a2 2 0 010 4z" fill="#ffea27"/><g data-name="Grupo 8581"><path data-name="Trazado 7200" d="M25 103.63a2.6 2.6 0 01-.4 0 2.289 2.289 0 01-.37-.12 1.83 1.83 0 01-.34-.18 1.89 1.89 0 01-.31-.25 2 2 0 01-.58-1.42 1.72 1.72 0 010-.39 1.58 1.58 0 01.11-.37 2.309 2.309 0 01.18-.35 2.48 2.48 0 01.25-.3 1.89 1.89 0 01.31-.25 1.83 1.83 0 01.34-.18 2.648 2.648 0 01.37-.12 2.1 2.1 0 01.79 0 2.649 2.649 0 01.37.12 2.309 2.309 0 01.35.18 2.34 2.34 0 01.3.25 1.809 1.809 0 01.25.3 2.427 2.427 0 01.3.72 2.56 2.56 0 010 .39 2 2 0 01-.58 1.42 2.16 2.16 0 01-.65.43 2 2 0 01-.69.12z" fill="#f4d314"/></g><g data-name="Grupo 8582"><path data-name="Trazado 7201" d="M88.68 103.64H62.92a2 2 0 110-4h25.76a2 2 0 010 4z" fill="#f4d314"/></g><path data-name="Trazado 7202" d="M79.48 81H68.91a2 2 0 010-4h10.57a2 2 0 010 4z" fill="#95a6b1"/><path data-name="Trazado 7203" d="M79.48 74.3H68.91a2 2 0 010-4h10.57a2 2 0 010 4z" fill="#95a6b1"/><path data-name="Trazado 7204" d="M100 68.27a2.6 2.6 0 01-.4 0 2.65 2.65 0 01-.37-.12 1.83 1.83 0 01-.34-.18l-.31-.25a2 2 0 01-.58-1.45 1.72 1.72 0 010-.39 1.581 1.581 0 01.11-.37 2.31 2.31 0 01.18-.35 2.478 2.478 0 01.25-.3 1.889 1.889 0 01.31-.25 1.829 1.829 0 01.34-.18 2.4 2.4 0 01.38-.12 2 2 0 01.78 0 2.65 2.65 0 01.37.12 2.311 2.311 0 01.35.18 2.16 2.16 0 01.55.55 2.426 2.426 0 01.3.72 2.58 2.58 0 010 .39 2 2 0 01-2 2z" fill="#95a6b1"/><path data-name="Trazado 7205" d="M90.55 68.28H68.42a2 2 0 01-2-2V59a2 2 0 014 0v5.32h20.13a2 2 0 010 4z" fill="#95a6b1"/><path data-name="Trazado 7206" d="M103.91 68.28H100a2 2 0 010-4h1.9v-9.13l-27.25-.3V59a2 2 0 01-4 0v-4.23A3.93 3.93 0 0171.83 52a3.74 3.74 0 012.81-1.13l27.84.3a3.45 3.45 0 013.43 3.46v11.65a2 2 0 01-2 2zm-1.47-13.13z" fill="#95a6b1"/><path data-name="Trazado 7207" d="M97.12 54.83H79.45a2 2 0 01-2-2v-5a3.39 3.39 0 013.38-3.38h15.1a3.19 3.19 0 013.19 3.19v5.22a2 2 0 01-2 1.97zm-15.67-4h13.67v-2.41H81.45zm14.48-2.41z" fill="#95a6b1"/><path data-name="Trazado 7208" d="M104 61H68.42a2 2 0 010-4H104a2 2 0 010 4z" fill="#95a6b1"/><path data-name="Trazado 7209" d="M62.64 86.68a2 2 0 01-2-2V67.94a3.66 3.66 0 013.65-3.65h26.26a2 2 0 010 4H64.64v16.39a2 2 0 01-2 2z" fill="#95a6b1"/><path data-name="Trazado 7210" d="M110 86a2 2 0 01-2-2V68.29h-8a2 2 0 010-4h8.59a3.44 3.44 0 013.41 3.43V84a2 2 0 01-2 2z" fill="#95a6b1"/><path data-name="Trazado 7211" d="M68.91 86a2 2 0 01-2-2V66.3a2 2 0 014 0V84a2 2 0 01-2 2z" fill="#95a6b1"/><path data-name="Trazado 7212" d="M79.48 87.54a2 2 0 01-2-2V66.28a2 2 0 014 0v19.26a2 2 0 01-2 2z" fill="#95a6b1"/><path data-name="Trazado 7213" d="M100 75.54h-9.48a2 2 0 01-2-2v-7.22a2 2 0 014 0v5.22H98V66.3a2 2 0 014 0v7.24a2 2 0 01-2 2z" fill="#95a6b1"/><path data-name="Trazado 7214" d="M105 76a2 2 0 01-2-2v-7.7a2 2 0 014 0V74a2 2 0 01-2 2z" fill="#95a6b1"/><path data-name="Trazado 7215" d="M85 76a2 2 0 01-2-2v-7.7a2 2 0 014 0V74a2 2 0 01-2 2z" fill="#95a6b1"/><path data-name="Trazado 7216" d="M15.63 54.83a7.9 7.9 0 01-2.7-.49 7.72 7.72 0 119.71-10.44 7.661 7.661 0 01-6.96 10.93zm0-11.43a3.706 3.706 0 101.29.23 3.64 3.64 0 00-1.3-.23z" fill="#ffea27"/><path data-name="Trazado 7217" d="M46.31 67.1a2 2 0 01-2-2V53a.23.23 0 00-.23-.24H25.94a2 2 0 110-4h18.14A4.24 4.24 0 0148.31 53v12.1a2 2 0 01-2 2z" fill="#95a6b1"/><path data-name="Trazado 7218" d="M15.9 66.07a2 2 0 01-2-2V58a2 2 0 014 0v6.12a2 2 0 01-2 1.95z" fill="#95a6b1"/><path data-name="Trazado 7219" d="M39.58 52.75a2 2 0 01-2-2v-6.91H25.94a2 2 0 110-4h12.15a3.49 3.49 0 013.49 3.49v7.42a2 2 0 01-2 2zm-1.49-8.91z" fill="#95a6b1"/><path data-name="Trazado 7220" d="M45.91 86.82a2.1 2.1 0 01-.56-.08A2 2 0 0144 84.26l4.56-15.64-18.32-10.15-18.45 10.14 4.82 14.86a2 2 0 01-3.81 1.23l-4.86-15a3.71 3.71 0 011.74-4.49L28.44 54.9a3.73 3.73 0 013.62 0l18.6 10.32a3.76 3.76 0 011.73 4.48l-4.56 15.68a2 2 0 01-1.92 1.44zm2.66-18.32zm-36.85-.1z" fill="#95a6b1"/><path data-name="Trazado 7221" d="M30.25 86.48a2 2 0 01-2-2V56.42a2 2 0 014 0v28.06a2 2 0 01-2 2z" fill="#95a6b1"/><circle data-name="Elipse 1209" cx="2.27" cy="2.27" r="2.27" transform="translate(18.88 66.67)" fill="#95a6b1"/><circle data-name="Elipse 1210" cx="2.27" cy="2.27" r="2.27" transform="translate(37.02 66.67)" fill="#95a6b1"/><path data-name="Trazado 7222" d="M36.65 43.84H25.08V32.23A3.24 3.24 0 0128.33 29h5a3.35 3.35 0 013.34 3.34zm-7.57-4h3.57V33h-3.57z" fill="#95a6b1"/><path data-name="Trazado 7223" d="M114.44 88.22a7.69 7.69 0 01-5.12-1.89 4.88 4.88 0 00-6.57 0 7.88 7.88 0 01-10.24 0 4.9 4.9 0 00-6.58 0 7.89 7.89 0 01-10.25 0 4.9 4.9 0 00-6.58 0 7.88 7.88 0 01-10.24 0 4.88 4.88 0 00-6.57 0 7.89 7.89 0 01-10.25 0 4.9 4.9 0 00-6.58 0 7.88 7.88 0 01-10.24 0 4.9 4.9 0 00-6.58 0 7.72 7.72 0 01-5.13 1.89 7.69 7.69 0 01-5.12-1.89 4.73 4.73 0 00-3.3-1.27 1.53 1.53 0 010-3 7.7 7.7 0 015.13 1.88 4.88 4.88 0 006.59 0 7.91 7.91 0 0110.24 0 4.87 4.87 0 006.58 0 7.93 7.93 0 0110.25 0 4.87 4.87 0 006.58 0 7.91 7.91 0 0110.24 0 4.86 4.86 0 006.57 0 7.91 7.91 0 0110.24 0 4.87 4.87 0 006.58 0 7.93 7.93 0 0110.25 0 4.87 4.87 0 006.58 0 7.91 7.91 0 0110.24 0 4.69 4.69 0 003.28 1.28 1.53 1.53 0 110 3z" fill="#94a5b0"/><path data-name="Trazado 7224" d="M46.31 61a2.047 2.047 0 01-1.58-3.31L82 12.59a3.7 3.7 0 00-3.38.68c-21.71 17.61-36 29.52-37.37 31.15a2 2 0 01-3.43-2c.33-.62 1.11-2.06 38.28-32.21a7.68 7.68 0 0110.3.53 2 2 0 01.13 2.69l-38.68 46.8a2 2 0 01-1.54.77zm-5-16.68l-.06.11a.41.41 0 00.09-.15z" fill="#95a6b1"/><path data-name="Trazado 7225" d="M85 33.93a2 2 0 01-2-2V12.12a2 2 0 014 0v19.81a2 2 0 01-2 2z" fill="#95a6b1"/><path data-name="Trazado 7226" d="M61.15 43a2.581 2.581 0 01-.39 0l-15.57-3.1a2.026 2.026 0 11.81-3.97l13.59 2.71 3.19-17a2 2 0 011.43-1.55l15.71-4.38A2.009 2.009 0 0181 19.58l-14.52 4-3.37 17.79a2 2 0 01-2 1.63z" fill="#95a6b1"/></g></g></svg>