<svg version="1.1" id="Capa_1" xmlns="http://www.w3.org/2000/svg" x="0" y="0" viewBox="0 0 120 120" xml:space="preserve"><style>.st1{fill:#ffea27}.st2{fill:#f4d314}.st3{fill:#94a5b0}.st4{fill:#95a6b1}</style><path fill="none" d="M0 0h120v120H0z"/><g id="Grupo_8476" transform="translate(-17.17 -8.447)"><g id="Grupo_8475"><g id="Grupo_8473"><path class="st1" d="M74.26 122.15H56.05c-1.1 0-2-.9-2-2s.9-2 2-2h18.21c1.1 0 2 .9 2 2s-.9 2-2 2z" id="Línea_2930"/><path class="st1" d="M96.19 122.15h-9.1c-1.1 0-2-.9-2-2s.9-2 2-2h9.1c1.1 0 2 .9 2 2s-.9 2-2 2z" id="Línea_2931"/><path class="st1" d="M108.99 122.15c-.54 0-1.04-.21-1.41-.58-.19-.19-.34-.41-.44-.65a1.994 1.994 0 01-.11-1.16c.02-.13.06-.25.11-.37s.11-.24.19-.35c.07-.11.15-.21.25-.3.09-.09.19-.18.3-.25a2.211 2.211 0 01.72-.3c.65-.13 1.34.08 1.8.55.1.09.18.19.25.3s.14.23.19.35.08.24.11.37.04.26.04.39c0 .27-.05.53-.15.77a2.022 2.022 0 01-1.08 1.08c-.25.1-.5.15-.77.15z" id="Línea_2932"/><path class="st2" d="M63.55 122.15h-18.2c-1.1 0-2-.9-2-2s.9-2 2-2h18.2c1.1 0 2 .9 2 2s-.9 2-2 2z" id="Línea_2933"/></g><g id="Grupo_8474"><path class="st1" d="M90.74 109.92H45.35c-1.1 0-2-.9-2-2s.9-2 2-2h45.39c1.1 0 2 .9 2 2s-.9 2-2 2z" id="Línea_2934"/><path class="st2" d="M45.35 109.92a1.998 1.998 0 01-2-2c0-.52.21-1.04.59-1.41.74-.75 2.08-.75 2.82 0a1.989 1.989 0 010 2.83c-.37.37-.88.58-1.41.58z" id="Línea_2935"/><path class="st2" d="M108.99 109.92H83.24c-1.1 0-2-.9-2-2s.9-2 2-2h25.75c1.1 0 2 .9 2 2s-.9 2-2 2z" id="Línea_2936"/></g></g><path class="st3" d="M58.51 25.8c-.58 0-1.15-.25-1.54-.73-.7-.85-.58-2.11.27-2.82l.1-.08c2.91-2.41 3.46-2.47 8.55-2.48h46.54c1.1 0 2 .9 2 2s-.9 2-2 2H65.88c-4.09 0-4.11 0-6 1.56l-.1.08c-.37.32-.82.47-1.27.47z" id="Trazado_7185"/><path class="st3" d="M58.67 89.22H39.39c-1.1 0-2-.89-2-1.99l-.13-38.83c0-4.35.17-5.1 2.04-8.86a1.998 1.998 0 113.58 1.78c-1.62 3.27-1.62 3.34-1.62 7.08l.12 36.83h15.28l-.09-26.7c0-1.1.89-2 1.99-2.01h.01c1.1 0 2 .89 2 1.99l.1 28.71c0 .53-.21 1.04-.58 1.42-.38.37-.89.58-1.42.58z" id="Trazado_7186"/><path class="st3" d="M60.65 59.43c-1.1 0-2-.89-2-1.99l-.02-6.45c0-4.57 3.63-8.01 8.44-8.01h7.38c1.1 0 2 .9 2 2s-.9 2-2 2h-7.38c-2.61 0-4.44 1.65-4.44 4l.02 6.44c0 1.11-.89 2.01-2 2.01z" id="Trazado_7187"/><path class="st3" d="M74.68 43.38c-1.1 0-2-.9-2-2s.9-2 2-2l37.82-.01a2 2 0 110 4l-37.82.01z" id="Línea_2937"/><path class="st1" d="M45.01 36.3c-1.12 0-2.24-.2-3.32-.6-2.38-.88-4.27-2.64-5.32-4.95s-1.15-4.89-.26-7.27a9.38 9.38 0 014.95-5.32c.04-.02.08-.04.12-.05 4.72-2.1 10.28-.02 12.45 4.68.03.07.06.15.09.22a9.48 9.48 0 01.19 7.1 9.38 9.38 0 01-4.95 5.32c-1.26.58-2.6.87-3.95.87zm-2.38-14.46a5.456 5.456 0 00-2.77 3.03c-.51 1.38-.46 2.87.15 4.21 1.26 2.75 4.53 3.97 7.29 2.71 1.34-.61 2.35-1.7 2.86-3.08.51-1.38.46-2.87-.15-4.21-.02-.05-.04-.1-.06-.16-1.3-2.66-4.51-3.8-7.21-2.56-.04.03-.08.05-.11.06z" id="Trazado_7188"/><path class="st3" d="M63.88 97.73H33.67c-1.1 0-2-.9-2-2v-8.51c0-1.1.9-2 2-2h30.21c1.1 0 2 .9 2 2v8.51c0 1.1-.9 2-2 2zm-28.21-4h26.21v-4.51H35.67v4.51z" id="Rectángulo_2909"/><path class="st3" d="M120.68 50.34h-8.26c-1.1 0-2-.9-2-2V16.75c0-1.1.9-2 2-2h8.26c1.1 0 2 .9 2 2v31.59c0 1.1-.9 2-2 2zm-6.26-4h4.26V18.75h-4.26v27.59z" id="Rectángulo_2910"/><path class="st4" d="M86.14 70.34c-.87 0-1.67-.27-2.31-.79L70.9 59.24c-.86-.69-1-1.95-.32-2.81.69-.86 1.95-1.01 2.81-.32L86.2 66.34c.22-.04.75-.27 1.24-.89.5-.62.6-1.18.59-1.4L72.97 52.07a2.002 2.002 0 01-.32-2.81c.69-.87 1.95-1.01 2.81-.32l15.18 12.08c.76.6 1.24 1.51 1.36 2.55.16 1.44-.36 3.04-1.43 4.38-1.07 1.35-2.52 2.21-3.97 2.37-.15.02-.31.02-.46.02zm.19-3.91c0 .01 0 .01 0 0zm1.82-2.29z" id="Trazado_7189"/><path class="st4" d="M62.7 61.22c-7.7 0-13.97-6.27-13.97-13.97S55 33.28 62.7 33.28s13.97 6.27 13.97 13.97S70.4 61.22 62.7 61.22zm0-23.94c-5.5 0-9.97 4.47-9.97 9.97s4.47 9.97 9.97 9.97 9.97-4.47 9.97-9.97-4.47-9.97-9.97-9.97z" id="Elipse_1195"/><path class="st4" d="M86.14 70.34c-.87 0-1.67-.27-2.31-.79l-6.39-5.1c-.86-.69-1-1.95-.32-2.81l4.32-5.42c.33-.42.81-.68 1.34-.74s1.06.09 1.47.42l6.39 5.1c.76.6 1.24 1.51 1.36 2.55.16 1.44-.36 3.04-1.43 4.38-1.07 1.35-2.52 2.21-3.97 2.37-.15.04-.31.04-.46.04zm.19-3.91c0 .01 0 .01 0 0zm-4.83-3.85l4.7 3.75c.22-.04.75-.27 1.24-.89.5-.62.6-1.18.59-1.4l-4.71-3.76-1.82 2.3z" id="Trazado_7190"/><path class="st3" d="M59.85 50.34h-1.84c-.55 0-1-.45-1-1v-1.02h-2.53c-.55 0-1-.45-1-1s.45-1 1-1h3.53c.55 0 1 .45 1 1v1.02h.84c.55 0 1 .45 1 1s-.45 1-1 1z" id="Trazado_7191"/><path class="st3" d="M63.78 44.68h-2.43c-.34 0-.65-.17-.84-.45-.19-.28-.21-.64-.08-.95l.69-1.58-1.31-.89a.988.988 0 01-.26-1.39c.31-.46.93-.57 1.39-.26l2 1.36c.4.27.55.79.35 1.23l-.41.94h.9c.55 0 1 .45 1 1s-.45.99-1 .99z" id="Trazado_7192"/><circle class="st3" cx="67.8" cy="42.64" r="1.6" id="Elipse_1196"/></g></svg>