<svg version="1.1" id="Capa_1" xmlns="http://www.w3.org/2000/svg" x="0" y="0" viewBox="0 0 120 120" xml:space="preserve"><style>.st0{fill:none}.st1{fill:#ffea27}.st2{fill:#f4d314}.st3{fill:#95a6b1}</style><path class="st0" d="M0 0h120v120H0z"/><path class="st0" d="M0 0h120v120H0z" id="Rectángulo_2891"/><g id="Grupo_8397"><g id="Grupo_8395"><path class="st1" d="M57.09 112.09H38.88c-1.1 0-2-.9-2-2s.9-2 2-2h18.21c1.1 0 2 .9 2 2s-.9 2-2 2z" id="Línea_2752"/><path class="st1" d="M79.02 112.09h-9.1c-1.1 0-2-.9-2-2s.9-2 2-2h9.1c1.1 0 2 .9 2 2s-.9 2-2 2z" id="Línea_2753"/><path class="st1" d="M91.82 112.09c-.13 0-.26-.01-.39-.04-.13-.02-.26-.06-.38-.11-.11-.05-.23-.11-.34-.19-.11-.07-.21-.15-.3-.25-.19-.19-.34-.4-.44-.64a2.03 2.03 0 01-.11-1.16c.02-.13.06-.26.11-.38s.11-.23.19-.34c.07-.11.15-.21.25-.3.46-.47 1.15-.68 1.8-.55.13.02.25.06.38.11.12.05.23.11.34.19.11.07.21.15.3.25.1.09.18.19.25.3.07.11.14.22.19.34.05.12.08.25.11.38s.04.26.04.39c0 .27-.05.52-.15.77-.1.24-.25.45-.44.64-.38.38-.88.59-1.41.59z" id="Línea_2754"/><path class="st2" d="M46.38 112.09h-18.2c-1.1 0-2-.9-2-2s.9-2 2-2h18.2c1.1 0 2 .9 2 2s-.9 2-2 2z" id="Línea_2755"/></g><g id="Grupo_8396"><path class="st1" d="M73.56 99.87H28.18c-1.1 0-2-.9-2-2s.9-2 2-2h45.38c1.1 0 2 .9 2 2s-.9 2-2 2z" id="Línea_2756"/><path class="st2" d="M28.18 99.87c-.26 0-.52-.05-.76-.15-.25-.1-.47-.25-.65-.44a1.966 1.966 0 01-.55-1.8c.03-.13.06-.25.11-.38.05-.12.12-.23.19-.34.07-.11.15-.21.25-.3.09-.1.19-.18.3-.25.11-.08.22-.14.35-.19.12-.05.24-.09.37-.11.26-.06.52-.06.78 0 .13.02.25.06.38.11.12.05.23.11.34.19.11.07.21.15.3.25.38.37.59.88.59 1.41 0 .53-.21 1.04-.59 1.41-.37.38-.87.59-1.41.59z" id="Línea_2757"/><path class="st2" d="M91.82 99.87H66.06c-1.1 0-2-.9-2-2s.9-2 2-2h25.76c1.1 0 2 .9 2 2s-.9 2-2 2z" id="Línea_2758"/></g></g><g id="Grupo_8402"><path class="st1" d="M21.43 65.74c-1.12 0-2.24-.2-3.32-.6a9.38 9.38 0 01-5.32-4.95c-2.18-4.77-.07-10.42 4.69-12.59.04-.02.08-.04.12-.05 4.72-2.1 10.28-.02 12.45 4.68.03.07.06.15.09.23a9.48 9.48 0 01.19 7.1 9.38 9.38 0 01-4.95 5.32c-1.26.58-2.6.86-3.95.86zm-2.38-14.46c-2.69 1.29-3.86 4.52-2.62 7.25.61 1.34 1.7 2.35 3.08 2.86 1.38.51 2.87.46 4.21-.15s2.35-1.7 2.86-3.08c.51-1.37.46-2.85-.14-4.18l-.09-.21c-1.31-2.64-4.51-3.77-7.2-2.53-.03.01-.07.03-.1.04z" id="Trazado_7121"/><g id="Grupo_8401"><path class="st3" d="M102.67 87.79H21.43c-1.08 0-1.96-.88-1.96-1.96v-15.8c0-1.08.88-1.96 1.96-1.96s1.96.88 1.96 1.96v13.83h77.31v-64.9H23.39v23.81c0 1.08-.88 1.96-1.96 1.96s-1.96-.88-1.96-1.96V17c0-1.08.88-1.96 1.96-1.96h81.24c1.08 0 1.96.88 1.96 1.96v68.83c0 1.09-.88 1.96-1.96 1.96z" id="Trazado_7122"/><g id="Grupo_8398"><path class="st3" d="M46.83 62.12H35.36c-1.08 0-1.96-.88-1.96-1.96s.88-1.96 1.96-1.96h11.47c1.08 0 1.96.88 1.96 1.96s-.87 1.96-1.96 1.96z" id="Línea_2759"/><path class="st3" d="M67.78 62.12H56.31c-1.08 0-1.96-.88-1.96-1.96s.88-1.96 1.96-1.96h11.47c1.08 0 1.96.88 1.96 1.96s-.87 1.96-1.96 1.96z" id="Línea_2760"/><path class="st3" d="M88.74 62.12H77.27c-1.08 0-1.96-.88-1.96-1.96s.88-1.96 1.96-1.96h11.47c1.08 0 1.96.88 1.96 1.96s-.87 1.96-1.96 1.96z" id="Línea_2761"/></g><g id="Grupo_8399"><path class="st3" d="M46.83 75.54H35.36c-1.08 0-1.96-.88-1.96-1.96s.88-1.96 1.96-1.96h11.47c1.08 0 1.96.88 1.96 1.96s-.87 1.96-1.96 1.96z" id="Línea_2762"/><path class="st3" d="M67.78 75.54H56.31c-1.08 0-1.96-.88-1.96-1.96s.88-1.96 1.96-1.96h11.47c1.08 0 1.96.88 1.96 1.96s-.87 1.96-1.96 1.96z" id="Línea_2763"/><path class="st3" d="M88.74 75.54H77.27c-1.08 0-1.96-.88-1.96-1.96s.88-1.96 1.96-1.96h11.47c1.08 0 1.96.88 1.96 1.96s-.87 1.96-1.96 1.96z" id="Línea_2764"/></g><g id="Grupo_8400"><path class="st3" d="M46.83 48.7H35.36c-1.08 0-1.96-.88-1.96-1.96s.88-1.96 1.96-1.96h11.47c1.08 0 1.96.88 1.96 1.96s-.87 1.96-1.96 1.96z" id="Línea_2765"/><path class="st3" d="M67.78 48.7H56.31c-1.08 0-1.96-.88-1.96-1.96s.88-1.96 1.96-1.96h11.47c1.08 0 1.96.88 1.96 1.96s-.87 1.96-1.96 1.96z" id="Línea_2766"/><path class="st3" d="M88.74 48.7H77.27c-1.08 0-1.96-.88-1.96-1.96s.88-1.96 1.96-1.96h11.47c1.08 0 1.96.88 1.96 1.96s-.87 1.96-1.96 1.96z" id="Línea_2767"/></g><path class="st3" d="M102.67 37.49H21.43c-1.08 0-1.96-.88-1.96-1.96s.88-1.96 1.96-1.96h81.24c1.08 0 1.96.88 1.96 1.96s-.88 1.96-1.96 1.96z" id="Línea_2768"/><path class="st3" d="M35.36 25.94c-1.08 0-1.96-.88-1.96-1.96V10.05c0-1.08.88-1.96 1.96-1.96s1.96.88 1.96 1.96v13.93c0 1.08-.88 1.96-1.96 1.96z" id="Línea_2769"/><path class="st3" d="M53.98 25.94c-1.08 0-1.96-.88-1.96-1.96V10.05c0-1.08.88-1.96 1.96-1.96s1.96.88 1.96 1.96v13.93c0 1.08-.88 1.96-1.96 1.96z" id="Línea_2770"/><path class="st3" d="M72.59 25.94c-1.08 0-1.96-.88-1.96-1.96V10.05c0-1.08.88-1.96 1.96-1.96s1.96.88 1.96 1.96v13.93c0 1.08-.88 1.96-1.96 1.96z" id="Línea_2771"/><path class="st3" d="M91.21 26.27c-1.08 0-1.96-.88-1.96-1.96V10.38c0-1.08.88-1.96 1.96-1.96s1.96.88 1.96 1.96v13.93c0 1.09-.88 1.96-1.96 1.96z" id="Línea_2772"/></g></g></svg>