<svg version="1.1" id="Capa_1" xmlns="http://www.w3.org/2000/svg" x="0" y="0" viewBox="0 0 120 120" xml:space="preserve"><style>.st1{fill:#ffea27}.st2{fill:#f4d314}.st3{fill:#95a6b1}</style><path fill="none" d="M0 0h120v120H0z"/><g id="Grupo_8465" transform="translate(-21.489 -11.307)"><g id="Grupo_8463"><g id="Grupo_8461"><path class="st1" d="M78.57 123.57h-18.2c-1.1 0-2-.9-2-2s.9-2 2-2h18.2c1.1 0 2 .9 2 2s-.9 2-2 2z" id="Línea_2905"/><path class="st1" d="M100.51 123.57H91.4c-1.1 0-2-.9-2-2s.9-2 2-2h9.11c1.1 0 2 .9 2 2s-.9 2-2 2z" id="Línea_2906"/><path class="st1" d="M113.31 123.57c-.53 0-1.04-.21-1.41-.58-.1-.1-.18-.2-.25-.31a1.732 1.732 0 01-.3-.71c-.03-.13-.04-.26-.04-.4 0-.53.21-1.04.59-1.41a1.81 1.81 0 01.65-.43c.12-.05.24-.09.37-.12.26-.05.52-.05.78 0 .13.03.25.07.37.12a1.81 1.81 0 01.65.43c.1.09.18.19.25.3s.14.23.19.35c.05.12.08.24.11.37s.04.26.04.39c0 .54-.21 1.04-.59 1.42-.37.37-.87.58-1.41.58z" id="Línea_2907"/><path class="st2" d="M67.87 123.57H49.66c-1.1 0-2-.9-2-2s.9-2 2-2h18.21c1.1 0 2 .9 2 2s-.9 2-2 2z" id="Línea_2908"/></g><g id="Grupo_8462"><path class="st1" d="M95.05 111.34H49.66c-1.1 0-2-.9-2-2s.9-2 2-2h45.39c1.1 0 2 .9 2 2s-.9 2-2 2z" id="Línea_2909"/><path class="st2" d="M49.66 111.34c-.53 0-1.03-.21-1.41-.58a1.989 1.989 0 01-.55-1.81c.03-.13.06-.25.11-.37s.12-.24.19-.35.15-.21.25-.3c.74-.74 2.08-.75 2.82 0a1.989 1.989 0 010 2.83c-.37.37-.88.58-1.41.58z" id="Línea_2910"/><path class="st2" d="M113.31 111.34H87.55c-1.1 0-2-.9-2-2s.9-2 2-2h25.76c1.1 0 2 .9 2 2s-.9 2-2 2z" id="Línea_2911"/></g></g><path class="st1" d="M56.26 36.7c-1.04 0-2.08-.19-3.09-.56-2.21-.82-3.96-2.46-4.94-4.6s-1.07-4.54-.24-6.75a8.756 8.756 0 014.6-4.94c4.39-2.02 9.61-.1 11.65 4.28.01.02.02.05.03.07.98 2.15 1.07 4.55.24 6.76a8.756 8.756 0 01-4.6 4.94c-1.16.54-2.41.8-3.65.8zm0-13.65c-.67 0-1.35.14-2 .44-1.18.54-2.07 1.49-2.52 2.7s-.4 2.52.13 3.69c.53 1.18 1.49 2.07 2.7 2.52s2.52.4 3.69-.13a4.777 4.777 0 002.52-2.7c.45-1.2.4-2.5-.12-3.66l-.03-.06a4.803 4.803 0 00-4.37-2.8zm8.2 1.99z" id="Trazado_7176"/><g id="Grupo_8464"><path class="st3" d="M105.76 68.31c-1.1 0-2-.9-2-2V25.2H69.13c-1.1 0-2-.9-2-2s.9-2 2-2h36.63c1.1 0 2 .9 2 2v43.11c0 1.1-.9 2-2 2z" id="Trazado_7177"/><path class="st3" d="M83.03 93.68H64.2c-7.64-.01-13.85-6.23-13.85-13.86V41.96c0-1.1.9-2 2-2s2 .9 2 2v37.86c0 5.43 4.42 9.85 9.85 9.86l23.28-.01a2 2 0 110 4l-4.45.01z" id="Trazado_7178"/></g><path class="st3" d="M95.74 86.26c-.18 0-.35-.01-.53-.04a3.4 3.4 0 01-2.25-1.36l-2.4-3.27a2.01 2.01 0 01.43-2.8 2.01 2.01 0 012.8.43l1.99 2.71 6.77-7.65c.73-.83 2-.9 2.82-.17.83.73.9 2 .17 2.82l-7.23 8.17c-.15.17-.33.34-.54.49-.6.44-1.31.67-2.03.67zm-.43-3.81z" id="Trazado_7179"/><path class="st3" d="M98.09 100.59a3.6 3.6 0 01-.66-.06c-3.17-.62-18.91-5.1-16.53-31.74.17-1.71 1.57-3.05 3.27-3.12 4.34-.18 8.43-1.71 11.83-4.4 1.25-.99 3-.99 4.25 0 3.45 2.5 7.59 4.04 11.9 4.41 1.59.14 2.9 1.4 3.11 2.99 1.42 12.32-2.05 27.1-16.07 31.75-.36.11-.73.17-1.1.17zm.11-3.99s.01 0 0 0c.01 0 0 0 0 0zM84.84 69.63C83.02 92.02 95.2 95.96 98.06 96.57c14.24-4.83 13.87-21.28 13.28-26.96-4.74-.48-9.29-2.19-13.21-4.94a24.184 24.184 0 01-13.29 4.96zm-.59-1.97zm13.59-3.21l.02.02c-.01-.01-.02-.01-.02-.02z" id="Trazado_7180"/><path class="st3" d="M88.41 45.36H63.08c-1.1 0-2-.9-2-2s.9-2 2-2h25.33c1.1 0 2 .9 2 2s-.9 2-2 2z" id="Línea_2912"/><path class="st3" d="M88.41 55.59H63.08c-1.1 0-2-.9-2-2s.9-2 2-2h25.33c1.1 0 2 .9 2 2s-.9 2-2 2z" id="Línea_2913"/><path class="st3" d="M77.41 66.04H63.08c-1.1 0-2-.9-2-2s.9-2 2-2h14.33c1.1 0 2 .9 2 2s-.9 2-2 2z" id="Línea_2914"/></g></svg>