<svg xmlns="http://www.w3.org/2000/svg" width="120.52" height="120"><g data-name="27-icon_ocenza_tlu2_el_futuro_tlu2_new"><path data-name="Rectángulo 2933" fill="none" d="M0 .06h120v119.87H0z"/><path data-name="Trazado 6894" d="M85.87 91.3a8 8 0 01-6.07-2.87c-1.16-1.13-2-2-3.82-2s-2.65.82-3.81 2a8 8 0 01-6.07 2.87c-3.12 0-4.75-1.59-6.06-2.87s-2-2-3.81-2-2.66.82-3.82 2c-1.31 1.28-2.89 2.87-6.06 2.87a8 8 0 01-6.07-2.87c-1.16-1.13-2-2-3.82-2s-2.65.82-3.82 2a7.84 7.84 0 01-12.13 0c-1.16-1.13-2-2-3.82-2s-2.65.82-3.82 2a8.1 8.1 0 01-6.06 2.87 1.61 1.61 0 110-3.21c1.81 0 2.65-.82 3.82-2a8.1 8.1 0 016.06-2.87 8 8 0 016.07 2.87c1.16 1.14 2 2 3.82 2s2.66-.82 3.82-2c1.31-1.28 2.94-2.87 6.06-2.87a8 8 0 016.06 2.91c1.16 1.14 2 2 3.82 2s2.65-.82 3.81-2a8 8 0 016.07-2.87c3.12 0 4.75 1.59 6.06 2.87 1.16 1.14 2 2 3.81 2s2.66-.82 3.82-2a7.843 7.843 0 0112.13 0c1.16 1.14 2 2 3.82 2a1.61 1.61 0 010 3.21z" fill="#95a6b1"/><path data-name="Trazado 6895" d="M32.52 82.08h-9.54a1.61 1.61 0 010-3.22h9.54a1.61 1.61 0 010 3.22z" fill="#95a6b1"/><path data-name="Trazado 6896" d="M65.61 63.73a1.47 1.47 0 01-.62-.13 1.61 1.61 0 01-.47-2.6 1.67 1.67 0 012.28 0 1.61 1.61 0 01.47 1.14 1.63 1.63 0 01-.47 1.14 1.66 1.66 0 01-.53.34 1.42 1.42 0 01-.66.11z" fill="#95a6b1"/><path data-name="Trazado 6897" d="M53.24 63.73H24.3a1.61 1.61 0 01-1.61-1.61V58a1.61 1.61 0 113.22 0v2.48h27.33a1.61 1.61 0 110 3.22z" fill="#95a6b1"/><path data-name="Trazado 6898" d="M70.71 63.73h-5.1a1.61 1.61 0 110-3.22h3.49V46.86a.29.29 0 00-.29-.29H36.59a1.61 1.61 0 110-3.22h32.22a3.51 3.51 0 013.51 3.51v15.26a1.61 1.61 0 01-1.61 1.61z" fill="#95a6b1"/><path data-name="Trazado 6899" d="M62.82 46.57h-23.1A1.61 1.61 0 0138.11 45v-5.62A3.41 3.41 0 0141.52 36h19.74a3.17 3.17 0 013.17 3.17V45a1.61 1.61 0 01-1.61 1.57zm-21.49-3.22h19.88v-4.16H41.52a.19.19 0 00-.19.19zm19.93-4.16z" fill="#95a6b1"/><path data-name="Trazado 6900" d="M70.78 53H36.02a1.61 1.61 0 010-3.21h34.76a1.61 1.61 0 110 3.21z" fill="#95a6b1"/><path data-name="Trazado 6901" d="M16.74 85.9a1.61 1.61 0 01-1.61-1.61v-20a3.77 3.77 0 013.77-3.77h34.34a1.61 1.61 0 010 3.21H18.9a.56.56 0 00-.55.56v20a1.61 1.61 0 01-1.61 1.61z" fill="#95a6b1"/><path data-name="Trazado 6902" d="M78.72 87.21a1.61 1.61 0 01-1.61-1.61V64a.26.26 0 00-.26-.26H65.61a1.61 1.61 0 010-3.22h11.24A3.48 3.48 0 0180.33 64v21.6a1.61 1.61 0 01-1.61 1.61z" fill="#95a6b1"/><path data-name="Trazado 6903" d="M16.74 69.58a1.61 1.61 0 110-3.21h22a1.61 1.61 0 010 3.22z" fill="#95a6b1"/><path data-name="Línea 1772" fill="#fff" d="M32.56 67.95v18.24"/><path data-name="Trazado 6904" d="M32.52 87.79a1.6 1.6 0 01-1.6-1.6V68a1.61 1.61 0 113.21 0v18.19a1.61 1.61 0 01-1.61 1.6z" fill="#95a6b1"/><path data-name="Trazado 6905" d="M32.52 75.27h-9.54a1.61 1.61 0 010-3.22h9.54a1.61 1.61 0 010 3.22z" fill="#95a6b1"/><path data-name="Trazado 6906" d="M22.95 89.7a1.61 1.61 0 01-1.61-1.61V68a1.61 1.61 0 113.18 0v20.09a1.61 1.61 0 01-1.57 1.61z" fill="#95a6b1"/><path data-name="Trazado 6907" d="M38.77 86.35a1.61 1.61 0 01-1.61-1.61V62.12a1.61 1.61 0 113.22 0v22.62a1.61 1.61 0 01-1.61 1.61z" fill="#95a6b1"/><path data-name="Trazado 6908" d="M65.59 73.22H53.2a1.6 1.6 0 01-1.61-1.61v-9.45a1.61 1.61 0 011.61-1.6 1.6 1.6 0 011.6 1.61V70h9.16v-7.85a1.61 1.61 0 113.22 0v9.46a1.61 1.61 0 01-1.59 1.61z" fill="#95a6b1"/><path data-name="Trazado 6909" d="M45.6 46.57A1.61 1.61 0 0144 45v-7.42a1.61 1.61 0 113.21 0V45a1.61 1.61 0 01-1.61 1.57z" fill="#95a6b1"/><path data-name="Trazado 6910" d="M51.27 46.57A1.61 1.61 0 0149.66 45v-7.42a1.61 1.61 0 013.22 0V45a1.61 1.61 0 01-1.61 1.57z" fill="#95a6b1"/><path data-name="Trazado 6911" d="M57.14 46.57A1.61 1.61 0 0155.52 45v-7.42a1.61 1.61 0 113.22 0V45a1.61 1.61 0 01-1.6 1.57z" fill="#95a6b1"/><path data-name="Trazado 6912" d="M72.16 73.85a1.61 1.61 0 01-1.64-1.61V62.15a1.61 1.61 0 113.22 0v10.09a1.61 1.61 0 01-1.58 1.61z" fill="#95a6b1"/><path data-name="Trazado 6913" d="M45.99 73.85a1.61 1.61 0 01-1.61-1.61V62.15a1.61 1.61 0 113.21 0v10.09a1.61 1.61 0 01-1.6 1.61z" fill="#95a6b1"/><path data-name="Trazado 6914" d="M100.99 72.44a1.62 1.62 0 01-1.25-.6l-5-6.16-6.55 3a1.61 1.61 0 01-1.78-.31l-3.3-3.27a1.57 1.57 0 01-.44-.77c-3.21-12.88-3.17-13-3.05-13.52.2-.81.25-1 5.06-3l.3-1.82-5.3-2.87a1.71 1.71 0 01-.53-.47l-2.63-3.6-8.71-6.69a1.6 1.6 0 01-.61-1.55 1.63 1.63 0 011.1-1.26l1.58-.49 1.67-4.34-2.31-2.39a1.61 1.61 0 01-.45-1.12v-2.64a1.59 1.59 0 01.12-.62l1.89-4.51-.19-6.66a1.59 1.59 0 011-1.52l4.49-1.94a1.57 1.57 0 011.5.12 1.62 1.62 0 01.74 1.32l.18 7.84 3.38.43a1.63 1.63 0 011.13.7 1.61 1.61 0 01.23 1.3l-1.74 6.75.43.31 1.48-1.65a1.59 1.59 0 011.85-.39l8.24 3.73a1.61 1.61 0 01.91 1.09l.8 3.36 2.64.62a1.61 1.61 0 011.15 2.09l-1.5 4.5c1.27 2.68 2.62 5.49 3.1 6.43a59.141 59.141 0 006.19 1.93 1.6 1.6 0 011 .83l3.17 6.27a1.64 1.64 0 01-.09 1.62l-2.14 3.22 3.36 7.55a1.57 1.57 0 010 1.34l-2.25 4.76a1.62 1.62 0 01-1 .85l-7.37 2.13a1.41 1.41 0 01-.5.07zm-5.73-10.35a1.62 1.62 0 011.26.6l5 6.3 5.65-1.64 1.63-3.43-3.42-7.67a1.64 1.64 0 01.14-1.55l2.11-3.18-2.43-4.8c-6.6-1.79-7-2.39-7.27-2.92s-2.91-6-3.68-7.58a1.63 1.63 0 01-.02-1.22l1.19-3.44-1.9-.43a1.6 1.6 0 01-1.19-1.19l-.81-3.55-6.49-2.93-1.68 1.84a1.6 1.6 0 01-2.12.24l-2.5-1.77a1.6 1.6 0 01-.63-1.71L79.66 16l-3-.37a1.6 1.6 0 01-1.4-1.57l-.15-6.83-1.29.56.18 5.91a1.54 1.54 0 01-.13.67l-1.9 4.53v1.67l2.58 2.67a1.6 1.6 0 01.34 1.69l-2.32 6a1.59 1.59 0 01-.49.68l6.56 5a1.44 1.44 0 01.32.33l2.56 3.51 6 3.24a1.59 1.59 0 01.82 1.68l-.64 3.84a1.58 1.58 0 01-1 1.22c-1.31.54-2.81 1.19-3.74 1.62.51 2.22 1.79 7.43 2.69 11.05l2.23 2.16 6.69-3a1.54 1.54 0 01.69-.17z" fill="#95a6b1"/><g data-name="Trazado 5703"><path data-name="Trazado 6915" d="M24.3 54.81a9.5 9.5 0 119.5-9.62v.12a9.51 9.51 0 01-9.5 9.5zm0-15a5.5 5.5 0 105.45 5.5v-.1a5.45 5.45 0 00-5.4-5.4z" fill="#fff" opacity=".85"/></g><path data-name="Trazado 6916" d="M46.99 115.09H38.6a2 2 0 010-4h8.39a2 2 0 010 4z" fill="#fff"/><g data-name="Grupo 8541"><path data-name="Trazado 6917" d="M28.52 102.83a2 2 0 01-1.42-.59 1.85 1.85 0 01-.43-.64 2 2 0 01-.15-.77 2.56 2.56 0 010-.39 2.427 2.427 0 01.3-.72 1.81 1.81 0 01.25-.3 2 2 0 011.81-.55 2.65 2.65 0 01.37.12 2.31 2.31 0 01.35.18 2.16 2.16 0 01.55.55 2.427 2.427 0 01.3.72 2.56 2.56 0 010 .39 2 2 0 01-.15.77 1.85 1.85 0 01-.43.64 1.94 1.94 0 01-.31.26 1.83 1.83 0 01-.34.18 1.58 1.58 0 01-.37.11 1.721 1.721 0 01-.33.04z" fill="#fff" opacity=".8"/></g><g data-name="Grupo 8542"><path data-name="Trazado 6918" d="M79.64 115.12h-9.12a2 2 0 010-4h9.16a2 2 0 010 4z" fill="#fff" opacity=".85"/></g><path data-name="Trazado 6919" d="M92.52 115.12a2 2 0 01-1.41-.59 1.85 1.85 0 01-.43-.64 2 2 0 01-.15-.77 2.56 2.56 0 010-.39 2.4 2.4 0 01.12-.38 2.211 2.211 0 01.18-.34 2.48 2.48 0 01.25-.3 2.06 2.06 0 012.83 0 2 2 0 01.59 1.41 2.08 2.08 0 01-.16.77 2 2 0 01-.43.64 1.479 1.479 0 01-.31.25 1.41 1.41 0 01-.34.19 1.58 1.58 0 01-.37.11 1.75 1.75 0 01-.37.04z" fill="#fff"/><g data-name="Grupo 8543"><path data-name="Trazado 6920" d="M46.84 115.12H28.52a2 2 0 010-4h18.3a2 2 0 010 4z" fill="#fff" opacity=".7"/></g><g data-name="Grupo 8544"><path data-name="Trazado 6921" d="M57.6 115.12H39.3a2 2 0 110-4h18.3a2 2 0 010 4z" fill="#fff" opacity=".6"/></g><g data-name="Grupo 8545"><path data-name="Trazado 6922" d="M74.15 102.83H28.52a2 2 0 110-4h45.63a2 2 0 010 4z" fill="#fff" opacity=".6"/></g><g data-name="Grupo 8546"><path data-name="Trazado 6923" d="M92.52 102.83H66.61a2 2 0 010-4h25.91a2 2 0 010 4z" fill="#fff" opacity=".5"/></g><path data-name="Trazado 6924" d="M74.18 102.83h-7.5a2 2 0 010-4h7.5a2 2 0 010 4z" fill="#fff"/><path data-name="Rectángulo 2934" fill="none" d="M.52 0h120v120H.52z"/></g></svg>