<svg xmlns="http://www.w3.org/2000/svg" width="120" height="120"><g data-name="01-icon_ocenza_hitos_hitos-4"><g data-name="Capa 1"><path data-name="Rectángulo 2941" fill="none" d="M0 0h120v120H0z"/><path data-name="Trazado 7111" d="M54 115.86H35.74a2 2 0 010-4H54a2 2 0 110 4z" fill="#ffea27"/><path data-name="Trazado 7112" d="M75.88 115.86h-9.1a2 2 0 010-4h9.1a2 2 0 010 4z" fill="#ffea27"/><path data-name="Trazado 7113" d="M88.68 115.86a2 2 0 01-1.42-.59A2.481 2.481 0 0187 115a1.995 1.995 0 01-.33-1.11 2 2 0 01.58-1.41 1.791 1.791 0 01.31-.25 2.27 2.27 0 01.34-.19 1.66 1.66 0 01.38-.11 2 2 0 01.78 0 1.581 1.581 0 01.37.11 2.371 2.371 0 01.35.19 1.419 1.419 0 01.3.25 2 2 0 01.59 1.41 2.2 2.2 0 01-.15.77 1.629 1.629 0 01-.19.34 1.42 1.42 0 01-.25.3 1.87 1.87 0 01-.3.26 2.311 2.311 0 01-.35.18 1.45 1.45 0 01-.37.11 1.72 1.72 0 01-.38.01z" fill="#ffea27"/><g data-name="Grupo 8571"><path data-name="Trazado 7114" d="M43.24 115.86H25a2 2 0 010-4h18.2a2 2 0 110 4z" fill="#f4d314"/></g><path data-name="Trazado 7115" d="M70.42 103.64H25a2 2 0 110-4h45.42a2 2 0 010 4z" fill="#ffea27"/><g data-name="Grupo 8572"><path data-name="Trazado 7116" d="M25 103.63a2 2 0 01-1.42-.58 1.89 1.89 0 01-.25-.31 1.831 1.831 0 01-.18-.34 2.29 2.29 0 01-.12-.37 2.58 2.58 0 010-.39 2 2 0 01.59-1.42 2.07 2.07 0 012.83 0 2 2 0 01.59 1.42 2.58 2.58 0 010 .39 2.29 2.29 0 01-.12.37 1.831 1.831 0 01-.18.34 1.87 1.87 0 01-.56.56 1.83 1.83 0 01-.34.18 2.289 2.289 0 01-.37.12 2.56 2.56 0 01-.47.03z" fill="#f4d314"/></g><g data-name="Grupo 8573"><path data-name="Trazado 7117" d="M88.68 103.64H62.92a2 2 0 110-4h25.76a2 2 0 010 4z" fill="#f4d314"/></g><path data-name="Trazado 7118" d="M112.44 68.17a6.08 6.08 0 01-4.86-2.72c-.85-1-1.15-1.28-1.78-1.28s-.94.26-1.79 1.28a5.71 5.71 0 01-9.73 0c-.85-1-1.14-1.28-1.78-1.28a2 2 0 010-4 6.08 6.08 0 014.86 2.72c.85 1 1.15 1.28 1.79 1.28s.93-.25 1.78-1.28a5.71 5.71 0 019.73 0c.85 1 1.14 1.28 1.78 1.28a2 2 0 010 4z" fill="#95a6b1"/><path data-name="Trazado 7119" d="M27.59 64.41a6.16 6.16 0 01-4.91-2.71c-.83-1-1.16-1.29-1.87-1.29s-1 .31-1.86 1.29A6.18 6.18 0 0114 64.41a6.16 6.16 0 01-4.88-2.71c-.83-1-1.16-1.29-1.87-1.29a2 2 0 010-4 6.19 6.19 0 014.92 2.7c.83 1 1.15 1.3 1.86 1.3s1-.32 1.87-1.3a6.15 6.15 0 014.91-2.7 6.16 6.16 0 014.92 2.7c.83 1 1.15 1.3 1.86 1.3a2 2 0 110 4z" fill="#95a6b1"/><path data-name="Trazado 7120" d="M26.83 87a2 2 0 01-1.41-3.41l7.3-7.3a2 2 0 012.82 2.82l-7.3 7.31a2 2 0 01-1.41.58z" fill="#95a6b1"/><path data-name="Trazado 7121" d="M44 58.46H34a2 2 0 010-4h10a2 2 0 010 4z" fill="#95a6b1"/><path data-name="Trazado 7122" d="M78.43 39.32a2 2 0 01-2.01-2 2.2 2.2 0 01.15-.77 1.83 1.83 0 01.18-.34 1.87 1.87 0 01.56-.56 1.83 1.83 0 01.34-.18 1.66 1.66 0 01.38-.11 1.71 1.71 0 01.78 0 1.58 1.58 0 01.37.11 2.309 2.309 0 01.35.18 2.48 2.48 0 01.3.25 2 2 0 01-1.41 3.42z" fill="#95a6b1"/><path data-name="Trazado 7123" d="M65.52 39.32H35.34a2 2 0 01-2-2V32a2 2 0 014 0v3.29h28.18a2 2 0 010 4z" fill="#95a6b1"/><path data-name="Trazado 7124" d="M34.11 28.7A8.675 8.675 0 1142 16.42a8.68 8.68 0 01-4.28 11.49 8.57 8.57 0 01-3.61.79zm0-13.34a4.761 4.761 0 101.62.32 4.83 4.83 0 00-1.63-.32z" fill="#ffea27"/><path data-name="Trazado 7125" d="M83.75 39.32h-5.32a2 2 0 010-4h3.32V21.4h-35a2 2 0 010-4h35a4 4 0 014 4v15.92a2 2 0 01-2 2z" fill="#95a6b1"/><path data-name="Trazado 7126" d="M75.52 21.42h-24.1a2 2 0 01-2-2V13.6a3.88 3.88 0 013.88-3.88h20.6a3.63 3.63 0 013.62 3.62v6.08a2 2 0 01-2 2zm-22.1-4h20.1v-3.7h-20.1zm20.48-3.7z" fill="#95a6b1"/><path data-name="Trazado 7127" d="M83.82 28.09H46.17a2 2 0 010-4h37.65a2 2 0 010 4z" fill="#95a6b1"/><path data-name="Trazado 7128" d="M27.45 64.43a2 2 0 01-2-2V39.59a4.26 4.26 0 014.26-4.25h35.81a2 2 0 010 4H29.71a.25.25 0 00-.26.25v22.84a2 2 0 01-2 2z" fill="#95a6b1"/><path data-name="Trazado 7129" d="M92.1 64.43a2 2 0 01-2-2V39.29H78.42a2 2 0 010-4h11.73a4 4 0 013.94 3.95v23.19a2 2 0 01-1.99 2z" fill="#95a6b1"/><path data-name="Trazado 7130" d="M27.45 45.43a2 2 0 010-4h23a2 2 0 010 4z" fill="#95a6b1"/><path data-name="Línea 1776" fill="#fff" d="M43.96 43.4v19.03"/><path data-name="Trazado 7131" d="M44 64.43a2 2 0 01-2-2v-19a2 2 0 014 0v19a2 2 0 01-2 2z" fill="#95a6b1"/><path data-name="Trazado 7132" d="M44 51.36H34a2 2 0 010-4h10a2 2 0 010 4z" fill="#95a6b1"/><path data-name="Trazado 7133" d="M33.92 64.43a2 2 0 01-2-2v-19a2 2 0 014 0v19a2 2 0 01-2 2z" fill="#95a6b1"/><path data-name="Trazado 7134" d="M50.43 64.43a2 2 0 01-2-2V37.32a2 2 0 014 0v25.11a2 2 0 01-2 2z" fill="#95a6b1"/><path data-name="Trazado 7135" d="M78.41 49.22H65.48a2 2 0 01-2-2v-9.86a2 2 0 012-2 2 2 0 012 2v7.84h8.92v-7.85a2 2 0 014 0v9.87a2 2 0 01-1.99 2z" fill="#95a6b1"/><path data-name="Trazado 7136" d="M57.56 21.42a2 2 0 01-2-2v-7.7a2 2 0 114 0v7.7a2 2 0 01-2 2z" fill="#95a6b1"/><path data-name="Trazado 7137" d="M63.47 21.42a2 2 0 01-2-2v-7.7a2 2 0 114 0v7.7a2 2 0 01-2 2z" fill="#95a6b1"/><path data-name="Trazado 7138" d="M69.59 21.42a2 2 0 01-2-2v-7.7a2 2 0 114 0v7.7a2 2 0 01-2 2z" fill="#95a6b1"/><path data-name="Trazado 7139" d="M85.27 49.88a2 2 0 01-2-2V37.35a2 2 0 014 0v10.53a2 2 0 01-2 2z" fill="#95a6b1"/><path data-name="Trazado 7140" d="M58 49.88a2 2 0 01-2-2V37.35a2 2 0 014 0v10.53a2 2 0 01-2 2z" fill="#95a6b1"/><path data-name="Trazado 7141" d="M92.1 64.43H27.45a2 2 0 010-4H92.1a2 2 0 010 4z" fill="#95a6b1"/><path data-name="Trazado 7142" d="M59.78 89.33a2 2 0 01-2-2v-9.81a2 2 0 014 0v9.81a2 2 0 01-2 2z" fill="#95a6b1"/><path data-name="Trazado 7143" d="M92.57 87a2 2 0 01-1.42-.58l-7.3-7.31a2 2 0 012.83-2.82l7.3 7.3A2 2 0 0192.57 87z" fill="#95a6b1"/><path data-name="Trazado 7144" d="M34.44 70.44a5.37 5.37 0 01-5.36-5.36v-2.65a2 2 0 012-2h6.72a2 2 0 012 2v2.65a5.37 5.37 0 01-5.36 5.36zm-1.36-6v.65a1.36 1.36 0 002.72 0v-.65z" fill="#95a6b1"/><path data-name="Trazado 7145" d="M59.77 70.44a5.37 5.37 0 01-5.36-5.36v-2.65a2 2 0 012-2h6.72a2 2 0 012 2v2.65a5.37 5.37 0 01-5.36 5.36zm-1.36-6v.65a1.36 1.36 0 002.72 0v-.65z" fill="#95a6b1"/><path data-name="Trazado 7146" d="M84.8 70.44a5.37 5.37 0 01-5.36-5.36v-2.65a2 2 0 012-2h6.72a2 2 0 012 2v2.65a5.37 5.37 0 01-5.36 5.36zm-1.36-6v.65a1.36 1.36 0 002.72 0v-.65z" fill="#95a6b1"/></g></g></svg>