<svg version="1.1" id="Capa_1" xmlns="http://www.w3.org/2000/svg" x="0" y="0" viewBox="0 0 120 120" xml:space="preserve"><style>.st1{fill:#ffea27}.st2{fill:#f4d314}.st3{fill:#95a6b1}</style><path fill="none" d="M0 0h120v120H0z"/><path class="st1" d="M57.09 115.06H38.88c-1.1 0-2-.9-2-2s.9-2 2-2h18.21c1.1 0 2 .9 2 2s-.9 2-2 2zm21.93 0h-9.1c-1.1 0-2-.9-2-2s.9-2 2-2h9.1c1.1 0 2 .9 2 2s-.9 2-2 2zm12.8 0c-.27 0-.52-.05-.77-.15-.24-.1-.46-.25-.64-.44a1.983 1.983 0 010-2.82c.46-.47 1.15-.68 1.8-.55.13.02.25.06.37.11s.24.11.35.19c.11.07.21.15.3.25.1.09.18.19.25.3.08.11.14.22.19.34s.08.25.11.38.04.26.04.39c0 .54-.21 1.04-.59 1.41-.37.38-.88.59-1.41.59z"/><path class="st2" d="M46.38 115.06h-18.2c-1.1 0-2-.9-2-2s.9-2 2-2h18.2c1.1 0 2 .9 2 2s-.9 2-2 2z"/><path class="st1" d="M73.56 102.83H28.18c-1.1 0-2-.9-2-2s.9-2 2-2h45.38c1.1 0 2 .9 2 2s-.9 2-2 2z"/><path class="st2" d="M28.18 102.83c-.27 0-.52-.05-.77-.15-.24-.1-.46-.25-.65-.44-.37-.37-.58-.88-.58-1.41 0-.53.21-1.04.58-1.41.1-.1.2-.18.31-.25s.22-.14.35-.19c.12-.05.24-.09.37-.11.65-.13 1.34.08 1.8.55.38.37.59.88.59 1.41 0 .54-.21 1.04-.59 1.41-.37.38-.88.59-1.41.59zm63.64 0H66.06c-1.1 0-2-.9-2-2s.9-2 2-2h25.76c1.1 0 2 .9 2 2s-.9 2-2 2z"/><path class="st1" d="M79.1 27.06c-3.61 0-7.06-2.06-8.66-5.54-2.18-4.76-.08-10.41 4.69-12.59 4.77-2.18 10.41-.07 12.59 4.69 1 2.18 1.13 4.64.38 6.93-.82 2.49-2.67 4.55-5.06 5.66-1.28.58-2.62.85-3.94.85zm-.03-14.99c-.76 0-1.54.16-2.28.5-2.76 1.26-3.97 4.53-2.71 7.29 1.26 2.75 4.53 3.97 7.29 2.71a5.521 5.521 0 002.93-3.28c.44-1.32.36-2.75-.22-4.01a5.514 5.514 0 00-5.01-3.21z"/><path class="st3" d="M93.5 68.25H26.47c-1.1 0-2-.9-2-2v-16.8c0-1.1.9-2 2-2H93.5c1.1 0 2 .9 2 2v16.8c0 1.1-.9 2-2 2zm-65.03-4H91.5v-12.8H28.47v12.8z"/><path class="st3" d="M38.01 50.79c-1.1 0-2-.9-2-2v-3.01c0-1.1.9-2 2-2s2 .9 2 2v3.01c0 1.1-.9 2-2 2zm11.57 0c-1.1 0-2-.9-2-2v-3.01c0-1.1.9-2 2-2s2 .9 2 2v3.01c0 1.1-.9 2-2 2zm11.58 0c-1.1 0-2-.9-2-2v-3.01c0-1.1.9-2 2-2s2 .9 2 2v3.01c0 1.1-.9 2-2 2zm11.6 0c-1.1 0-2-.9-2-2v-3.01c0-1.1.9-2 2-2s2 .9 2 2v3.01c0 1.1-.9 2-2 2zm11.58 0c-1.1 0-2-.9-2-2v-3.01c0-1.1.9-2 2-2s2 .9 2 2v3.01c0 1.1-.9 2-2 2zm-54.86.65H22.6c-1.1 0-2-.9-2-2v-7.28c0-1.1.9-2 2-2h6.88c1.1 0 2 .9 2 2v7.28c0 1.1-.9 2-2 2zm-4.88-4h2.88v-3.28H24.6v3.28z"/><path class="st3" d="M17.53 89.49H6.79a1.997 1.997 0 01-1.84-2.77l15.81-38.04a1.997 1.997 0 013.69 1.53L9.79 85.49h6.41l8.43-20.02c.43-1.02 1.6-1.5 2.62-1.07 1.02.43 1.5 1.6 1.07 2.62l-8.94 21.24c-.32.75-1.05 1.23-1.85 1.23zM97.4 51.45h-6.88c-1.1 0-2-.9-2-2v-7.28c0-1.1.9-2 2-2h6.88c1.1 0 2 .9 2 2v7.28a2 2 0 01-2 2zm-4.88-4h2.88v-3.28h-2.88v3.28z"/><path class="st3" d="M113.21 89.49h-10.74c-.8 0-1.53-.48-1.84-1.22l-8.94-21.24c-.43-1.02.05-2.19 1.07-2.62 1.02-.43 2.19.05 2.62 1.07l8.42 20.02h6.42L95.55 50.22c-.42-1.02.06-2.19 1.08-2.61 1.02-.43 2.19.06 2.61 1.08l15.81 38.04c.26.62.19 1.32-.18 1.88-.37.55-.99.88-1.66.88zM62.73 76.4h-19.3c-.97 0-1.76-.79-1.76-1.76v-8.38c0-.97.79-1.76 1.76-1.76h19.3c.97 0 1.76.79 1.76 1.76v8.38c.01.97-.78 1.76-1.76 1.76zm-17.54-3.52h15.77v-4.85H45.19v4.85z"/><path class="st3" d="M58.04 83.05h-9.49c-.97 0-1.76-.79-1.76-1.76v-6.65c0-.97.79-1.76 1.76-1.76h9.49c.97 0 1.76.79 1.76 1.76v6.65c0 .97-.79 1.76-1.76 1.76zm-7.73-3.52h5.96V76.4h-5.96v3.13zm53.8-43.61h-88.3c-1.1 0-2-.9-2-2V22.55c0-1.1.9-2 2-2h50.17c1.1 0 2 .9 2 2s-.9 2-2 2H17.81v7.37h86.3c1.1 0 2 .9 2 2s-.9 2-2 2zm-1.28-11.37H91.72c-1.1 0-2-.9-2-2s.9-2 2-2h11.11c1.1 0 2 .9 2 2s-.9 2-2 2z"/><path class="st3" d="M104.18 35.92c-1.1 0-2-.9-2-2V17.7c0-1.1.9-2 2-2h6.47c1.1 0 2 .9 2 2s-.9 2-2 2h-4.47v14.22c0 1.1-.9 2-2 2z"/><path class="st3" d="M110.65 40.77h-6.47c-1.1 0-2-.9-2-2v-4.85c0-1.1.9-2 2-2s2 .9 2 2v2.85h2.47V17.7c0-1.1.9-2 2-2s2 .9 2 2v21.07c0 1.1-.9 2-2 2zm-94.82 0H9.35c-1.1 0-2-.9-2-2V17.7c0-1.1.9-2 2-2h6.48c1.1 0 2 .9 2 2v21.07c0 1.1-.9 2-2 2zm-4.48-4h2.48V19.7h-2.48v17.07zm13.9-1.08c-1.1 0-2-.9-2-2V23.25c0-1.1.9-2 2-2s2 .9 2 2v10.44c0 1.1-.9 2-2 2zm70.67 0c-1.1 0-2-.9-2-2V23.25c0-1.1.9-2 2-2s2 .9 2 2v10.44c0 1.1-.9 2-2 2zm-53.07 0c-1.1 0-2-.9-2-2V23.25c0-1.1.9-2 2-2s2 .9 2 2v10.44c0 1.1-.9 2-2 2zm18.73 0c-1.1 0-2-.9-2-2V23.25c0-1.1.9-2 2-2s2 .9 2 2v10.44c0 1.1-.9 2-2 2zm18.59 0c-1.1 0-2-.9-2-2v-2.44c0-1.1.9-2 2-2s2 .9 2 2v2.44c0 1.1-.9 2-2 2z"/></svg>