<svg version="1.1" id="Capa_1" xmlns="http://www.w3.org/2000/svg" x="0" y="0" viewBox="0 0 120 120" xml:space="preserve"><style>.st1{fill:#ffea27}.st2{fill:#f4d314}.st3{fill:#94a5b0}.st4{fill:#95a6b1}</style><path fill="none" d="M0 0h120v120H0z"/><g id="Grupo_8387" transform="translate(-17.989 -30.915)"><g id="Grupo_8385"><g id="Grupo_8383"><path class="st1" d="M75.08 133.38H56.87c-1.1 0-2-.9-2-2s.9-2 2-2h18.21c1.1 0 2 .9 2 2s-.9 2-2 2z" id="Línea_2736"/><path class="st1" d="M97.01 133.38h-9.1c-1.1 0-2-.9-2-2s.9-2 2-2h9.1c1.1 0 2 .9 2 2s-.9 2-2 2z" id="Línea_2737"/><path class="st1" d="M109.81 133.37c-.26 0-.52-.05-.76-.15a2.022 2.022 0 01-1.09-1.08c-.1-.24-.15-.5-.15-.77 0-.52.21-1.04.59-1.41.74-.74 2.08-.74 2.82 0 .38.37.59.89.59 1.41 0 .27-.05.53-.15.77-.1.24-.25.46-.44.65-.37.38-.87.58-1.41.58z" id="Línea_2738"/><path class="st2" d="M64.37 133.38h-18.2c-1.1 0-2-.9-2-2s.9-2 2-2h18.2c1.1 0 2 .9 2 2s-.9 2-2 2z" id="Línea_2739"/></g><g id="Grupo_8384"><path class="st1" d="M91.55 121.16H46.17c-1.1 0-2-.9-2-2s.9-2 2-2h45.38c1.1 0 2 .9 2 2s-.9 2-2 2z" id="Línea_2740"/><path class="st2" d="M46.17 121.17c-.26 0-.52-.06-.76-.16a2.022 2.022 0 01-1.09-1.08c-.1-.24-.15-.5-.15-.76 0-.14.02-.27.04-.4.03-.12.07-.25.11-.37.05-.12.12-.24.19-.34.07-.11.15-.22.25-.31.09-.09.19-.18.3-.25.11-.07.23-.13.35-.18.12-.05.24-.09.37-.12.26-.05.52-.05.78 0a2.211 2.211 0 01.72.3c.11.07.21.16.31.25.09.09.17.2.24.31.08.1.14.22.19.34s.09.25.11.37c.03.13.04.26.04.4 0 .26-.05.52-.15.76s-.25.46-.43.65c-.1.09-.2.18-.31.25a2.211 2.211 0 01-.72.3c-.12.01-.26.04-.39.04z" id="Línea_2741"/><path class="st2" d="M109.81 121.16H84.05c-1.1 0-2-.9-2-2s.9-2 2-2h25.76c1.1 0 2 .9 2 2s-.9 2-2 2z" id="Línea_2742"/></g></g><g id="Grupo_8386"><path class="st1" d="M50.19 93.24c-1.12 0-2.24-.2-3.32-.6a9.38 9.38 0 01-5.32-4.95c-2.18-4.77-.07-10.42 4.69-12.59 4.73-2.18 10.37-.11 12.56 4.63.02.03.03.07.05.11 1.03 2.3 1.12 4.86.24 7.22a9.38 9.38 0 01-4.95 5.32c-1.26.58-2.6.86-3.95.86zm-.01-15.01a5.508 5.508 0 00-5 7.79c.61 1.34 1.7 2.35 3.08 2.86 1.38.51 2.87.46 4.21-.15 1.34-.61 2.35-1.7 2.86-3.08.51-1.38.46-2.87-.15-4.21-.01-.03-.03-.06-.04-.09a5.523 5.523 0 00-4.96-3.12zm8.83 2.39z" id="Trazado_7107"/><g id="Grupo_6636"><path class="st3" d="M68.39 78.23c-1.1 0-2-.9-2-2V70.5c0-1.1.9-2 2-2s2 .9 2 2v5.73c0 1.1-.9 2-2 2z" id="Línea_1013"/><path class="st3" d="M76.78 78.23c-1.1 0-2-.9-2-2V70.5c0-1.1.9-2 2-2s2 .9 2 2v5.73c0 1.1-.9 2-2 2z" id="Línea_1014"/><path class="st3" d="M90.19 85.14c-.53 0-1.05-.21-1.45-.62-.52-.55-1.1-1.05-1.72-1.48l-11.06-4.97a1.987 1.987 0 01-1-2.64 1.987 1.987 0 012.64-1l11.23 5.05c.11.05.21.11.31.17.9.62 1.74 1.33 2.5 2.12.76.8.74 2.06-.06 2.83-.39.36-.89.54-1.39.54z" id="Trazado_5699"/><path class="st3" d="M84.06 109.45H52.77c-1.1 0-2-.9-2-2V97.01c0-1.1.9-2 2-2s2 .9 2 2v8.44h29.29c1.1 0 2 .9 2 2s-.9 2-2 2z" id="Trazado_5700"/><path class="st3" d="M62.66 80.81c-.76 0-1.49-.44-1.83-1.18-.45-1.01 0-2.19 1.01-2.64l5.73-2.57c1.01-.45 2.19 0 2.64 1.01.45 1.01 0 2.19-1.01 2.64l-5.73 2.57c-.26.11-.54.17-.81.17z" id="Línea_1015"/><path class="st3" d="M72.58 82.98c-.55 0-1.11-.23-1.5-.68l-4.19-4.75c-.73-.83-.65-2.09.18-2.82.83-.73 2.09-.65 2.82.18l4.19 4.75c.73.83.65 2.09-.18 2.82-.38.34-.85.5-1.32.5z" id="Línea_1016"/><path class="st3" d="M72.58 82.98c-.47 0-.94-.17-1.32-.5-.83-.73-.91-2-.17-2.82l4.2-4.75c.73-.83 1.99-.91 2.82-.17.83.73.9 2 .17 2.82l-4.2 4.75c-.4.44-.95.67-1.5.67z" id="Línea_1017"/><path class="st3" d="M72.55 73.7c-5.46 0-9.9-4.44-9.9-9.9 0-1.1.9-2 2-2s2 .9 2 2c0 3.25 2.65 5.9 5.9 5.9s5.9-2.65 5.9-5.9c0-1.1.9-2 2-2s2 .9 2 2c0 5.46-4.44 9.9-9.9 9.9z" id="Trazado_5701"/><path class="st3" d="M80.44 65.8c-1.1 0-2-.9-2-2v-5.45c0-3.25-2.65-5.9-5.9-5.9s-5.9 2.65-5.9 5.9v5.45c0 1.1-.9 2-2 2s-2-.9-2-2v-5.45c0-5.46 4.44-9.9 9.9-9.9s9.9 4.44 9.9 9.9v5.45c0 1.1-.9 2-2 2z" id="Trazado_5702"/></g><path class="st4" d="M113.28 109.45h-29.8c-1.1 0-2-.9-2-2V83.13c0-1.1.9-2 2-2h29.8c1.1 0 2 .9 2 2v24.32c0 1.1-.9 2-2 2zm-27.8-4h25.8V85.13h-25.8v20.32z" id="Rectángulo_2877"/><path class="st4" d="M98.38 102.52c-1.1 0-2-.9-2-2V88.86c0-1.1.9-2 2-2s2 .9 2 2v11.66c0 1.1-.9 2-2 2z" id="Línea_2743"/><path class="st4" d="M104.21 96.69H92.55c-1.1 0-2-.9-2-2s.9-2 2-2h11.66c1.1 0 2 .9 2 2s-.9 2-2 2z" id="Línea_2744"/></g></g></svg>