<svg id="Capa_1" data-name="Capa 1" xmlns="http://www.w3.org/2000/svg" viewBox="0 0 500 300"><defs><style>.cls-2{fill:#19a500}.cls-3{fill:#fff}.cls-4{fill:#a1d005}.cls-5{fill:#feec35}</style></defs><path fill="none" d="M0 0h500v300H0z"/><g id="Grupo_6330" data-name="Grupo 6330"><g id="Grupo_6103" data-name="Grupo 6103"><path class="cls-2" d="M135.5 249h-18.21a2 2 0 010-4h18.21a2 2 0 010 4z" id="Línea_651" data-name="Línea 651"/><path class="cls-3" d="M124.79 249h-18.2a2 2 0 010-4h18.2a2 2 0 110 4z" id="Línea_652" data-name="Línea 652"/><path class="cls-4" d="M93.76 249h-9.1a2 2 0 110-4h9.1a2 2 0 010 4z" id="Línea_653" data-name="Línea 653"/><path class="cls-5" d="M71.85 249a2 2 0 01-.76-.15 2.4 2.4 0 01-.65-.44 1.81 1.81 0 01-.25-.3 2.31 2.31 0 01-.18-.35 2.29 2.29 0 01-.12-.37 2.54 2.54 0 010-.39 2.54 2.54 0 010-.39 1.66 1.66 0 01.11-.38 2.21 2.21 0 01.18-.34 3.76 3.76 0 01.25-.31 2.08 2.08 0 012.83 0 3.76 3.76 0 01.25.31 2.21 2.21 0 01.18.34 2.4 2.4 0 01.12.38 2.55 2.55 0 010 .78 2.29 2.29 0 01-.12.37 2.31 2.31 0 01-.18.35 1.81 1.81 0 01-.25.3 2 2 0 01-1.41.59z" id="Línea_654" data-name="Línea 654"/></g><g id="Grupo_6104" data-name="Grupo 6104"><path class="cls-3" d="M110.27 259h-8.42a2 2 0 010-4h8.42a2 2 0 010 4z" id="Línea_652-2" data-name="Línea 652-2"/><path class="cls-4" d="M132.2 259h-9.1a2 2 0 010-4h9.1a2 2 0 010 4z" id="Línea_653-2" data-name="Línea 653-2"/><path class="cls-5" d="M145 259a2 2 0 01-1.41-3.42 2.07 2.07 0 012.82 0A2 2 0 01147 257a2.54 2.54 0 010 .39 1.58 1.58 0 01-.11.37 1.7 1.7 0 01-.19.35 1.81 1.81 0 01-.25.3 2 2 0 01-1.45.59z" id="Línea_654-2" data-name="Línea 654-2"/></g></g><g id="Grupo_6331" data-name="Grupo 6331"><g id="Grupo_6103-2" data-name="Grupo 6103-2"><path class="cls-2" d="M351.42 259h-18.21a2 2 0 010-4h18.21a2 2 0 110 4z" id="Línea_651-2" data-name="Línea 651-2"/><path class="cls-3" d="M362.12 259h-18.2a2 2 0 010-4h18.2a2 2 0 010 4z" id="Línea_652-3" data-name="Línea 652-3"/><path class="cls-4" d="M384.05 259H375a2 2 0 010-4h9.1a2 2 0 010 4z" id="Línea_653-3" data-name="Línea 653-3"/><path class="cls-5" d="M396.85 259a2 2 0 01-1.41-.59 1.81 1.81 0 01-.25-.3 2.31 2.31 0 01-.18-.35 2.29 2.29 0 01-.12-.37 2.54 2.54 0 010-.39 2 2 0 01.59-1.42 2.08 2.08 0 012.83 0 2 2 0 01.59 1.42 2.54 2.54 0 010 .39 2.29 2.29 0 01-.12.37 2.31 2.31 0 01-.18.35 1.81 1.81 0 01-.25.3 2 2 0 01-1.5.59z" id="Línea_654-3" data-name="Línea 654-3"/></g><g id="Grupo_6104-2" data-name="Grupo 6104-2"><path class="cls-3" d="M366.85 249h-8.41a2 2 0 010-4h8.41a2 2 0 010 4z" id="Línea_652-4" data-name="Línea 652-4"/><path class="cls-4" d="M345.61 249h-9.1a2 2 0 010-4h9.1a2 2 0 010 4z" id="Línea_653-4" data-name="Línea 653-4"/><path class="cls-5" d="M323.71 249h-.39a2.38 2.38 0 01-.38-.11 2.27 2.27 0 01-.34-.19 2.16 2.16 0 01-.55-.55 1.7 1.7 0 01-.19-.35 1.58 1.58 0 01-.11-.37 2 2 0 010-.78 2.38 2.38 0 01.11-.38 1.63 1.63 0 01.19-.34 1.48 1.48 0 01.25-.31 2.07 2.07 0 012.82 0 1.48 1.48 0 01.25.31 1.63 1.63 0 01.19.34 1.66 1.66 0 01.11.38 2 2 0 010 .78 1.58 1.58 0 01-.11.37 2.31 2.31 0 01-.18.35 2.55 2.55 0 01-.26.3 2 2 0 01-1.41.55z" id="Línea_654-4" data-name="Línea 654-4"/></g></g><path d="M314.54 174.82c-3.24 12.08 11.85 14.91 18.23 7.56 3.26-11.43-11.69-17.91-18.23-7.56m-153.07-81.2c1.1-6.11-1.48-15.29-7.62-6.55-.72 6.24 1.72 13.22 7.62 6.55M204.65 61c1.6-7.37-7.6-9.27-10-3.19-1.77 9.69 5.86 11.22 10 3.19m41.81-16.81c2-10-7.7-11-12.93-5.69-2.1 9.86 7.3 14.45 12.93 5.69m34.26 5.35h.18c0-.19-.1 0-.18 0M296.24 54c3.22-11.89-12.51-12.91-15.33-4.25-2 11.59 11.2 14.11 15.33 4.25m7.39 107c-8.05 18.59-9.93-1.55-24.48-5.26-3-4.58-23.54-10.67-10.71-.45a24.88 24.88 0 004.23 8.49c0 .65-.52 4.14 1.05 3.71.6 5.58 3.6 10.77 2.92 17.26 2.41-.83 1.64 16 0 15.42-2.14 13.51-27.06 23.44-40.85 20.81-35.6-10.42-43.52-71-6.62-79.86 29.1-3.22 16.91 48.7-.16 31.25-4.13-1.72-2.21-5.66-1.55-8.2 3.67-1.51 7.46-1.39 6.59-6.1-8.14-6-11 1.4-14.06 6-3.2 25.6 32.15 25.14 32.07 1.33 3.82-5.66-1.28-17-1.6-22.7-4.15-5.23-12.57-8.18-21.13-7.83-22.79-.09-29.74 25.1-29.46 43.64 7.58 12.61-9.37 13.93-14.86 21.9-18 10.47-15.17-1-20.57-12.27-3.17-11.72 18.15-6.19 18.54-13 4.81-.4 14.53-17.92 6-11.68-15.07 6.06-18.46-5.18-24.57-15.58-.56-8.43 2.28-15.64 5.31-22.32 3.13-.55 3.37 2.53 3.14 4.83 1.42 1.33 3.5 4.12 4 6.24 3.38 3.92 16.86 12.45 21.2 6.06-4-1.19-2.81-6-5.53-6.81-.05-.65.92-2.25-1.09-2.5.28-1.62.11-3.66-1.6-4.19-2.42-7.1-6.68-26.17-2.58-36a43.07 43.07 0 007.9-8.93c2.68-1.24 7.22 1.69 3.14 3.63 1.69 12-4 8.24.26 12.59-.41 4.82 3.81 12.44 7.93 17 1.63 5 15.32 11.23 9 2.39.35-3.29-1.39-3.47-2.93-6.88.18-1.21.13-3.37-1.3-3.73-.62-8.62.87-11.34 1.33-20.43 2.59-1.37 2.74-4.78 2.9-7.63 3.55-6.4 12.73-11.62 22.19-11 .46 2.46-.79 4.27-1.74 6.08-2.69 0 .28 3.16-2.29 2.78-.39 5.61-5.4 13.2-4.43 19.67-1.11-1-.53 22.91 3.09 20.39 4.7 1.53 2.9-3.59 3.24-6.19 1.84-.66 2.16-3.52 2.71-5 7-10.17 24.09-48.83 39.67-25.49-7.94 8-18.18 20-24.08 30.76-4.61 17.57-5 17.19 7.19 2.39 20.79-15.64 38.68-34.11 38.34 3-13 3-29.57 4.44-40.23 13.23 3.2 2.6 12.42 1.05 17 1.57 12.67 4.11 27.65 14 27.48 27.61zm7.7-36c-2.72.09-1.26-8-1.6-9.35-2 .32-1.13-2.08-1.32-3.09-2.28.35-1-3.9-1.32-5-2.54-1.71-1.47-7.37-4-12.25-10.55-18.13-36.49-35.05-62.09-30.7-43.49-.87-71.81 37.2-77.62 70-5.47 9.53-5.6 42.52-1.33 53.62-.67 3.63 1.66 6.88 1.33 10.2 2.8 0-.19 4.22 2.91 4.32-.62 5.44 3.1 5.4 6.64 7.93 9.52-.87 18.62-4.65 25.56-12.23 15 12.29 20.32 31.28 44.62 32.16 35.75 2.58 54.83-34.84 64-61.65 2.44-1.4 4-12.4 1.34-14.58 3.62-8.11 2.83-19.44 2.88-29.38zm17.46-42.43c2.15-12.25-12.19-12.28-18.46-5.92-1.49 12.42 12.41 15.53 18.46 5.92m16.21 46.7c2.92-15.52-10.44-17.23-18.49-7.8-1 10.64 9.85 16.26 18.49 7.8" fill="#00bc00"/></svg>