<svg id="Capa_1" data-name="Capa 1" xmlns="http://www.w3.org/2000/svg" viewBox="0 0 500 300"><defs><style>.cls-2{fill:#19a500}.cls-3{fill:#fff}.cls-4{fill:#a1d005}.cls-5{fill:#feec35}.cls-6{fill:#00bc00}</style></defs><path fill="none" d="M0 0h500v300H0z"/><g id="Grupo_6330" data-name="Grupo 6330"><g id="Grupo_6103" data-name="Grupo 6103"><path class="cls-2" d="M135.5 249h-18.21a2 2 0 110-4h18.21a2 2 0 010 4z" id="Línea_651" data-name="Línea 651"/><path class="cls-3" d="M124.79 249h-18.2a2 2 0 010-4h18.2a2 2 0 010 4z" id="Línea_652" data-name="Línea 652"/><path class="cls-4" d="M93.76 249h-9.1a2 2 0 010-4h9.1a2 2 0 110 4z" id="Línea_653" data-name="Línea 653"/><path class="cls-5" d="M71.85 249a2 2 0 01-.76-.15 2.2 2.2 0 01-.65-.44 2.34 2.34 0 01-.25-.3 2.31 2.31 0 01-.18-.35 2.29 2.29 0 01-.12-.37 2.56 2.56 0 010-.39 1.72 1.72 0 010-.39 1.66 1.66 0 01.11-.38 1.83 1.83 0 01.18-.34 2.6 2.6 0 01.25-.31 2.08 2.08 0 012.83 0 2.6 2.6 0 01.25.31 1.83 1.83 0 01.18.34 2.4 2.4 0 01.12.38 2.55 2.55 0 010 .78 2.29 2.29 0 01-.12.37 2.31 2.31 0 01-.18.35 2.34 2.34 0 01-.25.3 2 2 0 01-1.41.59z" id="Línea_654" data-name="Línea 654"/></g><g id="Grupo_6104" data-name="Grupo 6104"><path class="cls-3" d="M110.27 259h-8.42a2 2 0 010-4h8.42a2 2 0 110 4z" id="Línea_652-2" data-name="Línea 652-2"/><path class="cls-4" d="M132.2 259h-9.1a2 2 0 010-4h9.1a2 2 0 110 4z" id="Línea_653-2" data-name="Línea 653-2"/><path class="cls-5" d="M145 259a2 2 0 01-2-2 2 2 0 01.59-1.42 2.07 2.07 0 012.82 0A2 2 0 01147 257a1.72 1.72 0 010 .39 1.58 1.58 0 01-.11.37 1.7 1.7 0 01-.19.35 1.73 1.73 0 01-.25.3 2 2 0 01-1.45.59z" id="Línea_654-2" data-name="Línea 654-2"/></g></g><g id="Grupo_6331" data-name="Grupo 6331"><g id="Grupo_6103-2" data-name="Grupo 6103-2"><path class="cls-2" d="M404.5 259h-18.21a2 2 0 010-4h18.21a2 2 0 110 4z" id="Línea_651-2" data-name="Línea 651-2"/><path class="cls-3" d="M415.2 259H397a2 2 0 010-4h18.2a2 2 0 110 4z" id="Línea_652-3" data-name="Línea 652-3"/><path class="cls-4" d="M437.14 259H428a2 2 0 010-4h9.11a2 2 0 110 4z" id="Línea_653-3" data-name="Línea 653-3"/><path class="cls-5" d="M449.94 259a2 2 0 01-1.42-.59 2.34 2.34 0 01-.25-.3 2.31 2.31 0 01-.18-.35 1.58 1.58 0 01-.11-.37 1.72 1.72 0 010-.39 2 2 0 01.58-1.42 2.08 2.08 0 012.83 0 1.89 1.89 0 01.25.31 1.83 1.83 0 01.18.34 2.4 2.4 0 01.12.38 1.92 1.92 0 010 .78 2.26 2.26 0 01-.11.37 2.37 2.37 0 01-.19.35 2.34 2.34 0 01-.25.3 2 2 0 01-1.45.59z" id="Línea_654-3" data-name="Línea 654-3"/></g><g id="Grupo_6104-2" data-name="Grupo 6104-2"><path class="cls-3" d="M419.94 249h-8.42a2 2 0 010-4h8.42a2 2 0 010 4z" id="Línea_652-4" data-name="Línea 652-4"/><path class="cls-4" d="M398.69 249h-9.1a2 2 0 010-4h9.1a2 2 0 010 4z" id="Línea_653-4" data-name="Línea 653-4"/><path class="cls-5" d="M376.79 249a2 2 0 01-1.41-.59 1.73 1.73 0 01-.25-.3 1.7 1.7 0 01-.19-.35 1.58 1.58 0 01-.11-.37 1.92 1.92 0 010-.78 2.38 2.38 0 01.11-.38 1.86 1.86 0 01.19-.34 1.89 1.89 0 01.25-.31 2.48 2.48 0 01.3-.25 2.31 2.31 0 01.35-.18 1.58 1.58 0 01.37-.11 1.71 1.71 0 01.78 0 1.66 1.66 0 01.38.11 2.21 2.21 0 01.34.18l.31.25a1.83 1.83 0 01.24.31 1.41 1.41 0 01.19.34 1.66 1.66 0 01.11.38 1.92 1.92 0 010 .78 1.58 1.58 0 01-.11.37 2.31 2.31 0 01-.18.35 3.61 3.61 0 01-.25.3 2.42 2.42 0 01-.31.25 2.27 2.27 0 01-.34.19 2.59 2.59 0 01-.37.11 2.71 2.71 0 01-.4.04z" id="Línea_654-4" data-name="Línea 654-4"/></g></g><path class="cls-6" d="M263.39 55.94l3.21 4.91c.58-.57 1-1 1.43-1.4a17.3 17.3 0 011.68-1.84 3 3 0 014.41.77 1.88 1.88 0 01.06 2.07c-1.13 2.11-2.25 4.23-4.69 5.46 2 3.8 3.89 7.47 5.88 11.31a10.2 10.2 0 002.08-.25c3.66-1.23 7.31-2.52 11-3.8a5.12 5.12 0 001.43-.62c2.48-1.91 5.54-2.4 8.35-3.47a23.57 23.57 0 005.05-2.45c1.13-.77 2.3-1.47 3.79-.94.68.23 1.2-.2 1.68-.62a1.52 1.52 0 012.25.14 5.12 5.12 0 011.55 2.27 8.54 8.54 0 01-.93 6.35 5 5 0 01-3 2.06c-2.91.84-5.83 1.67-8.75 2.47-5 1.37-10.09 2.69-15.12 4.11-1.9.54-3.74 1.29-5.65 2a3.57 3.57 0 00-.41 1.17c.09 2.51.2 5 .4 7.51a6.54 6.54 0 00.68 2.07 7.76 7.76 0 00.94 1.63c2.91 3.89 3.15 8.31 2.55 12.88a31.77 31.77 0 01-.86 4.3 3.1 3.1 0 01-2.91 2.45 3.36 3.36 0 01-3.21-2.11c-.24-.57-.38-1.19-.58-1.78-1-3-2-5.94-3-8.91a11.69 11.69 0 00-.95-2.31 49 49 0 01-4.49-10 4.33 4.33 0 00-2.61-2.52 1.52 1.52 0 00-2.23 1.15 5 5 0 000 1.55c.43 2.47.86 4.94 1.37 7.39q1.78 8.74 3.64 17.49c1.18 5.53 2.74 10.9 5.7 15.83a72.48 72.48 0 017.7 17.79 48.11 48.11 0 002.44 5.75 17.66 17.66 0 011.21 2.85c.53 2.24.9 4.51 1.33 6.77A9.06 9.06 0 01286 167c.1 5.85.47 11.71.18 17.53-.2 4.25-1.25 8.46-2 12.68a24.29 24.29 0 01-.92 3.31 7.88 7.88 0 01-1 2.28 4.08 4.08 0 00-.71 3.2 14.52 14.52 0 01-.38 4.34 117 117 0 00-1.84 12.08c-.27 2.59-1 5.12-1.36 7.71-.4 3-.58 6-.89 9-.28 2.59-.48 5.2-.93 7.77-.67 3.81-1.46 7.6-2.32 11.37-.47 2-1.17 4-1.81 6a8.16 8.16 0 01-.82 1.68c-.68 1.13-1.55 2-3 1.91a3.89 3.89 0 01-3.45-2.34 4.72 4.72 0 01-.24-3.36 76.35 76.35 0 001.91-12.39c.45-4.58.61-9.18 1.09-13.75a84.37 84.37 0 000-16.59c-.2-2.18-.09-4.39-.08-6.58a13.24 13.24 0 00-.14-3.85 6.64 6.64 0 00-1.77-.36c-5.43.33-10.85.7-16.27 1.07-.42 0-.83.07-1.25.09a1.82 1.82 0 00-1.73 1.14 43.92 43.92 0 00-2.75 7c-1.2 4.75-2.24 9.57-4.19 14.1a19.82 19.82 0 01-1.21 2.55c-2.1 3.43-2.58 7.23-2.72 11.14-.08 2.29-.21 4.59-.33 6.88a8.68 8.68 0 01-.13 1.25 2.45 2.45 0 01-2.58 2.24 2.88 2.88 0 01-3.17-2.4 3.64 3.64 0 01-.06-.93c.36-3.94-.8-7.67-1.55-11.45a44.13 44.13 0 01-1-7.77c0-2-.22-4-.33-5.94a7.51 7.51 0 010-1.57c.72-4.59-.16-9.18-.06-13.77v-6.26a7.5 7.5 0 00-1.08-.72 129.81 129.81 0 00-14.6-5.64c-3.72-1.1-7.31-2.52-10.16-5.34a9.14 9.14 0 00-2.57-1.79 10.77 10.77 0 01-3.72-3.17c-1.65-2-3-4.14-4.49-6.27a4 4 0 01-.36-3.61c2.47-7.58 5.31-15 10.35-21.32a32.59 32.59 0 013.12-3.51c2.9-2.71 5.63-5.63 9-7.8a5.18 5.18 0 001-.79 54.29 54.29 0 0111.32-8.51c2.76-1.69 5.47-3.47 8.24-5.14a2.46 2.46 0 001.24-2.64c-.42-3.64-.83-7.27-1.31-10.9-.31-2.38-.72-4.75-1.09-7.12a21.51 21.51 0 00-.47-2.78 39.31 39.31 0 01-1.61-7.66 15.69 15.69 0 00-.72-2.7c-3.39.5-6.56 1-9.72 1.46-.72.11-1.42.39-2.14.51-2.15.38-4.32.71-6.48 1.08a53.8 53.8 0 00-9.51 2.38v2.6A27.37 27.37 0 01200 110a1.81 1.81 0 01-1.63 1.67c-.94.08-2 .16-2.52-.82a4.58 4.58 0 00-2.63-2 3.66 3.66 0 01-1.46-6.12c1.51-1.5 1.6-3.56 2.82-5.12.31-.4.1-1.21.13-1.83 0-.82.08-1.63.11-2.44 2.48-.77 3.61.75 4.69 2.44a56 56 0 007.05-1.43c4.39-.94 8.73-2.15 13.14-3 4.93-.94 9.8-2.07 14.65-3.36 3.52-.94 7.19-1.34 10.77-2.08 3.79-.78 7.55-1.66 11.31-2.55a13.88 13.88 0 002.1-.85 1.42 1.42 0 00-.76-1.77c-1.48-1-3-1.89-4.44-2.81-.74.16-.69.7-.78 1.21a4.05 4.05 0 01-.55 1.73c-1.67 2.07-4.25 1.67-5.15-.83a34.41 34.41 0 01-1.22-4.85c-.3-1.53-.4-3.11-.7-4.64a5.44 5.44 0 01.64-4.17c2-3.32 1.65-6.8.34-10.28a2.48 2.48 0 00-2.36-1.72 4.4 4.4 0 00-4.1 1.85 42 42 0 00-2.74 4.56 4.7 4.7 0 00.49 5.3c.79 1.1 1.47 2.28 2.29 3.34a7 7 0 001.82 1.65 3.58 3.58 0 011.8 2.76c.21 1.44.54 2.87.78 4.31a3.6 3.6 0 010 1.53c-.67 2.21-2.15 3.11-4.63 2a3.8 3.8 0 01-2.05-2.28 7.13 7.13 0 01-.37-1.19 4.61 4.61 0 00-3-3.69 17.82 17.82 0 01-5-3.27 7.74 7.74 0 01-2.82-5.74 7.39 7.39 0 000-.94 11 11 0 013.37-9.39 24.12 24.12 0 001.91-2.46c3.48-4.72 8.2-6.6 13.94-6.07a17.55 17.55 0 013.35.79 6.18 6.18 0 013.69 2.74 9.79 9.79 0 004.63 4.08 2.41 2.41 0 01.8.48 4.64 4.64 0 004 1.18c.48-.01.89.02 1.68.02zm-23.57 38.91c0 1.2-.07 2.24 0 3.26.74 9 1.41 17.91 2.35 26.84.32 3.08-.56 5.77-1.57 8.5a3.74 3.74 0 01-1.44 1.57c-.86.58-1.85 1-2.75 1.49a16 16 0 00-3.18 2 29.75 29.75 0 01-6.33 4.49 40.24 40.24 0 00-8.28 6.16c-.68.64-1.38 1.27-2.11 1.86-1.95 1.57-4 3-5.87 4.68a44.82 44.82 0 00-13.07 19.94c-.39 1.19-.79 2.38-1.23 3.55-.76 2.07-.73 2.53 1.1 3.62 3.6 2.13 7.17 4.32 10.94 6.11a129.41 129.41 0 0026.07 8.77 67.79 67.79 0 0012 2c8.71.45 17.33-.49 26-1.34a26.08 26.08 0 003.36-.71 2 2 0 001.74-1.94c.11-1.14.29-2.28.45-3.42a70.67 70.67 0 00.77-17.49c-.45-4.45-.57-9-1.92-13.3a28 28 0 01-.52-2.76 20.71 20.71 0 00-.74-3.36c-1.42-3.82-2.89-7.62-4.44-11.38a56.56 56.56 0 00-2.88-5.91 81.3 81.3 0 01-3.83-7.85c-1.44-3.34-3-6.63-4.55-9.93a36.15 36.15 0 01-2.89-9.9c-.8-5.37-1.42-10.77-2.14-16.15a3.25 3.25 0 00-1.12-2.63c-4.61.8-9.32 1.5-13.92 3.23zm-7.1 128.28c1.83-1.55 1.95-3.32 2.64-4.78A33.85 33.85 0 00237 214c.49-1.54 1.85-2.8 1.56-4.57-2.15-1.13-2.15-1.13-4.48-.75-.56 4.51-2.17 9.03-1.36 14.45zM208.89 36.58a3.68 3.68 0 01.15 3.1 11.06 11.06 0 01-2.47 4.61 2.53 2.53 0 01-3.38.32 2.4 2.4 0 01-1.13-3.15c.22-.58.47-1.14.72-1.71a6.17 6.17 0 012.94-2.66 3.62 3.62 0 013.17-.51zm69.34 12.77a5.27 5.27 0 01-2.52 4.15 2.64 2.64 0 01-3.17-.23 2.5 2.5 0 01-1.15-2.94 12.74 12.74 0 011.42-3.06 2.79 2.79 0 013.33-.9 2.91 2.91 0 012.09 2.98zm-31.34-33.42a6.41 6.41 0 012-.85c2.34-.08 4.74-.39 7 .73.46 1.15 0 2.14-.27 3.1a2.27 2.27 0 01-2.79 1.85 17.2 17.2 0 01-4-1.61c-1.07-.55-1.55-1.63-1.94-3.22zm-29.43 14.99a7.71 7.71 0 01-3.05 4.5 2.18 2.18 0 01-2.83-.37c-1.64-1.54-1.79-2.79-.5-4.6 1.07-1.5 2.39-2.59 4.42-2.22a2.31 2.31 0 011.96 2.69zm43.78-14.82a11.87 11.87 0 015.34 2 2.53 2.53 0 01.57 3.13 2.24 2.24 0 01-2.57 1.29 8 8 0 01-5.64-3.52c-.83-1.29-.31-2.43 1.24-2.76.3-.04.61-.07 1.06-.14zm16.24 24.17a2.46 2.46 0 01-2.78 2.36 4.12 4.12 0 01-3-2.08 16.72 16.72 0 01-1.26-2.84 1.94 1.94 0 011.49-2.6 4.65 4.65 0 015.09 3.11c.22.7.33 1.42.46 2.05zM267 24.65a10.53 10.53 0 013.16 1.48 5.45 5.45 0 011.52 4 2.45 2.45 0 01-3.68 1.95 9.53 9.53 0 01-3.63-5.32c-.37-1.12.63-2.1 2.63-2.11zm-66.19 23.6c1.91 0 2.92 1.16 2.55 3a10.3 10.3 0 01-.93 2.61 2.39 2.39 0 01-3.12 1.24 2.94 2.94 0 01-2-3.12 10.07 10.07 0 01.31-1.2c.58-2.17 1.09-2.57 3.19-2.53zm26.68-27.17c1.49-2.79 3.16-3.67 5.76-3.1a2 2 0 011.64 2.51 4.21 4.21 0 01-3.41 3.24c-1.4.39-2.39-.37-3.22-1.38a9 9 0 01-.77-1.27z"/><path class="cls-6" d="M210 75.36a7.58 7.58 0 014.86 1.71 1.52 1.52 0 01.35 2 2.19 2.19 0 01-1.64 1.31 6.8 6.8 0 01-5.81-1.61 1.61 1.61 0 01.47-2.79 11.23 11.23 0 011.77-.62zM202.07 66c2.27 0 3.11.61 3.69 2.32a11.32 11.32 0 01.46 1.8 1.86 1.86 0 01-2 2.16 5.71 5.71 0 01-4.36-3.11 1.8 1.8 0 01.49-2.25 10.11 10.11 0 011.72-.92zm40.02-52.21l1.46.32c1 .18 1.81.54 2 1.65a2.87 2.87 0 01-1.43 2.89 3.62 3.62 0 01-5.31-1.47 1.58 1.58 0 01.56-2.4 27.09 27.09 0 012.72-.99zM219 24.36a5.79 5.79 0 016-1.79c1.32.29 1.71 1.27 1.34 2.57-.87 3.11-4.18 3.16-5.86 1.36a16.84 16.84 0 01-1.48-2.14zm-18 33.53a6.62 6.62 0 011.77.69 2.7 2.7 0 01.28 4.1 2.5 2.5 0 01-3.81.23 7.23 7.23 0 01-.86-.89 3 3 0 01-.43-3.18c.39-.59 1.32-.94 3.05-.95zm21.74 20.38c1.19 0 2.22.08 2.93 1a1.47 1.47 0 01-.36 2.16 3.41 3.41 0 01-4.26-.58 1.38 1.38 0 01.61-2.41 9.11 9.11 0 011.08-.17z"/></svg>