<svg xmlns="http://www.w3.org/2000/svg" viewBox="0 0 120 120"><defs><style>.cls-1{isolation:isolate;}.cls-2{fill:none;}.cls-3{fill:#ffea27;}.cls-4{mix-blend-mode:multiply;}.cls-5{fill:#f4d314;}.cls-6{fill:#95a6b1;}</style></defs><title>02-icon_ocenza_home_noticias</title><g class="cls-1"><g id="Capa_1" data-name="Capa 1"><rect class="cls-2" width="120" height="120"/><path class="cls-3" d="M57.09,115.86H38.88a2,2,0,0,1,0-4H57.09a2,2,0,0,1,0,4Z"/><path class="cls-3" d="M79,115.86h-9.1a2,2,0,0,1,0-4H79a2,2,0,0,1,0,4Z"/><path class="cls-3" d="M91.82,115.86a2,2,0,0,1-1.41-.59,1.88,1.88,0,0,1-.44-.64,2,2,0,0,1,.44-2.18,2.06,2.06,0,0,1,2.83,0,2,2,0,0,1,0,2.82,2.51,2.51,0,0,1-.31.26,2.21,2.21,0,0,1-.34.18,2.2,2.2,0,0,1-.77.15Z"/><g class="cls-4"><path class="cls-5" d="M46.38,115.86H28.18a2,2,0,1,1,0-4h18.2a2,2,0,1,1,0,4Z"/></g><path class="cls-3" d="M73.56,103.64H28.18a2,2,0,1,1,0-4H73.56a2,2,0,0,1,0,4Z"/><g class="cls-4"><path class="cls-5" d="M28.18,103.64a2,2,0,0,1-1.42-.59,2.16,2.16,0,0,1-.43-.65,2,2,0,0,1-.15-.76,2,2,0,0,1,.58-1.42l.31-.25a2.21,2.21,0,0,1,.34-.18,2.4,2.4,0,0,1,.38-.12,2,2,0,0,1,.78,0,2.29,2.29,0,0,1,.37.12,2.31,2.31,0,0,1,.35.18,2.48,2.48,0,0,1,.3.25,2.34,2.34,0,0,1,.25.3,1.66,1.66,0,0,1,.18.35,2.65,2.65,0,0,1,.12.37,2.58,2.58,0,0,1,0,.4,2,2,0,0,1-.15.76,2,2,0,0,1-.44.65A2,2,0,0,1,28.18,103.64Z"/></g><g class="cls-4"><path class="cls-5" d="M91.82,103.64H66.06a2,2,0,0,1,0-4H91.82a2,2,0,0,1,0,4Z"/></g><path class="cls-3" d="M26,48.19a9.54,9.54,0,0,1-3.32-.6,9.43,9.43,0,0,1-5.33-5,9.5,9.5,0,0,1,17.28-7.9h0A9.5,9.5,0,0,1,30,47.33,9.4,9.4,0,0,1,26,48.19Zm0-15a5.5,5.5,0,1,0,2.29,10.5,5.5,5.5,0,0,0-.37-10.15A5.52,5.52,0,0,0,26,33.19Z"/><path class="cls-6" d="M94,91.14H26a2,2,0,0,1-2-2V52.8a2,2,0,0,1,2-2h0a2,2,0,0,1,2,2V87.21H92v-79H28V24.4a2,2,0,1,1-3.93,0V6.29a1.95,1.95,0,0,1,2-2H94a2,2,0,0,1,2,2V89.18a1.92,1.92,0,0,1-.57,1.38A2,2,0,0,1,94,91.14Z"/><path class="cls-6" d="M85.05,81.24H36a2,2,0,0,1,0-3.93h49a2,2,0,0,1,0,3.93Z"/><path class="cls-6" d="M85.05,70.55h-17a2,2,0,0,1-2-2v-21a2,2,0,0,1,2-2h17a2,2,0,0,1,2,2v21A2,2,0,0,1,85.05,70.55Zm-15-3.93h13V49.53h-13Z"/><path class="cls-6" d="M57.92,53.82H36a2,2,0,0,1,0-3.93h21.9a2,2,0,1,1,0,3.93Z"/><path class="cls-6" d="M57.92,68.19H36a2,2,0,0,1,0-3.93h21.9a2,2,0,1,1,0,3.93Z"/><path class="cls-6" d="M44.91,19.59v6.63c0,.16,0,.33,0,.53s0,.41,0,.62L45,28c0,.22,0,.42,0,.63,0,.47.05.95.07,1.43H45l-5.5-10.48H35.75v14H38.4V27c0-.36,0-.77,0-1.23s0-.89-.07-1.31-.05-1-.09-1.46h.09l5.5,10.59h3.76v-14Z"/><polygon class="cls-6" points="58.32 22.02 58.32 19.59 50.26 19.59 50.26 33.59 58.32 33.59 58.32 31.14 53.23 31.14 53.23 27.53 57.97 27.53 57.97 25.09 53.23 25.09 53.23 22.02 58.32 22.02"/><path class="cls-6" d="M74.74,19.59l-1.59,7.64c0,.1-.05.25-.08.45s-.08.41-.12.65-.09.5-.14.77-.1.53-.14.78-.08.5-.12.72-.06.4-.08.54c0-.14,0-.32-.08-.54s-.08-.45-.12-.69-.08-.5-.13-.76-.08-.51-.13-.74-.08-.42-.11-.6-.06-.3-.08-.38l-1.95-7.84h-2.6l-2,7.84c0,.08,0,.2-.08.38s-.07.38-.11.6-.08.47-.13.74-.09.51-.13.76-.07.47-.11.69-.06.4-.08.54c0-.14,0-.32-.08-.54s-.08-.46-.13-.72-.09-.51-.14-.78-.09-.53-.14-.77-.08-.46-.12-.65-.06-.35-.08-.45L62.4,19.59H59.48l3.37,14h3.38l1.71-6.89c0-.1.06-.24.09-.42s.08-.37.12-.59.09-.45.13-.68.08-.47.12-.69.07-.42.1-.61,0-.34.06-.45c0,.11,0,.26.06.45s.07.4.1.62.08.45.13.69.09.46.13.68.09.41.12.58.07.31.09.41l1.73,6.9h3.37l3.37-14Z"/><path class="cls-6" d="M86.85,28.27a3.53,3.53,0,0,0-.67-1.1,5.31,5.31,0,0,0-1-.88,13.53,13.53,0,0,0-1.32-.78c-.4-.21-.74-.4-1-.57a3.63,3.63,0,0,1-.68-.49,1.51,1.51,0,0,1-.39-.51,1.54,1.54,0,0,1-.12-.63,1.42,1.42,0,0,1,.4-1,1.55,1.55,0,0,1,1.15-.4,5.19,5.19,0,0,1,.68.05,5.73,5.73,0,0,1,.69.16c.24.07.48.16.73.26l.81.35,1-2.31c-.33-.16-.66-.3-1-.42a9.42,9.42,0,0,0-1-.3,8.19,8.19,0,0,0-1-.2,8.1,8.1,0,0,0-1-.06,5.88,5.88,0,0,0-1.84.27,3.64,3.64,0,0,0-1.39.78A3.52,3.52,0,0,0,79,21.69a4.49,4.49,0,0,0-.31,1.68A3.72,3.72,0,0,0,79.05,25a3.82,3.82,0,0,0,.81,1.17,5.25,5.25,0,0,0,1,.81c.36.22.69.4,1,.56s.67.36.95.52a4.43,4.43,0,0,1,.73.52,2,2,0,0,1,.47.56,1.42,1.42,0,0,1,.17.7,1.63,1.63,0,0,1-.1.59,1.1,1.1,0,0,1-.32.47,1.43,1.43,0,0,1-.56.31,2.9,2.9,0,0,1-.84.11,4.47,4.47,0,0,1-1-.1,8.64,8.64,0,0,1-1-.25c-.32-.11-.64-.24-1-.37l-.93-.43v2.76a7.14,7.14,0,0,0,1.75.63,9,9,0,0,0,2,.21,6.47,6.47,0,0,0,2-.29,4.14,4.14,0,0,0,1.51-.82,3.41,3.41,0,0,0,.94-1.28,4.31,4.31,0,0,0,.32-1.69A3.86,3.86,0,0,0,86.85,28.27Z"/></g></g></svg>