<svg xmlns="http://www.w3.org/2000/svg" viewBox="0 0 120 120"><defs><style>.cls-1{isolation:isolate;}.cls-2{fill:none;}.cls-3{fill:#ffea27;}.cls-4{mix-blend-mode:multiply;}.cls-5{fill:#f4d314;}.cls-6{fill:#95a6b1;}</style></defs><title>06-icon_ocenza_integridad_geotubo</title><g class="cls-1"><g id="Capa_1" data-name="Capa 1"><rect class="cls-2" x="-0.18" y="0.06" width="120.36" height="119.87"/><path class="cls-3" d="M53.77,116.23H35.57a2,2,0,0,1,0-4h18.2a2,2,0,0,1,0,4Z"/><path class="cls-3" d="M75.71,116.23H66.6a2,2,0,0,1,0-4h9.11a2,2,0,0,1,0,4Z"/><path class="cls-3" d="M88.51,116.23a2,2,0,0,1-1.42-.59,1.85,1.85,0,0,1-.43-.64,2,2,0,0,1-.15-.77,1.72,1.72,0,0,1,0-.39,1.58,1.58,0,0,1,.11-.37,1.92,1.92,0,0,1,.18-.35,2.48,2.48,0,0,1,.25-.3,2.06,2.06,0,0,1,2.83,0,1.81,1.81,0,0,1,.25.3,1.92,1.92,0,0,1,.18.35,2.29,2.29,0,0,1,.12.37,2.58,2.58,0,0,1,0,.39,2,2,0,0,1-.16.77,1.85,1.85,0,0,1-.43.64A2,2,0,0,1,88.51,116.23Z"/><g class="cls-4"><path class="cls-5" d="M43.07,116.23H24.86a2,2,0,0,1,0-4H43.07a2,2,0,1,1,0,4Z"/></g><path class="cls-3" d="M70.25,104H24.86a2,2,0,0,1,0-4H70.25a2,2,0,0,1,0,4Z"/><g class="cls-4"><path class="cls-5" d="M24.86,104a2,2,0,0,1-2-2,2.09,2.09,0,0,1,.15-.76,1.86,1.86,0,0,1,.19-.34,1.48,1.48,0,0,1,.25-.31,2,2,0,0,1,1.8-.55,2.4,2.4,0,0,1,.38.12,2.21,2.21,0,0,1,.34.18,2.42,2.42,0,0,1,.31.25,2.6,2.6,0,0,1,.25.31,1.83,1.83,0,0,1,.18.34,2.09,2.09,0,0,1,.15.76,2,2,0,0,1-.58,1.42A2,2,0,0,1,24.86,104Z"/></g><g class="cls-4"><path class="cls-5" d="M88.51,104H62.75a2,2,0,0,1,0-4H88.51a2,2,0,0,1,0,4Z"/></g><path class="cls-6" d="M65.32,70.53H9.07a2,2,0,1,1,0-4H63.32V54.33H9.07a2,2,0,0,1,0-4H65.32a2,2,0,0,1,2,2v16.2A2,2,0,0,1,65.32,70.53Z"/><path class="cls-6" d="M75.16,72.54H65.34a2,2,0,0,1-2-2V50.32a2,2,0,0,1,2-2h9.82a2,2,0,0,1,2,2V70.54A2,2,0,0,1,75.16,72.54Zm-7.82-4h5.82V52.32H67.34Z"/><path class="cls-6" d="M44.19,70.53a2,2,0,0,1-2-2V64.05a2,2,0,0,1,4,0v4.48A2,2,0,0,1,44.19,70.53Z"/><path class="cls-6" d="M44.19,58.88a2,2,0,0,1-2-2V52.33a2,2,0,0,1,4,0v4.55A2,2,0,0,1,44.19,58.88Z"/><path class="cls-3" d="M20.8,45.5a9.49,9.49,0,1,1,8.62-13.44h0A9.44,9.44,0,0,1,29.8,39a9.54,9.54,0,0,1-5.07,5.66A9.44,9.44,0,0,1,20.8,45.5Zm0-15a5.43,5.43,0,0,0-2.28.5,5.5,5.5,0,1,0,4.57,10A5.41,5.41,0,0,0,26,37.73a5.5,5.5,0,0,0-.21-4h0A5.52,5.52,0,0,0,20.78,30.51Z"/><path class="cls-6" d="M55.23,54.33h-29a2,2,0,1,1,0-4h27V38.71H34.53a2,2,0,0,1,0-4h20.7a2,2,0,0,1,2,2V52.33A2,2,0,0,1,55.23,54.33Z"/><path class="cls-6" d="M40.71,38.71a2,2,0,0,1-2-2V27.18a2,2,0,0,1,4,0v9.53A2,2,0,0,1,40.71,38.71Z"/><path class="cls-6" d="M47.38,29.18H34.53a2,2,0,0,1,0-4H47.38a2,2,0,0,1,0,4Z"/><path class="cls-6" d="M55.23,46.52H34.43a2,2,0,0,1,0-4h20.8a2,2,0,0,1,0,4Z"/><path class="cls-6" d="M85,72.53H75.16a2,2,0,0,1-2-2V50.32a2,2,0,0,1,2-2H85a2,2,0,0,1,2,2V70.53A2,2,0,0,1,85,72.53Zm-7.81-4H83V52.32H77.16Z"/><path class="cls-6" d="M80.74,52.32a2,2,0,0,1-2-2V47.23A2,2,0,0,1,79.16,46L97.87,22a2,2,0,0,1,1.58-.77h13.87a2,2,0,0,1,0,4H100.43L82.74,47.92v2.4A2,2,0,0,1,80.74,52.32Z"/><path class="cls-6" d="M80.74,92.56a2,2,0,0,1-2-2v-20a2,2,0,0,1,4,0v20A2,2,0,0,1,80.74,92.56Z"/><path class="cls-6" d="M113.32,49.23H80.74a2,2,0,0,1,0-4h32.58a2,2,0,0,1,0,4Z"/><path class="cls-6" d="M111.62,92.62H9.07a2,2,0,1,1,0-4H111.62a2,2,0,0,1,0,4Z"/><path class="cls-6" d="M47.57,92.62H25.06a13,13,0,0,1,0-26.09H47.57a13,13,0,0,1,0,26.09ZM25.06,70.53a9,9,0,0,0,0,18.09H47.57a9,9,0,0,0,0-18.09Z"/><path class="cls-6" d="M110.87,14a10.65,10.65,0,0,1-6.07-1.78,7.27,7.27,0,0,0-8.06,0,11.26,11.26,0,0,1-12.15,0,7.27,7.27,0,0,0-8.06,0,11.26,11.26,0,0,1-12.15,0,7.27,7.27,0,0,0-8.06,0A10.62,10.62,0,0,1,50.25,14a10.66,10.66,0,0,1-6.08-1.78,7.27,7.27,0,0,0-8.06,0A10.66,10.66,0,0,1,30,14,10.62,10.62,0,0,1,24,12.24a6.69,6.69,0,0,0-4-1.22,6.66,6.66,0,0,0-4,1.22A10.66,10.66,0,0,1,9.81,14a2,2,0,0,1,0-4,6.76,6.76,0,0,0,4-1.22A10.55,10.55,0,0,1,19.92,7,10.58,10.58,0,0,1,26,8.8,6.75,6.75,0,0,0,30,10a6.76,6.76,0,0,0,4-1.22A10.52,10.52,0,0,1,40.14,7,10.58,10.58,0,0,1,46.22,8.8a7.27,7.27,0,0,0,8.06,0,11.26,11.26,0,0,1,12.15,0,6.7,6.7,0,0,0,4,1.22,6.75,6.75,0,0,0,4-1.22,11.24,11.24,0,0,1,12.14,0,6.75,6.75,0,0,0,4,1.22,6.7,6.7,0,0,0,4-1.22,11.26,11.26,0,0,1,12.15,0,6.75,6.75,0,0,0,4,1.22,2,2,0,0,1,0,4Z"/></g></g></svg>