<?xml version="1.0" encoding="utf-8"?>
<!-- Generator: Adobe Illustrator 24.0.2, SVG Export Plug-In . SVG Version: 6.00 Build 0)  -->
<svg version="1.1" id="Capa_1" xmlns="http://www.w3.org/2000/svg" xmlns:xlink="http://www.w3.org/1999/xlink" x="0px" y="0px"
	 viewBox="0 0 120 120" style="enable-background:new 0 0 120 120;" xml:space="preserve">
<style type="text/css">
	.st0{fill:none;}
	.st1{fill:#FFEA27;}
	.st2{fill:#F4D314;}
	.st3{fill:#94A5B0;}
	.st4{fill:#95A6B1;}
</style>
<g>
	<rect class="st0" width="120" height="120"/>
</g>
<g>
	<g>
		<g>
			<path class="st1" d="M57.09,115.06H38.88c-1.1,0-2-0.9-2-2s0.9-2,2-2h18.21c1.1,0,2,0.9,2,2S58.19,115.06,57.09,115.06z"/>
		</g>
		<g>
			<path class="st1" d="M79.02,115.06h-9.1c-1.1,0-2-0.9-2-2s0.9-2,2-2h9.1c1.1,0,2,0.9,2,2S80.12,115.06,79.02,115.06z"/>
		</g>
		<g>
			<path class="st1" d="M91.82,115.06c-0.27,0-0.52-0.05-0.77-0.15c-0.24-0.1-0.46-0.25-0.64-0.44c-0.38-0.38-0.59-0.88-0.59-1.41
				c0-0.53,0.21-1.04,0.59-1.41c0.46-0.47,1.15-0.68,1.8-0.55c0.13,0.02,0.25,0.06,0.37,0.11s0.24,0.11,0.35,0.19
				c0.11,0.07,0.21,0.15,0.3,0.25c0.1,0.09,0.18,0.19,0.25,0.3c0.08,0.11,0.14,0.22,0.19,0.34s0.08,0.25,0.11,0.38
				c0.03,0.13,0.04,0.26,0.04,0.39c0,0.54-0.21,1.04-0.59,1.41C92.86,114.85,92.35,115.06,91.82,115.06z"/>
		</g>
		<g>
			<path class="st2" d="M46.38,115.06h-18.2c-1.1,0-2-0.9-2-2s0.9-2,2-2h18.2c1.1,0,2,0.9,2,2S47.48,115.06,46.38,115.06z"/>
		</g>
	</g>
	<g>
		<g>
			<path class="st1" d="M73.56,102.83H28.18c-1.1,0-2-0.9-2-2s0.9-2,2-2h45.38c1.1,0,2,0.9,2,2S74.66,102.83,73.56,102.83z"/>
		</g>
		<g>
			<path class="st2" d="M28.18,102.83c-0.27,0-0.52-0.05-0.77-0.15c-0.24-0.1-0.46-0.25-0.65-0.44c-0.37-0.37-0.58-0.88-0.58-1.41
				c0-0.53,0.21-1.04,0.58-1.41c0.1-0.1,0.2-0.18,0.31-0.25s0.22-0.14,0.35-0.19c0.12-0.05,0.24-0.09,0.37-0.11
				c0.65-0.13,1.34,0.08,1.8,0.55c0.38,0.37,0.59,0.88,0.59,1.41c0,0.54-0.21,1.04-0.59,1.41
				C29.22,102.62,28.71,102.83,28.18,102.83z"/>
		</g>
		<g>
			<path class="st2" d="M91.82,102.83H66.06c-1.1,0-2-0.9-2-2s0.9-2,2-2h25.76c1.1,0,2,0.9,2,2S92.92,102.83,91.82,102.83z"/>
		</g>
	</g>
</g>
<g>
	<g>
		<g id="Línea_1013">
			<path class="st3" d="M43.22,55.97c-1.1,0-2-0.9-2-2v-8.03c0-1.1,0.9-2,2-2s2,0.9,2,2v8.03C45.22,55.07,44.32,55.97,43.22,55.97z"
				/>
		</g>
		<g id="Línea_1014">
			<path class="st3" d="M54.99,55.97c-1.1,0-2-0.9-2-2v-8.03c0-1.1,0.9-2,2-2s2,0.9,2,2v8.03C56.99,55.07,56.09,55.97,54.99,55.97z"
				/>
		</g>
		<g id="Trazado_5700_3_">
			<path class="st3" d="M76.66,91.77H21.32c-1.1,0-2-0.9-2-2v-7.92c0-1.1,0.9-2,2-2s2,0.9,2,2v5.92h51.34v-16.1
				c0-2.29-0.59-4.38-1.71-6.03c-0.89-1.31-1.93-2.26-3.02-2.75l-15.76-7.08c-1.01-0.45-1.46-1.64-1-2.64
				c0.45-1.01,1.64-1.46,2.64-1l15.76,7.08c1.77,0.79,3.39,2.23,4.7,4.15c1.57,2.32,2.41,5.18,2.41,8.27v18.1
				C78.66,90.87,77.76,91.77,76.66,91.77z"/>
		</g>
		<g id="Línea_1015">
			<path class="st3" d="M32.92,60.76c-0.76,0-1.48-0.43-1.82-1.16c-0.46-1-0.03-2.19,0.97-2.66l10.3-4.77
				c1-0.46,2.19-0.03,2.66,0.97s0.03,2.19-0.97,2.66l-10.3,4.77C33.49,60.7,33.2,60.76,32.92,60.76z"/>
		</g>
		<g id="Línea_1016">
			<path class="st3" d="M49.1,62.64c-0.55,0-1.11-0.23-1.5-0.68l-5.88-6.67c-0.73-0.83-0.65-2.09,0.18-2.82
				c0.83-0.73,2.09-0.65,2.82,0.18l5.88,6.67c0.73,0.83,0.65,2.09-0.18,2.82C50.04,62.48,49.57,62.64,49.1,62.64z"/>
		</g>
		<g id="Línea_1017">
			<path class="st3" d="M49.1,62.64c-0.47,0-0.94-0.17-1.32-0.5c-0.83-0.73-0.91-2-0.18-2.82l5.89-6.67
				c0.73-0.83,1.99-0.91,2.82-0.18c0.83,0.73,0.91,2,0.18,2.82l-5.89,6.67C50.2,62.41,49.65,62.64,49.1,62.64z"/>
		</g>
		<g id="Trazado_5701">
			<path class="st3" d="M49.06,49.63c-7.21,0-13.08-5.87-13.08-13.08c0-1.1,0.9-2,2-2s2,0.9,2,2c0,5.01,4.07,9.08,9.08,9.08
				s9.08-4.07,9.08-9.08c0-1.1,0.9-2,2-2c1.1,0,2,0.9,2,2C62.14,43.76,56.27,49.63,49.06,49.63z"/>
		</g>
		<g id="Trazado_5702">
			<path class="st3" d="M60.13,38.55c-1.1,0-2-0.9-2-2V22.9c0-5.01-4.07-9.08-9.08-9.08c-5.01,0-9.08,4.07-9.08,9.08v13.65
				c0,1.1-0.9,2-2,2s-2-0.9-2-2V22.9c0-7.21,5.87-13.08,13.08-13.08c7.21,0,13.08,5.87,13.08,13.08v13.65
				C62.13,37.65,61.23,38.55,60.13,38.55z"/>
		</g>
		<g id="Trazado_5703_1_">
			<path class="st1" d="M21.83,77.44c-5.24,0-9.5-4.26-9.5-9.5c0-5.26,4.33-9.53,9.57-9.5c5.16,0,9.39,4.2,9.43,9.39v0.12
				C31.33,73.18,27.07,77.44,21.83,77.44z M21.88,62.44c-0.01,0-0.03,0-0.04,0c-3.05,0-5.51,2.47-5.51,5.5c0,3.03,2.47,5.5,5.5,5.5
				s5.5-2.47,5.5-5.5v-0.1C27.31,64.86,24.87,62.44,21.88,62.44z"/>
		</g>
	</g>
	<g>
		<path class="st4" d="M65.13,29.05H32.65c-0.99,0-1.8-0.81-1.8-1.8s0.81-1.8,1.8-1.8h32.48c0.99,0,1.8,0.81,1.8,1.8
			S66.12,29.05,65.13,29.05z"/>
	</g>
	<g>
		<g>
			<path class="st4" d="M53.25,21.53c-0.99,0-1.8-0.81-1.8-1.8v-6.62c0-0.99,0.81-1.8,1.8-1.8s1.8,0.81,1.8,1.8v6.62
				C55.05,20.72,54.24,21.53,53.25,21.53z"/>
		</g>
		<g>
			<path class="st4" d="M44.52,21.53c-0.99,0-1.8-0.81-1.8-1.8v-6.62c0-0.99,0.81-1.8,1.8-1.8s1.8,0.81,1.8,1.8v6.62
				C46.32,20.72,45.51,21.53,44.52,21.53z"/>
		</g>
	</g>
	<g>
		<path class="st3" d="M99.68,47.8c-0.28,0-0.57-0.07-0.83-0.21l-8.86-4.66l-8.86,4.66c-0.6,0.32-1.33,0.26-1.88-0.13
			c-0.55-0.4-0.82-1.08-0.71-1.74l1.69-9.87l-7.17-7c-0.49-0.47-0.66-1.18-0.45-1.83c0.21-0.65,0.77-1.12,1.44-1.21l9.9-1.44
			l4.44-8.98c0.3-0.61,0.92-0.99,1.6-0.99l0,0c0.68,0,1.3,0.39,1.6,0.99l4.43,8.98l9.9,1.44c0.67,0.1,1.23,0.57,1.44,1.21
			c0.21,0.65,0.04,1.35-0.45,1.83l-7.17,7l1.69,9.87c0.11,0.67-0.16,1.35-0.71,1.74C100.42,47.69,100.05,47.8,99.68,47.8z
			 M89.99,39.14c0.29,0,0.57,0.07,0.83,0.21l6.49,3.42l-1.24-7.23c-0.1-0.58,0.09-1.17,0.51-1.58l5.25-5.13l-7.26-1.05
			c-0.58-0.08-1.08-0.45-1.34-0.98l-3.25-6.58l-3.25,6.58c-0.26,0.53-0.76,0.89-1.34,0.98l-7.26,1.05l5.26,5.13
			c0.42,0.41,0.61,1,0.51,1.58l-1.24,7.23l6.49-3.42C89.42,39.21,89.71,39.14,89.99,39.14z"/>
	</g>
</g>
</svg>
