<?xml version="1.0" encoding="utf-8"?>
<!-- Generator: Adobe Illustrator 24.0.2, SVG Export Plug-In . SVG Version: 6.00 Build 0)  -->
<svg version="1.1" id="Capa_1" xmlns="http://www.w3.org/2000/svg" xmlns:xlink="http://www.w3.org/1999/xlink" x="0px" y="0px"
	 viewBox="0 0 120 120" style="enable-background:new 0 0 120 120;" xml:space="preserve">
<style type="text/css">
	.st0{fill:none;}
	.st1{fill:#FFEA27;}
	.st2{fill:#F4D314;}
	.st3{fill:#94A5B0;}
	.st4{fill:#95A6B1;}
</style>
<g>
	<rect class="st0" width="120" height="120"/>
</g>
<g id="Grupo_8476" transform="translate(-17.17 -8.447)">
	<g id="Grupo_8475">
		<g id="Grupo_8473">
			<g id="Línea_2930">
				<path class="st1" d="M74.26,122.15H56.05c-1.1,0-2-0.9-2-2s0.9-2,2-2h18.21c1.1,0,2,0.9,2,2S75.36,122.15,74.26,122.15z"/>
			</g>
			<g id="Línea_2931">
				<path class="st1" d="M96.19,122.15h-9.1c-1.1,0-2-0.9-2-2s0.9-2,2-2h9.1c1.1,0,2,0.9,2,2S97.29,122.15,96.19,122.15z"/>
			</g>
			<g id="Línea_2932">
				<path class="st1" d="M108.99,122.15c-0.54,0-1.04-0.21-1.41-0.58c-0.19-0.19-0.34-0.41-0.44-0.65c-0.1-0.24-0.15-0.5-0.15-0.77
					c0-0.13,0.01-0.26,0.04-0.39c0.02-0.13,0.06-0.25,0.11-0.37s0.11-0.24,0.19-0.35c0.07-0.11,0.15-0.21,0.25-0.3
					c0.09-0.09,0.19-0.18,0.3-0.25s0.22-0.13,0.34-0.18c0.12-0.05,0.25-0.09,0.38-0.12c0.65-0.13,1.34,0.08,1.8,0.55
					c0.1,0.09,0.18,0.19,0.25,0.3s0.14,0.23,0.19,0.35s0.08,0.24,0.11,0.37s0.04,0.26,0.04,0.39c0,0.27-0.05,0.53-0.15,0.77
					s-0.25,0.46-0.44,0.65c-0.18,0.18-0.4,0.33-0.64,0.43C109.51,122.1,109.26,122.15,108.99,122.15z"/>
			</g>
			<g id="Línea_2933">
				<path class="st2" d="M63.55,122.15h-18.2c-1.1,0-2-0.9-2-2s0.9-2,2-2h18.2c1.1,0,2,0.9,2,2S64.65,122.15,63.55,122.15z"/>
			</g>
		</g>
		<g id="Grupo_8474">
			<g id="Línea_2934">
				<path class="st1" d="M90.74,109.92H45.35c-1.1,0-2-0.9-2-2s0.9-2,2-2h45.39c1.1,0,2,0.9,2,2S91.84,109.92,90.74,109.92z"/>
			</g>
			<g id="Línea_2935">
				<path class="st2" d="M45.35,109.92c-0.53,0-1.04-0.21-1.41-0.58c-0.38-0.38-0.59-0.88-0.59-1.42c0-0.52,0.21-1.04,0.59-1.41
					c0.74-0.75,2.08-0.75,2.82,0c0.38,0.37,0.59,0.89,0.59,1.41c0,0.54-0.21,1.04-0.59,1.42C46.39,109.71,45.88,109.92,45.35,109.92
					z"/>
			</g>
			<g id="Línea_2936">
				<path class="st2" d="M108.99,109.92H83.24c-1.1,0-2-0.9-2-2s0.9-2,2-2h25.75c1.1,0,2,0.9,2,2S110.09,109.92,108.99,109.92z"/>
			</g>
		</g>
	</g>
	<g id="Trazado_7185">
		<path class="st3" d="M58.51,25.8c-0.58,0-1.15-0.25-1.54-0.73c-0.7-0.85-0.58-2.11,0.27-2.82l0.1-0.08
			c2.91-2.41,3.46-2.47,8.55-2.48h46.54c1.1,0,2,0.9,2,2s-0.9,2-2,2H65.88c-4.09,0-4.11,0-6,1.56l-0.1,0.08
			C59.41,25.65,58.96,25.8,58.51,25.8z"/>
	</g>
	<g id="Trazado_7186">
		<path class="st3" d="M58.67,89.22H39.39c-1.1,0-2-0.89-2-1.99L37.26,48.4c0-4.35,0.17-5.1,2.04-8.86c0.49-0.99,1.69-1.39,2.68-0.9
			c0.99,0.49,1.39,1.69,0.9,2.68c-1.62,3.27-1.62,3.34-1.62,7.08l0.12,36.83h15.28l-0.09-26.7c0-1.1,0.89-2,1.99-2.01
			c0,0,0,0,0.01,0c1.1,0,2,0.89,2,1.99l0.1,28.71c0,0.53-0.21,1.04-0.58,1.42C59.71,89.01,59.2,89.22,58.67,89.22z"/>
	</g>
	<g id="Trazado_7187">
		<path class="st3" d="M60.65,59.43c-1.1,0-2-0.89-2-1.99l-0.02-6.45c0-4.57,3.63-8.01,8.44-8.01h7.38c1.1,0,2,0.9,2,2s-0.9,2-2,2
			h-7.38c-2.61,0-4.44,1.65-4.44,4l0.02,6.44C62.65,58.53,61.76,59.43,60.65,59.43L60.65,59.43z"/>
	</g>
	<g id="Línea_2937">
		<path class="st3" d="M74.68,43.38c-1.1,0-2-0.9-2-2s0.9-2,2-2l37.82-0.01l0,0c1.1,0,2,0.9,2,2s-0.89,2-2,2L74.68,43.38
			L74.68,43.38z"/>
	</g>
	<g id="Trazado_7188">
		<path class="st1" d="M45.01,36.3c-1.12,0-2.24-0.2-3.32-0.6c-2.38-0.88-4.27-2.64-5.32-4.95s-1.15-4.89-0.26-7.27
			c0.88-2.38,2.64-4.27,4.95-5.32c0.04-0.02,0.08-0.04,0.12-0.05c4.72-2.1,10.28-0.02,12.45,4.68c0.03,0.07,0.06,0.15,0.09,0.22
			c0.98,2.27,1.05,4.78,0.19,7.1c-0.88,2.38-2.64,4.27-4.95,5.32C47.7,36.01,46.36,36.3,45.01,36.3z M42.63,21.84
			c-1.29,0.62-2.27,1.69-2.77,3.03c-0.51,1.38-0.46,2.87,0.15,4.21c1.26,2.75,4.53,3.97,7.29,2.71c1.34-0.61,2.35-1.7,2.86-3.08
			c0.51-1.38,0.46-2.87-0.15-4.21l0,0c-0.02-0.05-0.04-0.1-0.06-0.16c-1.3-2.66-4.51-3.8-7.21-2.56
			C42.7,21.81,42.66,21.83,42.63,21.84z"/>
	</g>
	<g id="Rectángulo_2909">
		<path class="st3" d="M63.88,97.73H33.67c-1.1,0-2-0.9-2-2v-8.51c0-1.1,0.9-2,2-2h30.21c1.1,0,2,0.9,2,2v8.51
			C65.88,96.83,64.98,97.73,63.88,97.73z M35.67,93.73h26.21v-4.51H35.67V93.73z"/>
	</g>
	<g id="Rectángulo_2910">
		<path class="st3" d="M120.68,50.34h-8.26c-1.1,0-2-0.9-2-2V16.75c0-1.1,0.9-2,2-2h8.26c1.1,0,2,0.9,2,2v31.59
			C122.68,49.44,121.78,50.34,120.68,50.34z M114.42,46.34h4.26V18.75h-4.26V46.34z"/>
	</g>
	<g id="Trazado_7189">
		<path class="st4" d="M86.14,70.34c-0.87,0-1.67-0.27-2.31-0.79L70.9,59.24c-0.86-0.69-1-1.95-0.32-2.81
			c0.69-0.86,1.95-1.01,2.81-0.32L86.2,66.34c0.22-0.04,0.75-0.27,1.24-0.89c0.5-0.62,0.6-1.18,0.59-1.4L72.97,52.07
			c-0.86-0.69-1.01-1.95-0.32-2.81c0.69-0.87,1.95-1.01,2.81-0.32l15.18,12.08c0.76,0.6,1.24,1.51,1.36,2.55
			c0.16,1.44-0.36,3.04-1.43,4.38c-1.07,1.35-2.52,2.21-3.97,2.37C86.45,70.34,86.29,70.34,86.14,70.34z M86.33,66.43L86.33,66.43
			C86.33,66.44,86.33,66.44,86.33,66.43z M88.15,64.14L88.15,64.14L88.15,64.14z"/>
	</g>
	<g id="Elipse_1195">
		<path class="st4" d="M62.7,61.22c-7.7,0-13.97-6.27-13.97-13.97S55,33.28,62.7,33.28s13.97,6.27,13.97,13.97
			S70.4,61.22,62.7,61.22z M62.7,37.28c-5.5,0-9.97,4.47-9.97,9.97s4.47,9.97,9.97,9.97s9.97-4.47,9.97-9.97S68.2,37.28,62.7,37.28z
			"/>
	</g>
	<g id="Trazado_7190">
		<path class="st4" d="M86.14,70.34c-0.87,0-1.67-0.27-2.31-0.79l-6.39-5.1c-0.86-0.69-1-1.95-0.32-2.81l4.32-5.42
			c0.33-0.42,0.81-0.68,1.34-0.74s1.06,0.09,1.47,0.42l6.39,5.1c0.76,0.6,1.24,1.51,1.36,2.55c0.16,1.44-0.36,3.04-1.43,4.38
			c-1.07,1.35-2.52,2.21-3.97,2.37C86.45,70.34,86.29,70.34,86.14,70.34z M86.33,66.43L86.33,66.43
			C86.33,66.44,86.33,66.44,86.33,66.43z M81.5,62.58l4.7,3.75c0.22-0.04,0.75-0.27,1.24-0.89c0.5-0.62,0.6-1.18,0.59-1.4
			l-4.71-3.76L81.5,62.58z"/>
	</g>
	<g id="Trazado_7191">
		<path class="st3" d="M59.85,50.34h-1.84c-0.55,0-1-0.45-1-1v-1.02h-2.53c-0.55,0-1-0.45-1-1s0.45-1,1-1h3.53c0.55,0,1,0.45,1,1
			v1.02h0.84c0.55,0,1,0.45,1,1S60.4,50.34,59.85,50.34z"/>
	</g>
	<g id="Trazado_7192">
		<path class="st3" d="M63.78,44.68h-2.43c-0.34,0-0.65-0.17-0.84-0.45c-0.19-0.28-0.21-0.64-0.08-0.95l0.69-1.58l-1.31-0.89
			c-0.46-0.31-0.58-0.93-0.26-1.39c0.31-0.46,0.93-0.57,1.39-0.26l2,1.36c0.4,0.27,0.55,0.79,0.35,1.23l-0.41,0.94h0.9
			c0.55,0,1,0.45,1,1S64.33,44.68,63.78,44.68z"/>
	</g>
	<g id="Elipse_1196">
		<circle class="st3" cx="67.8" cy="42.64" r="1.6"/>
	</g>
</g>
</svg>
