<svg xmlns="http://www.w3.org/2000/svg" width="120" height="120" viewBox="0 0 120 120">
  <g id="_01-icon_ocenza_hitos_hitos-6" data-name="01-icon_ocenza_hitos_hitos-6" style="isolation: isolate">
    <g id="Capa_1" data-name="Capa 1">
      <rect id="Rectángulo_2943" data-name="Rectángulo 2943" width="120" height="120" fill="none"/>
      <path id="Trazado_7168" data-name="Trazado 7168" d="M54,115.86H35.74a2,2,0,0,1,0-4H54a2,2,0,1,1,0,4Z" fill="#ffea27"/>
      <path id="Trazado_7169" data-name="Trazado 7169" d="M75.88,115.86h-9.1a2,2,0,0,1,0-4h9.1a2,2,0,0,1,0,4Z" fill="#ffea27"/>
      <path id="Trazado_7170" data-name="Trazado 7170" d="M88.68,115.86a2,2,0,0,1-.77-.15A2.31,2.31,0,0,1,87,115a2,2,0,0,1-.33-1.11,1.72,1.72,0,0,1,0-.39,1.58,1.58,0,0,1,.11-.37,1.48,1.48,0,0,1,.19-.35,1.42,1.42,0,0,1,.25-.3,2,2,0,0,1,2.82,0,1.421,1.421,0,0,1,.25.3,1.48,1.48,0,0,1,.19.35,2.259,2.259,0,0,1,.11.37,1.72,1.72,0,0,1,0,.39,2.2,2.2,0,0,1-.15.77,1.629,1.629,0,0,1-.19.34,1.42,1.42,0,0,1-.25.3,2,2,0,0,1-1.32.56Z" fill="#ffea27"/>
      <g id="Grupo_8577" data-name="Grupo 8577" style="mix-blend-mode: multiply;isolation: isolate">
        <path id="Trazado_7171" data-name="Trazado 7171" d="M43.24,115.86H25a2,2,0,0,1,0-4H43.2a2,2,0,1,1,0,4Z" fill="#f4d314"/>
      </g>
      <path id="Trazado_7172" data-name="Trazado 7172" d="M70.42,103.64H25a2,2,0,1,1,0-4H70.42a2,2,0,0,1,0,4Z" fill="#ffea27"/>
      <g id="Grupo_8578" data-name="Grupo 8578" style="mix-blend-mode: multiply;isolation: isolate">
        <path id="Trazado_7173" data-name="Trazado 7173" d="M25,103.63a2,2,0,0,1-1.42-.58,1.89,1.89,0,0,1-.25-.31,1.831,1.831,0,0,1-.18-.34,1.58,1.58,0,0,1-.11-.37,1.72,1.72,0,0,1,0-.39,2,2,0,0,1,.58-1.42,2.06,2.06,0,0,1,2.83,0,2,2,0,0,1,.59,1.42,2.58,2.58,0,0,1,0,.39,2.29,2.29,0,0,1-.12.37,1.38,1.38,0,0,1-.18.34,1.89,1.89,0,0,1-.25.31,2,2,0,0,1-1.41.58Z" fill="#f4d314"/>
      </g>
      <g id="Grupo_8579" data-name="Grupo 8579" style="mix-blend-mode: multiply;isolation: isolate">
        <path id="Trazado_7174" data-name="Trazado 7174" d="M88.68,103.64H62.92a2,2,0,1,1,0-4H88.68a2,2,0,0,1,0,4Z" fill="#f4d314"/>
      </g>
      <path id="Trazado_7175" data-name="Trazado 7175" d="M19.38,70.23H16.14a2,2,0,0,1,0-4h3.24a2,2,0,0,1,0,4Z" fill="#95a6b1"/>
      <path id="Trazado_7176" data-name="Trazado 7176" d="M19.53,86.46h-12a2,2,0,0,1,0-4h10V65.15h-10a2,2,0,0,1,0-4h12a2,2,0,0,1,2,2V84.46A2,2,0,0,1,19.53,86.46Z" fill="#95a6b1"/>
      <path id="Trazado_7177" data-name="Trazado 7177" d="M29.34,88.46H19.53a2,2,0,0,1-2-2V61.14a2,2,0,0,1,2-2h9.81a2,2,0,0,1,2,2V86.46A2,2,0,0,1,29.34,88.46Zm-7.81-4h5.81V63.14H21.53Z" fill="#95a6b1"/>
      <path id="Trazado_7178" data-name="Trazado 7178" d="M19.38,75.8h-3.2a2,2,0,1,1,0-4h3.2a2,2,0,0,1,0,4Z" fill="#95a6b1"/>
      <path id="Trazado_7179" data-name="Trazado 7179" d="M19.38,81.39H16.14a2,2,0,0,1,0-4h3.24a2,2,0,0,1,0,4Z" fill="#95a6b1"/>
      <path id="Trazado_7180" data-name="Trazado 7180" d="M66.05,81.37H62.81a2,2,0,1,1,0-4h3.24a2,2,0,0,1,0,4Z" fill="#95a6b1"/>
      <path id="Trazado_7181" data-name="Trazado 7181" d="M113.51,86.46H62.67a2,2,0,0,1-2-2V63.15a2,2,0,0,1,2-2h50.84a2,2,0,1,1,0,4H64.67V82.46h48.84a2,2,0,0,1,0,4Z" fill="#95a6b1"/>
      <path id="Trazado_7182" data-name="Trazado 7182" d="M62.67,88.46H52.85a2,2,0,0,1-2-2V61.14a2,2,0,0,1,2-2h9.82a2,2,0,0,1,2,2V86.46A2,2,0,0,1,62.67,88.46Zm-7.82-4h5.82V63.14H54.85Z" fill="#95a6b1"/>
      <path id="Trazado_7183" data-name="Trazado 7183" d="M66,75.8H62.8a2,2,0,0,1,0-4H66a2,2,0,0,1,0,4Z" fill="#95a6b1"/>
      <path id="Trazado_7184" data-name="Trazado 7184" d="M66.05,70.21H62.81a2,2,0,1,1,0-4h3.24a2,2,0,0,1,0,4Z" fill="#95a6b1"/>
      <path id="Trazado_7185" data-name="Trazado 7185" d="M94.08,86.46a2,2,0,0,1-2-2V74.88a2,2,0,0,1,4,0v9.58A2,2,0,0,1,94.08,86.46Z" fill="#95a6b1"/>
      <path id="Trazado_7186" data-name="Trazado 7186" d="M94.08,69.7a2,2,0,0,1-2-2V63.15a2,2,0,1,1,4,0V67.7A2,2,0,0,1,94.08,69.7Z" fill="#95a6b1"/>
      <path id="Trazado_7187" data-name="Trazado 7187" d="M70.69,56.33a9.5,9.5,0,1,1,8.62-13.45h0a9.5,9.5,0,0,1-8.62,13.45Zm0-15a5.38,5.38,0,0,0-2.27.5,5.5,5.5,0,1,0,7.28,2.72h0a5.51,5.51,0,0,0-5.04-3.22Z" fill="#ffea27"/>
      <path id="Trazado_7188" data-name="Trazado 7188" d="M105.12,65.15h-29a2,2,0,0,1-2-2V59.43a2,2,0,0,1,4,0v1.72h25V49.54H84.42a2,2,0,0,1,0-4h20.7a2,2,0,0,1,2,2V63.15A2,2,0,0,1,105.12,65.15Z" fill="#95a6b1"/>
      <path id="Trazado_7189" data-name="Trazado 7189" d="M90.6,49.54a2,2,0,0,1-2-2V38a2,2,0,0,1,4,0v9.53a2,2,0,0,1-2,2.01Z" fill="#95a6b1"/>
      <path id="Trazado_7190" data-name="Trazado 7190" d="M97.27,40H84.42a2,2,0,0,1,0-4H97.27a2,2,0,0,1,0,4Z" fill="#95a6b1"/>
      <path id="Trazado_7191" data-name="Trazado 7191" d="M105.12,57.34H84.31a2,2,0,0,1,0-4h20.81a2,2,0,0,1,0,4Z" fill="#95a6b1"/>
      <path id="Trazado_7192" data-name="Trazado 7192" d="M113.51,24a11.07,11.07,0,0,1-7-2.35,7.43,7.43,0,0,0-9.34,0,11.44,11.44,0,0,1-13.89,0,7.47,7.47,0,0,0-9.35,0,11.4,11.4,0,0,1-13.88,0,7.45,7.45,0,0,0-9.35,0,11.44,11.44,0,0,1-13.89,0,7.45,7.45,0,0,0-9.35,0,11.07,11.07,0,0,1-7,2.35,11.07,11.07,0,0,1-6.95-2.35A7.09,7.09,0,0,0,8.93,20a2,2,0,0,1,0-4,11,11,0,0,1,7,2.35,7.391,7.391,0,0,0,9.31,0,11.44,11.44,0,0,1,13.89,0,7.45,7.45,0,0,0,9.35,0,11.44,11.44,0,0,1,13.89,0,7.43,7.43,0,0,0,9.34,0,11.44,11.44,0,0,1,13.89,0,7.45,7.45,0,0,0,9.35,0,11.42,11.42,0,0,1,13.88,0A7.13,7.13,0,0,0,113.51,20a2,2,0,1,1,0,4Z" fill="#95a6b1"/>
      <path id="Trazado_7193" data-name="Trazado 7193" d="M44.57,75.8H34.86a2,2,0,0,1,0-4h9.71a2,2,0,0,1,0,4Z" fill="#95a6b1"/>
      <path id="Trazado_7194" data-name="Trazado 7194" d="M43.36,79.77A2,2,0,0,1,42,76.36l2.5-2.56L42,71.25a2,2,0,0,1,2.82-2.83l4,4a2,2,0,0,1,0,2.83l-4,4a2,2,0,0,1-1.46.52Z" fill="#95a6b1"/>
    </g>
  </g>
</svg>
