<svg xmlns="http://www.w3.org/2000/svg" width="120" height="120" viewBox="0 0 120 120">
  <g id="_01-icon_ocenza_hitos_hitos-2" data-name="01-icon_ocenza_hitos_hitos-2" style="isolation: isolate">
    <g id="Capa_1" data-name="Capa 1">
      <rect id="Rectángulo_2939" data-name="Rectángulo 2939" width="120" height="120" fill="none"/>
      <path id="Trazado_7025" data-name="Trazado 7025" d="M54,115.86H35.74a2,2,0,0,1,0-4H54a2,2,0,1,1,0,4Z" fill="#ffea27"/>
      <path id="Trazado_7026" data-name="Trazado 7026" d="M75.88,115.86h-9.1a2,2,0,0,1,0-4h9.1a2,2,0,0,1,0,4Z" fill="#ffea27"/>
      <path id="Trazado_7027" data-name="Trazado 7027" d="M88.67,115.86a2,2,0,0,1-1.41-.59,1.85,1.85,0,0,1-.43-.64,2,2,0,0,1,.43-2.18,1.73,1.73,0,0,1,.3-.25,1.66,1.66,0,0,1,.35-.18,1.77,1.77,0,0,1,.37-.12,2,2,0,1,1,.39,3.96Z" fill="#ffea27"/>
      <g id="Grupo_8565" data-name="Grupo 8565" style="mix-blend-mode: multiply;isolation: isolate">
        <path id="Trazado_7028" data-name="Trazado 7028" d="M43.24,115.86H25a2,2,0,0,1,0-4H43.2a2,2,0,1,1,0,4Z" fill="#f4d314"/>
      </g>
      <path id="Trazado_7029" data-name="Trazado 7029" d="M70.42,103.64H25a2,2,0,1,1,0-4H70.42a2,2,0,0,1,0,4Z" fill="#ffea27"/>
      <g id="Grupo_8566" data-name="Grupo 8566" style="mix-blend-mode: multiply;isolation: isolate">
        <path id="Trazado_7030" data-name="Trazado 7030" d="M25,103.64a2,2,0,0,1-1.41-3.42,2.479,2.479,0,0,1,.3-.25,1.92,1.92,0,0,1,.35-.18,2.29,2.29,0,0,1,.37-.12,2,2,0,0,1,.78,0,2.778,2.778,0,0,1,.38.12,2.211,2.211,0,0,1,.34.18,2.48,2.48,0,0,1,.3.25,1.73,1.73,0,0,1,.25.3,1.7,1.7,0,0,1,.19.35,1.73,1.73,0,0,1,.11.37,1.81,1.81,0,0,1,0,.4,2.016,2.016,0,0,1-1.96,2Z" fill="#f4d314"/>
      </g>
      <g id="Grupo_8567" data-name="Grupo 8567" style="mix-blend-mode: multiply;isolation: isolate">
        <path id="Trazado_7031" data-name="Trazado 7031" d="M88.68,103.64H62.92a2,2,0,1,1,0-4H88.68a2,2,0,0,1,0,4Z" fill="#f4d314"/>
      </g>
      <path id="Trazado_7032" data-name="Trazado 7032" d="M41,57.8H29.75a2,2,0,0,1,0-4H41a2,2,0,0,1,0,4Z" fill="#95a6b1"/>
      <path id="Trazado_7033" data-name="Trazado 7033" d="M79.76,36.27a1.981,1.981,0,0,1-2-2,1.72,1.72,0,0,1,0-.39,1.58,1.58,0,0,1,.11-.37,2.31,2.31,0,0,1,.18-.35,2.48,2.48,0,0,1,.25-.3,2,2,0,0,1,1.81-.55,2.59,2.59,0,0,1,.37.11,2.37,2.37,0,0,1,.35.19,1.42,1.42,0,0,1,.3.25,1.811,1.811,0,0,1,.25.3,2.427,2.427,0,0,1,.3.72,2.58,2.58,0,0,1,0,.39,2,2,0,0,1-1.92,2Z" fill="#95a6b1"/>
      <path id="Trazado_7034" data-name="Trazado 7034" d="M65.25,36.27H31.31a2,2,0,0,1-2-2V28.33a2,2,0,1,1,4,0v3.94H65.25a2,2,0,0,1,0,4Z" fill="#95a6b1"/>
      <path id="Trazado_7035" data-name="Trazado 7035" d="M29.94,24.33a9.5,9.5,0,1,1,3.93-.86,9.5,9.5,0,0,1-3.93.86Zm0-15a5.42,5.42,0,0,0-2.27.5,5.5,5.5,0,1,0,7.28,2.71h0a5.5,5.5,0,0,0-5.04-3.21Z" fill="#ffea27"/>
      <path id="Trazado_7036" data-name="Trazado 7036" d="M85.75,36.27h-6a2,2,0,0,1,0-4h4V16.37a.23.23,0,0,0-.23-.23H44.16a2,2,0,0,1,0-4H83.52a4.24,4.24,0,0,1,4.23,4.23v17.9A2,2,0,0,1,85.75,36.27Z" fill="#95a6b1"/>
      <path id="Trazado_7037" data-name="Trazado 7037" d="M76.49,16.14H49.39a2,2,0,0,1-2-2V7.6a4.12,4.12,0,0,1,4.12-4.11H74.67a3.82,3.82,0,0,1,3.82,3.82v6.83A2,2,0,0,1,76.49,16.14Zm-25.1-4h23.1V7.49h-23a.11.11,0,0,0-.12.11ZM74.67,7.49Z" fill="#95a6b1"/>
      <path id="Trazado_7038" data-name="Trazado 7038" d="M85.83,23.65H43.49a2,2,0,0,1,0-4H85.83a2,2,0,0,1,0,4Z" fill="#95a6b1"/>
      <path id="Trazado_7039" data-name="Trazado 7039" d="M22.44,64.5a2,2,0,0,1-2-2V36.83A4.54,4.54,0,0,1,25,32.29H65.25a2,2,0,0,1,0,4H25a.54.54,0,0,0-.54.54V62.5a2,2,0,0,1-2.02,2Z" fill="#95a6b1"/>
      <path id="Trazado_7040" data-name="Trazado 7040" d="M95.14,64.5a2,2,0,0,1-2-2v-26a.2.2,0,0,0-.19-.2H79.76a2,2,0,0,1,0-4H92.95a4.2,4.2,0,0,1,4.19,4.2v26A2,2,0,0,1,95.14,64.5Z" fill="#95a6b1"/>
      <path id="Trazado_7041" data-name="Trazado 7041" d="M22.44,43.14a2,2,0,1,1,0-4H48.28a2,2,0,0,1,0,4Z" fill="#95a6b1"/>
      <line id="Línea_1775" data-name="Línea 1775" y2="21.38" transform="translate(41 41.12)" fill="#fff"/>
      <path id="Trazado_7042" data-name="Trazado 7042" d="M41,64.5a2,2,0,0,1-2-2V41.12a2,2,0,1,1,4,0V62.5A2,2,0,0,1,41,64.5Z" fill="#95a6b1"/>
      <path id="Trazado_7043" data-name="Trazado 7043" d="M41,49.81H29.75a2,2,0,1,1,0-4H41a2,2,0,0,1,0,4Z" fill="#95a6b1"/>
      <path id="Trazado_7044" data-name="Trazado 7044" d="M29.72,64.5a2,2,0,0,1-2-2V41.12a2,2,0,0,1,4,0V62.5A2,2,0,0,1,29.72,64.5Z" fill="#95a6b1"/>
      <path id="Trazado_7045" data-name="Trazado 7045" d="M48.28,64.5a2,2,0,0,1-2-2V34.27a2,2,0,0,1,4,0V62.5A2,2,0,0,1,48.28,64.5Z" fill="#95a6b1"/>
      <path id="Trazado_7046" data-name="Trazado 7046" d="M79.74,47.41H65.21a2,2,0,0,1-2-2V34.33a2,2,0,0,1,2-2h0a2,2,0,0,1,2,2V43.4H77.74V34.3a2,2,0,0,1,4,0V45.4a2,2,0,0,1-2,2.01Z" fill="#95a6b1"/>
      <path id="Trazado_7047" data-name="Trazado 7047" d="M56.3,16.14a2,2,0,0,1-2-2V5.49a2,2,0,1,1,4,0v8.65A2,2,0,0,1,56.3,16.14Z" fill="#95a6b1"/>
      <path id="Trazado_7048" data-name="Trazado 7048" d="M62.94,16.14a2,2,0,0,1-2-2V5.49a2,2,0,1,1,4,0v8.65A2,2,0,0,1,62.94,16.14Z" fill="#95a6b1"/>
      <path id="Trazado_7049" data-name="Trazado 7049" d="M69.83,16.14a2,2,0,0,1-2-2V5.49a2,2,0,1,1,4,0v8.65A2,2,0,0,1,69.83,16.14Z" fill="#95a6b1"/>
      <path id="Trazado_7050" data-name="Trazado 7050" d="M87.45,48.15a2,2,0,0,1-2-2V34.31a2,2,0,1,1,4,0V46.15A2,2,0,0,1,87.45,48.15Z" fill="#95a6b1"/>
      <path id="Trazado_7051" data-name="Trazado 7051" d="M56.74,48.15a2,2,0,0,1-2-2V34.31a2,2,0,1,1,4,0V46.15A2,2,0,0,1,56.74,48.15Z" fill="#95a6b1"/>
      <path id="Trazado_7052" data-name="Trazado 7052" d="M95.14,64.5H22.44a2,2,0,1,1,0-4h72.7a2,2,0,0,1,0,4Z" fill="#95a6b1"/>
      <path id="Trazado_7053" data-name="Trazado 7053" d="M87.9,91.62H81.08a2,2,0,0,1-2-2V76.92a2,2,0,0,1,2-2H87.9a2,2,0,0,1,2,2v12.7a2,2,0,0,1-2,2Zm-4.82-4H85.9v-8.7H83.08Z" fill="#95a6b1"/>
      <path id="Trazado_7054" data-name="Trazado 7054" d="M81.08,90.27H63.22a12,12,0,0,1-12-12V73.13a2,2,0,0,1,2-2h10a2,2,0,0,1,2,2v2.51a.61.61,0,0,0,.61.61H81.11a2,2,0,0,1,2,2v10a2,2,0,0,1-2.03,2.02ZM55.19,75.13v3.11a8,8,0,0,0,8,8H79.08v-6H65.79a4.62,4.62,0,0,1-4.6-4.61v-.51Z" fill="#95a6b1"/>
      <path id="Trazado_7055" data-name="Trazado 7055" d="M36.42,71.7h-5.7a2,2,0,0,1,0-4h5.7a2,2,0,0,1,0,4Z" fill="#95a6b1"/>
      <path id="Trazado_7056" data-name="Trazado 7056" d="M34.74,81.79a2,2,0,0,1-1.42-3.41l4-4a2,2,0,1,1,2.83,2.82l-4,4A2,2,0,0,1,34.74,81.79Z" fill="#95a6b1"/>
      <path id="Trazado_7057" data-name="Trazado 7057" d="M44.12,85.48a2,2,0,0,1-2-2v-5.7a2,2,0,0,1,4,0v5.7A2,2,0,0,1,44.12,85.48Z" fill="#95a6b1"/>
    </g>
  </g>
</svg>
