<?xml version="1.0" encoding="utf-8"?>
<!-- Generator: Adobe Illustrator 24.0.2, SVG Export Plug-In . SVG Version: 6.00 Build 0)  -->
<svg version="1.1" id="Capa_1" xmlns="http://www.w3.org/2000/svg" xmlns:xlink="http://www.w3.org/1999/xlink" x="0px" y="0px"
	 viewBox="0 0 120 120" style="enable-background:new 0 0 120 120;" xml:space="preserve">
<style type="text/css">
	.st0{fill:none;}
	.st1{fill:#FFEA27;}
	.st2{fill:#F4D314;}
	.st3{fill:#94A5B0;}
	.st4{fill:#95A6B1;}
</style>
<g>
	<rect class="st0" width="120" height="120"/>
</g>
<g id="Grupo_8387" transform="translate(-17.989 -30.915)">
	<g id="Grupo_8385">
		<g id="Grupo_8383">
			<g id="Línea_2736">
				<path class="st1" d="M75.08,133.38H56.87c-1.1,0-2-0.9-2-2s0.9-2,2-2h18.21c1.1,0,2,0.9,2,2S76.18,133.38,75.08,133.38z"/>
			</g>
			<g id="Línea_2737">
				<path class="st1" d="M97.01,133.38h-9.1c-1.1,0-2-0.9-2-2s0.9-2,2-2h9.1c1.1,0,2,0.9,2,2S98.11,133.38,97.01,133.38z"/>
			</g>
			<g id="Línea_2738">
				<path class="st1" d="M109.81,133.37c-0.26,0-0.52-0.05-0.76-0.15c-0.25-0.1-0.46-0.24-0.65-0.43c-0.19-0.19-0.34-0.41-0.44-0.65
					c-0.1-0.24-0.15-0.5-0.15-0.77c0-0.52,0.21-1.04,0.59-1.41c0.74-0.74,2.08-0.74,2.82,0c0.38,0.37,0.59,0.89,0.59,1.41
					c0,0.27-0.05,0.53-0.15,0.77c-0.1,0.24-0.25,0.46-0.44,0.65C110.85,133.17,110.35,133.37,109.81,133.37z"/>
			</g>
			<g id="Línea_2739">
				<path class="st2" d="M64.37,133.38h-18.2c-1.1,0-2-0.9-2-2s0.9-2,2-2h18.2c1.1,0,2,0.9,2,2S65.47,133.38,64.37,133.38z"/>
			</g>
		</g>
		<g id="Grupo_8384">
			<g id="Línea_2740">
				<path class="st1" d="M91.55,121.16H46.17c-1.1,0-2-0.9-2-2s0.9-2,2-2h45.38c1.1,0,2,0.9,2,2S92.65,121.16,91.55,121.16z"/>
			</g>
			<g id="Línea_2741">
				<path class="st2" d="M46.17,121.17c-0.26,0-0.52-0.06-0.76-0.16c-0.25-0.1-0.46-0.24-0.65-0.43c-0.19-0.19-0.34-0.41-0.44-0.65
					c-0.1-0.24-0.15-0.5-0.15-0.76c0-0.14,0.02-0.27,0.04-0.4c0.03-0.12,0.07-0.25,0.11-0.37c0.05-0.12,0.12-0.24,0.19-0.34
					c0.07-0.11,0.15-0.22,0.25-0.31c0.09-0.09,0.19-0.18,0.3-0.25c0.11-0.07,0.23-0.13,0.35-0.18c0.12-0.05,0.24-0.09,0.37-0.12
					c0.26-0.05,0.52-0.05,0.78,0c0.13,0.03,0.26,0.07,0.38,0.12c0.12,0.05,0.23,0.11,0.34,0.18c0.11,0.07,0.21,0.16,0.31,0.25
					c0.09,0.09,0.17,0.2,0.24,0.31c0.08,0.1,0.14,0.22,0.19,0.34s0.09,0.25,0.11,0.37c0.03,0.13,0.04,0.26,0.04,0.4
					c0,0.26-0.05,0.52-0.15,0.76s-0.25,0.46-0.43,0.65c-0.1,0.09-0.2,0.18-0.31,0.25c-0.11,0.07-0.22,0.13-0.34,0.18
					s-0.25,0.09-0.38,0.12C46.44,121.14,46.3,121.17,46.17,121.17z"/>
			</g>
			<g id="Línea_2742">
				<path class="st2" d="M109.81,121.16H84.05c-1.1,0-2-0.9-2-2s0.9-2,2-2h25.76c1.1,0,2,0.9,2,2S110.91,121.16,109.81,121.16z"/>
			</g>
		</g>
	</g>
	<g id="Grupo_8386">
		<g id="Trazado_7107">
			<path class="st1" d="M50.19,93.24c-1.12,0-2.24-0.2-3.32-0.6c-2.38-0.88-4.27-2.64-5.32-4.95c-2.18-4.77-0.07-10.42,4.69-12.59
				c4.73-2.18,10.37-0.11,12.56,4.63c0.02,0.03,0.03,0.07,0.05,0.11c1.03,2.3,1.12,4.86,0.24,7.22c-0.88,2.38-2.64,4.27-4.95,5.32
				C52.88,92.96,51.54,93.24,50.19,93.24z M50.18,78.23c-0.76,0-1.54,0.16-2.28,0.5c-2.76,1.26-3.98,4.53-2.72,7.29
				c0.61,1.34,1.7,2.35,3.08,2.86c1.38,0.51,2.87,0.46,4.21-0.15c1.34-0.61,2.35-1.7,2.86-3.08c0.51-1.38,0.46-2.87-0.15-4.21
				c-0.01-0.03-0.03-0.06-0.04-0.09C54.18,79.38,52.22,78.23,50.18,78.23z M59.01,80.62L59.01,80.62L59.01,80.62z"/>
		</g>
		<g id="Grupo_6636">
			<g id="Línea_1013">
				<path class="st3" d="M68.39,78.23c-1.1,0-2-0.9-2-2V70.5c0-1.1,0.9-2,2-2s2,0.9,2,2v5.73C70.39,77.33,69.49,78.23,68.39,78.23z"
					/>
			</g>
			<g id="Línea_1014">
				<path class="st3" d="M76.78,78.23c-1.1,0-2-0.9-2-2V70.5c0-1.1,0.9-2,2-2s2,0.9,2,2v5.73C78.78,77.33,77.88,78.23,76.78,78.23z"
					/>
			</g>
			<g id="Trazado_5699">
				<path class="st3" d="M90.19,85.14c-0.53,0-1.05-0.21-1.45-0.62c-0.52-0.55-1.1-1.05-1.72-1.48l-11.06-4.97
					c-1.01-0.45-1.46-1.64-1-2.64c0.45-1.01,1.64-1.46,2.64-1l11.23,5.05c0.11,0.05,0.21,0.11,0.31,0.17
					c0.9,0.62,1.74,1.33,2.5,2.12c0.76,0.8,0.74,2.06-0.06,2.83C91.19,84.96,90.69,85.14,90.19,85.14z"/>
			</g>
			<g id="Trazado_5700">
				<path class="st3" d="M84.06,109.45H52.77c-1.1,0-2-0.9-2-2V97.01c0-1.1,0.9-2,2-2s2,0.9,2,2v8.44h29.29c1.1,0,2,0.9,2,2
					S85.16,109.45,84.06,109.45z"/>
			</g>
			<g id="Línea_1015">
				<path class="st3" d="M62.66,80.81c-0.76,0-1.49-0.44-1.83-1.18c-0.45-1.01,0-2.19,1.01-2.64l5.73-2.57
					c1.01-0.45,2.19,0,2.64,1.01c0.45,1.01,0,2.19-1.01,2.64l-5.73,2.57C63.21,80.75,62.93,80.81,62.66,80.81z"/>
			</g>
			<g id="Línea_1016">
				<path class="st3" d="M72.58,82.98c-0.55,0-1.11-0.23-1.5-0.68l-4.19-4.75c-0.73-0.83-0.65-2.09,0.18-2.82
					c0.83-0.73,2.09-0.65,2.82,0.18l4.19,4.75c0.73,0.83,0.65,2.09-0.18,2.82C73.52,82.82,73.05,82.98,72.58,82.98z"/>
			</g>
			<g id="Línea_1017">
				<path class="st3" d="M72.58,82.98c-0.47,0-0.94-0.17-1.32-0.5c-0.83-0.73-0.91-2-0.17-2.82l4.2-4.75
					c0.73-0.83,1.99-0.91,2.82-0.17c0.83,0.73,0.9,2,0.17,2.82l-4.2,4.75C73.68,82.75,73.13,82.98,72.58,82.98z"/>
			</g>
			<g id="Trazado_5701">
				<path class="st3" d="M72.55,73.7c-5.46,0-9.9-4.44-9.9-9.9c0-1.1,0.9-2,2-2s2,0.9,2,2c0,3.25,2.65,5.9,5.9,5.9s5.9-2.65,5.9-5.9
					c0-1.1,0.9-2,2-2s2,0.9,2,2C82.45,69.26,78.01,73.7,72.55,73.7z"/>
			</g>
			<g id="Trazado_5702">
				<path class="st3" d="M80.44,65.8c-1.1,0-2-0.9-2-2v-5.45c0-3.25-2.65-5.9-5.9-5.9s-5.9,2.65-5.9,5.9v5.45c0,1.1-0.9,2-2,2
					s-2-0.9-2-2v-5.45c0-5.46,4.44-9.9,9.9-9.9s9.9,4.44,9.9,9.9v5.45C82.44,64.9,81.54,65.8,80.44,65.8z"/>
			</g>
		</g>
		<g id="Rectángulo_2877">
			<path class="st4" d="M113.28,109.45h-29.8c-1.1,0-2-0.9-2-2V83.13c0-1.1,0.9-2,2-2h29.8c1.1,0,2,0.9,2,2v24.32
				C115.28,108.55,114.38,109.45,113.28,109.45z M85.48,105.45h25.8V85.13h-25.8V105.45z"/>
		</g>
		<g id="Línea_2743">
			<path class="st4" d="M98.38,102.52c-1.1,0-2-0.9-2-2V88.86c0-1.1,0.9-2,2-2s2,0.9,2,2v11.66
				C100.38,101.62,99.48,102.52,98.38,102.52z"/>
		</g>
		<g id="Línea_2744">
			<path class="st4" d="M104.21,96.69H92.55c-1.1,0-2-0.9-2-2s0.9-2,2-2h11.66c1.1,0,2,0.9,2,2S105.31,96.69,104.21,96.69z"/>
		</g>
	</g>
</g>
</svg>
