<?xml version="1.0" encoding="utf-8"?>
<!-- Generator: Adobe Illustrator 24.0.2, SVG Export Plug-In . SVG Version: 6.00 Build 0)  -->
<svg version="1.1" id="Capa_1" xmlns="http://www.w3.org/2000/svg" xmlns:xlink="http://www.w3.org/1999/xlink" x="0px" y="0px"
	 viewBox="0 0 120 120" style="enable-background:new 0 0 120 120;" xml:space="preserve">
<style type="text/css">
	.st0{fill:none;}
	.st1{fill:#FFEA27;}
	.st2{fill:#F4D314;}
	.st3{fill:#95A6B1;}
</style>
<g>
	<rect class="st0" width="120" height="120"/>
</g>
<g>
	<g>
		<g>
			<path class="st1" d="M57.09,115.06H38.88c-1.1,0-2-0.9-2-2s0.9-2,2-2h18.21c1.1,0,2,0.9,2,2S58.19,115.06,57.09,115.06z"/>
		</g>
		<g>
			<path class="st1" d="M79.02,115.06h-9.1c-1.1,0-2-0.9-2-2s0.9-2,2-2h9.1c1.1,0,2,0.9,2,2S80.12,115.06,79.02,115.06z"/>
		</g>
		<g>
			<path class="st1" d="M91.82,115.06c-0.27,0-0.52-0.05-0.77-0.15c-0.24-0.1-0.46-0.25-0.64-0.44c-0.38-0.38-0.59-0.88-0.59-1.41
				c0-0.53,0.21-1.04,0.59-1.41c0.46-0.47,1.15-0.68,1.8-0.55c0.13,0.02,0.25,0.06,0.37,0.11s0.24,0.11,0.35,0.19
				c0.11,0.07,0.21,0.15,0.3,0.25c0.1,0.09,0.18,0.19,0.25,0.3c0.08,0.11,0.14,0.22,0.19,0.34s0.08,0.25,0.11,0.38
				c0.03,0.13,0.04,0.26,0.04,0.39c0,0.54-0.21,1.04-0.59,1.41C92.86,114.85,92.35,115.06,91.82,115.06z"/>
		</g>
		<g>
			<path class="st2" d="M46.38,115.06h-18.2c-1.1,0-2-0.9-2-2s0.9-2,2-2h18.2c1.1,0,2,0.9,2,2S47.48,115.06,46.38,115.06z"/>
		</g>
	</g>
	<g>
		<g>
			<path class="st1" d="M73.56,102.83H28.18c-1.1,0-2-0.9-2-2s0.9-2,2-2h45.38c1.1,0,2,0.9,2,2S74.66,102.83,73.56,102.83z"/>
		</g>
		<g>
			<path class="st2" d="M28.18,102.83c-0.27,0-0.52-0.05-0.77-0.15c-0.24-0.1-0.46-0.25-0.65-0.44c-0.37-0.37-0.58-0.88-0.58-1.41
				c0-0.53,0.21-1.04,0.58-1.41c0.1-0.1,0.2-0.18,0.31-0.25s0.22-0.14,0.35-0.19c0.12-0.05,0.24-0.09,0.37-0.11
				c0.65-0.13,1.34,0.08,1.8,0.55c0.38,0.37,0.59,0.88,0.59,1.41c0,0.54-0.21,1.04-0.59,1.41
				C29.22,102.62,28.71,102.83,28.18,102.83z"/>
		</g>
		<g>
			<path class="st2" d="M91.82,102.83H66.06c-1.1,0-2-0.9-2-2s0.9-2,2-2h25.76c1.1,0,2,0.9,2,2S92.92,102.83,91.82,102.83z"/>
		</g>
	</g>
</g>
<g>
	<g>
		<path class="st1" d="M79.1,27.06c-3.61,0-7.06-2.06-8.66-5.54c-2.18-4.76-0.08-10.41,4.69-12.59c4.77-2.18,10.41-0.07,12.59,4.69
			v0c1,2.18,1.13,4.64,0.38,6.93c-0.82,2.49-2.67,4.55-5.06,5.66C81.76,26.79,80.42,27.06,79.1,27.06z M79.07,12.07
			c-0.76,0-1.54,0.16-2.28,0.5c-2.76,1.26-3.97,4.53-2.71,7.29c1.26,2.75,4.53,3.97,7.29,2.71c1.38-0.64,2.46-1.83,2.93-3.28
			c0.44-1.32,0.36-2.75-0.22-4.01v0C83.16,13.27,81.16,12.07,79.07,12.07z"/>
	</g>
</g>
<g>
	<g>
		<g>
			<path class="st3" d="M93.5,68.25H26.47c-1.1,0-2-0.9-2-2v-16.8c0-1.1,0.9-2,2-2H93.5c1.1,0,2,0.9,2,2v16.8
				C95.5,67.35,94.6,68.25,93.5,68.25z M28.47,64.25H91.5v-12.8H28.47V64.25z"/>
		</g>
		<g>
			<g>
				<path class="st3" d="M38.01,50.79c-1.1,0-2-0.9-2-2v-3.01c0-1.1,0.9-2,2-2s2,0.9,2,2v3.01C40.01,49.89,39.11,50.79,38.01,50.79z
					"/>
			</g>
			<g>
				<path class="st3" d="M49.58,50.79c-1.1,0-2-0.9-2-2v-3.01c0-1.1,0.9-2,2-2s2,0.9,2,2v3.01C51.58,49.89,50.68,50.79,49.58,50.79z
					"/>
			</g>
			<g>
				<path class="st3" d="M61.16,50.79c-1.1,0-2-0.9-2-2v-3.01c0-1.1,0.9-2,2-2s2,0.9,2,2v3.01C63.16,49.89,62.26,50.79,61.16,50.79z
					"/>
			</g>
			<g>
				<path class="st3" d="M72.76,50.79c-1.1,0-2-0.9-2-2v-3.01c0-1.1,0.9-2,2-2s2,0.9,2,2v3.01C74.76,49.89,73.86,50.79,72.76,50.79z
					"/>
			</g>
			<g>
				<path class="st3" d="M84.34,50.79c-1.1,0-2-0.9-2-2v-3.01c0-1.1,0.9-2,2-2s2,0.9,2,2v3.01C86.34,49.89,85.44,50.79,84.34,50.79z
					"/>
			</g>
		</g>
		<g>
			<path class="st3" d="M29.48,51.44H22.6c-1.1,0-2-0.9-2-2v-7.28c0-1.1,0.9-2,2-2h6.88c1.1,0,2,0.9,2,2v7.28
				C31.48,50.54,30.58,51.44,29.48,51.44z M24.6,47.44h2.88v-3.28H24.6V47.44z"/>
		</g>
	</g>
	<g>
		<path class="st3" d="M17.53,89.49H6.79c-0.67,0-1.29-0.33-1.66-0.89c-0.37-0.56-0.44-1.26-0.18-1.88l15.81-38.04
			c0.42-1.02,1.59-1.5,2.61-1.08c1.02,0.42,1.5,1.59,1.08,2.61L9.79,85.49h6.41l8.43-20.02c0.43-1.02,1.6-1.5,2.62-1.07
			c1.02,0.43,1.5,1.6,1.07,2.62l-8.94,21.24C19.06,89.01,18.33,89.49,17.53,89.49z"/>
	</g>
	<g>
		<g>
			<path class="st3" d="M97.4,51.45h-6.88c-1.1,0-2-0.9-2-2v-7.28c0-1.1,0.9-2,2-2h6.88c1.1,0,2,0.9,2,2v7.28
				C99.4,50.55,98.51,51.45,97.4,51.45z M92.52,47.45h2.88v-3.28h-2.88V47.45z"/>
		</g>
		<g>
			<path class="st3" d="M113.21,89.49h-10.74c-0.8,0-1.53-0.48-1.84-1.22l-8.94-21.24c-0.43-1.02,0.05-2.19,1.07-2.62
				c1.02-0.43,2.19,0.05,2.62,1.07l8.42,20.02h6.42L95.55,50.22c-0.42-1.02,0.06-2.19,1.08-2.61c1.02-0.43,2.19,0.06,2.61,1.08
				l15.81,38.04c0.26,0.62,0.19,1.32-0.18,1.88C114.5,89.16,113.88,89.49,113.21,89.49z"/>
		</g>
	</g>
	<g>
		<path class="st3" d="M62.73,76.4h-19.3c-0.97,0-1.76-0.79-1.76-1.76v-8.38c0-0.97,0.79-1.76,1.76-1.76h19.3
			c0.97,0,1.76,0.79,1.76,1.76v8.38C64.5,75.61,63.71,76.4,62.73,76.4z M45.19,72.88h15.77v-4.85H45.19V72.88z"/>
	</g>
	<g>
		<path class="st3" d="M58.04,83.05h-9.49c-0.97,0-1.76-0.79-1.76-1.76v-6.65c0-0.97,0.79-1.76,1.76-1.76h9.49
			c0.97,0,1.76,0.79,1.76,1.76v6.65C59.8,82.26,59.01,83.05,58.04,83.05z M50.31,79.53h5.96V76.4h-5.96V79.53z"/>
	</g>
</g>
<g>
	<g>
		<path class="st3" d="M104.11,35.92h-88.3c-1.1,0-2-0.9-2-2V22.55c0-1.1,0.9-2,2-2h50.17c1.1,0,2,0.9,2,2s-0.9,2-2,2H17.81v7.37
			h86.3c1.1,0,2,0.9,2,2S105.21,35.92,104.11,35.92z"/>
	</g>
	<g>
		<path class="st3" d="M102.83,24.55H91.72c-1.1,0-2-0.9-2-2s0.9-2,2-2h11.11c1.1,0,2,0.9,2,2S103.93,24.55,102.83,24.55z"/>
	</g>
	<g>
		<path class="st3" d="M104.18,35.92c-1.1,0-2-0.9-2-2V17.7c0-1.1,0.9-2,2-2h6.47c1.1,0,2,0.9,2,2s-0.9,2-2,2h-4.47v14.22
			C106.18,35.02,105.28,35.92,104.18,35.92z"/>
	</g>
	<g>
		<path class="st3" d="M110.65,40.77h-6.47c-1.1,0-2-0.9-2-2v-4.85c0-1.1,0.9-2,2-2s2,0.9,2,2v2.85h2.47V17.7c0-1.1,0.9-2,2-2
			s2,0.9,2,2v21.07C112.65,39.87,111.75,40.77,110.65,40.77z"/>
	</g>
	<g>
		<path class="st3" d="M15.83,40.77H9.35c-1.1,0-2-0.9-2-2V17.7c0-1.1,0.9-2,2-2h6.48c1.1,0,2,0.9,2,2v21.07
			C17.83,39.87,16.93,40.77,15.83,40.77z M11.35,36.77h2.48V19.7h-2.48V36.77z"/>
	</g>
	<g>
		<path class="st3" d="M25.25,35.69c-1.1,0-2-0.9-2-2V23.25c0-1.1,0.9-2,2-2s2,0.9,2,2v10.44C27.25,34.79,26.35,35.69,25.25,35.69z"
			/>
	</g>
	<g>
		<path class="st3" d="M95.92,35.69c-1.1,0-2-0.9-2-2V23.25c0-1.1,0.9-2,2-2s2,0.9,2,2v10.44C97.92,34.79,97.02,35.69,95.92,35.69z"
			/>
	</g>
	<g>
		<path class="st3" d="M42.85,35.69c-1.1,0-2-0.9-2-2V23.25c0-1.1,0.9-2,2-2s2,0.9,2,2v10.44C44.85,34.79,43.95,35.69,42.85,35.69z"
			/>
	</g>
	<g>
		<path class="st3" d="M61.58,35.69c-1.1,0-2-0.9-2-2V23.25c0-1.1,0.9-2,2-2s2,0.9,2,2v10.44C63.58,34.79,62.68,35.69,61.58,35.69z"
			/>
	</g>
	<g>
		<path class="st3" d="M80.17,35.69c-1.1,0-2-0.9-2-2v-2.44c0-1.1,0.9-2,2-2s2,0.9,2,2v2.44C82.17,34.79,81.27,35.69,80.17,35.69z"
			/>
	</g>
</g>
</svg>
