<?xml version="1.0" encoding="utf-8"?>
<!-- Generator: Adobe Illustrator 24.0.2, SVG Export Plug-In . SVG Version: 6.00 Build 0)  -->
<svg version="1.1" id="Capa_1" xmlns="http://www.w3.org/2000/svg" xmlns:xlink="http://www.w3.org/1999/xlink" x="0px" y="0px"
	 width="120px" height="120px" viewBox="0 0 120 120" style="enable-background:new 0 0 120 120;" xml:space="preserve">
<style type="text/css">
	.st0{fill:none;}
	.st1{fill:#FFEA27;}
	.st2{fill:#F4D314;}
	.st3{fill:#95A6B1;}
</style>
<g>
	<rect y="0" class="st0" width="120" height="120"/>
</g>
<g>
	<path class="st1" d="M57.09,115.86H38.88c-1.1,0-2-0.9-2-2s0.9-2,2-2h18.21c1.1,0,2,0.9,2,2S58.19,115.86,57.09,115.86z"/>
</g>
<g>
	<path class="st1" d="M79.02,115.86h-9.1c-1.1,0-2-0.9-2-2s0.9-2,2-2h9.1c1.1,0,2,0.9,2,2S80.13,115.86,79.02,115.86z"/>
</g>
<g>
	<path class="st1" d="M91.82,115.86c-0.26,0-0.52-0.05-0.76-0.15c-0.25-0.1-0.46-0.25-0.65-0.44c-0.38-0.37-0.59-0.87-0.59-1.41
		c0-0.53,0.21-1.04,0.59-1.41c0.74-0.75,2.08-0.75,2.82,0c0.38,0.37,0.59,0.88,0.59,1.41c0,0.27-0.05,0.53-0.15,0.77
		c-0.1,0.24-0.25,0.46-0.44,0.64c-0.09,0.1-0.19,0.18-0.3,0.26c-0.11,0.07-0.22,0.13-0.34,0.18s-0.25,0.09-0.37,0.11
		C92.09,115.85,91.96,115.86,91.82,115.86z"/>
</g>
<g>
	<path class="st2" d="M46.38,115.86H28.18c-1.1,0-2-0.9-2-2s0.9-2,2-2h18.21c1.1,0,2,0.9,2,2S47.49,115.86,46.38,115.86z"/>
</g>
<g>
	<path class="st1" d="M73.56,103.64H28.18c-1.1,0-2-0.9-2-2s0.9-2,2-2h45.39c1.1,0,2,0.9,2,2S74.67,103.64,73.56,103.64z"/>
</g>
<g>
	<path class="st2" d="M28.18,103.63c-0.27,0-0.53-0.05-0.77-0.15c-0.24-0.1-0.46-0.24-0.65-0.43c-0.37-0.38-0.58-0.88-0.58-1.41
		c0-0.14,0.01-0.27,0.04-0.4c0.02-0.12,0.06-0.25,0.11-0.37c0.05-0.12,0.11-0.24,0.19-0.35c0.07-0.1,0.15-0.21,0.24-0.3
		c0.75-0.74,2.09-0.74,2.83,0c0.09,0.09,0.18,0.2,0.25,0.3c0.07,0.11,0.13,0.23,0.18,0.35c0.05,0.12,0.09,0.25,0.12,0.37
		c0.02,0.13,0.04,0.26,0.04,0.4c0,0.53-0.21,1.03-0.59,1.41C29.22,103.43,28.71,103.63,28.18,103.63z"/>
</g>
<g>
	<path class="st2" d="M91.82,103.64H66.06c-1.1,0-2-0.9-2-2s0.9-2,2-2h25.76c1.1,0,2,0.9,2,2S92.93,103.64,91.82,103.64z"/>
</g>
<g>
	<path class="st3" d="M87.38,92.53H32.12c-4.89,0-8.87-3.98-8.87-8.87V60.77c0-1.1,0.9-2,2-2s2,0.9,2,2v22.89
		c0,2.69,2.19,4.87,4.87,4.87h53.26V13.64H32.12c-2.69,0-4.87,2.19-4.87,4.87v11.17c0,1.1-0.9,2-2,2s-2-0.9-2-2V18.51
		c0-4.89,3.98-8.87,8.87-8.87h55.26c1.1,0,2,0.9,2,2v78.89C89.38,91.63,88.48,92.53,87.38,92.53z"/>
</g>
<g>
	<path class="st3" d="M25.24,85.65c-1.03,0-1.9-0.79-1.99-1.83c-0.02-0.25-0.46-6.07,2.93-9.75c1.75-1.91,4.14-2.87,7.1-2.87H87
		c1.1,0,2,0.9,2,2s-0.9,2-2,2H33.28c-1.81,0-3.16,0.51-4.14,1.57c-2.2,2.37-1.89,6.68-1.89,6.72c0.08,1.1-0.74,2.06-1.84,2.15
		C25.35,85.65,25.3,85.65,25.24,85.65z"/>
</g>
<g>
	<path class="st3" d="M87.2,84.18H32.78c-1.1,0-2-0.9-2-2s0.9-2,2-2H87.2c1.1,0,2,0.9,2,2S88.3,84.18,87.2,84.18z"/>
</g>
<g>
	<path class="st3" d="M33.28,75.2c-1.1,0-2-0.9-2-2V60c0-1.1,0.9-2,2-2s2,0.9,2,2v13.2C35.28,74.31,34.38,75.2,33.28,75.2z"/>
</g>
<g>
	<path class="st3" d="M33.28,33.1c-1.1,0-2-0.9-2-2V11.98c0-1.1,0.9-2,2-2s2,0.9,2,2V31.1C35.28,32.21,34.38,33.1,33.28,33.1z"/>
</g>
<g>
	<g>
		<path class="st3" d="M54.65,51.82c-0.71,0-1.4-0.38-1.76-1.04l-4.91-9.03l-4.71,8.99c-0.51,0.98-1.72,1.36-2.7,0.84
			c-0.98-0.51-1.36-1.72-0.84-2.7l6.45-12.31c0.34-0.65,1.02-1.07,1.76-1.07c0.72,0,1.42,0.4,1.77,1.04l6.7,12.32
			c0.53,0.97,0.17,2.18-0.8,2.71C55.3,51.74,54.97,51.82,54.65,51.82z"/>
	</g>
	<g>
		<path class="st3" d="M51.93,49.26h-7.85c-1.1,0-2-0.9-2-2s0.9-2,2-2h7.85c1.1,0,2,0.9,2,2S53.03,49.26,51.93,49.26z"/>
	</g>
</g>
<g>
	<path class="st3" d="M61.26,45.18h-2.55c-1.1,0-2-0.9-2-2s0.9-2,2-2h2.55c1.1,0,2,0.9,2,2S62.37,45.18,61.26,45.18z"/>
</g>
<g>
	<path class="st3" d="M77.72,51.98h-9.93c-0.76,0-1.46-0.43-1.79-1.12c-0.34-0.68-0.25-1.5,0.21-2.1l7.17-9.27h-5.19
		c-1.1,0-2-0.9-2-2s0.9-2,2-2h9.27c0.76,0,1.46,0.43,1.79,1.12c0.34,0.68,0.25,1.5-0.21,2.1l-7.17,9.27h5.85c1.1,0,2,0.9,2,2
		S78.82,51.98,77.72,51.98z"/>
</g>
<g>
	<path class="st1" d="M24.26,54.49c-3.61,0-7.06-2.06-8.65-5.55c-2.18-4.76-0.07-10.41,4.69-12.59c4.76-2.18,10.41-0.07,12.59,4.69
		c0,0,0,0,0,0c1,2.19,1.13,4.65,0.38,6.93c-0.83,2.5-2.67,4.56-5.07,5.66C26.92,54.21,25.58,54.49,24.26,54.49z M24.24,39.49
		c-0.76,0-1.54,0.16-2.28,0.5c-2.76,1.26-3.98,4.53-2.71,7.29c1.26,2.76,4.53,3.98,7.29,2.71c1.41-0.64,2.45-1.81,2.93-3.27
		c0.44-1.32,0.36-2.75-0.22-4.01C28.32,40.69,26.32,39.49,24.24,39.49z"/>
</g>
</svg>
