<?xml version="1.0" encoding="utf-8"?>
<!-- Generator: Adobe Illustrator 24.0.2, SVG Export Plug-In . SVG Version: 6.00 Build 0)  -->
<svg version="1.1" id="Capa_1" xmlns="http://www.w3.org/2000/svg" xmlns:xlink="http://www.w3.org/1999/xlink" x="0px" y="0px"
	 viewBox="0 0 120 120" style="enable-background:new 0 0 120 120;" xml:space="preserve">
<style type="text/css">
	.st0{fill:none;}
	.st1{fill:#FFEA27;}
	.st2{fill:#F4D314;}
	.st3{fill:#95A6B1;}
</style>
<g>
	<rect class="st0" width="120" height="120"/>
</g>
<g id="Grupo_8472" transform="translate(-10.823 -25.462)">
	<g id="Grupo_8468">
		<g id="Grupo_8466">
			<g id="Línea_2915">
				<path class="st1" d="M67.91,130.64h-18.2c-1.1,0-2-0.9-2-2c0-1.1,0.9-2,2-2h18.2c1.1,0,2,0.9,2,2
					C69.91,129.74,69.01,130.64,67.91,130.64z"/>
			</g>
			<g id="Línea_2916">
				<path class="st1" d="M89.85,130.64h-9.11c-1.1,0-2-0.9-2-2c0-1.1,0.9-2,2-2h9.11c1.1,0,2,0.9,2,2
					C91.85,129.74,90.95,130.64,89.85,130.64z"/>
			</g>
			<g id="Línea_2917">
				<path class="st1" d="M102.65,130.64c-0.54,0-1.04-0.21-1.42-0.59s-0.58-0.88-0.58-1.41c0-0.13,0.01-0.27,0.04-0.39
					c0.02-0.13,0.06-0.26,0.11-0.38s0.11-0.23,0.18-0.34c0.08-0.11,0.16-0.22,0.25-0.31s0.2-0.17,0.31-0.25
					c0.11-0.07,0.22-0.13,0.34-0.18s0.25-0.09,0.38-0.11c0.65-0.13,1.34,0.08,1.8,0.54c0.09,0.09,0.18,0.2,0.25,0.31
					s0.13,0.22,0.18,0.34c0.05,0.12,0.09,0.25,0.12,0.38c0.02,0.12,0.04,0.26,0.04,0.39c0,0.53-0.21,1.03-0.59,1.41
					S103.18,130.64,102.65,130.64z"/>
			</g>
			<g id="Línea_2918">
				<path class="st2" d="M57.21,130.64H39c-1.1,0-2-0.9-2-2c0-1.1,0.9-2,2-2h18.21c1.1,0,2,0.9,2,2
					C59.21,129.74,58.31,130.64,57.21,130.64z"/>
			</g>
		</g>
		<g id="Grupo_8467">
			<g id="Línea_2919">
				<path class="st1" d="M84.39,118.42H39c-1.1,0-2-0.9-2-2s0.9-2,2-2h45.39c1.1,0,2,0.9,2,2S85.49,118.42,84.39,118.42z"/>
			</g>
			<g id="Línea_2920">
				<path class="st2" d="M39,118.42c-0.54,0-1.04-0.21-1.42-0.59S37,116.95,37,116.42s0.21-1.04,0.58-1.42
					c0.09-0.09,0.2-0.17,0.31-0.24c0.1-0.08,0.22-0.14,0.34-0.19s0.25-0.09,0.38-0.11c0.25-0.06,0.52-0.06,0.78,0
					c0.12,0.02,0.25,0.06,0.37,0.11s0.24,0.11,0.35,0.19c0.11,0.07,0.21,0.15,0.3,0.24c0.37,0.37,0.59,0.89,0.59,1.42
					s-0.21,1.03-0.59,1.41S39.53,118.42,39,118.42z"/>
			</g>
			<g id="Línea_2921">
				<path class="st2" d="M102.65,118.42H76.89c-1.1,0-2-0.9-2-2s0.9-2,2-2h25.76c1.1,0,2,0.9,2,2S103.75,118.42,102.65,118.42z"/>
			</g>
		</g>
	</g>
	<g id="Trazado_7181">
		<path class="st1" d="M51.43,59.29c-1.12,0-2.24-0.2-3.32-0.6c-2.38-0.88-4.27-2.64-5.32-4.95s-1.15-4.89-0.26-7.27
			c0.88-2.38,2.64-4.27,4.95-5.32c4.73-2.18,10.36-0.11,12.56,4.62c0.01,0.02,0.02,0.05,0.03,0.07l0,0
			c1.05,2.31,1.15,4.89,0.26,7.27c-0.88,2.38-2.64,4.27-4.95,5.32C54.12,59,52.78,59.29,51.43,59.29z M51.43,44.28
			c-0.77,0-1.54,0.16-2.28,0.5c-1.34,0.61-2.36,1.71-2.87,3.08c-0.51,1.38-0.46,2.87,0.15,4.21s1.7,2.35,3.08,2.86
			c1.38,0.51,2.87,0.46,4.21-0.15s2.35-1.7,2.86-3.08c0.51-1.37,0.46-2.86-0.15-4.19c-0.01-0.02-0.02-0.03-0.02-0.05
			C55.49,45.46,53.5,44.28,51.43,44.28z M60.25,46.67L60.25,46.67L60.25,46.67z"/>
	</g>
	<g id="Grupo_8469">
		<g id="Trazado_7182">
			<path class="st3" d="M117,106.88c-3.25,0-4.98-1.34-6.36-2.42c-1.17-0.92-2.02-1.58-3.9-1.58s-2.73,0.66-3.9,1.58
				c-1.38,1.08-3.11,2.42-6.36,2.42s-4.98-1.34-6.36-2.42c-1.17-0.92-2.02-1.58-3.9-1.58c-1.88,0-2.73,0.66-3.9,1.58
				c-1.38,1.08-3.11,2.42-6.36,2.42s-4.98-1.34-6.36-2.42c-1.17-0.92-2.02-1.58-3.9-1.58c-1.88,0-2.73,0.66-3.9,1.58
				c-1.38,1.08-3.11,2.42-6.36,2.42s-4.98-1.34-6.36-2.42c-1.17-0.92-2.02-1.58-3.9-1.58s-2.73,0.66-3.9,1.58
				c-1.39,1.08-3.11,2.42-6.37,2.42s-4.98-1.34-6.36-2.42c-1.17-0.92-2.02-1.58-3.91-1.58c-1.1,0-2-0.9-2-2s0.9-2,2-2
				c3.26,0,4.98,1.34,6.36,2.42c1.17,0.92,2.02,1.58,3.91,1.58c1.88,0,2.73-0.66,3.91-1.58c1.38-1.08,3.11-2.42,6.36-2.42
				s4.98,1.34,6.36,2.42c1.17,0.92,2.02,1.58,3.9,1.58s2.73-0.66,3.9-1.58c1.38-1.08,3.11-2.42,6.36-2.42s4.98,1.34,6.36,2.42
				c1.17,0.92,2.02,1.58,3.9,1.58s2.73-0.66,3.9-1.58c1.38-1.08,3.11-2.42,6.36-2.42s4.98,1.34,6.36,2.42
				c1.17,0.92,2.02,1.58,3.9,1.58s2.73-0.66,3.9-1.58c1.38-1.08,3.11-2.42,6.36-2.42s4.98,1.34,6.36,2.42
				c1.17,0.92,2.02,1.58,3.9,1.58c1.1,0,2,0.9,2,2S118.1,106.88,117,106.88z"/>
		</g>
	</g>
	<g id="Grupo_8470">
		<g id="Trazado_7183">
			<path class="st3" d="M31.16,55.95c-2.58,0-3.92-1.65-4.81-2.74c-0.82-1.01-1.1-1.26-1.7-1.26c-1.1,0-2-0.9-2-2s0.9-2,2-2
				c2.57,0,3.91,1.65,4.8,2.74c0.82,1.01,1.11,1.26,1.71,1.26c0.61,0,0.89-0.26,1.7-1.26c0.89-1.09,2.23-2.74,4.81-2.74
				c1.1,0,2,0.9,2,2s-0.9,2-2,2c-0.61,0-0.89,0.26-1.7,1.26C35.08,54.3,33.74,55.95,31.16,55.95z"/>
		</g>
	</g>
	<g id="Grupo_8471">
		<g id="Trazado_7184">
			<path class="st3" d="M117,55.95c-3.25,0-4.96-1.35-6.34-2.43c-1.17-0.91-2.01-1.57-3.87-1.57s-2.7,0.66-3.87,1.57
				c-1.38,1.08-3.1,2.43-6.34,2.43s-4.96-1.34-6.34-2.42c-1.17-0.91-2.01-1.58-3.87-1.58s-2.7,0.66-3.87,1.57
				c-1.38,1.08-3.1,2.43-6.35,2.43s-4.96-1.34-6.34-2.43c-1.17-0.91-2.01-1.57-3.88-1.57c-1.1,0-2-0.9-2-2s0.9-2,2-2
				c3.24,0,4.96,1.34,6.34,2.42c1.17,0.91,2.01,1.58,3.88,1.58c1.87,0,2.71-0.66,3.88-1.58c1.38-1.08,3.1-2.42,6.34-2.42
				s4.96,1.34,6.34,2.43c1.17,0.91,2.01,1.57,3.87,1.57s2.71-0.66,3.87-1.58c1.38-1.08,3.1-2.42,6.34-2.42s4.96,1.34,6.33,2.42
				c1.17,0.92,2.01,1.58,3.88,1.58c1.1,0,2,0.9,2,2S118.1,55.95,117,55.95z"/>
		</g>
	</g>
	<g id="Línea_2922">
		<path class="st3" d="M38.65,87.15h-3.24c-1.1,0-2-0.9-2-2s0.9-2,2-2h3.24c1.1,0,2,0.9,2,2S39.75,87.15,38.65,87.15z"/>
	</g>
	<g id="Línea_2923">
		<path class="st3" d="M103.13,87.66h-3.24c-1.1,0-2-0.9-2-2s0.9-2,2-2h3.24c1.1,0,2,0.9,2,2S104.23,87.66,103.13,87.66z"/>
	</g>
	<g id="Rectángulo_2906">
		<path class="st3" d="M103.11,92.24H35.26c-1.1,0-2-0.9-2-2V68.93c0-1.1,0.9-2,2-2h67.85c1.1,0,2,0.9,2,2v21.31
			C105.11,91.34,104.21,92.24,103.11,92.24z M37.26,88.24h63.85V70.93H37.26V88.24z"/>
	</g>
	<g id="Rectángulo_2907">
		<path class="st3" d="M35.27,94.24h-9.82c-1.1,0-2-0.9-2-2V66.92c0-1.1,0.9-2,2-2h9.82c1.1,0,2,0.9,2,2v25.32
			C37.27,93.34,36.37,94.24,35.27,94.24z M27.45,90.24h5.82V68.92h-5.82V90.24z"/>
	</g>
	<g id="Línea_2924">
		<path class="st3" d="M38.61,81.58h-3.2c-1.1,0-2-0.9-2-2s0.9-2,2-2h3.2c1.1,0,2,0.9,2,2S39.71,81.58,38.61,81.58z"/>
	</g>
	<g id="Línea_2925">
		<path class="st3" d="M38.65,75.99h-3.24c-1.1,0-2-0.9-2-2s0.9-2,2-2h3.24c1.1,0,2,0.9,2,2S39.75,75.99,38.65,75.99z"/>
	</g>
	<g id="Rectángulo_2908">
		<path class="st3" d="M112.95,94.24h-9.82c-1.1,0-2-0.9-2-2V66.92c0-1.1,0.9-2,2-2h9.82c1.1,0,2,0.9,2,2v25.32
			C114.95,93.34,114.05,94.24,112.95,94.24z M105.13,90.24h5.82V68.92h-5.82V90.24z"/>
	</g>
	<g id="Línea_2926">
		<path class="st3" d="M103.13,81.58h-3.29c-1.1,0-2-0.9-2-2s0.9-2,2-2h3.29c1.1,0,2,0.9,2,2S104.23,81.58,103.13,81.58z"/>
	</g>
	<g id="Línea_2927">
		<path class="st3" d="M103.13,75.48h-3.24c-1.1,0-2-0.9-2-2s0.9-2,2-2h3.24c1.1,0,2,0.9,2,2S104.23,75.48,103.13,75.48z"/>
	</g>
	<g id="Línea_2928">
		<path class="st3" d="M73.48,92.24c-1.1,0-2-0.9-2-2v-9.58c0-1.1,0.9-2,2-2s2,0.9,2,2v9.58C75.48,91.34,74.58,92.24,73.48,92.24z"
			/>
	</g>
	<g id="Línea_2929">
		<path class="st3" d="M73.48,75.48c-1.1,0-2-0.9-2-2v-4.55c0-1.1,0.9-2,2-2s2,0.9,2,2v4.55C75.48,74.58,74.58,75.48,73.48,75.48z"
			/>
	</g>
</g>
</svg>
