<svg xmlns="http://www.w3.org/2000/svg" width="120" height="120" viewBox="0 0 120 120">
  <g id="_01-icon_ocenza_hitos_hitos-8" data-name="01-icon_ocenza_hitos_hitos-8" style="isolation: isolate">
    <g id="Capa_1" data-name="Capa 1">
      <rect id="Rectángulo_2945" data-name="Rectángulo 2945" width="120" height="120" fill="none"/>
      <path id="Trazado_7227" data-name="Trazado 7227" d="M54,115.86H35.74a2,2,0,0,1,0-4H54a2,2,0,1,1,0,4Z" fill="#ffea27"/>
      <path id="Trazado_7228" data-name="Trazado 7228" d="M75.88,115.86h-9.1a2,2,0,0,1,0-4h9.1a2,2,0,0,1,0,4Z" fill="#ffea27"/>
      <path id="Trazado_7229" data-name="Trazado 7229" d="M88.67,115.86a2.008,2.008,0,0,1-1.41-3.42,2.08,2.08,0,0,1,2.83,0,2,2,0,0,1-1.42,3.42Z" fill="#ffea27"/>
      <g id="Grupo_8583" data-name="Grupo 8583" style="mix-blend-mode: multiply;isolation: isolate">
        <path id="Trazado_7230" data-name="Trazado 7230" d="M43.24,115.86H25a2,2,0,0,1,0-4H43.2a2,2,0,1,1,0,4Z" fill="#f4d314"/>
      </g>
      <path id="Trazado_7231" data-name="Trazado 7231" d="M70.42,103.64H25a2,2,0,1,1,0-4H70.42a2,2,0,0,1,0,4Z" fill="#ffea27"/>
      <g id="Grupo_8584" data-name="Grupo 8584" style="mix-blend-mode: multiply;isolation: isolate">
        <path id="Trazado_7232" data-name="Trazado 7232" d="M25,103.63a2.07,2.07,0,0,1-.77-.15,1.85,1.85,0,0,1-.64-.43,2,2,0,0,1-.59-1.42,1.72,1.72,0,0,1,0-.39,2.26,2.26,0,0,1,.11-.37,1.7,1.7,0,0,1,.19-.35,1.42,1.42,0,0,1,.25-.3,2,2,0,0,1,1.8-.55,2.4,2.4,0,0,1,.38.12,2.21,2.21,0,0,1,.34.18,2.42,2.42,0,0,1,.31.25,1.76,1.76,0,0,1,.24.3,1.7,1.7,0,0,1,.19.35,1.58,1.58,0,0,1,.11.37,1.72,1.72,0,0,1,0,.39,1.982,1.982,0,0,1-1.92,2Z" fill="#f4d314"/>
      </g>
      <g id="Grupo_8585" data-name="Grupo 8585" style="mix-blend-mode: multiply;isolation: isolate">
        <path id="Trazado_7233" data-name="Trazado 7233" d="M88.68,103.64H62.92a2,2,0,1,1,0-4H88.68a2,2,0,0,1,0,4Z" fill="#f4d314"/>
      </g>
      <path id="Trazado_7234" data-name="Trazado 7234" d="M42.57,59.65H31.33a2,2,0,1,1,0-4H42.57a2,2,0,0,1,0,4Z" fill="#95a6b1"/>
      <path id="Trazado_7235" data-name="Trazado 7235" d="M81.33,38.12a2,2,0,0,1-1.41-3.42,2.481,2.481,0,0,1,.3-.25,2.21,2.21,0,0,1,.34-.18,1.82,1.82,0,0,1,.38-.11,1.71,1.71,0,0,1,.78,0,1.82,1.82,0,0,1,.38.11,2.21,2.21,0,0,1,.34.18l.31.25a2,2,0,0,1,0,2.83,2.42,2.42,0,0,1-.31.25,2.27,2.27,0,0,1-.34.19,2.38,2.38,0,0,1-.38.11A2.58,2.58,0,0,1,81.33,38.12Z" fill="#95a6b1"/>
      <path id="Trazado_7236" data-name="Trazado 7236" d="M66.82,38.12H32.88a2,2,0,0,1-2-2V30.18a2,2,0,0,1,4,0v3.94H66.82a2,2,0,0,1,0,4Z" fill="#95a6b1"/>
      <path id="Trazado_7237" data-name="Trazado 7237" d="M31.5,26.18a9.492,9.492,0,1,1,8.68-13.45h0A9.5,9.5,0,0,1,31.5,26.18Zm0-15a5.36,5.36,0,0,0-2.28.5,5.5,5.5,0,1,0,7.51,6.72,5.56,5.56,0,0,0-.22-4,5.49,5.49,0,0,0-3.08-2.87,5.61,5.61,0,0,0-1.94-.35Z" fill="#ffea27"/>
      <path id="Trazado_7238" data-name="Trazado 7238" d="M87.32,38.12h-6a2,2,0,0,1,0-4h4V18.22a.23.23,0,0,0-.23-.23H45.73a2,2,0,0,1,0-4H85.09a4.24,4.24,0,0,1,4.23,4.23v17.9A2,2,0,0,1,87.32,38.12Z" fill="#95a6b1"/>
      <path id="Trazado_7239" data-name="Trazado 7239" d="M78.07,18H51a2,2,0,0,1-2-2V9.45a4.12,4.12,0,0,1,4.11-4.12H76.24a3.84,3.84,0,0,1,3.83,3.83V16A2,2,0,0,1,78.07,18ZM53,14H76.1V9.33h-23a.11.11,0,0,0-.11.12ZM76.24,9.33Z" fill="#95a6b1"/>
      <path id="Trazado_7240" data-name="Trazado 7240" d="M87.4,25.49H45.07a2,2,0,0,1,0-4H87.4a2,2,0,0,1,0,4Z" fill="#95a6b1"/>
      <path id="Trazado_7241" data-name="Trazado 7241" d="M24,66.35a2,2,0,0,1-2-2V38.68a4.55,4.55,0,0,1,4.54-4.54H66.82a2,2,0,0,1,0,4H26.55a.54.54,0,0,0-.54.54V64.35a2,2,0,0,1-2.01,2Z" fill="#95a6b1"/>
      <path id="Trazado_7242" data-name="Trazado 7242" d="M96.71,66.35a2,2,0,0,1-2-2v-26a.19.19,0,0,0-.19-.19H81.33a2,2,0,0,1,0-4H94.51a4.2,4.2,0,0,1,4.19,4.19v26a2,2,0,0,1-1.99,2Z" fill="#95a6b1"/>
      <path id="Trazado_7243" data-name="Trazado 7243" d="M24,45a2,2,0,0,1,0-4H49.85a2,2,0,1,1,0,4Z" fill="#95a6b1"/>
      <line id="Línea_1777" data-name="Línea 1777" y2="21.39" transform="translate(42.57 42.96)" fill="#fff"/>
      <path id="Trazado_7244" data-name="Trazado 7244" d="M42.57,66.35a2,2,0,0,1-2-2V43a2,2,0,0,1,4,0V64.35A2,2,0,0,1,42.57,66.35Z" fill="#95a6b1"/>
      <path id="Trazado_7245" data-name="Trazado 7245" d="M42.57,51.66H31.33a2,2,0,0,1,0-4H42.57a2,2,0,0,1,0,4Z" fill="#95a6b1"/>
      <path id="Trazado_7246" data-name="Trazado 7246" d="M31.29,66.35a2,2,0,0,1-2-2V43a2,2,0,1,1,4,0V64.35A2,2,0,0,1,31.29,66.35Z" fill="#95a6b1"/>
      <path id="Trazado_7247" data-name="Trazado 7247" d="M49.85,66.35a2,2,0,0,1-2-2V36.12a2,2,0,0,1,4,0V64.35A2,2,0,0,1,49.85,66.35Z" fill="#95a6b1"/>
      <path id="Trazado_7248" data-name="Trazado 7248" d="M81.31,49.26H66.78a2,2,0,0,1-2-2.01V36.17a2,2,0,0,1,2-2h0a2,2,0,0,1,2,2v9.08H79.31v-9.1a2,2,0,1,1,4,0v11.1a2,2,0,0,1-2,2.01Z" fill="#95a6b1"/>
      <path id="Trazado_7249" data-name="Trazado 7249" d="M57.87,18a2,2,0,0,1-2-2V7.33a2,2,0,1,1,4,0V16A2,2,0,0,1,57.87,18Z" fill="#95a6b1"/>
      <path id="Trazado_7250" data-name="Trazado 7250" d="M64.52,18a2,2,0,0,1-2-2V7.33a2,2,0,1,1,4,0V16A2,2,0,0,1,64.52,18Z" fill="#95a6b1"/>
      <path id="Trazado_7251" data-name="Trazado 7251" d="M71.4,18a2,2,0,0,1-2-2V7.33a2,2,0,1,1,4,0V16A2,2,0,0,1,71.4,18Z" fill="#95a6b1"/>
      <path id="Trazado_7252" data-name="Trazado 7252" d="M89,50a2,2,0,0,1-2-2V36.16a2,2,0,0,1,4,0V48A2,2,0,0,1,89,50Z" fill="#95a6b1"/>
      <path id="Trazado_7253" data-name="Trazado 7253" d="M58.32,50a2,2,0,0,1-2-2V36.16a2,2,0,0,1,4,0V48A2,2,0,0,1,58.32,50Z" fill="#95a6b1"/>
      <path id="Trazado_7254" data-name="Trazado 7254" d="M96.71,66.35H24a2,2,0,1,1,0-4H96.7a2,2,0,0,1,0,4Z" fill="#95a6b1"/>
      <path id="Trazado_7255" data-name="Trazado 7255" d="M84.56,88H77.74a2,2,0,0,1-2-2V71a2,2,0,0,1,2-2h6.82a2,2,0,0,1,2,2V86A2,2,0,0,1,84.56,88Zm-4.82-4h2.82V73H79.74Z" fill="#95a6b1"/>
      <path id="Trazado_7256" data-name="Trazado 7256" d="M77.74,86.66H61.68A13.84,13.84,0,0,1,47.85,72.84V64.35a2,2,0,0,1,2-2H62.12a2,2,0,0,1,2,2V69a1.38,1.38,0,0,0,1.36,1.37H77.74a2,2,0,0,1,2,2V84.66A2,2,0,0,1,77.74,86.66ZM51.85,66.35v6.49a9.83,9.83,0,0,0,9.83,9.82H75.74V74.39H65.47A5.38,5.38,0,0,1,60.12,69V66.35Z" fill="#95a6b1"/>
      <path id="Trazado_7257" data-name="Trazado 7257" d="M113.52,66.37A7.34,7.34,0,0,1,108,63.81c-1-1-1.53-1.44-2.73-1.44s-1.73.47-2.73,1.44A7.34,7.34,0,0,1,97,66.37a2,2,0,0,1,0-4c1.2,0,1.73-.46,2.73-1.43a7.19,7.19,0,0,1,11,0c1,1,1.53,1.43,2.73,1.43a2,2,0,0,1,0,4Z" fill="#95a6b1"/>
      <path id="Trazado_7258" data-name="Trazado 7258" d="M24.16,66.36a7.93,7.93,0,0,1-5.76-2.52,4.008,4.008,0,0,0-3.08-1.48c-1.44,0-2.06.56-3.08,1.48a7.93,7.93,0,0,1-5.76,2.52,2,2,0,1,1,0-4c1.44,0,2.06-.56,3.08-1.48a7.84,7.84,0,0,1,11.52,0,4.008,4.008,0,0,0,3.08,1.48,2,2,0,0,1,0,4Z" fill="#95a6b1"/>
      <path id="Trazado_7259" data-name="Trazado 7259" d="M105.89,74.39H84.63a2,2,0,0,1,0-4h21.26a2,2,0,0,1,0,4Z" fill="#95a6b1"/>
      <path id="Trazado_7260" data-name="Trazado 7260" d="M105.89,86.66H84.63a2,2,0,0,1,0-4h21.26a2,2,0,0,1,0,4Z" fill="#95a6b1"/>
      <path id="Trazado_7261" data-name="Trazado 7261" d="M53.49,83.36a2,2,0,0,1-1.35-3.48l10.31-9.44a2.018,2.018,0,0,1,2.7,3L54.84,82.83A2,2,0,0,1,53.49,83.36Z" fill="#95a6b1"/>
    </g>
  </g>
</svg>
