<svg xmlns="http://www.w3.org/2000/svg" width="120" height="120" viewBox="0 0 120 120">
  <g id="_01-icon_ocenza_hitos_hitos-9" data-name="01-icon_ocenza_hitos_hitos-9" style="isolation: isolate">
    <g id="Capa_1" data-name="Capa 1">
      <rect id="Rectángulo_2946" data-name="Rectángulo 2946" width="120" height="120" fill="none"/>
      <path id="Trazado_7262" data-name="Trazado 7262" d="M54,115.86H35.74a2,2,0,0,1,0-4H54a2,2,0,1,1,0,4Z" fill="#ffea27"/>
      <path id="Trazado_7263" data-name="Trazado 7263" d="M75.88,115.86h-9.1a2,2,0,0,1,0-4h9.1a2,2,0,0,1,0,4Z" fill="#ffea27"/>
      <path id="Trazado_7264" data-name="Trazado 7264" d="M88.68,115.86a2,2,0,0,1-2-2,1.72,1.72,0,0,1,0-.39,2.38,2.38,0,0,1,.11-.38,1.631,1.631,0,0,1,.19-.34,1.79,1.79,0,0,1,.25-.31,2.07,2.07,0,0,1,2.82,0,2,2,0,0,1-1.41,3.42Z" fill="#ffea27"/>
      <g id="Grupo_8586" data-name="Grupo 8586" style="mix-blend-mode: multiply;isolation: isolate">
        <path id="Trazado_7265" data-name="Trazado 7265" d="M43.24,115.86H25a2,2,0,0,1,0-4H43.2a2,2,0,1,1,0,4Z" fill="#f4d314"/>
      </g>
      <path id="Trazado_7266" data-name="Trazado 7266" d="M70.42,103.64H25a2,2,0,1,1,0-4H70.42a2,2,0,0,1,0,4Z" fill="#ffea27"/>
      <g id="Grupo_8587" data-name="Grupo 8587" style="mix-blend-mode: multiply;isolation: isolate">
        <path id="Trazado_7267" data-name="Trazado 7267" d="M25,103.63a2,2,0,0,1-2-2,1.72,1.72,0,0,1,0-.39,1.58,1.58,0,0,1,.11-.37,2.31,2.31,0,0,1,.18-.35,2.48,2.48,0,0,1,.25-.3,1.89,1.89,0,0,1,.31-.25,1.83,1.83,0,0,1,.34-.18,2.4,2.4,0,0,1,.38-.12,2,2,0,0,1,.78,0,2.649,2.649,0,0,1,.37.12,2.309,2.309,0,0,1,.35.18,2.341,2.341,0,0,1,.3.25,2,2,0,0,1,.59,1.41,2.08,2.08,0,0,1-.59,1.42A2,2,0,0,1,25,103.63Z" fill="#f4d314"/>
      </g>
      <g id="Grupo_8588" data-name="Grupo 8588" style="mix-blend-mode: multiply;isolation: isolate">
        <path id="Trazado_7268" data-name="Trazado 7268" d="M88.68,103.64H62.92a2,2,0,1,1,0-4H88.68a2,2,0,0,1,0,4Z" fill="#f4d314"/>
      </g>
      <path id="Trazado_7269" data-name="Trazado 7269" d="M60,56.05a2,2,0,0,1-2-2V44.34a2,2,0,0,1,4,0v9.71A2,2,0,0,1,60,56.05Z" fill="#95a6b1"/>
      <path id="Trazado_7270" data-name="Trazado 7270" d="M60,58.81a2,2,0,0,1-1.41-.58l-4-4a2,2,0,0,1,2.83-2.82L60,54l2.56-2.55a2,2,0,0,1,2.83,2.82l-4,4A2,2,0,0,1,60,58.81Z" fill="#95a6b1"/>
      <path id="Trazado_7271" data-name="Trazado 7271" d="M29.45,81H26.22a2,2,0,0,1,0-4h3.23a2,2,0,0,1,0,4Z" fill="#95a6b1"/>
      <path id="Trazado_7272" data-name="Trazado 7272" d="M93.93,81.48H90.7a2,2,0,0,1,0-4h3.23a2,2,0,0,1,0,4Z" fill="#95a6b1"/>
      <path id="Trazado_7273" data-name="Trazado 7273" d="M93.92,86.05H26.07a2,2,0,0,1-2-2V62.74a2,2,0,0,1,2-2H93.92a2,2,0,0,1,2,2V84.05A2,2,0,0,1,93.92,86.05Zm-65.85-4H91.92V64.74H28.07Z" fill="#95a6b1"/>
      <path id="Trazado_7274" data-name="Trazado 7274" d="M26.07,88.06H16.25a2,2,0,0,1-2-2V60.74a2,2,0,0,1,2-2h9.82a2,2,0,0,1,2,2V86.06A2,2,0,0,1,26.07,88.06Zm-7.82-4h5.82V62.74H18.25Z" fill="#95a6b1"/>
      <path id="Trazado_7275" data-name="Trazado 7275" d="M29.41,75.4H26.22a2,2,0,0,1,0-4h3.19a2,2,0,0,1,0,4Z" fill="#95a6b1"/>
      <path id="Trazado_7276" data-name="Trazado 7276" d="M29.45,69.81H26.22a2,2,0,0,1,0-4h3.23a2,2,0,0,1,0,4Z" fill="#95a6b1"/>
      <path id="Trazado_7277" data-name="Trazado 7277" d="M103.75,88.06H93.93a2,2,0,0,1-2-2V60.74a2,2,0,0,1,2-2h9.82a2,2,0,0,1,2,2V86.06A2,2,0,0,1,103.75,88.06Zm-7.82-4h5.82V62.74H95.93Z" fill="#95a6b1"/>
      <path id="Trazado_7278" data-name="Trazado 7278" d="M93.93,75.4H90.64a2,2,0,0,1,0-4h3.29a2,2,0,0,1,0,4Z" fill="#95a6b1"/>
      <path id="Trazado_7279" data-name="Trazado 7279" d="M93.93,69.3H90.7a2,2,0,0,1,0-4h3.23a2,2,0,0,1,0,4Z" fill="#95a6b1"/>
      <path id="Trazado_7280" data-name="Trazado 7280" d="M64.28,86.05a2,2,0,0,1-2-2V74.47a2,2,0,0,1,4,0v9.58A2,2,0,0,1,64.28,86.05Z" fill="#95a6b1"/>
      <path id="Trazado_7281" data-name="Trazado 7281" d="M64.28,69.3a2,2,0,0,1-2-2V62.74a2,2,0,0,1,4,0V67.3A2,2,0,0,1,64.28,69.3Z" fill="#95a6b1"/>
      <path id="Trazado_7282" data-name="Trazado 7282" d="M44.57,26.53a9.579,9.579,0,1,1,3.95-.88,9.5,9.5,0,0,1-3.95.88Zm0-15a5.42,5.42,0,0,0-2.29.51,5.5,5.5,0,1,0,7.29,2.71h0a5.46,5.46,0,0,0-3.08-2.87,5.57,5.57,0,0,0-1.92-.36Z" fill="#ffea27"/>
      <path id="Trazado_7283" data-name="Trazado 7283" d="M60,46.34A20.35,20.35,0,0,1,40.12,30.16a2,2,0,0,1,3.92-.8A16.27,16.27,0,1,0,55.18,10.49,2,2,0,0,1,54,6.67a20.29,20.29,0,1,1,6,39.67Z" fill="#95a6b1"/>
      <path id="Trazado_7284" data-name="Trazado 7284" d="M60,28.06a2,2,0,0,1-1.41-3.42l6.36-6.36a2,2,0,0,1,2.83,2.82l-6.36,6.37a2,2,0,0,1-1.42.59Z" fill="#95a6b1"/>
      <path id="Trazado_7285" data-name="Trazado 7285" d="M60,13.28a2,2,0,0,1-2-2V7.77a2,2,0,1,1,4,0v3.51A2,2,0,0,1,60,13.28Z" fill="#95a6b1"/>
      <path id="Trazado_7286" data-name="Trazado 7286" d="M60,46.34a2,2,0,0,1-2-2V40.83a2,2,0,0,1,4,0v3.51A2,2,0,0,1,60,46.34Z" fill="#95a6b1"/>
      <path id="Trazado_7287" data-name="Trazado 7287" d="M78.29,28.06H74.77a2,2,0,0,1,0-4h3.52a2,2,0,0,1,0,4Z" fill="#95a6b1"/>
      <path id="Trazado_7288" data-name="Trazado 7288" d="M70.45,17.61A2,2,0,0,1,69,14.19l2.49-2.48a2,2,0,1,1,2.82,2.83L71.86,17A2,2,0,0,1,70.45,17.61Z" fill="#95a6b1"/>
      <path id="Trazado_7289" data-name="Trazado 7289" d="M47.07,41a2,2,0,0,1-1.41-3.42l2.48-2.48A2.008,2.008,0,0,1,51,37.92L48.48,40.4A2,2,0,0,1,47.07,41Z" fill="#95a6b1"/>
      <path id="Trazado_7290" data-name="Trazado 7290" d="M72.93,41a2,2,0,0,1-1.41-.59L69,37.92a2,2,0,0,1,2.83-2.83l2.48,2.48A2,2,0,0,1,72.93,41Z" fill="#95a6b1"/>
    </g>
  </g>
</svg>
