<?xml version="1.0" encoding="utf-8"?>
<!-- Generator: Adobe Illustrator 24.0.2, SVG Export Plug-In . SVG Version: 6.00 Build 0)  -->
<svg version="1.1" id="Capa_1" xmlns="http://www.w3.org/2000/svg" xmlns:xlink="http://www.w3.org/1999/xlink" x="0px" y="0px"
	 viewBox="0 0 120 120" style="enable-background:new 0 0 120 120;" xml:space="preserve">
<style type="text/css">
	.st0{fill:none;}
	.st1{fill:#FFEA27;}
	.st2{fill:#F4D314;}
	.st3{fill:#95A6B1;}
</style>
<g>
	<rect class="st0" width="120" height="120"/>
</g>
<g>
	<g>
		<g>
			<path class="st1" d="M57.09,115.06H38.88c-1.1,0-2-0.9-2-2s0.9-2,2-2h18.21c1.1,0,2,0.9,2,2S58.19,115.06,57.09,115.06z"/>
		</g>
		<g>
			<path class="st1" d="M79.02,115.06h-9.1c-1.1,0-2-0.9-2-2s0.9-2,2-2h9.1c1.1,0,2,0.9,2,2S80.12,115.06,79.02,115.06z"/>
		</g>
		<g>
			<path class="st1" d="M91.82,115.06c-0.27,0-0.52-0.05-0.77-0.15c-0.24-0.1-0.46-0.25-0.64-0.44c-0.38-0.38-0.59-0.88-0.59-1.41
				c0-0.53,0.21-1.04,0.59-1.41c0.46-0.47,1.15-0.68,1.8-0.55c0.13,0.02,0.25,0.06,0.37,0.11s0.24,0.11,0.35,0.19
				c0.11,0.07,0.21,0.15,0.3,0.25c0.1,0.09,0.18,0.19,0.25,0.3c0.08,0.11,0.14,0.22,0.19,0.34s0.08,0.25,0.11,0.38
				c0.03,0.13,0.04,0.26,0.04,0.39c0,0.54-0.21,1.04-0.59,1.41C92.86,114.85,92.35,115.06,91.82,115.06z"/>
		</g>
		<g>
			<path class="st2" d="M46.38,115.06h-18.2c-1.1,0-2-0.9-2-2s0.9-2,2-2h18.2c1.1,0,2,0.9,2,2S47.48,115.06,46.38,115.06z"/>
		</g>
	</g>
	<g>
		<g>
			<path class="st1" d="M73.56,102.83H28.18c-1.1,0-2-0.9-2-2s0.9-2,2-2h45.38c1.1,0,2,0.9,2,2S74.66,102.83,73.56,102.83z"/>
		</g>
		<g>
			<path class="st2" d="M28.18,102.83c-0.27,0-0.52-0.05-0.77-0.15c-0.24-0.1-0.46-0.25-0.65-0.44c-0.37-0.37-0.58-0.88-0.58-1.41
				c0-0.53,0.21-1.04,0.58-1.41c0.1-0.1,0.2-0.18,0.31-0.25s0.22-0.14,0.35-0.19c0.12-0.05,0.24-0.09,0.37-0.11
				c0.65-0.13,1.34,0.08,1.8,0.55c0.38,0.37,0.59,0.88,0.59,1.41c0,0.54-0.21,1.04-0.59,1.41
				C29.22,102.62,28.71,102.83,28.18,102.83z"/>
		</g>
		<g>
			<path class="st2" d="M91.82,102.83H66.06c-1.1,0-2-0.9-2-2s0.9-2,2-2h25.76c1.1,0,2,0.9,2,2S92.92,102.83,91.82,102.83z"/>
		</g>
	</g>
</g>
<g>
	<g>
		<g>
			<path class="st3" d="M56.05,59.12H32.89c-1.1,0-2-0.9-2-2s0.9-2,2-2h23.16c1.1,0,2,0.9,2,2S57.15,59.12,56.05,59.12z"/>
		</g>
		<g>
			<path class="st3" d="M27.74,72.04c-0.65,0-1.28-0.31-1.67-0.89c-0.96-1.43-1.47-3.22-1.53-5.3c-0.06-2.43,0.12-4.98,1.85-7.12
				c0.69-0.86,1.95-0.99,2.81-0.3c0.86,0.69,1,1.95,0.3,2.81c-0.87,1.08-1.01,2.58-0.97,4.51c0.04,1.32,0.32,2.39,0.85,3.19
				c0.61,0.92,0.36,2.16-0.55,2.77C28.51,71.93,28.12,72.04,27.74,72.04z"/>
		</g>
		<g>
			<path class="st3" d="M63.57,86.44H32.81c-1.1,0-2-0.9-2-2s0.9-2,2-2h28.76v-7.88H35.5c-0.06,0.01-0.7,0.01-2.66-0.16
				c-1.1-0.09-1.92-1.06-1.82-2.16c0.09-1.1,1.08-1.91,2.16-1.82c1.74,0.15,2.25,0.15,2.27,0.14l28.12,0c1.1,0,2,0.9,2,2v11.88
				C65.57,85.54,64.67,86.44,63.57,86.44z"/>
		</g>
		<g>
			<path class="st3" d="M23.08,86c-0.16,0-0.32-0.02-0.48-0.06c-3.22-0.8-7.04-4.85-7.46-5.31c-0.04-0.04-0.07-0.08-0.1-0.12
				c-4.38-5.55-4.77-12.73-4.79-13.03c0-0.12-0.1-2.57,0-5.76c0.18-5.82,2.07-10.63,5.32-13.54c0.46-0.45,3.37-3.18,7.83-4.29
				c1.04-0.26,2.1,0.35,2.41,1.38l3.91,13.37c0.31,1.06-0.3,2.17-1.36,2.48c-1.06,0.31-2.17-0.3-2.48-1.36l-3.33-11.38
				c-2.57,1.07-4.16,2.65-4.17,2.67c-0.03,0.03-0.07,0.07-0.1,0.09c-2.45,2.17-3.87,5.98-4.02,10.72c-0.1,3.04,0,5.43,0,5.46
				c0,0.04,0.36,6.15,3.88,10.67c0.96,1.02,2.46,2.38,3.78,3.26l3.94-11.81c0.35-1.05,1.48-1.61,2.53-1.26
				c1.05,0.35,1.61,1.48,1.26,2.53l-4.66,13.95C24.7,85.47,23.92,86,23.08,86z"/>
		</g>
		<g>
			<path class="st3" d="M33.58,46.51c-1.04,0-1.92-0.81-1.99-1.86c-0.08-1.1,0.76-2.06,1.86-2.13c0.66-0.05,1.17-0.08,1.58-0.06v0
				l21.02-0.01c0,0,0,0,0,0c1.1,0,2,0.89,2,2s-0.89,2-2,2l-21.02,0.01c-0.06,0-0.12,0-0.18-0.01c-0.15,0-0.47,0.02-1.13,0.06
				C33.67,46.51,33.62,46.51,33.58,46.51z"/>
		</g>
		<g>
			<path class="st3" d="M32.81,86.21c-1.1,0-2-0.9-2-2V72.47c0-1.1,0.9-2,2-2s2,0.9,2,2v11.74C34.81,85.31,33.91,86.21,32.81,86.21z
				"/>
		</g>
		<g>
			<path class="st3" d="M32.81,58.95c-1.1,0-2-0.9-2-2V44.51c0-1.1,0.9-2,2-2s2,0.9,2,2v12.44C34.81,58.05,33.91,58.95,32.81,58.95z
				"/>
		</g>
		<g>
			<path class="st3" d="M56.04,58.38c-1.1,0-2-0.9-2-2V44.51c0-1.1,0.9-2,2-2s2,0.9,2,2v11.87C58.04,57.48,57.14,58.38,56.04,58.38z
				"/>
		</g>
		<g>
			<path class="st3" d="M63.43,58.38c-1.1,0-2-0.9-2-2V44.51c0-1.1,0.9-2,2-2s2,0.9,2,2v11.87C65.43,57.48,64.53,58.38,63.43,58.38z
				"/>
		</g>
		<g>
			<path class="st3" d="M70.74,90.37H63.7c-1.1,0-2-0.9-2-2v-20.4c0-1.1,0.9-2,2-2h7.04c1.1,0,2,0.9,2,2v20.4
				C72.74,89.47,71.84,90.37,70.74,90.37z M65.7,86.37h3.04v-16.4H65.7V86.37z"/>
		</g>
		<g>
			<path class="st3" d="M31.86,77.17c-0.24,0-0.48-0.04-0.71-0.13l-4.73-1.81c-1.03-0.39-1.55-1.55-1.15-2.58
				c0.39-1.03,1.55-1.55,2.58-1.15l4.73,1.81c1.03,0.39,1.55,1.55,1.15,2.58C33.42,76.68,32.66,77.17,31.86,77.17z"/>
		</g>
		<g>
			<path class="st3" d="M32.58,83.79c-0.21,0-0.43-0.04-0.64-0.11l-7.65-2.6c-1.05-0.36-1.61-1.49-1.25-2.54
				c0.36-1.04,1.49-1.6,2.54-1.25l7.65,2.6c1.05,0.36,1.61,1.49,1.25,2.54C34.19,83.27,33.41,83.79,32.58,83.79z"/>
		</g>
		<g>
			<path class="st3" d="M27.13,57.25c-0.79,0-1.54-0.47-1.85-1.25c-0.42-1.02,0.08-2.19,1.1-2.61l4.89-1.99
				c1.02-0.42,2.19,0.07,2.61,1.1c0.42,1.02-0.08,2.19-1.1,2.61l-4.89,1.99C27.64,57.2,27.38,57.25,27.13,57.25z"/>
		</g>
		<g>
			<path class="st3" d="M24.89,51.36c-0.81,0-1.57-0.49-1.87-1.29c-0.39-1.03,0.13-2.19,1.17-2.58l7.32-2.76
				c1.03-0.39,2.19,0.13,2.58,1.17s-0.13,2.19-1.17,2.58l-7.32,2.76C25.36,51.32,25.12,51.36,24.89,51.36z"/>
		</g>
		<g>
			<path class="st3" d="M62.7,55.68h-6.69c-1.1,0-2-0.9-2-2s0.9-2,2-2h6.69c1.1,0,2,0.9,2,2S63.8,55.68,62.7,55.68z"/>
		</g>
		<g>
			<path class="st3" d="M62.7,49.89h-6.69c-1.1,0-2-0.9-2-2s0.9-2,2-2h6.69c1.1,0,2,0.9,2,2S63.8,49.89,62.7,49.89z"/>
		</g>
		<g>
			<g>
				<path class="st3" d="M87.11,46.54H63.95c-1.1,0-2-0.9-2-2s0.9-2,2-2h23.16c1.1,0,2,0.9,2,2S88.21,46.54,87.11,46.54z"/>
			</g>
			<g>
				<path class="st3" d="M91.88,43.72c-0.44,0-0.89-0.15-1.26-0.45c-0.86-0.7-0.99-1.96-0.29-2.81c0.82-1.01,1.17-2.45,1.12-4.55
					c-0.04-1.32-0.32-2.39-0.86-3.19c-0.61-0.92-0.37-2.16,0.55-2.77c0.92-0.61,2.16-0.37,2.77,0.55c0.96,1.43,1.47,3.22,1.53,5.31
					c0.08,3.07-0.58,5.41-2.02,7.17C93.04,43.47,92.46,43.72,91.88,43.72z"/>
			</g>
			<g>
				<path class="st3" d="M86.99,31.25c-0.06,0-0.11,0-0.17-0.01c-1.73-0.15-2.25-0.14-2.27-0.14l-28.13,0c-1.1,0-2-0.9-2-2
					s0.9-2,2-2H84.5c0.06,0,0.7-0.01,2.66,0.16c1.1,0.09,1.92,1.06,1.82,2.16C88.89,30.46,88.02,31.25,86.99,31.25z"/>
			</g>
			<g>
				<path class="st3" d="M87.19,19.21H62.43c-1.1,0-2-0.9-2-2s0.9-2,2-2h24.76c1.1,0,2,0.9,2,2S88.29,19.21,87.19,19.21z"/>
			</g>
			<g>
				<path class="st3" d="M96.13,57.83c-0.87,0-1.66-0.57-1.92-1.44L90.3,43.02c-0.31-1.06,0.3-2.17,1.36-2.48
					c1.06-0.31,2.17,0.3,2.48,1.36l3.33,11.38c2.57-1.07,4.16-2.65,4.17-2.67c0.03-0.03,0.07-0.07,0.1-0.09
					c2.45-2.17,3.87-5.98,4.02-10.72c0.1-3.03,0-5.43,0-5.46c0-0.04-0.36-6.15-3.88-10.67c-0.96-1.02-2.46-2.38-3.78-3.26
					l-3.95,11.82c-0.35,1.05-1.48,1.61-2.53,1.26c-1.05-0.35-1.61-1.48-1.26-2.53l4.66-13.96c0.33-0.99,1.37-1.56,2.38-1.31
					c3.22,0.8,7.04,4.85,7.46,5.31c0.04,0.04,0.07,0.08,0.1,0.12c4.38,5.55,4.77,12.73,4.79,13.03c0,0.12,0.1,2.57,0,5.76
					c-0.18,5.82-2.07,10.63-5.32,13.54c-0.46,0.45-3.37,3.18-7.83,4.29C96.45,57.81,96.29,57.83,96.13,57.83z"/>
			</g>
			<g>
				<path class="st3" d="M63.96,59.22c-1.1,0-2-0.89-2-2s0.89-2,2-2l21.02-0.01h0c0.06,0,0.12,0,0.18,0.01
					c0.15,0,0.47-0.02,1.13-0.06c1.12-0.08,2.06,0.76,2.13,1.86c0.08,1.1-0.76,2.06-1.86,2.13c-0.66,0.05-1.16,0.08-1.58,0.06v0
					L63.96,59.22L63.96,59.22z"/>
			</g>
			<g>
				<path class="st3" d="M87.19,31.19c-1.1,0-2-0.9-2-2V17.45c0-1.1,0.9-2,2-2s2,0.9,2,2v11.74C89.19,30.29,88.29,31.19,87.19,31.19
					z"/>
			</g>
			<g>
				<path class="st3" d="M87.19,59.14c-1.1,0-2-0.9-2-2V44.7c0-1.1,0.9-2,2-2s2,0.9,2,2v12.44C89.19,58.24,88.29,59.14,87.19,59.14z
					"/>
			</g>
			<g>
				<path class="st3" d="M63.96,59.14c-1.1,0-2-0.9-2-2V45.27c0-1.1,0.9-2,2-2s2,0.9,2,2v11.87C65.96,58.24,65.06,59.14,63.96,59.14
					z"/>
			</g>
			<g>
				<path class="st3" d="M56.3,35.69h-7.04c-1.1,0-2-0.9-2-2v-4.18c0-1.1,0.9-2,2-2s2,0.9,2,2v2.18h3.04v-4.63c0-1.1,0.9-2,2-2
					s2,0.9,2,2v6.63C58.3,34.79,57.4,35.69,56.3,35.69z"/>
			</g>
			<g>
				<path class="st3" d="M92.87,30.29c-0.24,0-0.48-0.04-0.71-0.13l-4.73-1.81c-1.03-0.4-1.55-1.55-1.15-2.58
					c0.4-1.03,1.55-1.55,2.58-1.15l4.73,1.81c1.03,0.4,1.55,1.55,1.15,2.58C94.43,29.8,93.67,30.29,92.87,30.29z"/>
			</g>
			<g>
				<path class="st3" d="M95.07,24.46c-0.21,0-0.43-0.03-0.64-0.11l-7.65-2.6c-1.05-0.36-1.61-1.49-1.25-2.54
					c0.36-1.05,1.49-1.61,2.54-1.25l7.65,2.6c1.05,0.36,1.61,1.49,1.25,2.54C96.68,23.94,95.9,24.46,95.07,24.46z"/>
			</g>
			<g>
				<path class="st3" d="M87.98,50.39c-0.79,0-1.54-0.47-1.85-1.25c-0.42-1.02,0.08-2.19,1.1-2.61l4.89-1.99
					c1.02-0.42,2.19,0.08,2.61,1.1c0.42,1.02-0.08,2.19-1.1,2.61l-4.89,1.99C88.49,50.34,88.23,50.39,87.98,50.39z"/>
			</g>
			<g>
				<path class="st3" d="M87.79,57.05c-0.81,0-1.57-0.49-1.87-1.29c-0.39-1.03,0.13-2.19,1.17-2.58l7.32-2.76
					c1.03-0.39,2.19,0.13,2.58,1.17c0.39,1.03-0.13,2.19-1.17,2.58l-7.32,2.76C88.26,57.01,88.02,57.05,87.79,57.05z"/>
			</g>
			<g>
				<path class="st3" d="M63.99,49.97H57.3c-1.1,0-2-0.9-2-2s0.9-2,2-2h6.69c1.1,0,2,0.9,2,2S65.09,49.97,63.99,49.97z"/>
			</g>
			<g>
				<path class="st3" d="M63.99,55.76H57.3c-1.1,0-2-0.9-2-2s0.9-2,2-2h6.69c1.1,0,2,0.9,2,2S65.09,55.76,63.99,55.76z"/>
			</g>
		</g>
	</g>
	<g>
		<path class="st3" d="M26.38,65.26c-0.32,0-0.65-0.08-0.95-0.24l-13.18-7.17c-0.97-0.53-1.33-1.74-0.8-2.71
			c0.53-0.97,1.74-1.33,2.71-0.8l13.18,7.17c0.97,0.53,1.33,1.74,0.8,2.71C27.77,64.88,27.09,65.26,26.38,65.26z"/>
	</g>
	<g>
		<path class="st3" d="M13.2,74.48c-0.71,0-1.39-0.38-1.76-1.04c-0.53-0.97-0.17-2.18,0.8-2.71l13.18-7.2
			c0.97-0.53,2.19-0.17,2.71,0.8s0.17,2.18-0.8,2.71l-13.18,7.2C13.85,74.4,13.53,74.48,13.2,74.48z"/>
	</g>
	<g>
		<path class="st3" d="M43.21,86.19c-1.1,0-2-0.9-2-2V73.14c0-1.1,0.9-2,2-2s2,0.9,2,2v11.05C45.21,85.29,44.31,86.19,43.21,86.19z"
			/>
	</g>
	<g>
		<path class="st3" d="M44.98,57.87c-1.1,0-2-0.9-2-2V44.81c0-1.1,0.9-2,2-2s2,0.9,2,2v11.06C46.98,56.97,46.08,57.87,44.98,57.87z"
			/>
	</g>
	<g>
		<path class="st3" d="M75.87,57.87c-1.1,0-2-0.9-2-2V44.81c0-1.1,0.9-2,2-2s2,0.9,2,2v11.06C77.87,56.97,76.97,57.87,75.87,57.87z"
			/>
	</g>
	<g>
		<path class="st3" d="M53.97,86.19c-1.1,0-2-0.9-2-2V73.14c0-1.1,0.9-2,2-2s2,0.9,2,2v11.05C55.97,85.29,55.07,86.19,53.97,86.19z"
			/>
	</g>
	<g>
		<path class="st3" d="M67.11,30.66c-1.1,0-2-0.9-2-2V17.61c0-1.1,0.9-2,2-2s2,0.9,2,2v11.05C69.11,29.76,68.21,30.66,67.11,30.66z"
			/>
	</g>
	<g>
		<path class="st3" d="M77.86,30.66c-1.1,0-2-0.9-2-2V17.61c0-1.1,0.9-2,2-2s2,0.9,2,2v11.05C79.86,29.76,78.96,30.66,77.86,30.66z"
			/>
	</g>
	<g>
		<path class="st3" d="M93.55,37.55c-0.7,0-1.39-0.37-1.75-1.03c-0.54-0.97-0.19-2.18,0.78-2.72l12.95-7.18
			c0.97-0.54,2.18-0.19,2.72,0.78c0.54,0.97,0.19,2.18-0.78,2.72L94.52,37.3C94.21,37.47,93.88,37.55,93.55,37.55z"/>
	</g>
	<g>
		<path class="st3" d="M106.5,46.76c-0.33,0-0.66-0.08-0.97-0.25l-12.95-7.19c-0.97-0.54-1.31-1.75-0.78-2.72
			c0.54-0.97,1.75-1.31,2.72-0.78l12.95,7.19c0.97,0.54,1.31,1.75,0.78,2.72C107.88,46.39,107.2,46.76,106.5,46.76z"/>
	</g>
</g>
<g>
	<path class="st1" d="M48.9,25.81c-3.61,0-7.06-2.06-8.65-5.54c-2.17-4.77-0.07-10.41,4.69-12.59C49.7,5.5,55.34,7.6,57.52,12.36
		c1,2.18,1.13,4.64,0.38,6.93c-0.82,2.49-2.67,4.55-5.06,5.66C51.56,25.53,50.22,25.81,48.9,25.81z M48.87,10.81
		c-0.76,0-1.54,0.16-2.28,0.5c-2.75,1.26-3.97,4.53-2.71,7.29c1.26,2.75,4.53,3.97,7.29,2.71c1.38-0.64,2.46-1.83,2.93-3.28
		c0.44-1.33,0.36-2.75-0.22-4.01c0,0,0,0,0,0C52.96,12.01,50.96,10.81,48.87,10.81z"/>
</g>
</svg>
