<svg id="Grupo_8686" data-name="Grupo 8686" xmlns="http://www.w3.org/2000/svg" width="120" height="120" viewBox="0 0 120 120">
  <g id="Capa_1" data-name="Capa 1">
    <rect id="Rectángulo_2956" data-name="Rectángulo 2956" width="120" height="120" fill="none"/>
    <path id="Trazado_7587" data-name="Trazado 7587" d="M57.09,115.86H38.88a2,2,0,1,1,0-4H57.09a2,2,0,1,1,0,4Z" fill="#ffea27"/>
    <path id="Trazado_7588" data-name="Trazado 7588" d="M79,115.86H69.9a2,2,0,0,1,0-4H79a2,2,0,0,1,0,4Z" fill="#ffea27"/>
    <path id="Trazado_7589" data-name="Trazado 7589" d="M91.82,115.86a2,2,0,0,1-1.41-.59,1.874,1.874,0,0,1-.44-.64,2,2,0,0,1,.44-2.18,2.061,2.061,0,0,1,2.83,0,2,2,0,0,1,0,2.82,2.481,2.481,0,0,1-.31.26,2.211,2.211,0,0,1-.34.18A2.183,2.183,0,0,1,91.82,115.86Z" fill="#ffea27"/>
    <g id="Grupo_8683" data-name="Grupo 8683">
      <path id="Trazado_7590" data-name="Trazado 7590" d="M46.38,115.86H28.18a2,2,0,0,1,0-4h18.2a2,2,0,0,1,0,4Z" fill="#f4d314"/>
    </g>
    <path id="Trazado_7591" data-name="Trazado 7591" d="M73.56,103.64H28.18a2,2,0,0,1,0-4H73.56a2,2,0,0,1,0,4Z" fill="#ffea27"/>
    <g id="Grupo_8684" data-name="Grupo 8684">
      <path id="Trazado_7592" data-name="Trazado 7592" d="M28.18,103.64a2,2,0,0,1-1.42-.59,2.159,2.159,0,0,1-.43-.65,2.019,2.019,0,0,1,.43-2.18l.31-.25a2.211,2.211,0,0,1,.34-.18,2.4,2.4,0,0,1,.38-.12,2.008,2.008,0,0,1,.78,0,2.427,2.427,0,0,1,.72.3,2.469,2.469,0,0,1,.3.25,2.313,2.313,0,0,1,.25.3,1.655,1.655,0,0,1,.18.35,1.263,1.263,0,0,1,.12.77,2.016,2.016,0,0,1-1.96,2Z" fill="#f4d314"/>
    </g>
    <g id="Grupo_8685" data-name="Grupo 8685">
      <path id="Trazado_7593" data-name="Trazado 7593" d="M91.82,103.64H66.06a2,2,0,1,1,0-4H91.82a2,2,0,0,1,0,4Z" fill="#f4d314"/>
    </g>
    <path id="Trazado_7594" data-name="Trazado 7594" d="M26,48.19a9.525,9.525,0,0,1-3.32-.6,9.518,9.518,0,1,1,11.95-12.9h0a9.5,9.5,0,0,1-4.6,12.624L30,47.33A9.392,9.392,0,0,1,26,48.19Zm0-15a5.511,5.511,0,1,0,1.92.35A5.5,5.5,0,0,0,26,33.19Z" fill="#ffea27"/>
    <path id="Trazado_7595" data-name="Trazado 7595" d="M94,91.14H26a2,2,0,0,1-2-2V52.8a2,2,0,0,1,2-2h0a2,2,0,0,1,2,2V87.21H92v-79H28V24.4a2,2,0,1,1-3.93,0V6.29a1.95,1.95,0,0,1,1.9-2H94a2,2,0,0,1,2,2V89.18a1.921,1.921,0,0,1-.57,1.38A2,2,0,0,1,94,91.14Z" fill="#fff"/>
    <path id="Trazado_7596" data-name="Trazado 7596" d="M85.05,81.24H36a2,2,0,0,1,0-3.93H85a2,2,0,0,1,0,3.93Z" fill="#fff"/>
    <path id="Trazado_7597" data-name="Trazado 7597" d="M85.05,70.55h-17a2,2,0,0,1-2-2v-21a2,2,0,0,1,2-2h17a2,2,0,0,1,2,2v21A2,2,0,0,1,85.05,70.55Zm-15-3.93h13V49.53h-13Z" fill="#fff"/>
    <path id="Trazado_7598" data-name="Trazado 7598" d="M57.92,53.82H36a2,2,0,0,1,0-3.93H57.9a2,2,0,1,1,0,3.93Z" fill="#fff"/>
    <path id="Trazado_7599" data-name="Trazado 7599" d="M57.92,68.19H36a2,2,0,0,1,0-3.93H57.9a2,2,0,1,1,0,3.93Z" fill="#fff"/>
    <path id="Trazado_7600" data-name="Trazado 7600" d="M44.91,19.59v7.78L45,28v.63c0,.47.05.95.07,1.43H45L39.5,19.58H35.75v14H38.4V25.77a7.974,7.974,0,0,0-.07-1.31c-.07-.42-.05-1-.09-1.46h.09l5.5,10.59h3.76v-14Z" fill="#fff"/>
    <path id="Trazado_7601" data-name="Trazado 7601" d="M58.32,22.02V19.59H50.26v14h8.06V31.14H53.23V27.53h4.74V25.09H53.23V22.02Z" fill="#fff"/>
    <path id="Trazado_7602" data-name="Trazado 7602" d="M74.74,19.59l-1.59,7.64c0,.1-.05.25-.08.45s-.08.41-.12.65-.09.5-.14.77-.1.53-.14.78-.08.5-.12.72-.06.4-.08.54a1.464,1.464,0,0,0-.08-.54,3.824,3.824,0,0,1-.12-.69c-.04-.24-.08-.5-.13-.76s-.08-.51-.13-.74-.08-.42-.11-.6-.06-.3-.08-.38l-1.95-7.84h-2.6l-2,7.84a.841.841,0,0,1-.08.38,2.669,2.669,0,0,0-.11.6c-.04.22-.08.47-.13.74s-.09.51-.13.76-.07.47-.11.69-.06.4-.08.54a1.464,1.464,0,0,0-.08-.54,4.872,4.872,0,0,1-.13-.72c-.05-.26-.09-.51-.14-.78s-.09-.53-.14-.77-.08-.46-.12-.65-.06-.35-.08-.45L62.4,19.59H59.48l3.37,14h3.38l1.71-6.89c0-.1.06-.24.09-.42s.08-.37.12-.59.09-.45.13-.68.08-.47.12-.69.07-.42.1-.61a1.686,1.686,0,0,1,.06-.45,1.385,1.385,0,0,0,.06.45,3.826,3.826,0,0,1,.1.62c.03.22.08.45.13.69s.09.46.13.68.09.41.12.58.07.31.09.41l1.73,6.9h3.37l3.37-14Z" fill="#fff"/>
    <path id="Trazado_7603" data-name="Trazado 7603" d="M86.85,28.27a3.519,3.519,0,0,0-.67-1.1,5.3,5.3,0,0,0-1-.88,13.568,13.568,0,0,0-1.32-.78c-.4-.21-.74-.4-1-.57a3.648,3.648,0,0,1-.68-.49,1.511,1.511,0,0,1-.39-.51,1.53,1.53,0,0,1-.12-.63,1.423,1.423,0,0,1,.4-1,1.549,1.549,0,0,1,1.15-.4,5.148,5.148,0,0,1,.68.05,5.611,5.611,0,0,1,.69.16c.24.07.48.16.73.26l.81.35,1-2.31a9.629,9.629,0,0,0-1-.42,9.419,9.419,0,0,0-1-.3,8.306,8.306,0,0,0-1-.2,7.964,7.964,0,0,0-1-.06,5.885,5.885,0,0,0-1.84.27,3.647,3.647,0,0,0-1.39.78,3.516,3.516,0,0,0-.9,1.2,4.489,4.489,0,0,0-.31,1.68A3.718,3.718,0,0,0,79.05,25a3.818,3.818,0,0,0,.81,1.17,5.264,5.264,0,0,0,1,.81c.36.22.69.4,1,.56s.67.36.95.52a4.4,4.4,0,0,1,.73.52,1.994,1.994,0,0,1,.47.56,1.424,1.424,0,0,1,.17.7,1.649,1.649,0,0,1-.1.59,1.1,1.1,0,0,1-.32.47,1.437,1.437,0,0,1-.56.31,2.873,2.873,0,0,1-.84.11,4.484,4.484,0,0,1-1-.1,8.6,8.6,0,0,1-1-.25c-.32-.11-.64-.24-1-.37l-.93-.43v2.76a7.164,7.164,0,0,0,1.75.63,9.03,9.03,0,0,0,2,.21,6.453,6.453,0,0,0,2-.29,4.141,4.141,0,0,0,1.51-.82,3.4,3.4,0,0,0,.94-1.28,4.312,4.312,0,0,0,.32-1.69A3.862,3.862,0,0,0,86.85,28.27Z" fill="#fff"/>
  </g>
</svg>
