<?xml version="1.0" encoding="utf-8"?>
<!-- Generator: Adobe Illustrator 24.0.2, SVG Export Plug-In . SVG Version: 6.00 Build 0)  -->
<svg version="1.1" id="Capa_1" xmlns="http://www.w3.org/2000/svg" xmlns:xlink="http://www.w3.org/1999/xlink" x="0px" y="0px"
	 viewBox="0 0 120 120" style="enable-background:new 0 0 120 120;" xml:space="preserve">
<style type="text/css">
	.st0{fill:none;}
	.st1{fill:#FFEA27;}
	.st2{fill:#F4D314;}
	.st3{fill:#95A6B1;}
</style>
<g>
	<rect class="st0" width="120" height="120"/>
</g>
<g>
	<g>
		<g>
			<path class="st1" d="M57.09,115.06H38.88c-1.1,0-2-0.9-2-2s0.9-2,2-2h18.21c1.1,0,2,0.9,2,2S58.19,115.06,57.09,115.06z"/>
		</g>
		<g>
			<path class="st1" d="M79.02,115.06h-9.1c-1.1,0-2-0.9-2-2s0.9-2,2-2h9.1c1.1,0,2,0.9,2,2S80.12,115.06,79.02,115.06z"/>
		</g>
		<g>
			<path class="st1" d="M91.82,115.06c-0.27,0-0.52-0.05-0.77-0.15c-0.24-0.1-0.46-0.25-0.64-0.44c-0.38-0.38-0.59-0.88-0.59-1.41
				c0-0.53,0.21-1.04,0.59-1.41c0.46-0.47,1.15-0.68,1.8-0.55c0.13,0.02,0.25,0.06,0.37,0.11s0.24,0.11,0.35,0.19
				c0.11,0.07,0.21,0.15,0.3,0.25c0.1,0.09,0.18,0.19,0.25,0.3c0.08,0.11,0.14,0.22,0.19,0.34s0.08,0.25,0.11,0.38
				c0.03,0.13,0.04,0.26,0.04,0.39c0,0.54-0.21,1.04-0.59,1.41C92.86,114.85,92.35,115.06,91.82,115.06z"/>
		</g>
		<g>
			<path class="st2" d="M46.38,115.06h-18.2c-1.1,0-2-0.9-2-2s0.9-2,2-2h18.2c1.1,0,2,0.9,2,2S47.48,115.06,46.38,115.06z"/>
		</g>
	</g>
	<g>
		<g>
			<path class="st1" d="M73.56,102.83H28.18c-1.1,0-2-0.9-2-2s0.9-2,2-2h45.38c1.1,0,2,0.9,2,2S74.66,102.83,73.56,102.83z"/>
		</g>
		<g>
			<path class="st2" d="M28.18,102.83c-0.27,0-0.52-0.05-0.77-0.15c-0.24-0.1-0.46-0.25-0.65-0.44c-0.37-0.37-0.58-0.88-0.58-1.41
				c0-0.53,0.21-1.04,0.58-1.41c0.1-0.1,0.2-0.18,0.31-0.25s0.22-0.14,0.35-0.19c0.12-0.05,0.24-0.09,0.37-0.11
				c0.65-0.13,1.34,0.08,1.8,0.55c0.38,0.37,0.59,0.88,0.59,1.41c0,0.54-0.21,1.04-0.59,1.41
				C29.22,102.62,28.71,102.83,28.18,102.83z"/>
		</g>
		<g>
			<path class="st2" d="M91.82,102.83H66.06c-1.1,0-2-0.9-2-2s0.9-2,2-2h25.76c1.1,0,2,0.9,2,2S92.92,102.83,91.82,102.83z"/>
		</g>
	</g>
</g>
<g>
	<g>
		<g>
			<path class="st1" d="M34.67,25.28c-3.61,0-7.06-2.06-8.65-5.54c-2.18-4.76-0.08-10.41,4.69-12.59
				c4.77-2.17,10.41-0.07,12.59,4.69c1,2.18,1.13,4.64,0.38,6.93c-0.82,2.49-2.67,4.55-5.06,5.66C37.33,25,35.99,25.28,34.67,25.28z
				 M34.64,10.28c-0.76,0-1.54,0.16-2.28,0.5c-2.76,1.26-3.97,4.53-2.71,7.29c1.26,2.76,4.53,3.97,7.29,2.71
				c1.38-0.64,2.46-1.83,2.93-3.28c0.44-1.32,0.36-2.75-0.22-4.01c0,0,0,0,0,0C38.73,11.48,36.73,10.28,34.64,10.28z"/>
		</g>
	</g>
	<g>
		<g>
			<path class="st3" d="M67.87,90.89H47.18c-8.28,0-15.02-6.74-15.02-15.02v-44.6c0-1.1,0.9-2,2-2s2,0.9,2,2v44.6
				c0,6.08,4.94,11.02,11.02,11.02l43.66-0.05V15.66H49.59c-1.1,0-2-0.9-2-2s0.9-2,2-2h43.25c1.1,0,2,0.9,2,2v75.18
				c0,1.1-0.89,2-2,2L67.87,90.89z"/>
		</g>
	</g>
	<g>
		<g>
			<path class="st3" d="M62.9,73.79c-0.01,0-0.02,0-0.04,0c-0.57-0.01-1.12-0.27-1.49-0.71l-2.35-2.77
				c-0.71-0.84-0.61-2.1,0.23-2.82c0.84-0.71,2.11-0.61,2.82,0.23l0.88,1.04l4.11-4.49c0.75-0.82,2.01-0.87,2.83-0.13
				c0.82,0.75,0.87,2.01,0.13,2.83l-5.64,6.17C64,73.55,63.46,73.79,62.9,73.79z"/>
		</g>
		<g>
			<path class="st3" d="M64.7,80.81c-1.46,0-2.93-0.26-4.34-0.79c-3.11-1.16-5.58-3.46-6.96-6.48c-1.38-3.01-1.5-6.39-0.34-9.5
				c1.16-3.11,3.46-5.58,6.48-6.96c6.22-2.84,13.6-0.08,16.45,6.14v0c1.3,2.85,1.48,6.07,0.5,9.06c-1.09,3.27-3.5,5.97-6.62,7.4
				C68.21,80.43,66.45,80.81,64.7,80.81z M64.67,59.96c-1.17,0-2.35,0.24-3.48,0.76c-2.05,0.93-3.61,2.61-4.39,4.72
				c-0.79,2.11-0.7,4.4,0.23,6.44c0.93,2.05,2.61,3.61,4.72,4.39c2.11,0.78,4.4,0.7,6.44-0.23c2.12-0.97,3.76-2.81,4.49-5.02
				c0.66-2.02,0.54-4.21-0.34-6.14l0,0C70.93,61.79,67.86,59.96,64.67,59.96z"/>
		</g>
	</g>
	<g>
		<g>
			<path class="st3" d="M85.29,49.24H42c-1.1,0-2-0.9-2-2V35.87c0-1.1,0.9-2,2-2h43.16c1.1,0,1.99,0.88,2,1.98l0.13,11.37
				c0.01,0.53-0.2,1.05-0.58,1.43C86.34,49.03,85.82,49.24,85.29,49.24z M44,45.24h39.27l-0.08-7.37H44V45.24z"/>
		</g>
		<g>
			<path class="st3" d="M50.43,49.01c-1.1,0-2-0.9-2-2V36.57c0-1.1,0.9-2,2-2s2,0.9,2,2v10.44C52.43,48.11,51.53,49.01,50.43,49.01z
				"/>
		</g>
		<g>
			<path class="st3" d="M64.03,49.01c-1.1,0-2-0.9-2-2V36.57c0-1.1,0.9-2,2-2s2,0.9,2,2v10.44C66.03,48.11,65.13,49.01,64.03,49.01z
				"/>
		</g>
		<g>
			<path class="st3" d="M76.76,49.01c-1.1,0-2-0.9-2-2V36.57c0-1.1,0.9-2,2-2s2,0.9,2,2v10.44C78.76,48.11,77.86,49.01,76.76,49.01z
				"/>
		</g>
	</g>
	<g>
		<path class="st3" d="M92.44,53.86h-7c-1.1,0-2-0.9-2-2v-20.6c0-1.1,0.9-2,2-2h6.47c1.1,0,2,0.9,2,2s-0.9,2-2,2h-4.47v16.6h5
			c1.1,0,2,0.9,2,2S93.54,53.86,92.44,53.86z"/>
	</g>
	<g>
		<path class="st3" d="M41.83,53.86h-7c-1.1,0-2-0.9-2-2s0.9-2,2-2h5v-16.6h-5.47c-1.1,0-2-0.9-2-2s0.9-2,2-2h7.47c1.1,0,2,0.9,2,2
			v20.6C43.83,52.96,42.93,53.86,41.83,53.86z"/>
	</g>
</g>
</svg>
