<?xml version="1.0" encoding="utf-8"?>
<!-- Generator: Adobe Illustrator 24.0.2, SVG Export Plug-In . SVG Version: 6.00 Build 0)  -->
<svg version="1.1" id="Capa_1" xmlns="http://www.w3.org/2000/svg" xmlns:xlink="http://www.w3.org/1999/xlink" x="0px" y="0px"
	 viewBox="0 0 120 120" style="enable-background:new 0 0 120 120;" xml:space="preserve">
<style type="text/css">
	.st0{fill:none;}
	.st1{fill:#FFEA27;}
	.st2{fill:#F4D314;}
	.st3{fill:#95A6B1;}
	.st4{fill:#94A5B0;}
</style>
<g>
	<rect class="st0" width="120" height="120"/>
</g>
<g id="Grupo_8460" transform="translate(-8.72 -31.446)">
	<g id="Grupo_8459">
		<g id="Grupo_8457">
			<g id="Línea_2889">
				<path class="st1" d="M61.12,133.65H42.91c-1.1,0-2-0.9-2-2s0.9-2,2-2h18.21c1.1,0,2,0.9,2,2S62.22,133.65,61.12,133.65z"/>
			</g>
			<g id="Línea_2890">
				<path class="st1" d="M83.05,133.65h-9.1c-1.1,0-2-0.9-2-2s0.9-2,2-2h9.1c1.1,0,2,0.9,2,2S84.15,133.65,83.05,133.65z"/>
			</g>
			<g id="Línea_2891">
				<path class="st1" d="M95.85,133.65c-0.53,0-1.04-0.2-1.41-0.58c-0.38-0.38-0.59-0.88-0.59-1.42c0-0.52,0.21-1.04,0.59-1.41
					c0.09-0.09,0.19-0.18,0.3-0.25c0.11-0.07,0.22-0.13,0.34-0.18c0.12-0.05,0.25-0.09,0.38-0.12c0.26-0.05,0.52-0.05,0.78,0
					c0.13,0.03,0.25,0.07,0.38,0.12c0.12,0.05,0.23,0.11,0.34,0.18c0.11,0.07,0.21,0.16,0.3,0.25c0.38,0.37,0.59,0.89,0.59,1.41
					c0,0.54-0.21,1.04-0.59,1.42C96.89,133.45,96.38,133.65,95.85,133.65z"/>
			</g>
			<g id="Línea_2892">
				<path class="st2" d="M50.41,133.65h-18.2c-1.1,0-2-0.9-2-2s0.9-2,2-2h18.2c1.1,0,2,0.9,2,2S51.51,133.65,50.41,133.65z"/>
			</g>
		</g>
		<g id="Grupo_8458">
			<g id="Línea_2893">
				<path class="st1" d="M77.6,121.42H32.21c-1.1,0-2-0.9-2-2s0.9-2,2-2H77.6c1.1,0,2,0.9,2,2S78.7,121.42,77.6,121.42z"/>
			</g>
			<g id="Línea_2894">
				<path class="st2" d="M32.21,121.42c-0.53,0-1.04-0.2-1.41-0.58c-0.38-0.38-0.59-0.88-0.59-1.42c0-0.13,0.01-0.26,0.04-0.39
					c0.02-0.13,0.06-0.25,0.11-0.37c0.05-0.12,0.12-0.24,0.19-0.35c0.07-0.11,0.15-0.21,0.25-0.3c0.09-0.09,0.19-0.18,0.3-0.25
					c0.11-0.07,0.22-0.13,0.35-0.18c0.12-0.05,0.24-0.09,0.37-0.12c0.26-0.05,0.52-0.05,0.78,0c0.13,0.03,0.25,0.07,0.38,0.12
					c0.12,0.05,0.23,0.11,0.34,0.18c0.11,0.07,0.21,0.16,0.31,0.25c0.09,0.09,0.17,0.19,0.24,0.3c0.08,0.11,0.14,0.23,0.19,0.35
					s0.09,0.24,0.11,0.37c0.03,0.13,0.04,0.26,0.04,0.39c0,0.54-0.21,1.04-0.58,1.42c-0.1,0.09-0.2,0.18-0.31,0.25
					c-0.11,0.07-0.22,0.13-0.34,0.18c-0.12,0.05-0.25,0.09-0.38,0.12C32.48,121.41,32.34,121.42,32.21,121.42z"/>
			</g>
			<g id="Línea_2895">
				<path class="st2" d="M95.85,121.42H70.09c-1.1,0-2-0.9-2-2s0.9-2,2-2h25.76c1.1,0,2,0.9,2,2S96.95,121.42,95.85,121.42z"/>
			</g>
		</g>
	</g>
	<g id="Línea_2896">
		<path class="st3" d="M32.64,94.61H29.4c-1.1,0-2-0.9-2-2s0.9-2,2-2h3.24c1.1,0,2,0.9,2,2S33.74,94.61,32.64,94.61z"/>
	</g>
	<g id="Trazado_7170">
		<path class="st3" d="M97.11,99.7h-4.33c-1.1,0-2-0.9-2-2s0.9-2,2-2h2.33V78.39H31.25V95.7h40.07c1.1,0,2,0.9,2,2s-0.9,2-2,2H29.25
			c-1.1,0-2-0.9-2-2V76.39c0-1.1,0.9-2,2-2h67.86c1.1,0,2,0.9,2,2V97.7C99.11,98.8,98.21,99.7,97.11,99.7z"/>
	</g>
	<g id="Rectángulo_2905">
		<path class="st3" d="M29.26,101.7h-9.82c-1.1,0-2-0.9-2-2V74.38c0-1.1,0.9-2,2-2h9.82c1.1,0,2,0.9,2,2V99.7
			C31.26,100.8,30.36,101.7,29.26,101.7z M21.44,97.7h5.82V76.38h-5.82V97.7z"/>
	</g>
	<g id="Línea_2897">
		<path class="st3" d="M32.6,89.04h-3.2c-1.1,0-2-0.9-2-2s0.9-2,2-2h3.2c1.1,0,2,0.9,2,2S33.7,89.04,32.6,89.04z"/>
	</g>
	<g id="Línea_2898">
		<path class="st3" d="M32.64,83.45H29.4c-1.1,0-2-0.9-2-2s0.9-2,2-2h3.24c1.1,0,2,0.9,2,2S33.74,83.45,32.64,83.45z"/>
	</g>
	<g id="Trazado_7171">
		<path class="st3" d="M97.12,101.7c-1.1,0-2-0.9-2-2V74.38c0-1.1,0.9-2,2-2h9.82c1.1,0,2,0.9,2,2v22.4c0,1.1-0.9,2-2,2s-2-0.9-2-2
			v-20.4h-5.82V99.7C99.12,100.8,98.22,101.7,97.12,101.7z"/>
	</g>
	<g id="Línea_2899">
		<path class="st3" d="M97.12,82.94h-3.23c-1.1,0-2-0.9-2-2s0.9-2,2-2h3.23c1.1,0,2,0.9,2,2S98.22,82.94,97.12,82.94z"/>
	</g>
	<g id="Línea_2900">
		<path class="st3" d="M61.47,99.7c-1.1,0-2-0.9-2-2v-9.58c0-1.1,0.9-2,2-2s2,0.9,2,2v9.58C63.47,98.8,62.57,99.7,61.47,99.7z"/>
	</g>
	<g id="Línea_2901">
		<path class="st3" d="M61.47,82.94c-1.1,0-2-0.9-2-2v-4.55c0-1.1,0.9-2,2-2s2,0.9,2,2v4.55C63.47,82.04,62.57,82.94,61.47,82.94z"
			/>
	</g>
	<g id="Trazado_7172">
		<path class="st1" d="M44.06,69.57c-1.12,0-2.24-0.2-3.32-0.6c-2.38-0.88-4.27-2.64-5.32-4.95c-1.05-2.31-1.15-4.89-0.26-7.27
			c0.88-2.38,2.64-4.27,4.95-5.32c0.04-0.02,0.08-0.03,0.12-0.05c2.26-1.01,4.79-1.09,7.12-0.24c2.37,0.87,4.27,2.62,5.33,4.92
			c0.02,0.03,0.03,0.07,0.04,0.1c1.03,2.3,1.12,4.86,0.24,7.22c-0.88,2.38-2.64,4.27-4.95,5.32C46.75,69.28,45.41,69.57,44.06,69.57
			z M41.68,55.11c-1.29,0.62-2.27,1.69-2.77,3.03c-0.51,1.38-0.46,2.87,0.15,4.21c1.26,2.75,4.53,3.97,7.29,2.71
			c1.34-0.61,2.35-1.7,2.86-3.08c0.51-1.38,0.46-2.87-0.15-4.21c-0.01-0.03-0.02-0.06-0.04-0.08c-0.64-1.33-1.72-2.31-3.06-2.8
			c-1.37-0.5-2.85-0.44-4.18,0.17C41.75,55.08,41.72,55.1,41.68,55.11z M52.88,56.95L52.88,56.95L52.88,56.95z"/>
	</g>
	<g id="Trazado_7173">
		<path class="st3" d="M78.51,78.39H49.47c-1.1,0-2-0.9-2-2v-3.72c0-1.1,0.9-2,2-2s2,0.9,2,2v1.72h25.04V62.78h-18.7
			c-1.1,0-2-0.9-2-2s0.9-2,2-2h20.7c1.1,0,2,0.9,2,2v15.61C80.51,77.49,79.61,78.39,78.51,78.39z"/>
	</g>
	<g id="Línea_2902">
		<path class="st3" d="M63.99,62.78c-1.1,0-2-0.9-2-2v-9.53c0-1.1,0.9-2,2-2s2,0.9,2,2v9.53C65.99,61.88,65.09,62.78,63.99,62.78z"
			/>
	</g>
	<g id="Línea_2903">
		<path class="st3" d="M70.66,53.25H57.81c-1.1,0-2-0.9-2-2s0.9-2,2-2h12.85c1.1,0,2,0.9,2,2S71.76,53.25,70.66,53.25z"/>
	</g>
	<g id="Línea_2904">
		<path class="st3" d="M78.51,70.58h-20.8c-1.1,0-2-0.9-2-2s0.9-2,2-2h20.8c1.1,0,2,0.9,2,2S79.61,70.58,78.51,70.58z"/>
	</g>
	<g id="Elipse_1194">
		<path class="st4" d="M80.14,101.25c-2.98,0-5.41-2.43-5.41-5.41c0-2.98,2.43-5.41,5.41-5.41s5.41,2.43,5.41,5.41
			C85.55,98.82,83.12,101.25,80.14,101.25z M80.14,94.43c-0.78,0-1.41,0.63-1.41,1.41s0.63,1.41,1.41,1.41s1.41-0.63,1.41-1.41
			S80.92,94.43,80.14,94.43z"/>
	</g>
	<g id="Trazado_7174">
		<path class="st4" d="M80.47,110.17c-0.74,0-1.48-0.06-2.21-0.19c-0.69-0.12-1.28-0.58-1.57-1.22l-1.23-2.79
			c-0.19-0.43-0.63-0.7-1.11-0.64l-3.04,0.33c-0.72,0.07-1.41-0.21-1.86-0.77c-0.9-1.12-1.64-2.39-2.17-3.78
			c-0.26-0.67-0.16-1.42,0.26-2l1.8-2.46c0.28-0.38,0.28-0.89,0-1.27l-1.8-2.47c-0.42-0.57-0.52-1.32-0.27-1.98
			c0.52-1.36,1.25-2.64,2.18-3.79c0.45-0.56,1.15-0.84,1.86-0.77l3.04,0.33c0.47,0.05,0.91-0.21,1.11-0.64l1.23-2.79
			c0.29-0.66,0.9-1.13,1.62-1.23c0.77-0.11,1.46-0.17,2.13-0.18c0.8,0.01,1.53,0.07,2.23,0.19c0.7,0.11,1.3,0.58,1.59,1.23l1.23,2.8
			c0.18,0.42,0.64,0.68,1.1,0.63l3.04-0.33c0.72-0.08,1.42,0.22,1.87,0.78c0.93,1.17,1.66,2.44,2.17,3.78
			c0.25,0.66,0.15,1.41-0.27,1.98l-1.8,2.47c-0.28,0.38-0.28,0.9,0,1.28l1.8,2.46c0.42,0.57,0.52,1.32,0.27,1.98
			c-0.52,1.36-1.25,2.64-2.18,3.79c-0.45,0.56-1.15,0.84-1.86,0.77l-3.04-0.33c-0.46-0.05-0.92,0.21-1.11,0.64l-1.23,2.79
			c-0.28,0.64-0.87,1.1-1.57,1.22C81.95,110.11,81.21,110.17,80.47,110.17z M80.04,105.97c0.29,0.01,0.57,0.01,0.86,0l0.74-1.69
			c0.93-2.1,3.09-3.36,5.38-3.12l1.84,0.2c0.15-0.24,0.3-0.49,0.43-0.74l-1.08-1.48c-1.36-1.86-1.36-4.36,0-6.23l1.08-1.49
			c-0.13-0.25-0.28-0.5-0.43-0.75l-1.82,0.2c-2.29,0.25-4.46-1-5.39-3.1l-0.75-1.7c-0.15-0.01-0.31-0.01-0.46-0.02
			c-0.12,0-0.26,0.01-0.4,0.02l-0.74,1.68c-0.93,2.12-3.1,3.38-5.4,3.12l-1.83-0.2c-0.16,0.24-0.3,0.49-0.43,0.75l1.09,1.49
			c1.36,1.86,1.36,4.36,0,6.22l-1.08,1.48c0.13,0.26,0.28,0.51,0.43,0.75l1.82-0.2c2.3-0.25,4.46,1,5.39,3.12L80.04,105.97z"/>
	</g>
	<g id="Trazado_7175">
		<path class="st4" d="M115.19,119.53c-0.38,0-0.77-0.15-1.06-0.44l-8.09-8.09c-1.67,0.54-3.49,0.47-5.14-0.2
			c-1.87-0.76-3.34-2.2-4.13-4.06c-0.79-1.86-0.8-3.92-0.04-5.8c0.19-0.47,0.6-0.81,1.09-0.91c0.49-0.1,1,0.05,1.36,0.41l2.62,2.62
			c0.32,0.31,0.86,0.31,1.2-0.02c0.34-0.33,0.35-0.89,0.02-1.24l-2.6-2.6c-0.36-0.36-0.51-0.87-0.41-1.36s0.44-0.9,0.91-1.09
			c2.83-1.14,6.05-0.48,8.2,1.67c2.02,2.02,2.71,4.97,1.87,7.63l8.09,8.1c0.58,0.59,0.58,1.54,0,2.12l-2.82,2.82
			C115.96,119.38,115.57,119.53,115.19,119.53z M106.4,107.74c0.39,0,0.77,0.15,1.06,0.44l7.73,7.73l0.7-0.7l-7.72-7.73
			c-0.45-0.45-0.57-1.14-0.29-1.71c0.84-1.75,0.49-3.85-0.89-5.23c-0.63-0.63-1.4-1.04-2.23-1.23l0.39,0.39
			c1.5,1.54,1.46,4-0.06,5.49c-1.52,1.47-3.88,1.47-5.39,0.01l-0.41-0.41c0.06,0.26,0.14,0.52,0.25,0.78c0.48,1.12,1.36,2,2.5,2.46
			c1.2,0.49,2.55,0.45,3.7-0.12C105.95,107.79,106.17,107.74,106.4,107.74z"/>
	</g>
</g>
</svg>
