<?xml version="1.0" encoding="utf-8"?>
<!-- Generator: Adobe Illustrator 24.0.2, SVG Export Plug-In . SVG Version: 6.00 Build 0)  -->
<svg version="1.1" id="Capa_1" xmlns="http://www.w3.org/2000/svg" xmlns:xlink="http://www.w3.org/1999/xlink" x="0px" y="0px"
	 viewBox="0 0 120 120" style="enable-background:new 0 0 120 120;" xml:space="preserve">
<style type="text/css">
	.st0{fill:none;}
	.st1{fill:#FFEA27;}
	.st2{fill:#F4D314;}
	.st3{fill:#95A6B1;}
</style>
<g>
	<rect class="st0" width="120" height="120"/>
</g>
<g>
	<g>
		<g>
			<path class="st1" d="M57.09,115.06H38.88c-1.1,0-2-0.9-2-2s0.9-2,2-2h18.21c1.1,0,2,0.9,2,2S58.19,115.06,57.09,115.06z"/>
		</g>
		<g>
			<path class="st1" d="M79.02,115.06h-9.1c-1.1,0-2-0.9-2-2s0.9-2,2-2h9.1c1.1,0,2,0.9,2,2S80.12,115.06,79.02,115.06z"/>
		</g>
		<g>
			<path class="st1" d="M91.82,115.06c-0.27,0-0.52-0.05-0.77-0.15c-0.24-0.1-0.46-0.25-0.64-0.44c-0.38-0.38-0.59-0.88-0.59-1.41
				c0-0.53,0.21-1.04,0.59-1.41c0.46-0.47,1.15-0.68,1.8-0.55c0.13,0.02,0.25,0.06,0.37,0.11s0.24,0.11,0.35,0.19
				c0.11,0.07,0.21,0.15,0.3,0.25c0.1,0.09,0.18,0.19,0.25,0.3c0.08,0.11,0.14,0.22,0.19,0.34s0.08,0.25,0.11,0.38
				c0.03,0.13,0.04,0.26,0.04,0.39c0,0.54-0.21,1.04-0.59,1.41C92.86,114.85,92.35,115.06,91.82,115.06z"/>
		</g>
		<g>
			<path class="st2" d="M46.38,115.06h-18.2c-1.1,0-2-0.9-2-2s0.9-2,2-2h18.2c1.1,0,2,0.9,2,2S47.48,115.06,46.38,115.06z"/>
		</g>
	</g>
	<g>
		<g>
			<path class="st1" d="M73.56,102.83H28.18c-1.1,0-2-0.9-2-2s0.9-2,2-2h45.38c1.1,0,2,0.9,2,2S74.66,102.83,73.56,102.83z"/>
		</g>
		<g>
			<path class="st2" d="M28.18,102.83c-0.27,0-0.52-0.05-0.77-0.15c-0.24-0.1-0.46-0.25-0.65-0.44c-0.37-0.37-0.58-0.88-0.58-1.41
				c0-0.53,0.21-1.04,0.58-1.41c0.1-0.1,0.2-0.18,0.31-0.25s0.22-0.14,0.35-0.19c0.12-0.05,0.24-0.09,0.37-0.11
				c0.65-0.13,1.34,0.08,1.8,0.55c0.38,0.37,0.59,0.88,0.59,1.41c0,0.54-0.21,1.04-0.59,1.41
				C29.22,102.62,28.71,102.83,28.18,102.83z"/>
		</g>
		<g>
			<path class="st2" d="M91.82,102.83H66.06c-1.1,0-2-0.9-2-2s0.9-2,2-2h25.76c1.1,0,2,0.9,2,2S92.92,102.83,91.82,102.83z"/>
		</g>
	</g>
</g>
<g>
	<g>
		<path class="st1" d="M95.43,57.36c-3.61,0-7.06-2.06-8.65-5.54c-2.17-4.77-0.07-10.41,4.69-12.59c4.76-2.17,10.41-0.07,12.59,4.68
			c0,0,0,0,0,0c1,2.18,1.13,4.64,0.38,6.93c-0.82,2.49-2.67,4.55-5.06,5.66C98.09,57.08,96.75,57.36,95.43,57.36z M95.4,42.36
			c-0.76,0-1.54,0.16-2.28,0.5c-2.75,1.26-3.97,4.53-2.71,7.29c1.26,2.75,4.53,3.97,7.29,2.71c1.38-0.64,2.46-1.83,2.93-3.28
			c0.44-1.32,0.36-2.75-0.22-4.01C99.49,43.56,97.48,42.36,95.4,42.36z"/>
	</g>
	<g>
		<path class="st3" d="M65.08,92.04H53.71c-1.1,0-2-0.9-2-2V15.67c0-1.1,0.9-2,2-2h11.37c1.1,0,2,0.9,2,2v74.37
			C67.08,91.14,66.18,92.04,65.08,92.04z M55.71,88.04h7.37V17.67h-7.37V88.04z"/>
	</g>
	<g>
		<path class="st3" d="M76.47,92.03H65.09c-1.1,0-2-0.9-2-2V65.85c0-0.57,0.07-14.2,12.52-19.48c8.01-3.39,7.91-14.43,7.91-14.54
			v-8.17c0-1.1,0.9-2,2-2H96.9c1.1,0,2,0.9,2,2v10.18c0,1.1-0.9,2-2,2s-2-0.9-2-2v-8.18h-7.38v6.13
			c0.01,0.53,0.12,13.83-10.35,18.26c-9.97,4.22-10.08,15.32-10.08,15.79v22.19h7.38v-18.2c0-1.1,0.9-2,2-2s2,0.9,2,2v20.2
			C78.47,91.13,77.57,92.03,76.47,92.03z"/>
	</g>
	<g>
		<path class="st3" d="M76.45,72.92c-1.1,0-1.99-0.88-2-1.99c0-0.46,0.03-11.28,8.81-17.45c0.9-0.63,2.15-0.42,2.79,0.49
			c0.64,0.9,0.42,2.15-0.49,2.79c-7.03,4.95-7.11,14.06-7.11,14.16C78.45,72.02,77.56,72.91,76.45,72.92
			C76.45,72.92,76.45,72.92,76.45,72.92z"/>
	</g>
	<g>
		<path class="st3" d="M53.74,92.03H42.37c-1.1,0-2-0.9-2-2v-20.2c0-1.1,0.9-2,2-2s2,0.9,2,2v18.2h7.37V65.85
			c0-0.48-0.11-11.57-10.08-15.8c-10.47-4.44-10.36-17.73-10.35-18.3l0-6.09h-7.37v5.48c0,1.1-0.9,2-2,2s-2-0.9-2-2v-7.48
			c0-1.1,0.9-2,2-2h11.37c1.1,0,2,0.9,2,2v8.13c0,0.14-0.06,11.2,7.91,14.58c12.45,5.28,12.52,18.91,12.52,19.49v24.17
			C55.74,91.13,54.84,92.03,53.74,92.03z"/>
	</g>
	<g>
		<path class="st3" d="M42.38,72.92c0,0-0.01,0-0.01,0c-1.1-0.01-1.99-0.9-1.99-2.01c0-0.48-0.12-11.57-10.08-15.79
			c-10.47-4.44-10.36-17.73-10.35-18.3l0-10.08c0-1.1,0.9-2,2-2s2,0.9,2,2v10.12c0,0.14-0.06,11.2,7.91,14.58
			c12.45,5.28,12.52,18.92,12.52,19.49C44.37,72.03,43.48,72.92,42.38,72.92z"/>
	</g>
	<g>
		<path class="st3" d="M69.94,17.68H48.87c-1.1,0-2-0.9-2-2V9.2c0-1.1,0.9-2,2-2h21.07c1.1,0,2,0.9,2,2v6.48
			C71.94,16.78,71.04,17.68,69.94,17.68z M50.87,13.68h17.07V11.2H50.87V13.68z"/>
	</g>
	<g>
		<path class="st3" d="M101.38,25.68H80.31c-1.1,0-2-0.9-2-2V17.2c0-1.1,0.9-2,2-2h21.07c1.1,0,2,0.9,2,2v6.48
			C103.38,24.78,102.48,25.68,101.38,25.68z M82.31,21.68h17.07V19.2H82.31V21.68z"/>
	</g>
	<g>
		<path class="st3" d="M38.16,25.68H17.09c-1.1,0-2-0.9-2-2V17.2c0-1.1,0.9-2,2-2h21.07c1.1,0,2,0.9,2,2v6.48
			C40.16,24.78,39.26,25.68,38.16,25.68z M19.09,21.68h17.07V19.2H19.09V21.68z"/>
	</g>
	<g>
		<path class="st3" d="M64.86,82.6H54.42c-1.1,0-2-0.9-2-2s0.9-2,2-2h10.44c1.1,0,2,0.9,2,2S65.96,82.6,64.86,82.6z"/>
	</g>
	<g>
		<path class="st3" d="M64.86,64H54.42c-1.1,0-2-0.9-2-2s0.9-2,2-2h10.44c1.1,0,2,0.9,2,2S65.96,64,64.86,64z"/>
	</g>
	<g>
		<path class="st3" d="M64.86,45.33H54.42c-1.1,0-2-0.9-2-2s0.9-2,2-2h10.44c1.1,0,2,0.9,2,2S65.96,45.33,64.86,45.33z"/>
	</g>
	<g>
		<path class="st3" d="M64.86,45.27H54.42c-1.1,0-2-0.9-2-2s0.9-2,2-2h10.44c1.1,0,2,0.9,2,2S65.96,45.27,64.86,45.27z"/>
	</g>
	<g>
		<path class="st3" d="M64.86,26.68H54.42c-1.1,0-2-0.9-2-2s0.9-2,2-2h10.44c1.1,0,2,0.9,2,2S65.96,26.68,64.86,26.68z"/>
	</g>
	<g>
		<path class="st3" d="M53.12,73.57H42.68c-1.1,0-2-0.9-2-2s0.9-2,2-2h10.44c1.1,0,2,0.9,2,2S54.22,73.57,53.12,73.57z"/>
	</g>
	<g>
		<path class="st3" d="M32.98,35.85H22.54c-1.1,0-2-0.9-2-2s0.9-2,2-2h10.44c1.1,0,2,0.9,2,2S34.08,35.85,32.98,35.85z"/>
	</g>
	<g>
		<path class="st3" d="M96.86,35.85H85.93c-1.1,0-2-0.9-2-2s0.9-2,2-2h10.93c1.1,0,2,0.9,2,2S97.96,35.85,96.86,35.85z"/>
	</g>
	<g>
		<path class="st3" d="M76.21,73.57H65.77c-1.1,0-2-0.9-2-2s0.9-2,2-2h10.44c1.1,0,2,0.9,2,2S77.31,73.57,76.21,73.57z"/>
	</g>
	<g>
		<path class="st3" d="M79.91,60.84c-0.43,0-0.86-0.14-1.22-0.42l-8.49-6.55c-0.88-0.67-1.04-1.93-0.36-2.81
			c0.67-0.88,1.93-1.04,2.81-0.36l8.49,6.55c0.88,0.67,1.04,1.93,0.36,2.81C81.1,60.57,80.51,60.84,79.91,60.84z"/>
	</g>
	<g>
		<path class="st3" d="M39.42,60.84c-0.6,0-1.19-0.27-1.58-0.78c-0.67-0.87-0.51-2.13,0.36-2.81l8.49-6.55
			c0.87-0.68,2.13-0.51,2.81,0.36c0.67,0.87,0.51,2.13-0.36,2.81l-8.49,6.55C40.28,60.7,39.85,60.84,39.42,60.84z"/>
	</g>
	<g>
		<path class="st3" d="M27.77,51.95c-0.6,0-1.19-0.27-1.58-0.78c-0.67-0.87-0.51-2.13,0.36-2.81l8.48-6.55
			c0.87-0.68,2.13-0.51,2.81,0.36c0.67,0.87,0.51,2.13-0.36,2.81l-8.48,6.55C28.63,51.81,28.2,51.95,27.77,51.95z"/>
	</g>
</g>
</svg>
