<?xml version="1.0" encoding="utf-8"?>
<!-- Generator: Adobe Illustrator 24.0.2, SVG Export Plug-In . SVG Version: 6.00 Build 0)  -->
<svg version="1.1" id="Capa_1" xmlns="http://www.w3.org/2000/svg" xmlns:xlink="http://www.w3.org/1999/xlink" x="0px" y="0px"
	 viewBox="0 0 120 120" style="enable-background:new 0 0 120 120;" xml:space="preserve">
<style type="text/css">
	.st0{fill:none;}
	.st1{fill:#FFEA27;}
	.st2{fill:#F4D314;}
	.st3{fill:#95A6B1;}
</style>
<g>
	<rect class="st0" width="120" height="120"/>
</g>
<g id="Grupo_8394" transform="translate(-15.711 -13.769)">
	<g id="Grupo_8391">
		<g id="Grupo_8389">
			<g id="Línea_2745">
				<path class="st1" d="M72.75,124.81H54.54c-1.1,0-2-0.9-2-2s0.9-2,2-2h18.21c1.1,0,2,0.9,2,2S73.85,124.81,72.75,124.81z"/>
			</g>
			<g id="Línea_2746">
				<path class="st1" d="M94.68,124.81h-9.1c-1.1,0-2-0.9-2-2s0.9-2,2-2h9.1c1.1,0,2,0.9,2,2S95.78,124.81,94.68,124.81z"/>
			</g>
			<g id="Línea_2747">
				<path class="st1" d="M107.48,124.81c-0.54,0-1.04-0.21-1.42-0.59c-0.18-0.18-0.33-0.4-0.43-0.64c-0.1-0.25-0.15-0.5-0.15-0.77
					c0-0.13,0.01-0.26,0.04-0.39c0.02-0.13,0.06-0.25,0.11-0.37c0.05-0.12,0.11-0.24,0.18-0.35c0.08-0.11,0.16-0.21,0.25-0.3
					c0.75-0.75,2.08-0.75,2.83,0c0.09,0.09,0.18,0.19,0.25,0.3s0.13,0.23,0.18,0.35c0.05,0.12,0.09,0.24,0.12,0.37
					c0.02,0.13,0.04,0.26,0.04,0.39c0,0.27-0.05,0.52-0.15,0.77c-0.1,0.24-0.25,0.46-0.44,0.64
					C108.51,124.6,108.01,124.81,107.48,124.81z"/>
			</g>
			<g id="Línea_2748">
				<path class="st2" d="M62.04,124.81h-18.2c-1.1,0-2-0.9-2-2s0.9-2,2-2h18.2c1.1,0,2,0.9,2,2S63.14,124.81,62.04,124.81z"/>
			</g>
		</g>
		<g id="Grupo_8390">
			<g id="Línea_2749">
				<path class="st1" d="M89.22,112.58H43.84c-1.1,0-2-0.9-2-2s0.9-2,2-2h45.38c1.1,0,2,0.9,2,2S90.32,112.58,89.22,112.58z"/>
			</g>
			<g id="Línea_2750">
				<path class="st2" d="M43.84,112.58c-0.54,0-1.04-0.21-1.42-0.59c-0.37-0.37-0.58-0.88-0.58-1.41c0-0.13,0.01-0.26,0.04-0.39
					c0.02-0.13,0.06-0.25,0.11-0.38c0.05-0.12,0.11-0.23,0.19-0.34c0.07-0.11,0.15-0.21,0.24-0.3c0.47-0.47,1.16-0.68,1.81-0.55
					c0.13,0.02,0.25,0.06,0.37,0.11c0.12,0.05,0.24,0.12,0.35,0.19c0.11,0.07,0.21,0.15,0.3,0.25c0.38,0.37,0.59,0.88,0.59,1.41
					c0,0.53-0.21,1.04-0.59,1.41C44.88,112.37,44.37,112.58,43.84,112.58z"/>
			</g>
			<g id="Línea_2751">
				<path class="st2" d="M107.48,112.58H81.72c-1.1,0-2-0.9-2-2s0.9-2,2-2h25.76c1.1,0,2,0.9,2,2S108.58,112.58,107.48,112.58z"/>
			</g>
		</g>
	</g>
	<g id="Trazado_7115">
		<path class="st3" d="M75.68,103.04c-5.75,0-11.48-1.27-16.85-3.79C49.26,94.74,42,86.77,38.42,76.81
			c-3.59-9.96-3.08-20.72,1.42-30.3c0.02-0.05,0.05-0.09,0.07-0.14l0.95-1.67c0.55-0.96,1.77-1.3,2.73-0.75
			c0.96,0.55,1.3,1.77,0.75,2.73l-0.91,1.6c-4.02,8.6-4.47,18.24-1.25,27.18c3.23,8.96,9.75,16.12,18.36,20.17
			c8.61,4.05,18.29,4.51,27.25,1.28c8.96-3.23,16.12-9.75,20.17-18.36c4.05-8.61,4.51-18.29,1.28-27.25
			c-3.23-8.96-9.75-16.12-18.36-20.17c-6.62-3.11-13.93-4.11-21.16-2.88l-1.67,0.43c-1.07,0.27-2.16-0.37-2.44-1.44
			c-0.27-1.07,0.37-2.16,1.44-2.44l1.75-0.45c0.05-0.01,0.11-0.02,0.16-0.03c8.07-1.39,16.23-0.28,23.62,3.19
			c9.58,4.51,16.83,12.48,20.42,22.44c3.59,9.96,3.08,20.72-1.42,30.3c-4.51,9.58-12.48,16.83-22.44,20.42
			C84.76,102.26,80.21,103.04,75.68,103.04z"/>
	</g>
	<g id="Grupo_8393">
		<g id="Grupo_8392">
			<g id="Rectángulo_2890">
				<path class="st3" d="M54.74,75.7h-6.38c-2.1,0-3.8-1.7-3.8-3.8V56.4c0-2.1,1.7-3.8,3.8-3.8h6.38c2.1,0,3.8,1.7,3.8,3.8v15.5
					C58.54,74,56.84,75.7,54.74,75.7z M48.56,71.7h5.98V56.6h-5.98V71.7z M54.74,56.6L54.74,56.6L54.74,56.6z"/>
			</g>
			<g id="Trazado_7116">
				<path class="st3" d="M74.54,84.95c-0.65,0-1.27-0.16-1.82-0.45l-16.13-8.51c-1.25-0.65-2.04-1.94-2.04-3.37V55.7
					c0-1.43,0.79-2.72,2.06-3.38l16.15-8.34c0.89-0.47,1.92-0.56,2.89-0.25c0.97,0.31,1.76,0.97,2.23,1.88
					c0.29,0.57,0.42,1.15,0.42,1.75v33.78C78.33,83.21,76.64,84.93,74.54,84.95C74.54,84.95,74.54,84.95,74.54,84.95z M74.31,81.16
					C74.31,81.16,74.31,81.16,74.31,81.16L74.31,81.16z M74.6,80.97L74.6,80.97C74.6,80.97,74.6,80.97,74.6,80.97z M58.55,72.5
					l15.76,8.31V47.69l-15.76,8.14V72.5z M58.44,72.44L58.44,72.44C58.44,72.44,58.44,72.44,58.44,72.44z M74.61,47.53L74.61,47.53
					C74.61,47.53,74.61,47.53,74.61,47.53z"/>
			</g>
		</g>
		<g id="Trazado_7117">
			<path class="st3" d="M83.9,78.42c-0.51,0-1.02-0.2-1.41-0.59c-0.78-0.78-0.78-2.05,0-2.83c0.04-0.04,4.62-4.75,4.62-11.18
				c-0.02-3.84-1.62-7.6-4.38-10.29c-0.79-0.77-0.81-2.04-0.04-2.83c0.77-0.79,2.04-0.81,2.83-0.04c3.53,3.43,5.57,8.23,5.6,13.15
				c0,8.12-5.56,13.78-5.8,14.01C84.92,78.23,84.41,78.42,83.9,78.42z"/>
		</g>
		<g id="Trazado_7118">
			<path class="st3" d="M91.03,84.73c-0.51,0-1.02-0.2-1.41-0.58c-0.78-0.78-0.78-2.05,0-2.83c0.07-0.07,7.32-7.51,7.32-17.71
				c-0.03-6.11-2.57-12.08-6.97-16.37c-0.79-0.77-0.81-2.04-0.04-2.83c0.77-0.79,2.04-0.81,2.83-0.04
				c5.17,5.03,8.15,12.04,8.18,19.22c0,11.9-8.15,20.2-8.49,20.54C92.05,84.53,91.54,84.73,91.03,84.73z"/>
		</g>
		<g id="Trazado_7119">
			<path class="st3" d="M77.67,70.45c-0.49,0-0.98-0.18-1.36-0.54c-0.81-0.75-0.85-2.02-0.1-2.83c0.77-0.83,1.22-1.91,1.26-3.05
				c-0.01-0.9-0.41-1.85-1.12-2.53c-0.79-0.77-0.81-2.04-0.04-2.83c0.77-0.79,2.04-0.81,2.83-0.04c1.46,1.42,2.31,3.42,2.33,5.46
				c-0.08,2.18-0.91,4.18-2.34,5.72C78.74,70.24,78.21,70.45,77.67,70.45z"/>
		</g>
	</g>
	<g id="Trazado_7120">
		<path class="st1" d="M53.7,43.53c-5.73,0-10.4-4.67-10.4-10.4c0-5.73,4.67-10.4,10.4-10.4c0.02,0,0.03,0,0.05,0
			c5.69,0,10.33,4.62,10.35,10.33c0,0,0,0.07,0,0.07C64.1,38.86,59.43,43.53,53.7,43.53z M53.74,26.73c-0.01,0-0.02,0-0.03,0
			c-3.54,0-6.41,2.87-6.41,6.4c0,3.53,2.87,6.4,6.4,6.4c3.53,0,6.4-2.87,6.4-6.4v-0.06C60.09,29.57,57.23,26.73,53.74,26.73z"/>
	</g>
</g>
</svg>
