<?xml version="1.0" encoding="utf-8"?>
<!-- Generator: Adobe Illustrator 24.0.2, SVG Export Plug-In . SVG Version: 6.00 Build 0)  -->
<svg version="1.1" id="Capa_1" xmlns="http://www.w3.org/2000/svg" xmlns:xlink="http://www.w3.org/1999/xlink" x="0px" y="0px"
	 viewBox="0 0 120 120" style="enable-background:new 0 0 120 120;" xml:space="preserve">
<style type="text/css">
	.st0{fill:none;}
	.st1{fill:#FFEA27;}
	.st2{fill:#F4D314;}
	.st3{fill:#94A5B0;}
</style>
<g>
	<rect class="st0" width="120" height="120"/>
</g>
<g id="Grupo_8481" transform="translate(-17.17 -8.447)">
	<g id="Grupo_8479">
		<g id="Grupo_8477">
			<g id="Línea_2938">
				<path class="st1" d="M74.26,122.15H56.05c-1.1,0-2-0.9-2-2s0.9-2,2-2h18.21c1.1,0,2,0.9,2,2S75.36,122.15,74.26,122.15z"/>
			</g>
			<g id="Línea_2939">
				<path class="st1" d="M96.19,122.15h-9.1c-1.1,0-2-0.9-2-2s0.9-2,2-2h9.1c1.1,0,2,0.9,2,2S97.29,122.15,96.19,122.15z"/>
			</g>
			<g id="Línea_2940">
				<path class="st1" d="M108.99,122.15c-0.54,0-1.04-0.21-1.41-0.58c-0.19-0.19-0.34-0.41-0.44-0.65c-0.1-0.24-0.15-0.5-0.15-0.77
					c0-0.13,0.01-0.26,0.04-0.39c0.02-0.13,0.06-0.25,0.11-0.37c0.05-0.12,0.11-0.24,0.19-0.35c0.07-0.11,0.15-0.21,0.25-0.3
					c0.09-0.09,0.19-0.18,0.3-0.25c0.11-0.07,0.22-0.13,0.34-0.18c0.12-0.05,0.25-0.09,0.38-0.12c0.65-0.13,1.34,0.08,1.8,0.55
					c0.1,0.09,0.18,0.19,0.25,0.3c0.07,0.11,0.14,0.23,0.19,0.35s0.08,0.24,0.11,0.37s0.04,0.26,0.04,0.39
					c0,0.27-0.05,0.53-0.15,0.77c-0.1,0.24-0.25,0.46-0.44,0.65c-0.18,0.18-0.4,0.33-0.64,0.43
					C109.51,122.1,109.26,122.15,108.99,122.15z"/>
			</g>
			<g id="Línea_2941">
				<path class="st2" d="M63.55,122.15h-18.2c-1.1,0-2-0.9-2-2s0.9-2,2-2h18.2c1.1,0,2,0.9,2,2S64.65,122.15,63.55,122.15z"/>
			</g>
		</g>
		<g id="Grupo_8478">
			<g id="Línea_2942">
				<path class="st1" d="M90.74,109.92H45.35c-1.1,0-2-0.9-2-2s0.9-2,2-2h45.39c1.1,0,2,0.9,2,2S91.84,109.92,90.74,109.92z"/>
			</g>
			<g id="Línea_2943">
				<path class="st2" d="M45.35,109.92c-0.53,0-1.04-0.21-1.41-0.58c-0.38-0.38-0.59-0.88-0.59-1.42c0-0.52,0.21-1.04,0.59-1.41
					c0.74-0.75,2.08-0.75,2.82,0c0.38,0.37,0.59,0.89,0.59,1.41c0,0.54-0.21,1.04-0.59,1.42C46.39,109.71,45.88,109.92,45.35,109.92
					z"/>
			</g>
			<g id="Línea_2944">
				<path class="st2" d="M108.99,109.92H83.24c-1.1,0-2-0.9-2-2s0.9-2,2-2h25.75c1.1,0,2,0.9,2,2S110.09,109.92,108.99,109.92z"/>
			</g>
		</g>
	</g>
	<g id="Trazado_7193">
		<path class="st3" d="M58.51,25.8c-0.58,0-1.15-0.25-1.54-0.73c-0.7-0.85-0.58-2.11,0.27-2.82l0.1-0.08
			c2.91-2.41,3.46-2.47,8.55-2.48h46.54c1.1,0,2,0.9,2,2s-0.9,2-2,2H65.88c-4.09,0-4.11,0-6,1.56l-0.1,0.08
			C59.41,25.65,58.96,25.8,58.51,25.8z"/>
	</g>
	<g id="Trazado_7194">
		<path class="st3" d="M58.67,89.22H39.39c-1.1,0-2-0.89-2-1.99L37.26,48.4c0-4.35,0.17-5.1,2.04-8.86c0.49-0.99,1.69-1.39,2.68-0.9
			c0.99,0.49,1.39,1.69,0.9,2.68c-1.62,3.27-1.62,3.34-1.62,7.08l0.12,36.83h15.28l-0.09-16.7c-0.01-1.1,0.88-2,1.99-2.01
			c0,0,0.01,0,0.01,0c1.1,0,1.99,0.89,2,1.99l0.1,18.71c0,0.53-0.21,1.04-0.58,1.42C59.71,89.01,59.2,89.22,58.67,89.22z"/>
	</g>
	<g id="Línea_2945">
		<path class="st3" d="M75.42,43.38c-1.1,0-2-0.9-2-2s0.9-2,2-2l37.08-0.01c0,0,0,0,0,0c1.1,0,2,0.9,2,2s-0.89,2-2,2L75.42,43.38
			L75.42,43.38z"/>
	</g>
	<g id="Trazado_7195">
		<path class="st1" d="M45.01,36.3c-1.12,0-2.24-0.2-3.32-0.6c-2.38-0.88-4.27-2.64-5.32-4.95c-1.05-2.31-1.15-4.89-0.26-7.27
			c0.88-2.38,2.64-4.27,4.95-5.32c0.04-0.02,0.08-0.04,0.12-0.05c4.72-2.1,10.28-0.02,12.45,4.68c0.03,0.07,0.06,0.15,0.09,0.22
			c0.98,2.27,1.05,4.78,0.19,7.1c-0.88,2.38-2.64,4.27-4.95,5.32C47.7,36.01,46.36,36.3,45.01,36.3z M42.63,21.84
			c-1.29,0.62-2.27,1.69-2.77,3.03c-0.51,1.38-0.46,2.87,0.15,4.21c1.26,2.75,4.53,3.97,7.29,2.71c1.34-0.61,2.35-1.7,2.86-3.08
			c0.51-1.38,0.46-2.87-0.15-4.21l0,0c-0.02-0.05-0.04-0.1-0.06-0.16c-1.3-2.66-4.51-3.8-7.21-2.56
			C42.7,21.81,42.66,21.83,42.63,21.84z"/>
	</g>
	<g id="Rectángulo_2911">
		<path class="st3" d="M63.88,97.73H33.67c-1.1,0-2-0.9-2-2v-8.51c0-1.1,0.9-2,2-2h30.21c1.1,0,2,0.9,2,2v8.51
			C65.88,96.83,64.98,97.73,63.88,97.73z M35.67,93.73h26.21v-4.51H35.67V93.73z"/>
	</g>
	<g id="Rectángulo_2912">
		<path class="st3" d="M120.68,50.34h-8.26c-1.1,0-2-0.9-2-2V16.75c0-1.1,0.9-2,2-2h8.26c1.1,0,2,0.9,2,2v31.59
			C122.68,49.44,121.78,50.34,120.68,50.34z M114.42,46.34h4.26V18.75h-4.26V46.34z"/>
	</g>
	<g id="Grupo_8480">
		<g id="Elipse_1197">
			<path class="st3" d="M72.08,66.11c-4.71,0-8.54-3.83-8.54-8.54s3.83-8.54,8.54-8.54s8.54,3.83,8.54,8.54S76.79,66.11,72.08,66.11
				z M72.08,53.03c-2.5,0-4.54,2.04-4.54,4.54s2.04,4.54,4.54,4.54s4.54-2.04,4.54-4.54S74.58,53.03,72.08,53.03z"/>
		</g>
		<g id="Trazado_7196">
			<path class="st3" d="M72.09,77.34c-1.03,0-2.06-0.09-3.08-0.26c-0.66-0.11-1.22-0.55-1.49-1.16l-1.82-4.12
				c-0.47-1.07-1.58-1.71-2.74-1.58l-4.49,0.49c-0.67,0.08-1.35-0.2-1.78-0.73c-1.27-1.58-2.3-3.36-3.04-5.28
				c-0.25-0.63-0.15-1.35,0.25-1.9l2.66-3.64c0.69-0.95,0.69-2.22,0-3.17l-2.66-3.62c-0.4-0.55-0.5-1.26-0.25-1.9
				c0.73-1.91,1.76-3.69,3.04-5.29c0.43-0.53,1.09-0.81,1.78-0.73l4.49,0.49c1.17,0.13,2.27-0.5,2.74-1.57l1.82-4.12
				c0.28-0.63,0.86-1.07,1.55-1.17c1.03-0.15,2-0.23,2.98-0.25c0,0,0.01,0,0.01,0c1.04,0,2.07,0.09,3.1,0.26
				c0.67,0.11,1.23,0.55,1.5,1.17l1.82,4.12c0.47,1.07,1.57,1.71,2.74,1.58l4.49-0.49c0.68-0.07,1.35,0.2,1.78,0.73
				c1.28,1.59,2.3,3.36,3.04,5.27c0.25,0.63,0.15,1.35-0.25,1.9l-2.66,3.64c-0.69,0.95-0.69,2.22,0,3.17l2.66,3.64
				c0.4,0.55,0.5,1.26,0.25,1.9c-0.73,1.91-1.76,3.69-3.04,5.29c-0.43,0.53-1.1,0.81-1.78,0.73l-4.49-0.49
				c-1.18-0.13-2.27,0.5-2.74,1.57l-1.81,4.12c-0.27,0.62-0.83,1.05-1.5,1.17C74.14,77.26,73.11,77.34,72.09,77.34z M70.72,73.28
				c0.91,0.09,1.82,0.09,2.73,0l1.36-3.09c1.18-2.69,3.93-4.27,6.85-3.94L85,66.61c0.52-0.75,0.98-1.54,1.36-2.37l-1.99-2.73
				c-1.72-2.36-1.72-5.53,0-7.89l1.99-2.73c-0.39-0.83-0.84-1.62-1.36-2.36l-3.36,0.37c-2.9,0.32-5.66-1.27-6.84-3.94l-1.37-3.09
				c-0.46-0.04-0.91-0.07-1.36-0.07c-0.44,0.01-0.9,0.04-1.37,0.08l-1.36,3.08c-1.18,2.69-3.93,4.27-6.84,3.94l-3.35-0.37
				c-0.52,0.75-0.98,1.54-1.36,2.37l1.99,2.72c1.72,2.36,1.72,5.53,0,7.89l-1.99,2.73c0.39,0.83,0.84,1.63,1.36,2.37l3.36-0.37
				c2.91-0.32,5.66,1.27,6.84,3.94L70.72,73.28z"/>
		</g>
	</g>
	<g id="Trazado_7197">
		<path class="st3" d="M111.49,97.58c-0.72,0-1.42-0.39-1.77-1.07l-7.57-14.46c-0.03,0-0.07,0-0.1,0c-2.45,0-4.85-0.85-6.76-2.42
			c-4.53-3.73-5.19-10.45-1.46-14.97c0.43-0.52,1.08-0.79,1.75-0.72c0.67,0.07,1.25,0.47,1.57,1.06l2.44,4.66
			c0.34,0.64,1.15,0.89,1.81,0.56c0.67-0.34,0.93-1.17,0.59-1.84l-2.43-4.64c-0.31-0.59-0.3-1.31,0.02-1.89
			c0.32-0.59,0.92-0.97,1.59-1.03c4.26-0.34,8.3,1.88,10.28,5.66c0,0,0,0,0,0c1.86,3.56,1.53,7.85-0.74,11.08l7.57,14.47
			c0.25,0.47,0.29,1.02,0.14,1.53c-0.16,0.51-0.51,0.93-0.98,1.17l-5.01,2.62C112.12,97.51,111.8,97.58,111.49,97.58z M103.31,77.95
			c0.74,0,1.42,0.41,1.77,1.07l7.25,13.86l1.47-0.77l-7.25-13.86c-0.39-0.75-0.27-1.67,0.31-2.29c1.93-2.07,2.35-5.14,1.04-7.63
			c-0.67-1.27-1.7-2.26-2.93-2.86l0.56,1.07c1.35,2.66,0.3,5.9-2.33,7.24c-2.59,1.32-5.8,0.31-7.16-2.25l-0.56-1.08
			c-0.32,2.22,0.49,4.56,2.35,6.09c1.45,1.19,3.34,1.72,5.19,1.44C103.11,77.96,103.21,77.95,103.31,77.95z"/>
	</g>
</g>
</svg>
