<?xml version="1.0" encoding="utf-8"?>
<!-- Generator: Adobe Illustrator 24.0.2, SVG Export Plug-In . SVG Version: 6.00 Build 0)  -->
<svg version="1.1" id="Capa_1" xmlns="http://www.w3.org/2000/svg" xmlns:xlink="http://www.w3.org/1999/xlink" x="0px" y="0px"
	 viewBox="0 0 120 120" style="enable-background:new 0 0 120 120;" xml:space="preserve">
<style type="text/css">
	.st0{fill:none;}
	.st1{fill:#FFEA27;}
	.st2{fill:#F4D314;}
	.st3{fill:#95A6B1;}
</style>
<g>
	<rect class="st0" width="120" height="120"/>
</g>
<g>
	<g id="Rectángulo_2891">
		<rect class="st0" width="120" height="120"/>
	</g>
	<g id="Grupo_8397">
		<g id="Grupo_8395">
			<g id="Línea_2752">
				<path class="st1" d="M57.09,112.09H38.88c-1.1,0-2-0.9-2-2s0.9-2,2-2h18.21c1.1,0,2,0.9,2,2S58.19,112.09,57.09,112.09z"/>
			</g>
			<g id="Línea_2753">
				<path class="st1" d="M79.02,112.09h-9.1c-1.1,0-2-0.9-2-2s0.9-2,2-2h9.1c1.1,0,2,0.9,2,2S80.12,112.09,79.02,112.09z"/>
			</g>
			<g id="Línea_2754">
				<path class="st1" d="M91.82,112.09c-0.13,0-0.26-0.01-0.39-0.04c-0.13-0.02-0.26-0.06-0.38-0.11c-0.11-0.05-0.23-0.11-0.34-0.19
					c-0.11-0.07-0.21-0.15-0.3-0.25c-0.19-0.19-0.34-0.4-0.44-0.64c-0.1-0.25-0.15-0.5-0.15-0.77c0-0.13,0.01-0.26,0.04-0.39
					c0.02-0.13,0.06-0.26,0.11-0.38c0.05-0.12,0.11-0.23,0.19-0.34c0.07-0.11,0.15-0.21,0.25-0.3c0.46-0.47,1.15-0.68,1.8-0.55
					c0.13,0.02,0.25,0.06,0.38,0.11c0.12,0.05,0.23,0.11,0.34,0.19c0.11,0.07,0.21,0.15,0.3,0.25c0.1,0.09,0.18,0.19,0.25,0.3
					c0.07,0.11,0.14,0.22,0.19,0.34c0.05,0.12,0.08,0.25,0.11,0.38s0.04,0.26,0.04,0.39c0,0.27-0.05,0.52-0.15,0.77
					c-0.1,0.24-0.25,0.45-0.44,0.64C92.85,111.88,92.35,112.09,91.82,112.09z"/>
			</g>
			<g id="Línea_2755">
				<path class="st2" d="M46.38,112.09h-18.2c-1.1,0-2-0.9-2-2s0.9-2,2-2h18.2c1.1,0,2,0.9,2,2S47.48,112.09,46.38,112.09z"/>
			</g>
		</g>
		<g id="Grupo_8396">
			<g id="Línea_2756">
				<path class="st1" d="M73.56,99.87H28.18c-1.1,0-2-0.9-2-2s0.9-2,2-2h45.38c1.1,0,2,0.9,2,2S74.66,99.87,73.56,99.87z"/>
			</g>
			<g id="Línea_2757">
				<path class="st2" d="M28.18,99.87c-0.26,0-0.52-0.05-0.76-0.15c-0.25-0.1-0.47-0.25-0.65-0.44c-0.38-0.37-0.59-0.88-0.59-1.41
					c0-0.13,0.01-0.26,0.04-0.39s0.06-0.25,0.11-0.38c0.05-0.12,0.12-0.23,0.19-0.34c0.07-0.11,0.15-0.21,0.25-0.3
					c0.09-0.1,0.19-0.18,0.3-0.25c0.11-0.08,0.22-0.14,0.35-0.19c0.12-0.05,0.24-0.09,0.37-0.11c0.26-0.06,0.52-0.06,0.78,0
					c0.13,0.02,0.25,0.06,0.38,0.11c0.12,0.05,0.23,0.11,0.34,0.19c0.11,0.07,0.21,0.15,0.3,0.25c0.38,0.37,0.59,0.88,0.59,1.41
					c0,0.53-0.21,1.04-0.59,1.41C29.22,99.66,28.72,99.87,28.18,99.87z"/>
			</g>
			<g id="Línea_2758">
				<path class="st2" d="M91.82,99.87H66.06c-1.1,0-2-0.9-2-2s0.9-2,2-2h25.76c1.1,0,2,0.9,2,2S92.92,99.87,91.82,99.87z"/>
			</g>
		</g>
	</g>
	<g id="Grupo_8402">
		<g id="Trazado_7121">
			<path class="st1" d="M21.43,65.74c-1.12,0-2.24-0.2-3.32-0.6c-2.38-0.88-4.27-2.64-5.32-4.95c-2.18-4.77-0.07-10.42,4.69-12.59
				c0.04-0.02,0.08-0.04,0.12-0.05c4.72-2.1,10.28-0.02,12.45,4.68c0.03,0.07,0.06,0.15,0.09,0.23c0.98,2.27,1.05,4.78,0.19,7.1
				c-0.88,2.38-2.64,4.27-4.95,5.32C24.12,65.46,22.78,65.74,21.43,65.74z M19.05,51.28c-2.69,1.29-3.86,4.52-2.62,7.25
				c0.61,1.34,1.7,2.35,3.08,2.86c1.38,0.51,2.87,0.46,4.21-0.15s2.35-1.7,2.86-3.08c0.51-1.37,0.46-2.85-0.14-4.18
				c-0.03-0.07-0.06-0.14-0.09-0.21c-1.31-2.64-4.51-3.77-7.2-2.53C19.12,51.25,19.08,51.27,19.05,51.28z"/>
		</g>
		<g id="Grupo_8401">
			<g id="Trazado_7122">
				<path class="st3" d="M102.67,87.79H21.43c-1.08,0-1.96-0.88-1.96-1.96v-15.8c0-1.08,0.88-1.96,1.96-1.96s1.96,0.88,1.96,1.96
					v13.83h77.31v-64.9H23.39v23.81c0,1.08-0.88,1.96-1.96,1.96s-1.96-0.88-1.96-1.96V17c0-1.08,0.88-1.96,1.96-1.96h81.24
					c1.08,0,1.96,0.88,1.96,1.96v68.83C104.63,86.92,103.75,87.79,102.67,87.79z"/>
			</g>
			<g id="Grupo_8398">
				<g id="Línea_2759">
					<path class="st3" d="M46.83,62.12H35.36c-1.08,0-1.96-0.88-1.96-1.96s0.88-1.96,1.96-1.96h11.47c1.08,0,1.96,0.88,1.96,1.96
						S47.92,62.12,46.83,62.12z"/>
				</g>
				<g id="Línea_2760">
					<path class="st3" d="M67.78,62.12H56.31c-1.08,0-1.96-0.88-1.96-1.96s0.88-1.96,1.96-1.96h11.47c1.08,0,1.96,0.88,1.96,1.96
						S68.87,62.12,67.78,62.12z"/>
				</g>
				<g id="Línea_2761">
					<path class="st3" d="M88.74,62.12H77.27c-1.08,0-1.96-0.88-1.96-1.96s0.88-1.96,1.96-1.96h11.47c1.08,0,1.96,0.88,1.96,1.96
						S89.83,62.12,88.74,62.12z"/>
				</g>
			</g>
			<g id="Grupo_8399">
				<g id="Línea_2762">
					<path class="st3" d="M46.83,75.54H35.36c-1.08,0-1.96-0.88-1.96-1.96s0.88-1.96,1.96-1.96h11.47c1.08,0,1.96,0.88,1.96,1.96
						S47.92,75.54,46.83,75.54z"/>
				</g>
				<g id="Línea_2763">
					<path class="st3" d="M67.78,75.54H56.31c-1.08,0-1.96-0.88-1.96-1.96s0.88-1.96,1.96-1.96h11.47c1.08,0,1.96,0.88,1.96,1.96
						S68.87,75.54,67.78,75.54z"/>
				</g>
				<g id="Línea_2764">
					<path class="st3" d="M88.74,75.54H77.27c-1.08,0-1.96-0.88-1.96-1.96s0.88-1.96,1.96-1.96h11.47c1.08,0,1.96,0.88,1.96,1.96
						S89.83,75.54,88.74,75.54z"/>
				</g>
			</g>
			<g id="Grupo_8400">
				<g id="Línea_2765">
					<path class="st3" d="M46.83,48.7H35.36c-1.08,0-1.96-0.88-1.96-1.96s0.88-1.96,1.96-1.96h11.47c1.08,0,1.96,0.88,1.96,1.96
						S47.92,48.7,46.83,48.7z"/>
				</g>
				<g id="Línea_2766">
					<path class="st3" d="M67.78,48.7H56.31c-1.08,0-1.96-0.88-1.96-1.96s0.88-1.96,1.96-1.96h11.47c1.08,0,1.96,0.88,1.96,1.96
						S68.87,48.7,67.78,48.7z"/>
				</g>
				<g id="Línea_2767">
					<path class="st3" d="M88.74,48.7H77.27c-1.08,0-1.96-0.88-1.96-1.96s0.88-1.96,1.96-1.96h11.47c1.08,0,1.96,0.88,1.96,1.96
						S89.83,48.7,88.74,48.7z"/>
				</g>
			</g>
			<g id="Línea_2768">
				<path class="st3" d="M102.67,37.49H21.43c-1.08,0-1.96-0.88-1.96-1.96s0.88-1.96,1.96-1.96h81.24c1.08,0,1.96,0.88,1.96,1.96
					S103.75,37.49,102.67,37.49z"/>
			</g>
			<g id="Línea_2769">
				<path class="st3" d="M35.36,25.94c-1.08,0-1.96-0.88-1.96-1.96V10.05c0-1.08,0.88-1.96,1.96-1.96s1.96,0.88,1.96,1.96v13.93
					C37.32,25.06,36.44,25.94,35.36,25.94z"/>
			</g>
			<g id="Línea_2770">
				<path class="st3" d="M53.98,25.94c-1.08,0-1.96-0.88-1.96-1.96V10.05c0-1.08,0.88-1.96,1.96-1.96s1.96,0.88,1.96,1.96v13.93
					C55.94,25.06,55.06,25.94,53.98,25.94z"/>
			</g>
			<g id="Línea_2771">
				<path class="st3" d="M72.59,25.94c-1.08,0-1.96-0.88-1.96-1.96V10.05c0-1.08,0.88-1.96,1.96-1.96s1.96,0.88,1.96,1.96v13.93
					C74.55,25.06,73.67,25.94,72.59,25.94z"/>
			</g>
			<g id="Línea_2772">
				<path class="st3" d="M91.21,26.27c-1.08,0-1.96-0.88-1.96-1.96V10.38c0-1.08,0.88-1.96,1.96-1.96s1.96,0.88,1.96,1.96v13.93
					C93.17,25.4,92.29,26.27,91.21,26.27z"/>
			</g>
		</g>
	</g>
</g>
</svg>
