<svg xmlns="http://www.w3.org/2000/svg" width="120" height="120" viewBox="0 0 120 120">
  <g id="_01-icon_ocenza_hitos_hitos-4" data-name="01-icon_ocenza_hitos_hitos-4" style="isolation: isolate">
    <g id="Capa_1" data-name="Capa 1">
      <rect id="Rectángulo_2941" data-name="Rectángulo 2941" width="120" height="120" fill="none"/>
      <path id="Trazado_7111" data-name="Trazado 7111" d="M54,115.86H35.74a2,2,0,0,1,0-4H54a2,2,0,1,1,0,4Z" fill="#ffea27"/>
      <path id="Trazado_7112" data-name="Trazado 7112" d="M75.88,115.86h-9.1a2,2,0,0,1,0-4h9.1a2,2,0,0,1,0,4Z" fill="#ffea27"/>
      <path id="Trazado_7113" data-name="Trazado 7113" d="M88.68,115.86a2,2,0,0,1-1.42-.59A2.481,2.481,0,0,1,87,115a1.995,1.995,0,0,1-.33-1.11,2,2,0,0,1,.58-1.41,1.791,1.791,0,0,1,.31-.25,2.27,2.27,0,0,1,.34-.19,1.66,1.66,0,0,1,.38-.11,2,2,0,0,1,.78,0,1.581,1.581,0,0,1,.37.11,2.371,2.371,0,0,1,.35.19,1.419,1.419,0,0,1,.3.25,2,2,0,0,1,.59,1.41,2.2,2.2,0,0,1-.15.77,1.629,1.629,0,0,1-.19.34,1.42,1.42,0,0,1-.25.3,1.87,1.87,0,0,1-.3.26,2.311,2.311,0,0,1-.35.18,1.45,1.45,0,0,1-.37.11,1.72,1.72,0,0,1-.38.01Z" fill="#ffea27"/>
      <g id="Grupo_8571" data-name="Grupo 8571" style="mix-blend-mode: multiply;isolation: isolate">
        <path id="Trazado_7114" data-name="Trazado 7114" d="M43.24,115.86H25a2,2,0,0,1,0-4H43.2a2,2,0,1,1,0,4Z" fill="#f4d314"/>
      </g>
      <path id="Trazado_7115" data-name="Trazado 7115" d="M70.42,103.64H25a2,2,0,1,1,0-4H70.42a2,2,0,0,1,0,4Z" fill="#ffea27"/>
      <g id="Grupo_8572" data-name="Grupo 8572" style="mix-blend-mode: multiply;isolation: isolate">
        <path id="Trazado_7116" data-name="Trazado 7116" d="M25,103.63a2,2,0,0,1-1.42-.58,1.89,1.89,0,0,1-.25-.31,1.831,1.831,0,0,1-.18-.34,2.29,2.29,0,0,1-.12-.37,2.58,2.58,0,0,1,0-.39,2,2,0,0,1,.59-1.42,2.07,2.07,0,0,1,2.83,0,2,2,0,0,1,.59,1.42,2.58,2.58,0,0,1,0,.39,2.29,2.29,0,0,1-.12.37,1.831,1.831,0,0,1-.18.34,1.87,1.87,0,0,1-.56.56,1.83,1.83,0,0,1-.34.18,2.289,2.289,0,0,1-.37.12,2.56,2.56,0,0,1-.47.03Z" fill="#f4d314"/>
      </g>
      <g id="Grupo_8573" data-name="Grupo 8573" style="mix-blend-mode: multiply;isolation: isolate">
        <path id="Trazado_7117" data-name="Trazado 7117" d="M88.68,103.64H62.92a2,2,0,1,1,0-4H88.68a2,2,0,0,1,0,4Z" fill="#f4d314"/>
      </g>
      <path id="Trazado_7118" data-name="Trazado 7118" d="M112.44,68.17a6.08,6.08,0,0,1-4.86-2.72c-.85-1-1.15-1.28-1.78-1.28s-.94.26-1.79,1.28a5.71,5.71,0,0,1-9.73,0c-.85-1-1.14-1.28-1.78-1.28a2,2,0,0,1,0-4,6.08,6.08,0,0,1,4.86,2.72c.85,1,1.15,1.28,1.79,1.28s.93-.25,1.78-1.28a5.71,5.71,0,0,1,9.73,0c.85,1,1.14,1.28,1.78,1.28a2,2,0,0,1,0,4Z" fill="#95a6b1"/>
      <path id="Trazado_7119" data-name="Trazado 7119" d="M27.59,64.41a6.16,6.16,0,0,1-4.91-2.71c-.83-1-1.16-1.29-1.87-1.29s-1,.31-1.86,1.29A6.18,6.18,0,0,1,14,64.41,6.16,6.16,0,0,1,9.12,61.7c-.83-1-1.16-1.29-1.87-1.29a2,2,0,0,1,0-4,6.19,6.19,0,0,1,4.92,2.7c.83,1,1.15,1.3,1.86,1.3s1-.32,1.87-1.3a6.15,6.15,0,0,1,4.91-2.7,6.16,6.16,0,0,1,4.92,2.7c.83,1,1.15,1.3,1.86,1.3a2,2,0,1,1,0,4Z" fill="#95a6b1"/>
      <path id="Trazado_7120" data-name="Trazado 7120" d="M26.83,87a2,2,0,0,1-1.41-3.41l7.3-7.3a2,2,0,0,1,2.82,2.82l-7.3,7.31A2,2,0,0,1,26.83,87Z" fill="#95a6b1"/>
      <path id="Trazado_7121" data-name="Trazado 7121" d="M44,58.46H34a2,2,0,0,1,0-4H44a2,2,0,0,1,0,4Z" fill="#95a6b1"/>
      <path id="Trazado_7122" data-name="Trazado 7122" d="M78.43,39.32a2,2,0,0,1-2.01-2,2.2,2.2,0,0,1,.15-.77,1.83,1.83,0,0,1,.18-.34,1.87,1.87,0,0,1,.56-.56,1.83,1.83,0,0,1,.34-.18,1.66,1.66,0,0,1,.38-.11,1.71,1.71,0,0,1,.78,0,1.58,1.58,0,0,1,.37.11,2.309,2.309,0,0,1,.35.18,2.48,2.48,0,0,1,.3.25,2,2,0,0,1-1.41,3.42Z" fill="#95a6b1"/>
      <path id="Trazado_7123" data-name="Trazado 7123" d="M65.52,39.32H35.34a2,2,0,0,1-2-2V32a2,2,0,0,1,4,0v3.29H65.52a2,2,0,0,1,0,4Z" fill="#95a6b1"/>
      <path id="Trazado_7124" data-name="Trazado 7124" d="M34.11,28.7A8.675,8.675,0,1,1,42,16.42h0a8.68,8.68,0,0,1-4.28,11.49A8.57,8.57,0,0,1,34.11,28.7Zm0-13.34a4.761,4.761,0,1,0,1.62.32,4.83,4.83,0,0,0-1.63-.32Z" fill="#ffea27"/>
      <path id="Trazado_7125" data-name="Trazado 7125" d="M83.75,39.32H78.43a2,2,0,0,1,0-4h3.32V21.4h-35a2,2,0,0,1,0-4h35a4,4,0,0,1,4,4V37.32A2,2,0,0,1,83.75,39.32Z" fill="#95a6b1"/>
      <path id="Trazado_7126" data-name="Trazado 7126" d="M75.52,21.42H51.42a2,2,0,0,1-2-2V13.6A3.88,3.88,0,0,1,53.3,9.72H73.9a3.63,3.63,0,0,1,3.62,3.62v6.08A2,2,0,0,1,75.52,21.42Zm-22.1-4h20.1v-3.7H53.42Zm20.48-3.7Z" fill="#95a6b1"/>
      <path id="Trazado_7127" data-name="Trazado 7127" d="M83.82,28.09H46.17a2,2,0,0,1,0-4H83.82a2,2,0,0,1,0,4Z" fill="#95a6b1"/>
      <path id="Trazado_7128" data-name="Trazado 7128" d="M27.45,64.43a2,2,0,0,1-2-2V39.59a4.26,4.26,0,0,1,4.26-4.25H65.52a2,2,0,0,1,0,4H29.71a.25.25,0,0,0-.26.25V62.43A2,2,0,0,1,27.45,64.43Z" fill="#95a6b1"/>
      <path id="Trazado_7129" data-name="Trazado 7129" d="M92.1,64.43a2,2,0,0,1-2-2V39.29H78.42a2,2,0,0,1,0-4H90.15a4,4,0,0,1,3.94,3.95V62.43a2,2,0,0,1-1.99,2Z" fill="#95a6b1"/>
      <path id="Trazado_7130" data-name="Trazado 7130" d="M27.45,45.43a2,2,0,0,1,0-4h23a2,2,0,0,1,0,4Z" fill="#95a6b1"/>
      <line id="Línea_1776" data-name="Línea 1776" y2="19.03" transform="translate(43.96 43.4)" fill="#fff"/>
      <path id="Trazado_7131" data-name="Trazado 7131" d="M44,64.43a2,2,0,0,1-2-2v-19a2,2,0,0,1,4,0v19A2,2,0,0,1,44,64.43Z" fill="#95a6b1"/>
      <path id="Trazado_7132" data-name="Trazado 7132" d="M44,51.36H34a2,2,0,0,1,0-4H44a2,2,0,0,1,0,4Z" fill="#95a6b1"/>
      <path id="Trazado_7133" data-name="Trazado 7133" d="M33.92,64.43a2,2,0,0,1-2-2v-19a2,2,0,0,1,4,0v19A2,2,0,0,1,33.92,64.43Z" fill="#95a6b1"/>
      <path id="Trazado_7134" data-name="Trazado 7134" d="M50.43,64.43a2,2,0,0,1-2-2V37.32a2,2,0,0,1,4,0V62.43A2,2,0,0,1,50.43,64.43Z" fill="#95a6b1"/>
      <path id="Trazado_7135" data-name="Trazado 7135" d="M78.41,49.22H65.48a2,2,0,0,1-2-2V37.36a2,2,0,0,1,2-2h0a2,2,0,0,1,2,2V45.2H76.4V37.35a2,2,0,0,1,4,0v9.87a2,2,0,0,1-1.99,2Z" fill="#95a6b1"/>
      <path id="Trazado_7136" data-name="Trazado 7136" d="M57.56,21.42a2,2,0,0,1-2-2v-7.7a2,2,0,1,1,4,0v7.7A2,2,0,0,1,57.56,21.42Z" fill="#95a6b1"/>
      <path id="Trazado_7137" data-name="Trazado 7137" d="M63.47,21.42a2,2,0,0,1-2-2v-7.7a2,2,0,1,1,4,0v7.7A2,2,0,0,1,63.47,21.42Z" fill="#95a6b1"/>
      <path id="Trazado_7138" data-name="Trazado 7138" d="M69.59,21.42a2,2,0,0,1-2-2v-7.7a2,2,0,1,1,4,0v7.7A2,2,0,0,1,69.59,21.42Z" fill="#95a6b1"/>
      <path id="Trazado_7139" data-name="Trazado 7139" d="M85.27,49.88a2,2,0,0,1-2-2V37.35a2,2,0,0,1,4,0V47.88A2,2,0,0,1,85.27,49.88Z" fill="#95a6b1"/>
      <path id="Trazado_7140" data-name="Trazado 7140" d="M58,49.88a2,2,0,0,1-2-2V37.35a2,2,0,0,1,4,0V47.88A2,2,0,0,1,58,49.88Z" fill="#95a6b1"/>
      <path id="Trazado_7141" data-name="Trazado 7141" d="M92.1,64.43H27.45a2,2,0,0,1,0-4H92.1a2,2,0,0,1,0,4Z" fill="#95a6b1"/>
      <path id="Trazado_7142" data-name="Trazado 7142" d="M59.78,89.33a2,2,0,0,1-2-2V77.52a2,2,0,0,1,4,0v9.81a2,2,0,0,1-2,2Z" fill="#95a6b1"/>
      <path id="Trazado_7143" data-name="Trazado 7143" d="M92.57,87a2,2,0,0,1-1.42-.58l-7.3-7.31a2,2,0,0,1,2.83-2.82l7.3,7.3A2,2,0,0,1,92.57,87Z" fill="#95a6b1"/>
      <path id="Trazado_7144" data-name="Trazado 7144" d="M34.44,70.44a5.37,5.37,0,0,1-5.36-5.36V62.43a2,2,0,0,1,2-2H37.8a2,2,0,0,1,2,2v2.65a5.37,5.37,0,0,1-5.36,5.36Zm-1.36-6v.65a1.36,1.36,0,0,0,2.72,0v-.65Z" fill="#95a6b1"/>
      <path id="Trazado_7145" data-name="Trazado 7145" d="M59.77,70.44a5.37,5.37,0,0,1-5.36-5.36V62.43a2,2,0,0,1,2-2h6.72a2,2,0,0,1,2,2v2.65A5.37,5.37,0,0,1,59.77,70.44Zm-1.36-6v.65a1.36,1.36,0,0,0,2.72,0v-.65Z" fill="#95a6b1"/>
      <path id="Trazado_7146" data-name="Trazado 7146" d="M84.8,70.44a5.37,5.37,0,0,1-5.36-5.36V62.43a2,2,0,0,1,2-2h6.72a2,2,0,0,1,2,2v2.65a5.37,5.37,0,0,1-5.36,5.36Zm-1.36-6v.65a1.36,1.36,0,0,0,2.72,0v-.65Z" fill="#95a6b1"/>
    </g>
  </g>
</svg>
