<?xml version="1.0" encoding="utf-8"?>
<!-- Generator: Adobe Illustrator 24.0.2, SVG Export Plug-In . SVG Version: 6.00 Build 0)  -->
<svg version="1.1" id="Capa_1" xmlns="http://www.w3.org/2000/svg" xmlns:xlink="http://www.w3.org/1999/xlink" x="0px" y="0px"
	 viewBox="0 0 120 120" style="enable-background:new 0 0 120 120;" xml:space="preserve">
<style type="text/css">
	.st0{fill:none;}
	.st1{fill:#FFEA27;}
	.st2{fill:#F4D314;}
	.st3{fill:#95A6B1;}
</style>
<g>
	<rect class="st0" width="120" height="120"/>
</g>
<g id="Grupo_8465" transform="translate(-21.489 -11.307)">
	<g id="Grupo_8463">
		<g id="Grupo_8461">
			<g id="Línea_2905">
				<path class="st1" d="M78.57,123.57h-18.2c-1.1,0-2-0.9-2-2s0.9-2,2-2h18.2c1.1,0,2,0.9,2,2S79.67,123.57,78.57,123.57z"/>
			</g>
			<g id="Línea_2906">
				<path class="st1" d="M100.51,123.57H91.4c-1.1,0-2-0.9-2-2s0.9-2,2-2h9.11c1.1,0,2,0.9,2,2S101.61,123.57,100.51,123.57z"/>
			</g>
			<g id="Línea_2907">
				<path class="st1" d="M113.31,123.57c-0.53,0-1.04-0.21-1.41-0.58c-0.1-0.1-0.18-0.2-0.25-0.31c-0.08-0.11-0.14-0.22-0.19-0.34
					c-0.05-0.12-0.09-0.25-0.11-0.37c-0.03-0.13-0.04-0.26-0.04-0.4c0-0.53,0.21-1.04,0.59-1.41c0.09-0.09,0.19-0.18,0.3-0.25
					s0.22-0.13,0.35-0.18c0.12-0.05,0.24-0.09,0.37-0.12c0.26-0.05,0.52-0.05,0.78,0c0.13,0.03,0.25,0.07,0.37,0.12
					c0.13,0.05,0.24,0.11,0.35,0.18s0.21,0.16,0.3,0.25c0.1,0.09,0.18,0.19,0.25,0.3s0.14,0.23,0.19,0.35
					c0.05,0.12,0.08,0.24,0.11,0.37s0.04,0.26,0.04,0.39c0,0.54-0.21,1.04-0.59,1.42C114.35,123.36,113.85,123.57,113.31,123.57z"/>
			</g>
			<g id="Línea_2908">
				<path class="st2" d="M67.87,123.57H49.66c-1.1,0-2-0.9-2-2s0.9-2,2-2h18.21c1.1,0,2,0.9,2,2S68.97,123.57,67.87,123.57z"/>
			</g>
		</g>
		<g id="Grupo_8462">
			<g id="Línea_2909">
				<path class="st1" d="M95.05,111.34H49.66c-1.1,0-2-0.9-2-2s0.9-2,2-2h45.39c1.1,0,2,0.9,2,2S96.15,111.34,95.05,111.34z"/>
			</g>
			<g id="Línea_2910">
				<path class="st2" d="M49.66,111.34c-0.53,0-1.03-0.21-1.41-0.58c-0.38-0.38-0.59-0.88-0.59-1.42c0-0.13,0.01-0.26,0.04-0.39
					c0.03-0.13,0.06-0.25,0.11-0.37s0.12-0.24,0.19-0.35s0.15-0.21,0.25-0.3c0.74-0.74,2.08-0.75,2.82,0
					c0.38,0.37,0.59,0.89,0.59,1.41c0,0.54-0.21,1.04-0.59,1.42C50.7,111.13,50.19,111.34,49.66,111.34z"/>
			</g>
			<g id="Línea_2911">
				<path class="st2" d="M113.31,111.34H87.55c-1.1,0-2-0.9-2-2s0.9-2,2-2h25.76c1.1,0,2,0.9,2,2S114.41,111.34,113.31,111.34z"/>
			</g>
		</g>
	</g>
	<g>
		<g id="Trazado_7176">
			<path class="st1" d="M56.26,36.7c-1.04,0-2.08-0.19-3.09-0.56c-2.21-0.82-3.96-2.46-4.94-4.6s-1.07-4.54-0.24-6.75
				c0.82-2.21,2.46-3.96,4.6-4.94c4.39-2.02,9.61-0.1,11.65,4.28c0.01,0.02,0.02,0.05,0.03,0.07l0,0c0.98,2.15,1.07,4.55,0.24,6.76
				c-0.82,2.21-2.46,3.96-4.6,4.94C58.75,36.44,57.5,36.7,56.26,36.7z M56.26,23.05c-0.67,0-1.35,0.14-2,0.44
				c-1.18,0.54-2.07,1.49-2.52,2.7s-0.4,2.52,0.13,3.69c0.53,1.18,1.49,2.07,2.7,2.52s2.52,0.4,3.69-0.13
				c1.17-0.53,2.07-1.49,2.52-2.7c0.45-1.2,0.4-2.5-0.12-3.66c-0.01-0.02-0.02-0.04-0.03-0.06C59.82,24.08,58.07,23.05,56.26,23.05z
				 M64.46,25.04L64.46,25.04L64.46,25.04z"/>
		</g>
		<g id="Grupo_8464">
			<g id="Trazado_7177">
				<path class="st3" d="M105.76,68.31c-1.1,0-2-0.9-2-2V25.2H69.13c-1.1,0-2-0.9-2-2s0.9-2,2-2h36.63c1.1,0,2,0.9,2,2v43.11
					C107.76,67.41,106.86,68.31,105.76,68.31z"/>
			</g>
			<g id="Trazado_7178">
				<path class="st3" d="M83.03,93.68H64.2c-7.64-0.01-13.85-6.23-13.85-13.86V41.96c0-1.1,0.9-2,2-2s2,0.9,2,2v37.86
					c0,5.43,4.42,9.85,9.85,9.86l23.28-0.01l0,0c1.1,0,2,0.89,2,2c0,1.1-0.89,2-2,2L83.03,93.68z"/>
			</g>
		</g>
		<g id="Trazado_7179">
			<path class="st3" d="M95.74,86.26c-0.18,0-0.35-0.01-0.53-0.04c-0.91-0.14-1.71-0.62-2.25-1.36l-2.4-3.27
				c-0.65-0.89-0.46-2.14,0.43-2.8c0.89-0.65,2.14-0.46,2.8,0.43l1.99,2.71l6.77-7.65c0.73-0.83,2-0.9,2.82-0.17
				c0.83,0.73,0.9,2,0.17,2.82l-7.23,8.17c-0.15,0.17-0.33,0.34-0.54,0.49C97.17,86.03,96.46,86.26,95.74,86.26z M95.31,82.45
				L95.31,82.45L95.31,82.45z"/>
		</g>
		<g id="Trazado_7180">
			<path class="st3" d="M98.09,100.59c-0.22,0-0.45-0.02-0.66-0.06c-3.17-0.62-18.91-5.1-16.53-31.74c0.17-1.71,1.57-3.05,3.27-3.12
				l0,0c4.34-0.18,8.43-1.71,11.83-4.4c1.25-0.99,3-0.99,4.25,0c3.45,2.5,7.59,4.04,11.9,4.41c1.59,0.14,2.9,1.4,3.11,2.99
				c1.42,12.32-2.05,27.1-16.07,31.75C98.83,100.53,98.46,100.59,98.09,100.59z M98.2,96.6C98.2,96.6,98.21,96.6,98.2,96.6
				C98.21,96.6,98.2,96.6,98.2,96.6z M84.84,69.63C83.02,92.02,95.2,95.96,98.06,96.57c14.24-4.83,13.87-21.28,13.28-26.96
				c-4.74-0.48-9.29-2.19-13.21-4.94C94.28,67.62,89.7,69.33,84.84,69.63z M84.25,67.66L84.25,67.66L84.25,67.66z M97.84,64.45
				c0.01,0.01,0.01,0.01,0.02,0.02C97.85,64.46,97.84,64.46,97.84,64.45z"/>
		</g>
		<g id="Línea_2912">
			<path class="st3" d="M88.41,45.36H63.08c-1.1,0-2-0.9-2-2s0.9-2,2-2h25.33c1.1,0,2,0.9,2,2S89.51,45.36,88.41,45.36z"/>
		</g>
		<g id="Línea_2913">
			<path class="st3" d="M88.41,55.59H63.08c-1.1,0-2-0.9-2-2s0.9-2,2-2h25.33c1.1,0,2,0.9,2,2S89.51,55.59,88.41,55.59z"/>
		</g>
		<g id="Línea_2914">
			<path class="st3" d="M77.41,66.04H63.08c-1.1,0-2-0.9-2-2s0.9-2,2-2h14.33c1.1,0,2,0.9,2,2S78.51,66.04,77.41,66.04z"/>
		</g>
	</g>
</g>
</svg>
