<svg xmlns="http://www.w3.org/2000/svg" width="120" height="120" viewBox="0 0 120 120">
  <g id="_01-icon_ocenza_hitos_hitos-7" data-name="01-icon_ocenza_hitos_hitos-7" style="isolation: isolate">
    <g id="Capa_1" data-name="Capa 1">
      <rect id="Rectángulo_2944" data-name="Rectángulo 2944" width="120" height="120" fill="none"/>
      <path id="Trazado_7195" data-name="Trazado 7195" d="M54,115.86H35.74a2,2,0,0,1,0-4H54a2,2,0,1,1,0,4Z" fill="#ffea27"/>
      <path id="Trazado_7196" data-name="Trazado 7196" d="M75.88,115.86h-9.1a2,2,0,0,1,0-4h9.1a2,2,0,0,1,0,4Z" fill="#ffea27"/>
      <path id="Trazado_7197" data-name="Trazado 7197" d="M88.68,115.86a2.008,2.008,0,0,1-1.42-3.42,2.08,2.08,0,0,1,2.83,0,1.992,1.992,0,0,1,0,2.83,1.42,1.42,0,0,1-.3.25,1.7,1.7,0,0,1-.35.19,1.58,1.58,0,0,1-.37.11,1.721,1.721,0,0,1-.39.04Z" fill="#ffea27"/>
      <g id="Grupo_8580" data-name="Grupo 8580" style="mix-blend-mode: multiply;isolation: isolate">
        <path id="Trazado_7198" data-name="Trazado 7198" d="M43.24,115.86H25a2,2,0,0,1,0-4H43.2a2,2,0,1,1,0,4Z" fill="#f4d314"/>
      </g>
      <path id="Trazado_7199" data-name="Trazado 7199" d="M70.42,103.64H25a2,2,0,1,1,0-4H70.42a2,2,0,0,1,0,4Z" fill="#ffea27"/>
      <g id="Grupo_8581" data-name="Grupo 8581" style="mix-blend-mode: multiply;isolation: isolate">
        <path id="Trazado_7200" data-name="Trazado 7200" d="M25,103.63a2.6,2.6,0,0,1-.4,0,2.289,2.289,0,0,1-.37-.12,1.83,1.83,0,0,1-.34-.18,1.89,1.89,0,0,1-.31-.25,2,2,0,0,1-.58-1.42,1.72,1.72,0,0,1,0-.39,1.58,1.58,0,0,1,.11-.37,2.309,2.309,0,0,1,.18-.35,2.48,2.48,0,0,1,.25-.3,1.89,1.89,0,0,1,.31-.25,1.83,1.83,0,0,1,.34-.18,2.648,2.648,0,0,1,.37-.12,2.1,2.1,0,0,1,.79,0,2.649,2.649,0,0,1,.37.12,2.309,2.309,0,0,1,.35.18,2.34,2.34,0,0,1,.3.25,1.809,1.809,0,0,1,.25.3,2.427,2.427,0,0,1,.3.72,2.56,2.56,0,0,1,0,.39,2,2,0,0,1-.58,1.42,2.16,2.16,0,0,1-.65.43,2,2,0,0,1-.69.12Z" fill="#f4d314"/>
      </g>
      <g id="Grupo_8582" data-name="Grupo 8582" style="mix-blend-mode: multiply;isolation: isolate">
        <path id="Trazado_7201" data-name="Trazado 7201" d="M88.68,103.64H62.92a2,2,0,1,1,0-4H88.68a2,2,0,0,1,0,4Z" fill="#f4d314"/>
      </g>
      <path id="Trazado_7202" data-name="Trazado 7202" d="M79.48,81H68.91a2,2,0,0,1,0-4H79.48a2,2,0,0,1,0,4Z" fill="#95a6b1"/>
      <path id="Trazado_7203" data-name="Trazado 7203" d="M79.48,74.3H68.91a2,2,0,0,1,0-4H79.48a2,2,0,0,1,0,4Z" fill="#95a6b1"/>
      <path id="Trazado_7204" data-name="Trazado 7204" d="M100,68.27a2.6,2.6,0,0,1-.4,0,2.65,2.65,0,0,1-.37-.12,1.83,1.83,0,0,1-.34-.18l-.31-.25A2,2,0,0,1,98,66.27a1.72,1.72,0,0,1,0-.39,1.581,1.581,0,0,1,.11-.37,2.31,2.31,0,0,1,.18-.35,2.478,2.478,0,0,1,.25-.3,1.889,1.889,0,0,1,.31-.25,1.829,1.829,0,0,1,.34-.18,2.4,2.4,0,0,1,.38-.12,2,2,0,0,1,.78,0,2.65,2.65,0,0,1,.37.12,2.311,2.311,0,0,1,.35.18,2.16,2.16,0,0,1,.55.55,2.426,2.426,0,0,1,.3.72,2.58,2.58,0,0,1,0,.39,2,2,0,0,1-2,2Z" fill="#95a6b1"/>
      <path id="Trazado_7205" data-name="Trazado 7205" d="M90.55,68.28H68.42a2,2,0,0,1-2-2V59a2,2,0,0,1,4,0v5.32H90.55a2,2,0,0,1,0,4Z" fill="#95a6b1"/>
      <path id="Trazado_7206" data-name="Trazado 7206" d="M103.91,68.28H100a2,2,0,0,1,0-4h1.9V55.15l-27.25-.3V59a2,2,0,0,1-4,0V54.77A3.93,3.93,0,0,1,71.83,52a3.74,3.74,0,0,1,2.81-1.13l27.84.3a3.45,3.45,0,0,1,3.43,3.46V66.28A2,2,0,0,1,103.91,68.28Zm-1.47-13.13Z" fill="#95a6b1"/>
      <path id="Trazado_7207" data-name="Trazado 7207" d="M97.12,54.83H79.45a2,2,0,0,1-2-2v-5a3.39,3.39,0,0,1,3.38-3.38h15.1a3.19,3.19,0,0,1,3.19,3.19v5.22A2,2,0,0,1,97.12,54.83Zm-15.67-4H95.12V48.42H81.45Zm14.48-2.41Z" fill="#95a6b1"/>
      <path id="Trazado_7208" data-name="Trazado 7208" d="M104,61H68.42a2,2,0,0,1,0-4H104a2,2,0,0,1,0,4Z" fill="#95a6b1"/>
      <path id="Trazado_7209" data-name="Trazado 7209" d="M62.64,86.68a2,2,0,0,1-2-2V67.94a3.66,3.66,0,0,1,3.65-3.65H90.55a2,2,0,0,1,0,4H64.64V84.68A2,2,0,0,1,62.64,86.68Z" fill="#95a6b1"/>
      <path id="Trazado_7210" data-name="Trazado 7210" d="M110,86a2,2,0,0,1-2-2V68.29h-8a2,2,0,0,1,0-4h8.59A3.44,3.44,0,0,1,112,67.72V84A2,2,0,0,1,110,86Z" fill="#95a6b1"/>
      <path id="Trazado_7211" data-name="Trazado 7211" d="M68.91,86a2,2,0,0,1-2-2V66.3a2,2,0,0,1,4,0V84A2,2,0,0,1,68.91,86Z" fill="#95a6b1"/>
      <path id="Trazado_7212" data-name="Trazado 7212" d="M79.48,87.54a2,2,0,0,1-2-2V66.28a2,2,0,0,1,4,0V85.54A2,2,0,0,1,79.48,87.54Z" fill="#95a6b1"/>
      <path id="Trazado_7213" data-name="Trazado 7213" d="M100,75.54H90.52a2,2,0,0,1-2-2V66.32a2,2,0,0,1,4,0v5.22H98V66.3a2,2,0,0,1,4,0v7.24A2,2,0,0,1,100,75.54Z" fill="#95a6b1"/>
      <path id="Trazado_7214" data-name="Trazado 7214" d="M105,76a2,2,0,0,1-2-2V66.3a2,2,0,0,1,4,0V74A2,2,0,0,1,105,76Z" fill="#95a6b1"/>
      <path id="Trazado_7215" data-name="Trazado 7215" d="M85,76a2,2,0,0,1-2-2V66.3a2,2,0,0,1,4,0V74A2,2,0,0,1,85,76Z" fill="#95a6b1"/>
      <path id="Trazado_7216" data-name="Trazado 7216" d="M15.63,54.83a7.9,7.9,0,0,1-2.7-.49A7.72,7.72,0,1,1,22.64,43.9h0a7.661,7.661,0,0,1-6.96,10.93Zm0-11.43a3.706,3.706,0,1,0,1.29.23,3.64,3.64,0,0,0-1.3-.23Z" fill="#ffea27"/>
      <path id="Trazado_7217" data-name="Trazado 7217" d="M46.31,67.1a2,2,0,0,1-2-2V53a.23.23,0,0,0-.23-.24H25.94a2,2,0,1,1,0-4H44.08A4.24,4.24,0,0,1,48.31,53V65.1A2,2,0,0,1,46.31,67.1Z" fill="#95a6b1"/>
      <path id="Trazado_7218" data-name="Trazado 7218" d="M15.9,66.07a2,2,0,0,1-2-2V58a2,2,0,0,1,4,0v6.12A2,2,0,0,1,15.9,66.07Z" fill="#95a6b1"/>
      <path id="Trazado_7219" data-name="Trazado 7219" d="M39.58,52.75a2,2,0,0,1-2-2V43.84H25.94a2,2,0,1,1,0-4H38.09a3.49,3.49,0,0,1,3.49,3.49v7.42A2,2,0,0,1,39.58,52.75Zm-1.49-8.91Z" fill="#95a6b1"/>
      <path id="Trazado_7220" data-name="Trazado 7220" d="M45.91,86.82a2.1,2.1,0,0,1-.56-.08A2,2,0,0,1,44,84.26l4.56-15.64L30.24,58.47,11.79,68.61l4.82,14.86A2,2,0,0,1,12.8,84.7l-4.86-15a3.71,3.71,0,0,1,1.74-4.49L28.44,54.9a3.73,3.73,0,0,1,3.62,0l18.6,10.32a3.76,3.76,0,0,1,1.73,4.48L47.83,85.38A2,2,0,0,1,45.91,86.82ZM48.57,68.5Zm-36.85-.1Z" fill="#95a6b1"/>
      <path id="Trazado_7221" data-name="Trazado 7221" d="M30.25,86.48a2,2,0,0,1-2-2V56.42a2,2,0,0,1,4,0V84.48A2,2,0,0,1,30.25,86.48Z" fill="#95a6b1"/>
      <circle id="Elipse_1209" data-name="Elipse 1209" cx="2.27" cy="2.27" r="2.27" transform="translate(18.88 66.67)" fill="#95a6b1"/>
      <circle id="Elipse_1210" data-name="Elipse 1210" cx="2.27" cy="2.27" r="2.27" transform="translate(37.02 66.67)" fill="#95a6b1"/>
      <path id="Trazado_7222" data-name="Trazado 7222" d="M36.65,43.84H25.08V32.23A3.24,3.24,0,0,1,28.33,29h5a3.35,3.35,0,0,1,3.34,3.34Zm-7.57-4h3.57V33H29.08Z" fill="#95a6b1"/>
      <path id="Trazado_7223" data-name="Trazado 7223" d="M114.44,88.22a7.69,7.69,0,0,1-5.12-1.89,4.88,4.88,0,0,0-6.57,0,7.88,7.88,0,0,1-10.24,0,4.9,4.9,0,0,0-6.58,0,7.89,7.89,0,0,1-10.25,0,4.9,4.9,0,0,0-6.58,0,7.88,7.88,0,0,1-10.24,0,4.88,4.88,0,0,0-6.57,0,7.89,7.89,0,0,1-10.25,0,4.9,4.9,0,0,0-6.58,0,7.88,7.88,0,0,1-10.24,0,4.9,4.9,0,0,0-6.58,0,7.72,7.72,0,0,1-5.13,1.89,7.69,7.69,0,0,1-5.12-1.89,4.73,4.73,0,0,0-3.3-1.27,1.53,1.53,0,0,1,0-3,7.7,7.7,0,0,1,5.13,1.88,4.88,4.88,0,0,0,6.59,0,7.91,7.91,0,0,1,10.24,0,4.87,4.87,0,0,0,6.58,0,7.93,7.93,0,0,1,10.25,0,4.87,4.87,0,0,0,6.58,0,7.91,7.91,0,0,1,10.24,0,4.86,4.86,0,0,0,6.57,0,7.91,7.91,0,0,1,10.24,0,4.87,4.87,0,0,0,6.58,0,7.93,7.93,0,0,1,10.25,0,4.87,4.87,0,0,0,6.58,0,7.91,7.91,0,0,1,10.24,0,4.69,4.69,0,0,0,3.28,1.28,1.53,1.53,0,1,1,0,3Z" fill="#94a5b0"/>
      <path id="Trazado_7224" data-name="Trazado 7224" d="M46.31,61a2.047,2.047,0,0,1-1.58-3.31L82,12.59a3.7,3.7,0,0,0-3.38.68c-21.71,17.61-36,29.52-37.37,31.15a2,2,0,0,1-3.43-2c.33-.62,1.11-2.06,38.28-32.21a7.68,7.68,0,0,1,10.3.53,2,2,0,0,1,.13,2.69L47.85,60.23A2,2,0,0,1,46.31,61Zm-5-16.68-.06.11a.41.41,0,0,0,.09-.15Z" fill="#95a6b1"/>
      <path id="Trazado_7225" data-name="Trazado 7225" d="M85,33.93a2,2,0,0,1-2-2V12.12a2,2,0,0,1,4,0V31.93A2,2,0,0,1,85,33.93Z" fill="#95a6b1"/>
      <path id="Trazado_7226" data-name="Trazado 7226" d="M61.15,43a2.581,2.581,0,0,1-.39,0L45.19,39.9A2.026,2.026,0,1,1,46,35.93l13.59,2.71,3.19-17a2,2,0,0,1,1.43-1.55l15.71-4.38A2.009,2.009,0,0,1,81,19.58l-14.52,4L63.11,41.37a2,2,0,0,1-2,1.63Z" fill="#95a6b1"/>
    </g>
  </g>
</svg>
