<?xml version="1.0" encoding="utf-8"?>
<!-- Generator: Adobe Illustrator 24.0.2, SVG Export Plug-In . SVG Version: 6.00 Build 0)  -->
<svg version="1.1" id="Capa_1" xmlns="http://www.w3.org/2000/svg" xmlns:xlink="http://www.w3.org/1999/xlink" x="0px" y="0px"
	 viewBox="0 0 120 120" style="enable-background:new 0 0 120 120;" xml:space="preserve">
<style type="text/css">
	.st0{fill:none;}
	.st1{fill:#FFEA27;}
	.st2{fill:#F4D314;}
	.st3{fill:#95A6B1;}
	.st4{fill:#94A5B0;}
</style>
<g>
	<rect class="st0" width="120" height="120"/>
</g>
<g>
	<g>
		<g>
			<path class="st1" d="M57.09,115.06H38.88c-1.1,0-2-0.9-2-2s0.9-2,2-2h18.21c1.1,0,2,0.9,2,2S58.19,115.06,57.09,115.06z"/>
		</g>
		<g>
			<path class="st1" d="M79.02,115.06h-9.1c-1.1,0-2-0.9-2-2s0.9-2,2-2h9.1c1.1,0,2,0.9,2,2S80.12,115.06,79.02,115.06z"/>
		</g>
		<g>
			<path class="st1" d="M91.82,115.06c-0.27,0-0.52-0.05-0.77-0.15c-0.24-0.1-0.46-0.25-0.64-0.44c-0.38-0.38-0.59-0.88-0.59-1.41
				c0-0.53,0.21-1.04,0.59-1.41c0.46-0.47,1.15-0.68,1.8-0.55c0.13,0.02,0.25,0.06,0.37,0.11s0.24,0.11,0.35,0.19
				c0.11,0.07,0.21,0.15,0.3,0.25c0.1,0.09,0.18,0.19,0.25,0.3c0.08,0.11,0.14,0.22,0.19,0.34s0.08,0.25,0.11,0.38
				c0.03,0.13,0.04,0.26,0.04,0.39c0,0.54-0.21,1.04-0.59,1.41C92.86,114.85,92.35,115.06,91.82,115.06z"/>
		</g>
		<g>
			<path class="st2" d="M46.38,115.06h-18.2c-1.1,0-2-0.9-2-2s0.9-2,2-2h18.2c1.1,0,2,0.9,2,2S47.48,115.06,46.38,115.06z"/>
		</g>
	</g>
	<g>
		<g>
			<path class="st1" d="M73.56,102.83H28.18c-1.1,0-2-0.9-2-2s0.9-2,2-2h45.38c1.1,0,2,0.9,2,2S74.66,102.83,73.56,102.83z"/>
		</g>
		<g>
			<path class="st2" d="M28.18,102.83c-0.27,0-0.52-0.05-0.77-0.15c-0.24-0.1-0.46-0.25-0.65-0.44c-0.37-0.37-0.58-0.88-0.58-1.41
				c0-0.53,0.21-1.04,0.58-1.41c0.1-0.1,0.2-0.18,0.31-0.25s0.22-0.14,0.35-0.19c0.12-0.05,0.24-0.09,0.37-0.11
				c0.65-0.13,1.34,0.08,1.8,0.55c0.38,0.37,0.59,0.88,0.59,1.41c0,0.54-0.21,1.04-0.59,1.41
				C29.22,102.62,28.71,102.83,28.18,102.83z"/>
		</g>
		<g>
			<path class="st2" d="M91.82,102.83H66.06c-1.1,0-2-0.9-2-2s0.9-2,2-2h25.76c1.1,0,2,0.9,2,2S92.92,102.83,91.82,102.83z"/>
		</g>
	</g>
</g>
<g>
	<g>
		<g>
			<path class="st3" d="M71.6,64.38c-15.42,0-27.96-12.54-27.96-27.96c0-15.41,12.54-27.95,27.96-27.95c1.74,0,3.48,0.16,5.17,0.48
				c1.29,0.24,2.14,1.49,1.9,2.78c-0.24,1.29-1.49,2.14-2.78,1.9c-1.41-0.26-2.85-0.4-4.29-0.4c-12.79,0-23.2,10.4-23.2,23.19
				c0,12.79,10.41,23.2,23.2,23.2c12.79,0,23.19-10.41,23.19-23.2c0-1.31,1.07-2.38,2.38-2.38s2.38,1.07,2.38,2.38
				C99.55,51.84,87.01,64.38,71.6,64.38z"/>
		</g>
		<g>
			<path class="st3" d="M107.47,91.34c-0.76,0-1.51-0.37-1.97-1.05L84.23,58.8c-0.74-1.09-0.45-2.57,0.64-3.31
				c1.09-0.73,2.57-0.45,3.31,0.64l21.27,31.49c0.74,1.09,0.45,2.57-0.64,3.31C108.39,91.21,107.93,91.34,107.47,91.34z"/>
		</g>
	</g>
	<g>
		<g>
			<path class="st3" d="M19.37,91.63c-0.69,0-1.37-0.3-1.84-0.87L9.3,80.74c-0.4-0.49-0.59-1.12-0.53-1.75s0.38-1.21,0.87-1.61
				l35.98-29.17c1.02-0.83,2.52-0.67,3.35,0.35c0.83,1.02,0.67,2.52-0.35,3.35L14.5,79.57l5.21,6.35l35.62-28.6
				c1.02-0.82,2.52-0.66,3.35,0.37c0.82,1.03,0.66,2.52-0.37,3.35L20.86,91.11C20.42,91.46,19.89,91.63,19.37,91.63z"/>
		</g>
		<g>
			<path class="st4" d="M36.1,78.22c-0.35,0-0.71-0.08-1.05-0.25L22.26,71.7c-1.18-0.58-1.67-2.01-1.09-3.19
				c0.58-1.18,2.01-1.67,3.19-1.09l12.79,6.28c1.18,0.58,1.67,2.01,1.09,3.19C37.82,77.73,36.98,78.22,36.1,78.22z"/>
		</g>
		<g>
			<path class="st4" d="M48.08,68.62c-0.35,0-0.71-0.08-1.05-0.24l-12.8-6.28c-1.18-0.58-1.67-2.01-1.09-3.19
				c0.58-1.18,2.01-1.67,3.19-1.09l12.8,6.28c1.18,0.58,1.67,2.01,1.09,3.19C49.8,68.13,48.96,68.62,48.08,68.62z"/>
		</g>
	</g>
	<g>
		<g>
			<path class="st3" d="M69.55,55.89c-0.69,0-1.37-0.3-1.84-0.87L54.2,38.57c-0.4-0.49-0.59-1.12-0.53-1.74
				c0.06-0.63,0.37-1.21,0.86-1.61l8.12-6.66c1.02-0.83,2.52-0.69,3.35,0.33L79.5,45.34c0.4,0.49,0.59,1.12,0.53,1.74
				c-0.06,0.63-0.37,1.21-0.86,1.61l-8.12,6.66C70.62,55.71,70.08,55.89,69.55,55.89z M59.39,37.38l10.49,12.77l4.44-3.64
				L63.83,33.74L59.39,37.38z"/>
		</g>
		<g>
			<path class="st3" d="M80.54,51.89c-1.11,0-2.22-0.48-2.98-1.4L60.58,29.78c-1.35-1.63-1.11-4.07,0.53-5.43l3.45-2.83
				c1.64-1.35,4.07-1.12,5.43,0.53l16.99,20.69c1.33,1.67,1.08,4.1-0.54,5.44c0,0,0,0-0.01,0.01l-3.44,2.82
				C82.27,51.6,81.4,51.89,80.54,51.89z M79.96,47.33C79.96,47.33,79.96,47.33,79.96,47.33L79.96,47.33z M64.83,27.46l15.82,19.3
				l2.06-1.69L66.87,25.78L64.83,27.46z M84.91,46.35L84.91,46.35L84.91,46.35z M64.26,26.75L64.26,26.75
				C64.26,26.76,64.26,26.76,64.26,26.75z M67.57,25.21L67.57,25.21C67.57,25.21,67.57,25.21,67.57,25.21z"/>
		</g>
		<g>
			<path class="st3" d="M60.23,61.7c-0.69,0-1.37-0.3-1.84-0.87c-0.83-1.02-0.69-2.52,0.33-3.35l6.58-5.4l-8.89-10.82l-6.89,5.66
				c-1.02,0.83-2.52,0.69-3.35-0.33c-0.83-1.02-0.69-2.52,0.33-3.35l8.73-7.17c1.02-0.84,2.52-0.69,3.35,0.33l11.91,14.5
				c0.4,0.49,0.59,1.12,0.53,1.74c-0.06,0.63-0.37,1.21-0.86,1.61l-8.42,6.91C61.3,61.52,60.76,61.7,60.23,61.7z"/>
		</g>
	</g>
</g>
<g>
	<path class="st1" d="M90.33,30.42c-3.61,0-7.06-2.06-8.65-5.54c-1.05-2.3-1.15-4.88-0.26-7.27c0.89-2.38,2.64-4.27,4.95-5.33
		c4.77-2.18,10.41-0.07,12.59,4.69c1,2.18,1.13,4.64,0.38,6.93c-0.82,2.49-2.67,4.55-5.06,5.66C92.99,30.14,91.65,30.42,90.33,30.42
		z M90.3,15.42c-0.76,0-1.54,0.16-2.28,0.5c-1.33,0.61-2.35,1.7-2.86,3.08c-0.51,1.38-0.46,2.87,0.15,4.21
		c1.26,2.75,4.53,3.97,7.29,2.71c1.38-0.64,2.46-1.83,2.93-3.28c0.44-1.33,0.36-2.75-0.22-4.01c0,0,0,0,0,0
		C94.39,16.61,92.39,15.42,90.3,15.42z"/>
</g>
</svg>
