<svg xmlns="http://www.w3.org/2000/svg" width="120.52" height="120" viewBox="0 0 120.52 120">
  <g id="_27-icon_ocenza_tlu2_el_futuro_tlu2_new" data-name="27-icon_ocenza_tlu2_el_futuro_tlu2_new" transform="translate(0.52)">
    <rect id="Rectángulo_2933" data-name="Rectángulo 2933" width="120" height="119.87" transform="translate(-0.52 0.06)" fill="none"/>
    <path id="Trazado_6894" data-name="Trazado 6894" d="M85.35,91.3a8,8,0,0,1-6.07-2.87c-1.16-1.13-2-2-3.82-2s-2.65.82-3.81,2a8,8,0,0,1-6.07,2.87c-3.12,0-4.75-1.59-6.06-2.87s-2-2-3.81-2-2.66.82-3.82,2C50.58,89.71,49,91.3,45.83,91.3a8,8,0,0,1-6.07-2.87c-1.16-1.13-2-2-3.82-2s-2.65.82-3.82,2a7.84,7.84,0,0,1-12.13,0c-1.16-1.13-2-2-3.82-2s-2.65.82-3.82,2A8.1,8.1,0,0,1,6.29,91.3a1.61,1.61,0,1,1,0-3.21c1.81,0,2.65-.82,3.82-2a8.1,8.1,0,0,1,6.06-2.87,8,8,0,0,1,6.07,2.87c1.16,1.14,2,2,3.82,2s2.66-.82,3.82-2c1.31-1.28,2.94-2.87,6.06-2.87A8,8,0,0,1,42,86.13c1.16,1.14,2,2,3.82,2s2.65-.82,3.81-2a8,8,0,0,1,6.07-2.87c3.12,0,4.75,1.59,6.06,2.87,1.16,1.14,2,2,3.81,2s2.66-.82,3.82-2a7.843,7.843,0,0,1,12.13,0c1.16,1.14,2,2,3.82,2a1.61,1.61,0,0,1,0,3.21Z" fill="#95a6b1"/>
    <path id="Trazado_6895" data-name="Trazado 6895" d="M32,82.08H22.46a1.61,1.61,0,0,1,0-3.22H32a1.61,1.61,0,0,1,0,3.22Z" fill="#95a6b1"/>
    <path id="Trazado_6896" data-name="Trazado 6896" d="M65.09,63.73a1.47,1.47,0,0,1-.62-.13A1.61,1.61,0,0,1,64,61a1.67,1.67,0,0,1,2.28,0,1.61,1.61,0,0,1,.47,1.14,1.63,1.63,0,0,1-.47,1.14,1.66,1.66,0,0,1-.53.34,1.42,1.42,0,0,1-.66.11Z" fill="#95a6b1"/>
    <path id="Trazado_6897" data-name="Trazado 6897" d="M52.72,63.73H23.78a1.61,1.61,0,0,1-1.61-1.61V58a1.61,1.61,0,1,1,3.22,0v2.48H52.72a1.61,1.61,0,1,1,0,3.22Z" fill="#95a6b1"/>
    <path id="Trazado_6898" data-name="Trazado 6898" d="M70.19,63.73h-5.1a1.61,1.61,0,1,1,0-3.22h3.49V46.86a.29.29,0,0,0-.29-.29H36.07a1.61,1.61,0,1,1,0-3.22H68.29a3.51,3.51,0,0,1,3.51,3.51V62.12A1.61,1.61,0,0,1,70.19,63.73Z" fill="#95a6b1"/>
    <path id="Trazado_6899" data-name="Trazado 6899" d="M62.3,46.57H39.2A1.61,1.61,0,0,1,37.59,45V39.38A3.41,3.41,0,0,1,41,36H60.74a3.17,3.17,0,0,1,3.17,3.17V45A1.61,1.61,0,0,1,62.3,46.57ZM40.81,43.35H60.69V39.19H41a.19.19,0,0,0-.19.19Zm19.93-4.16Z" fill="#95a6b1"/>
    <path id="Trazado_6900" data-name="Trazado 6900" d="M70.26,53H35.5a1.61,1.61,0,0,1,0-3.21H70.26a1.61,1.61,0,1,1,0,3.21Z" fill="#95a6b1"/>
    <path id="Trazado_6901" data-name="Trazado 6901" d="M16.22,85.9a1.61,1.61,0,0,1-1.61-1.61v-20a3.77,3.77,0,0,1,3.77-3.77H52.72a1.61,1.61,0,0,1,0,3.21H18.38a.56.56,0,0,0-.55.56v20A1.61,1.61,0,0,1,16.22,85.9Z" fill="#95a6b1"/>
    <path id="Trazado_6902" data-name="Trazado 6902" d="M78.2,87.21a1.61,1.61,0,0,1-1.61-1.61V64a.26.26,0,0,0-.26-.26H65.09a1.61,1.61,0,0,1,0-3.22H76.33A3.48,3.48,0,0,1,79.81,64V85.6A1.61,1.61,0,0,1,78.2,87.21Z" fill="#95a6b1"/>
    <path id="Trazado_6903" data-name="Trazado 6903" d="M16.22,69.58a1.61,1.61,0,1,1,0-3.21h22a1.61,1.61,0,0,1,0,3.22Z" fill="#95a6b1"/>
    <line id="Línea_1772" data-name="Línea 1772" y2="18.24" transform="translate(32.04 67.95)" fill="#fff"/>
    <path id="Trazado_6904" data-name="Trazado 6904" d="M32,87.79a1.6,1.6,0,0,1-1.6-1.6V68a1.61,1.61,0,1,1,3.21,0V86.19A1.61,1.61,0,0,1,32,87.79Z" fill="#95a6b1"/>
    <path id="Trazado_6905" data-name="Trazado 6905" d="M32,75.27H22.46a1.61,1.61,0,0,1,0-3.22H32a1.61,1.61,0,0,1,0,3.22Z" fill="#95a6b1"/>
    <path id="Trazado_6906" data-name="Trazado 6906" d="M22.43,89.7a1.61,1.61,0,0,1-1.61-1.61V68A1.61,1.61,0,1,1,24,68V88.09A1.61,1.61,0,0,1,22.43,89.7Z" fill="#95a6b1"/>
    <path id="Trazado_6907" data-name="Trazado 6907" d="M38.25,86.35a1.61,1.61,0,0,1-1.61-1.61V62.12a1.61,1.61,0,1,1,3.22,0V84.74a1.61,1.61,0,0,1-1.61,1.61Z" fill="#95a6b1"/>
    <path id="Trazado_6908" data-name="Trazado 6908" d="M65.07,73.22H52.68a1.6,1.6,0,0,1-1.61-1.61V62.16a1.61,1.61,0,0,1,1.61-1.6h0a1.6,1.6,0,0,1,1.6,1.61V70h9.16V62.15a1.61,1.61,0,1,1,3.22,0v9.46a1.61,1.61,0,0,1-1.59,1.61Z" fill="#95a6b1"/>
    <path id="Trazado_6909" data-name="Trazado 6909" d="M45.08,46.57A1.61,1.61,0,0,1,43.48,45V37.58a1.61,1.61,0,1,1,3.21,0V45A1.61,1.61,0,0,1,45.08,46.57Z" fill="#95a6b1"/>
    <path id="Trazado_6910" data-name="Trazado 6910" d="M50.75,46.57A1.61,1.61,0,0,1,49.14,45V37.58a1.61,1.61,0,0,1,3.22,0V45A1.61,1.61,0,0,1,50.75,46.57Z" fill="#95a6b1"/>
    <path id="Trazado_6911" data-name="Trazado 6911" d="M56.62,46.57A1.61,1.61,0,0,1,55,45V37.58a1.61,1.61,0,1,1,3.22,0V45a1.61,1.61,0,0,1-1.6,1.57Z" fill="#95a6b1"/>
    <path id="Trazado_6912" data-name="Trazado 6912" d="M71.64,73.85A1.61,1.61,0,0,1,70,72.24V62.15a1.61,1.61,0,1,1,3.22,0V72.24a1.61,1.61,0,0,1-1.58,1.61Z" fill="#95a6b1"/>
    <path id="Trazado_6913" data-name="Trazado 6913" d="M45.47,73.85a1.61,1.61,0,0,1-1.61-1.61V62.15a1.61,1.61,0,1,1,3.21,0V72.24a1.61,1.61,0,0,1-1.6,1.61Z" fill="#95a6b1"/>
    <path id="Trazado_6914" data-name="Trazado 6914" d="M100.47,72.44a1.62,1.62,0,0,1-1.25-.6l-5-6.16-6.55,3a1.61,1.61,0,0,1-1.78-.31l-3.3-3.27a1.57,1.57,0,0,1-.44-.77c-3.21-12.88-3.17-13-3.05-13.52.2-.81.25-1,5.06-3l.3-1.82-5.3-2.87a1.71,1.71,0,0,1-.53-.47L76,39.05l-8.71-6.69a1.6,1.6,0,0,1-.61-1.55,1.63,1.63,0,0,1,1.1-1.26l1.58-.49,1.67-4.34-2.31-2.39a1.61,1.61,0,0,1-.45-1.12V18.57a1.59,1.59,0,0,1,.12-.62l1.89-4.51-.19-6.66a1.59,1.59,0,0,1,1-1.52l4.49-1.94a1.57,1.57,0,0,1,1.5.12,1.62,1.62,0,0,1,.74,1.32L78,12.6l3.38.43a1.63,1.63,0,0,1,1.13.7,1.61,1.61,0,0,1,.23,1.3L81,21.78l.43.31,1.48-1.65a1.59,1.59,0,0,1,1.85-.39L93,23.78a1.61,1.61,0,0,1,.91,1.09l.8,3.36,2.64.62a1.61,1.61,0,0,1,1.15,2.09L97,35.44c1.27,2.68,2.62,5.49,3.1,6.43a59.141,59.141,0,0,0,6.19,1.93,1.6,1.6,0,0,1,1,.83l3.17,6.27a1.64,1.64,0,0,1-.09,1.62l-2.14,3.22,3.36,7.55a1.57,1.57,0,0,1,0,1.34l-2.25,4.76a1.62,1.62,0,0,1-1,.85l-7.37,2.13a1.41,1.41,0,0,1-.5.07ZM94.74,62.09a1.62,1.62,0,0,1,1.26.6l5,6.3,5.65-1.64,1.63-3.43-3.42-7.67A1.64,1.64,0,0,1,105,54.7l2.11-3.18-2.43-4.8c-6.6-1.79-7-2.39-7.27-2.92s-2.91-6-3.68-7.58A1.63,1.63,0,0,1,93.71,35l1.19-3.44L93,31.13a1.6,1.6,0,0,1-1.19-1.19L91,26.39l-6.49-2.93L82.83,25.3a1.6,1.6,0,0,1-2.12.24l-2.5-1.77a1.6,1.6,0,0,1-.63-1.71L79.14,16l-3-.37a1.6,1.6,0,0,1-1.4-1.57l-.15-6.83-1.29.56.18,5.91a1.54,1.54,0,0,1-.13.67l-1.9,4.53v1.67l2.58,2.67a1.6,1.6,0,0,1,.34,1.69l-2.32,6a1.59,1.59,0,0,1-.49.68l6.56,5a1.44,1.44,0,0,1,.32.33L81,40.45l6,3.24a1.59,1.59,0,0,1,.82,1.68l-.64,3.84a1.58,1.58,0,0,1-1,1.22c-1.31.54-2.81,1.19-3.74,1.62.51,2.22,1.79,7.43,2.69,11.05l2.23,2.16,6.69-3a1.54,1.54,0,0,1,.69-.17Z" fill="#95a6b1"/>
    <g id="Trazado_5703" data-name="Trazado 5703" opacity="0.85">
      <path id="Trazado_6915" data-name="Trazado 6915" d="M23.78,54.81a9.5,9.5,0,1,1,9.5-9.62v.12a9.51,9.51,0,0,1-9.5,9.5Zm0-15a5.5,5.5,0,1,0,5.45,5.5v-.1a5.45,5.45,0,0,0-5.4-5.4Z" fill="#fff"/>
    </g>
    <path id="Trazado_6916" data-name="Trazado 6916" d="M46.47,115.09H38.08a2,2,0,0,1,0-4h8.39a2,2,0,0,1,0,4Z" fill="#fff"/>
    <g id="Grupo_8541" data-name="Grupo 8541" opacity="0.8" style="isolation: isolate">
      <path id="Trazado_6917" data-name="Trazado 6917" d="M28,102.83a2,2,0,0,1-1.42-.59,1.85,1.85,0,0,1-.43-.64,2,2,0,0,1-.15-.77,2.56,2.56,0,0,1,0-.39,2.427,2.427,0,0,1,.3-.72,1.81,1.81,0,0,1,.25-.3,2,2,0,0,1,1.81-.55,2.65,2.65,0,0,1,.37.12,2.31,2.31,0,0,1,.35.18,2.16,2.16,0,0,1,.55.55,2.427,2.427,0,0,1,.3.72,2.56,2.56,0,0,1,0,.39,2,2,0,0,1-.15.77,1.85,1.85,0,0,1-.43.64,1.94,1.94,0,0,1-.31.26,1.83,1.83,0,0,1-.34.18,1.58,1.58,0,0,1-.37.11,1.721,1.721,0,0,1-.33.04Z" fill="#fff"/>
    </g>
    <g id="Grupo_8542" data-name="Grupo 8542" opacity="0.85">
      <path id="Trazado_6918" data-name="Trazado 6918" d="M79.12,115.12H70a2,2,0,0,1,0-4h9.16a2,2,0,0,1,0,4Z" fill="#fff"/>
    </g>
    <path id="Trazado_6919" data-name="Trazado 6919" d="M92,115.12a2,2,0,0,1-1.41-.59,1.85,1.85,0,0,1-.43-.64,2,2,0,0,1-.15-.77,2.56,2.56,0,0,1,0-.39,2.4,2.4,0,0,1,.12-.38,2.211,2.211,0,0,1,.18-.34,2.48,2.48,0,0,1,.25-.3,2.06,2.06,0,0,1,2.83,0,2,2,0,0,1,.59,1.41,2.08,2.08,0,0,1-.16.77,2,2,0,0,1-.43.64,1.479,1.479,0,0,1-.31.25,1.41,1.41,0,0,1-.34.19,1.58,1.58,0,0,1-.37.11,1.75,1.75,0,0,1-.37.04Z" fill="#fff"/>
    <g id="Grupo_8543" data-name="Grupo 8543" opacity="0.7">
      <path id="Trazado_6920" data-name="Trazado 6920" d="M46.32,115.12H28a2,2,0,0,1,0-4H46.3a2,2,0,0,1,0,4Z" fill="#fff"/>
    </g>
    <g id="Grupo_8544" data-name="Grupo 8544" opacity="0.6">
      <path id="Trazado_6921" data-name="Trazado 6921" d="M57.08,115.12H38.78a2,2,0,1,1,0-4h18.3a2,2,0,0,1,0,4Z" fill="#fff"/>
    </g>
    <g id="Grupo_8545" data-name="Grupo 8545" opacity="0.6" style="isolation: isolate">
      <path id="Trazado_6922" data-name="Trazado 6922" d="M73.63,102.83H28a2,2,0,1,1,0-4H73.63a2,2,0,0,1,0,4Z" fill="#fff"/>
    </g>
    <g id="Grupo_8546" data-name="Grupo 8546" opacity="0.5" style="isolation: isolate">
      <path id="Trazado_6923" data-name="Trazado 6923" d="M92,102.83H66.09a2,2,0,0,1,0-4H92a2,2,0,0,1,0,4Z" fill="#fff"/>
    </g>
    <path id="Trazado_6924" data-name="Trazado 6924" d="M73.66,102.83h-7.5a2,2,0,0,1,0-4h7.5a2,2,0,0,1,0,4Z" fill="#fff"/>
    <rect id="Rectángulo_2934" data-name="Rectángulo 2934" width="120" height="120" fill="none"/>
  </g>
</svg>
