<svg xmlns="http://www.w3.org/2000/svg" width="120" height="119.87" viewBox="0 0 120 119.87">
  <g id="_02-icon_ocenza_home_monoboya" data-name="02-icon_ocenza_home_monoboya" transform="translate(0.52 -0.06)" style="isolation: isolate">
    <g id="Capa_1" data-name="Capa 1">
      <rect id="Rectángulo_2937" data-name="Rectángulo 2937" width="120" height="119.87" transform="translate(-0.52 0.06)" fill="none"/>
      <path id="Trazado_6965" data-name="Trazado 6965" d="M58.15,116.29H40a2,2,0,1,1,0-4H58.2a2,2,0,0,1,0,4Z" fill="#ffea27"/>
      <path id="Trazado_6966" data-name="Trazado 6966" d="M80.08,116.29H71a2,2,0,0,1,0-4h9.1a2,2,0,0,1,0,4Z" fill="#ffea27"/>
      <path id="Trazado_6967" data-name="Trazado 6967" d="M92.88,116.3A2,2,0,0,1,91,115.06a1.82,1.82,0,0,1-.16-.76,2.578,2.578,0,0,1,0-.4,2.649,2.649,0,0,1,.12-.37,2.31,2.31,0,0,1,.18-.35,1.809,1.809,0,0,1,.25-.3,2.06,2.06,0,0,1,2.83,0,2.48,2.48,0,0,1,.25.3,2.309,2.309,0,0,1,.18.35,1.73,1.73,0,0,1,.11.37,1.749,1.749,0,0,1,0,.4,2,2,0,0,1-.15.76,2.16,2.16,0,0,1-.43.65A2,2,0,0,1,92.88,116.3Z" fill="#ffea27"/>
      <g id="Grupo_8553" data-name="Grupo 8553" style="mix-blend-mode: multiply;isolation: isolate">
        <path id="Trazado_6968" data-name="Trazado 6968" d="M47.45,116.29H29.24a2,2,0,1,1,0-4H47.45a2,2,0,0,1,0,4Z" fill="#f4d314"/>
      </g>
      <path id="Trazado_6969" data-name="Trazado 6969" d="M74.63,104.07H29.24a2,2,0,1,1,0-4H74.63a2,2,0,0,1,0,4Z" fill="#ffea27"/>
      <g id="Grupo_8554" data-name="Grupo 8554" style="mix-blend-mode: multiply;isolation: isolate">
        <path id="Trazado_6970" data-name="Trazado 6970" d="M29.24,104.07a2,2,0,0,1-2-2,1.72,1.72,0,0,1,0-.39,1.66,1.66,0,0,1,.11-.38,1.63,1.63,0,0,1,.19-.34,1.76,1.76,0,0,1,.24-.3,2,2,0,0,1,1.81-.55,1.58,1.58,0,0,1,.37.11,1.48,1.48,0,0,1,.35.19,2.16,2.16,0,0,1,.55.55,2.27,2.27,0,0,1,.19.34,2.379,2.379,0,0,1,.11.38,1.72,1.72,0,0,1,0,.39,2,2,0,0,1-2,2Z" fill="#f4d314"/>
      </g>
      <g id="Grupo_8555" data-name="Grupo 8555" style="mix-blend-mode: multiply;isolation: isolate">
        <path id="Trazado_6971" data-name="Trazado 6971" d="M92.88,104.07H67.12a2,2,0,0,1,0-4H92.88a2,2,0,0,1,0,4Z" fill="#f4d314"/>
      </g>
      <path id="Trazado_6972" data-name="Trazado 6972" d="M108.63,76.87c-3.88,0-5.91-2-7.54-3.57-1.44-1.41-2.49-2.43-4.74-2.43s-3.3,1-4.75,2.43c-1.6,1.59-3.6,3.57-7.54,3.57s-5.91-2-7.54-3.57c-1.44-1.41-2.48-2.43-4.74-2.43s-3.3,1-4.74,2.43c-1.63,1.59-3.66,3.57-7.54,3.57s-5.92-2-7.55-3.57c-1.44-1.41-2.49-2.43-4.74-2.43s-3.3,1-4.75,2.43c-1.63,1.59-3.65,3.57-7.54,3.57s-5.91-2-7.54-3.57c-1.45-1.41-2.49-2.43-4.75-2.43s-3.31,1-4.75,2.43c-1.63,1.59-3.66,3.57-7.55,3.57a2,2,0,0,1,0-4c2.26,0,3.31-1,4.75-2.44,1.63-1.59,3.66-3.56,7.55-3.56s5.91,2,7.54,3.56c1.45,1.42,2.49,2.44,4.75,2.44s3.3-1,4.75-2.43c1.62-1.59,3.65-3.57,7.54-3.57s5.91,2,7.54,3.57c1.44,1.41,2.49,2.43,4.75,2.43s3.3-1,4.74-2.43c1.63-1.59,3.65-3.57,7.54-3.57s5.91,2,7.54,3.57c1.44,1.41,2.49,2.43,4.74,2.43s3.3-1,4.75-2.43c1.63-1.59,3.65-3.57,7.54-3.57s5.91,2,7.54,3.57c1.44,1.41,2.49,2.43,4.74,2.43a2,2,0,0,1,0,4Z" fill="#95a6b1"/>
      <path id="Trazado_6973" data-name="Trazado 6973" d="M108.63,88.29c-3.88,0-5.91-2-7.54-3.57-1.44-1.41-2.49-2.43-4.74-2.43s-3.3,1-4.75,2.43c-1.6,1.59-3.6,3.57-7.54,3.57s-5.91-2-7.54-3.57c-1.44-1.41-2.48-2.43-4.74-2.43s-3.3,1-4.74,2.43c-1.63,1.59-3.66,3.57-7.54,3.57s-5.92-2-7.55-3.57c-1.44-1.41-2.49-2.43-4.74-2.43s-3.3,1-4.75,2.43c-1.63,1.59-3.65,3.57-7.54,3.57s-5.91-2-7.54-3.57c-1.45-1.41-2.49-2.43-4.75-2.43s-3.31,1-4.75,2.43c-1.63,1.59-3.66,3.57-7.55,3.57a2,2,0,0,1,0-4c2.26,0,3.31-1,4.75-2.43,1.63-1.59,3.66-3.57,7.55-3.57s5.91,2,7.54,3.57c1.45,1.41,2.49,2.43,4.75,2.43s3.3-1,4.75-2.43c1.62-1.59,3.65-3.57,7.54-3.57s5.91,2,7.54,3.57c1.44,1.41,2.49,2.43,4.75,2.43s3.3-1,4.74-2.43c1.63-1.59,3.65-3.57,7.54-3.57s5.91,2,7.54,3.57c1.44,1.41,2.49,2.43,4.74,2.43s3.3-1,4.75-2.43c1.63-1.59,3.65-3.57,7.54-3.57s5.91,2,7.54,3.57c1.44,1.41,2.49,2.43,4.74,2.43a2,2,0,0,1,0,4Z" fill="#95a6b1"/>
      <path id="Trazado_6974" data-name="Trazado 6974" d="M42.35,65.4H30.44a2,2,0,0,1,0-4H42.35a2,2,0,0,1,0,4Z" fill="#95a6b1"/>
      <path id="Trazado_6975" data-name="Trazado 6975" d="M83.45,42.58A2.03,2.03,0,0,1,82,39.16a2.08,2.08,0,0,1,2.83,0,2,2,0,0,1-1.41,3.42Z" fill="#95a6b1"/>
      <path id="Trazado_6976" data-name="Trazado 6976" d="M68.06,42.58h-36a2,2,0,0,1-2-2v-6.3a2,2,0,0,1,4,0v4.3h34a2,2,0,0,1,0,4Z" fill="#95a6b1"/>
      <path id="Trazado_6977" data-name="Trazado 6977" d="M31.82,30.45a9.51,9.51,0,1,1,3.93-.86A9.33,9.33,0,0,1,31.82,30.45Zm0-15A5.473,5.473,0,1,0,37,22.68a5.46,5.46,0,0,0-.22-4h0a5.5,5.5,0,0,0-4.99-3.22Z" fill="#ffea27"/>
      <path id="Trazado_6978" data-name="Trazado 6978" d="M89.79,42.58H83.45a2,2,0,0,1,0-4h4.34v-17a.36.36,0,0,0-.36-.36H45.71a2,2,0,0,1,0-4H87.43a4.37,4.37,0,0,1,4.36,4.36v19A2,2,0,0,1,89.79,42.58Z" fill="#95a6b1"/>
      <path id="Trazado_6979" data-name="Trazado 6979" d="M80,21.24H51.26a2,2,0,0,1-2-2V12.31A4.24,4.24,0,0,1,53.5,8.07H78.05A3.93,3.93,0,0,1,82,12v7.24A2,2,0,0,1,80,21.24Zm-26.72-4H78V12.07H53.5a.24.24,0,0,0-.24.24Zm24.79-5.17Z" fill="#95a6b1"/>
      <path id="Trazado_6980" data-name="Trazado 6980" d="M89.88,29.2H45a2,2,0,0,1,0-4H89.88a2,2,0,0,1,0,4Z" fill="#95a6b1"/>
      <path id="Trazado_6981" data-name="Trazado 6981" d="M22.68,70.15a2,2,0,0,1-2-2V43.29a4.71,4.71,0,0,1,4.7-4.69H68.06a2,2,0,0,1,0,4H25.38a.69.69,0,0,0-.7.69V68.15A2,2,0,0,1,22.68,70.15Z" fill="#95a6b1"/>
      <path id="Trazado_6982" data-name="Trazado 6982" d="M99.75,71.78a2,2,0,0,1-2-2V42.92a.33.33,0,0,0-.33-.32h-14a2,2,0,0,1,0-4h14a4.33,4.33,0,0,1,4.32,4.32V69.78a2,2,0,0,1-1.99,2Z" fill="#95a6b1"/>
      <path id="Trazado_6983" data-name="Trazado 6983" d="M22.69,49.86a2,2,0,1,1,0-4H50.08a2,2,0,0,1,0,4Z" fill="#95a6b1"/>
      <line id="Línea_1774" data-name="Línea 1774" y2="22.67" transform="translate(42.36 47.83)" fill="#fff"/>
      <path id="Trazado_6984" data-name="Trazado 6984" d="M42.36,72.5a2,2,0,0,1-2-2V47.83a2,2,0,0,1,4,0V70.5A2,2,0,0,1,42.36,72.5Z" fill="#95a6b1"/>
      <path id="Trazado_6985" data-name="Trazado 6985" d="M42.35,56.93H30.44a2,2,0,1,1,0-4H42.35a2,2,0,1,1,0,4Z" fill="#95a6b1"/>
      <path id="Trazado_6986" data-name="Trazado 6986" d="M30.4,74.87a2,2,0,0,1-2-2v-25a2,2,0,0,1,4,0v25A2,2,0,0,1,30.4,74.87Z" fill="#95a6b1"/>
      <path id="Trazado_6987" data-name="Trazado 6987" d="M50.08,70.71a2,2,0,0,1-2-2V40.58a2,2,0,0,1,4,0V68.71A2,2,0,0,1,50.08,70.71Z" fill="#95a6b1"/>
      <path id="Trazado_6988" data-name="Trazado 6988" d="M83.42,54.39H68a2,2,0,0,1-2-2V40.64a2,2,0,0,1,2-2h0a2,2,0,0,1,2,2v9.74H81.42V40.62a2,2,0,1,1,4,0V52.39A2,2,0,0,1,83.42,54.39Z" fill="#95a6b1"/>
      <path id="Trazado_6989" data-name="Trazado 6989" d="M58.57,21.24a2,2,0,0,1-2-2V10.07a2,2,0,1,1,4,0v9.17A2,2,0,0,1,58.57,21.24Z" fill="#95a6b1"/>
      <path id="Trazado_6990" data-name="Trazado 6990" d="M65.62,21.24a2,2,0,0,1-2-2V10.07a2,2,0,1,1,4,0v9.17A2,2,0,0,1,65.62,21.24Z" fill="#95a6b1"/>
      <path id="Trazado_6991" data-name="Trazado 6991" d="M72.91,21.24a2,2,0,0,1-2-2V10.07a2,2,0,1,1,4,0v9.17A2,2,0,0,1,72.91,21.24Z" fill="#95a6b1"/>
      <path id="Trazado_6992" data-name="Trazado 6992" d="M91.6,55.17a2,2,0,0,1-2-2V40.62a2,2,0,1,1,4,0V53.17A2,2,0,0,1,91.6,55.17Z" fill="#95a6b1"/>
      <path id="Trazado_6993" data-name="Trazado 6993" d="M59.05,55.17a2,2,0,0,1-2-2V40.62a2,2,0,1,1,4,0V53.17A2,2,0,0,1,59.05,55.17Z" fill="#95a6b1"/>
    </g>
  </g>
</svg>
