<svg xmlns="http://www.w3.org/2000/svg" width="120" height="120" viewBox="0 0 120 120">
  <g id="_01-icon_ocenza_hitos_hitos-1" data-name="01-icon_ocenza_hitos_hitos-1" style="isolation: isolate">
    <g id="Capa_1" data-name="Capa 1">
      <rect id="Rectángulo_2938" data-name="Rectángulo 2938" width="120" height="120" fill="none"/>
      <path id="Trazado_7003" data-name="Trazado 7003" d="M54,115.86H35.74a2,2,0,0,1,0-4H54a2,2,0,1,1,0,4Z" fill="#ffea27"/>
      <path id="Trazado_7004" data-name="Trazado 7004" d="M75.88,115.86h-9.1a2,2,0,0,1,0-4h9.1a2,2,0,0,1,0,4Z" fill="#ffea27"/>
      <path id="Trazado_7005" data-name="Trazado 7005" d="M88.68,115.86a1.72,1.72,0,0,1-.39,0,1.66,1.66,0,0,1-.38-.11,2.211,2.211,0,0,1-.34-.18,2.51,2.51,0,0,1-.31-.26,2,2,0,0,1,0-2.82,2.06,2.06,0,0,1,2.83,0,2,2,0,0,1,.44,2.18,1.88,1.88,0,0,1-.44.64A2,2,0,0,1,88.68,115.86Z" fill="#ffea27"/>
      <g id="Grupo_8562" data-name="Grupo 8562" style="mix-blend-mode: multiply;isolation: isolate">
        <path id="Trazado_7006" data-name="Trazado 7006" d="M43.24,115.86H25a2,2,0,0,1,0-4H43.2a2,2,0,1,1,0,4Z" fill="#f4d314"/>
      </g>
      <path id="Trazado_7007" data-name="Trazado 7007" d="M70.42,103.64H25a2,2,0,1,1,0-4H70.42a2,2,0,0,1,0,4Z" fill="#ffea27"/>
      <g id="Grupo_8563" data-name="Grupo 8563" style="mix-blend-mode: multiply;isolation: isolate">
        <path id="Trazado_7008" data-name="Trazado 7008" d="M25,103.64a2.019,2.019,0,1,1,.39-4,2.651,2.651,0,0,1,.37.12,2.31,2.31,0,0,1,.35.18,2.48,2.48,0,0,1,.3.25,2.339,2.339,0,0,1,.25.3,2.31,2.31,0,0,1,.18.35,2.65,2.65,0,0,1,.12.37,2.6,2.6,0,0,1,0,.4,2,2,0,0,1-2,2Z" fill="#f4d314"/>
      </g>
      <g id="Grupo_8564" data-name="Grupo 8564" style="mix-blend-mode: multiply;isolation: isolate">
        <path id="Trazado_7009" data-name="Trazado 7009" d="M88.68,103.64H62.92a2,2,0,1,1,0-4H88.68a2,2,0,0,1,0,4Z" fill="#f4d314"/>
      </g>
      <path id="Trazado_7010" data-name="Trazado 7010" d="M104.78,75.13h-10a2,2,0,0,1-2-2V48.3a2,2,0,0,1,2-2h10a2,2,0,0,1,2,2V73.13A2,2,0,0,1,104.78,75.13Zm-8-4h6V50.3h-6Z" fill="#95a6b1"/>
      <path id="Trazado_7011" data-name="Trazado 7011" d="M111.69,80.05H106.5a3.73,3.73,0,0,1-3.72-3.72V45.1a3.73,3.73,0,0,1,3.72-3.72h5.19a3.73,3.73,0,0,1,3.72,3.72V76.33a3.73,3.73,0,0,1-3.72,3.72Zm-4.91-4h4.63V45.38h-4.63Z" fill="#95a6b1"/>
      <path id="Trazado_7012" data-name="Trazado 7012" d="M29.76,75.13h-8.7a2,2,0,0,1-2-2V48.3a2,2,0,0,1,2-2h8.7a2,2,0,0,1,2,2V73.13A2,2,0,0,1,29.76,75.13Zm-6.7-4h4.7V50.3h-4.7Z" fill="#95a6b1"/>
      <path id="Trazado_7013" data-name="Trazado 7013" d="M19.34,80.05H14.15a3.73,3.73,0,0,1-3.72-3.72V45.1a3.73,3.73,0,0,1,3.72-3.72h5.19a3.73,3.73,0,0,1,3.72,3.72V76.33A3.73,3.73,0,0,1,19.34,80.05Zm-4.91-4h4.63V45.38H14.43Z" fill="#95a6b1"/>
      <path id="Trazado_7014" data-name="Trazado 7014" d="M94.77,73.48h-65a2,2,0,0,1-2-2V49.59a2,2,0,0,1,2-2h65a2,2,0,0,1,2,2V71.48A2,2,0,0,1,94.77,73.48Zm-63-4h61V51.59h-61Z" fill="#95a6b1"/>
      <path id="Trazado_7015" data-name="Trazado 7015" d="M43.54,37a9.5,9.5,0,1,1,8.63-13.45h0A9.5,9.5,0,0,1,43.54,37Zm0-15a5.514,5.514,0,1,1-.02,0Z" fill="#ffea27"/>
      <path id="Trazado_7016" data-name="Trazado 7016" d="M23.25,33.7a5.94,5.94,0,0,1-4.8-2.7c-.82-1-1.11-1.26-1.71-1.26a2,2,0,0,1,0-4,6,6,0,0,1,4.81,2.74c.82,1,1.11,1.26,1.7,1.26s.88-.25,1.71-1.26a5.94,5.94,0,0,1,4.8-2.74,2,2,0,1,1,0,4c-.6,0-.88.25-1.7,1.26A6,6,0,0,1,23.25,33.7Z" fill="#95a6b1"/>
      <path id="Trazado_7017" data-name="Trazado 7017" d="M109.1,33.7a9.23,9.23,0,0,1-6.34-2.43,5.57,5.57,0,0,0-7.75,0,9.49,9.49,0,0,1-12.68,0,5.54,5.54,0,0,0-7.74,0,9.53,9.53,0,0,1-12.69,0A5.43,5.43,0,0,0,58,29.7a2,2,0,0,1,0-4,9.26,9.26,0,0,1,6.34,2.43,5.57,5.57,0,0,0,7.75,0,9.49,9.49,0,0,1,12.68,0,5.57,5.57,0,0,0,7.75,0,9.49,9.49,0,0,1,12.68,0,5.43,5.43,0,0,0,3.87,1.57,2,2,0,1,1,0,4Z" fill="#95a6b1"/>
      <path id="Trazado_7018" data-name="Trazado 7018" d="M65.6,73.44H29.76a2,2,0,0,1-2-2V49.59a2,2,0,0,1,2-2h12.3A2,2,0,0,1,44,49c.79,2.71,1.71,5.72,2.22,7.21a32.08,32.08,0,0,0,4.29-1,2,2,0,0,1,2.35,1l2.46,5.21h6.47a2,2,0,0,1,1.77,1.11l3.86,8a2,2,0,0,1-1.77,2.81ZM31.73,69.51H62.48l-2-4.09H54a2,2,0,0,1-1.78-1.13L50,59.47c-5.39,1.44-6.39.57-7-.55-.41-.78-1.54-4.5-2.4-7.36H31.73Z" fill="#95a6b1"/>
      <path id="Trazado_7019" data-name="Trazado 7019" d="M111.91,62.68H72.69a2,2,0,1,1,0-3.93h39.22a2,2,0,0,1,0,3.93Z" fill="#95a6b1"/>
      <path id="Trazado_7020" data-name="Trazado 7020" d="M75.86,67.74a2,2,0,0,1-2-2V55.65a2,2,0,1,1,3.93,0V65.78a2,2,0,0,1-1.93,1.96Z" fill="#95a6b1"/>
      <path id="Trazado_7021" data-name="Trazado 7021" d="M83.24,67.74a2,2,0,0,1-2-2V55.65a2,2,0,1,1,3.93,0V65.78a2,2,0,0,1-1.93,1.96Z" fill="#95a6b1"/>
      <path id="Trazado_7022" data-name="Trazado 7022" d="M39,67.3a2,2,0,0,1-1.48-.67l-2.17-2.49a2,2,0,0,1,3-2.58L40.51,64A2,2,0,0,1,39,67.3Z" fill="#95a6b1"/>
      <path id="Trazado_7023" data-name="Trazado 7023" d="M46.09,68.78a2.16,2.16,0,0,1-.65-.11,2,2,0,0,1-1.21-2.5l1.23-3.52a2,2,0,0,1,3.71,1.29l-1.23,3.52A2,2,0,0,1,46.09,68.78Z" fill="#95a6b1"/>
      <path id="Trazado_7024" data-name="Trazado 7024" d="M35.1,59a1.956,1.956,0,0,1-.79-3.75l3.2-1.48a2,2,0,0,1,1.65,3.57l-3.2,1.47A1.89,1.89,0,0,1,35.1,59Z" fill="#95a6b1"/>
    </g>
  </g>
</svg>
