<?xml version="1.0" encoding="utf-8"?>
<!-- Generator: Adobe Illustrator 24.0.2, SVG Export Plug-In . SVG Version: 6.00 Build 0)  -->
<svg version="1.1" id="Capa_1" xmlns="http://www.w3.org/2000/svg" xmlns:xlink="http://www.w3.org/1999/xlink" x="0px" y="0px"
	 viewBox="0 0 120 120" style="enable-background:new 0 0 120 120;" xml:space="preserve">
<style type="text/css">
	.st0{fill:none;}
	.st1{fill:#FFEA27;}
	.st2{fill:#F4D314;}
	.st3{fill:#95A6B1;}
</style>
<g>
	<rect class="st0" width="120" height="120"/>
</g>
<g>
	<g>
		<g>
			<path class="st1" d="M57.09,115.06H38.88c-1.1,0-2-0.9-2-2s0.9-2,2-2h18.21c1.1,0,2,0.9,2,2S58.19,115.06,57.09,115.06z"/>
		</g>
		<g>
			<path class="st1" d="M79.02,115.06h-9.1c-1.1,0-2-0.9-2-2s0.9-2,2-2h9.1c1.1,0,2,0.9,2,2S80.12,115.06,79.02,115.06z"/>
		</g>
		<g>
			<path class="st1" d="M91.82,115.06c-0.27,0-0.52-0.05-0.77-0.15c-0.24-0.1-0.46-0.25-0.64-0.44c-0.38-0.38-0.59-0.88-0.59-1.41
				c0-0.53,0.21-1.04,0.59-1.41c0.46-0.47,1.15-0.68,1.8-0.55c0.13,0.02,0.25,0.06,0.37,0.11s0.24,0.11,0.35,0.19
				c0.11,0.07,0.21,0.15,0.3,0.25c0.1,0.09,0.18,0.19,0.25,0.3c0.08,0.11,0.14,0.22,0.19,0.34s0.08,0.25,0.11,0.38
				c0.03,0.13,0.04,0.26,0.04,0.39c0,0.54-0.21,1.04-0.59,1.41C92.86,114.85,92.35,115.06,91.82,115.06z"/>
		</g>
		<g>
			<path class="st2" d="M46.38,115.06h-18.2c-1.1,0-2-0.9-2-2s0.9-2,2-2h18.2c1.1,0,2,0.9,2,2S47.48,115.06,46.38,115.06z"/>
		</g>
	</g>
	<g>
		<g>
			<path class="st1" d="M73.56,102.83H28.18c-1.1,0-2-0.9-2-2s0.9-2,2-2h45.38c1.1,0,2,0.9,2,2S74.66,102.83,73.56,102.83z"/>
		</g>
		<g>
			<path class="st2" d="M28.18,102.83c-0.27,0-0.52-0.05-0.77-0.15c-0.24-0.1-0.46-0.25-0.65-0.44c-0.37-0.37-0.58-0.88-0.58-1.41
				c0-0.53,0.21-1.04,0.58-1.41c0.1-0.1,0.2-0.18,0.31-0.25s0.22-0.14,0.35-0.19c0.12-0.05,0.24-0.09,0.37-0.11
				c0.65-0.13,1.34,0.08,1.8,0.55c0.38,0.37,0.59,0.88,0.59,1.41c0,0.54-0.21,1.04-0.59,1.41
				C29.22,102.62,28.71,102.83,28.18,102.83z"/>
		</g>
		<g>
			<path class="st2" d="M91.82,102.83H66.06c-1.1,0-2-0.9-2-2s0.9-2,2-2h25.76c1.1,0,2,0.9,2,2S92.92,102.83,91.82,102.83z"/>
		</g>
	</g>
</g>
<g>
	<g>
		<path class="st1" d="M57.07,20.75c-3.61,0-7.06-2.06-8.65-5.54c-2.17-4.77-0.07-10.41,4.69-12.59c4.77-2.18,10.41-0.07,12.59,4.69
			c1,2.18,1.13,4.64,0.38,6.93c-0.82,2.49-2.67,4.55-5.06,5.66C59.73,20.47,58.39,20.75,57.07,20.75z M57.04,5.75
			c-0.76,0-1.54,0.16-2.28,0.5c-2.75,1.26-3.97,4.53-2.71,7.29c1.26,2.75,4.53,3.97,7.29,2.71c1.38-0.64,2.46-1.83,2.93-3.28
			c0.44-1.33,0.36-2.75-0.22-4.01c0,0,0,0,0,0C61.13,6.95,59.13,5.75,57.04,5.75z"/>
	</g>
	<g>
		<g>
			<path class="st3" d="M49.07,54.96h-9.09c-1.1,0-2-0.9-2-2s0.9-2,2-2h9.09c1.1,0,2,0.9,2,2S50.17,54.96,49.07,54.96z"/>
		</g>
		<g>
			<path class="st3" d="M108.65,71.3H63.06c-1.1,0-2-0.9-2-2s0.9-2,2-2h43.59V54.96h-43c-1.1,0-2-0.9-2-2s0.9-2,2-2h45
				c1.1,0,2,0.9,2,2V69.3C110.65,70.4,109.75,71.3,108.65,71.3z"/>
		</g>
		<g>
			<path class="st3" d="M49.59,71.3h-9.61c-1.1,0-2-0.9-2-2s0.9-2,2-2h9.61c1.1,0,2,0.9,2,2S50.69,71.3,49.59,71.3z"/>
		</g>
		<g>
			<g>
				<path class="st3" d="M78.42,32.34H39.74c-1.1,0-2-0.9-2-2s0.9-2,2-2h36.68V16h-5.67c-1.1,0-2-0.9-2-2s0.9-2,2-2h7.67
					c1.1,0,2,0.9,2,2v16.34C80.42,31.44,79.52,32.34,78.42,32.34z"/>
			</g>
			<g>
				<path class="st3" d="M57.1,32.01c-1.1,0-2-0.9-2-2v-5c0-1.1,0.9-2,2-2s2,0.9,2,2v5C59.1,31.11,58.2,32.01,57.1,32.01z"/>
			</g>
			<g>
				<path class="st3" d="M43.45,16.03h-5.23c-1.1,0-2-0.9-2-2s0.9-2,2-2h5.23c1.1,0,2,0.9,2,2S44.55,16.03,43.45,16.03z"/>
			</g>
		</g>
		<g>
			<path class="st3" d="M28.56,43.84c-1.1,0-2-0.9-2-2c0-7.41,6.03-13.44,13.44-13.44c1.1,0,2,0.9,2,2s-0.9,2-2,2
				c-5.21,0-9.44,4.23-9.44,9.44C30.56,42.94,29.66,43.84,28.56,43.84z"/>
		</g>
		<g>
			<path class="st3" d="M39.07,71.31c-5.03,0-9.03-0.91-13-2.94c-0.98-0.5-1.37-1.71-0.87-2.69c0.5-0.98,1.71-1.37,2.69-0.87
				c3.37,1.73,6.81,2.5,11.17,2.5l9.91-0.01c0,0,0,0,0,0c1.1,0,2,0.89,2,2c0,1.1-0.89,2-2,2L39.07,71.31z"/>
		</g>
		<g>
			<path class="st3" d="M16.22,59.47c-0.61,0-1.21-0.28-1.6-0.8c-3.6-4.8-5.27-10.23-5.27-17.08c0-16.3,13.28-29.57,29.61-29.57
				c1.1,0,2,0.9,2,2s-0.9,2-2,2c-14.12,0-25.61,11.47-25.61,25.57c0,6.03,1.38,10.55,4.47,14.68c0.66,0.88,0.48,2.14-0.4,2.8
				C17.06,59.34,16.64,59.47,16.22,59.47z"/>
		</g>
		<g>
			<path class="st3" d="M85.33,70.97c-1.1,0-2-0.9-2-2v-15c0-1.1,0.9-2,2-2s2,0.9,2,2v15C87.33,70.07,86.43,70.97,85.33,70.97z"/>
		</g>
		<g>
			<path class="st3" d="M35.13,32.61c-0.71,0-1.39-0.38-1.76-1.04L25.9,17.93c-0.53-0.97-0.18-2.18,0.79-2.72
				c0.97-0.53,2.19-0.18,2.72,0.79l7.48,13.64c0.53,0.97,0.18,2.18-0.79,2.72C35.79,32.53,35.46,32.61,35.13,32.61z"/>
		</g>
	</g>
	<g>
		<path class="st3" d="M56.44,77.77c-3.27,0-7.01-1.76-7.42-1.96c-0.69-0.33-1.13-1.03-1.13-1.8V48.35c0-0.48,0.18-0.95,0.49-1.32
			c0.28-0.32,2.89-3.13,8.23-3.13c5.41,0,7.8,2.9,8.05,3.23c0.27,0.35,0.42,0.78,0.42,1.22v25.66c0,0.77-0.45,1.48-1.15,1.81
			C63.51,76.02,59.69,77.77,56.44,77.77z M63.08,74.01L63.08,74.01L63.08,74.01z M51.89,72.69c1.26,0.49,3.11,1.08,4.55,1.08
			c1.45,0,3.35-0.6,4.64-1.09V49.2c-0.64-0.49-2.06-1.3-4.47-1.3c-2.44,0-3.98,0.83-4.72,1.36V72.69z"/>
	</g>
	<g>
		<path class="st3" d="M23.42,71.11c-0.2,0-0.41-0.03-0.61-0.1c-0.45-0.14-4.42-1.46-6.81-3.67c-2.4-2.23-3.95-6.06-4.11-6.49
			c-0.28-0.72-0.13-1.53,0.4-2.09l17.46-18.79c0.33-0.35,0.78-0.58,1.26-0.63c0.43-0.04,4.25-0.33,8.16,3.3
			c3.97,3.68,3.74,7.44,3.7,7.85c-0.04,0.44-0.23,0.85-0.53,1.17L24.89,70.47C24.5,70.89,23.97,71.11,23.42,71.11z M16.11,60.52
			c0.59,1.22,1.55,2.91,2.61,3.89c1.06,0.98,2.86,1.84,4.14,2.36l15.97-17.2c-0.13-0.8-0.62-2.35-2.39-3.99
			c-1.79-1.67-3.48-2.11-4.38-2.22L16.11,60.52z"/>
	</g>
</g>
<g>
	<g>
		<path class="st3" d="M105.69,88.53c-3.25,0-4.98-1.34-6.36-2.42c-1.17-0.92-2.02-1.58-3.9-1.58s-2.73,0.66-3.9,1.58
			c-1.38,1.08-3.11,2.42-6.36,2.42s-4.98-1.34-6.36-2.42c-1.17-0.92-2.02-1.58-3.9-1.58s-2.73,0.66-3.9,1.58
			c-1.38,1.08-3.11,2.42-6.36,2.42s-4.98-1.34-6.36-2.42c-1.17-0.92-2.02-1.58-3.9-1.58s-2.73,0.66-3.9,1.58
			c-1.38,1.08-3.11,2.42-6.36,2.42s-4.98-1.34-6.36-2.42c-1.17-0.92-2.02-1.58-3.9-1.58c-1.88,0-2.73,0.66-3.9,1.58
			c-1.39,1.08-3.11,2.42-6.37,2.42s-4.98-1.34-6.36-2.42c-1.17-0.92-2.02-1.58-3.91-1.58c-1.1,0-2-0.9-2-2s0.9-2,2-2
			c3.26,0,4.98,1.34,6.36,2.42c1.17,0.92,2.02,1.58,3.91,1.58c1.88,0,2.73-0.66,3.91-1.58c1.38-1.08,3.11-2.42,6.36-2.42
			c3.25,0,4.98,1.34,6.36,2.42c1.17,0.92,2.02,1.58,3.9,1.58s2.73-0.66,3.9-1.58c1.38-1.08,3.11-2.42,6.36-2.42
			c3.25,0,4.98,1.34,6.36,2.42c1.17,0.92,2.02,1.58,3.9,1.58c1.88,0,2.73-0.66,3.9-1.58c1.38-1.08,3.11-2.42,6.36-2.42
			s4.98,1.34,6.36,2.42c1.17,0.92,2.02,1.58,3.9,1.58s2.73-0.66,3.9-1.58c1.38-1.08,3.11-2.42,6.36-2.42c3.25,0,4.98,1.34,6.36,2.42
			c1.17,0.92,2.02,1.58,3.9,1.58c1.1,0,2,0.9,2,2S106.79,88.53,105.69,88.53z"/>
	</g>
</g>
</svg>
