<svg xmlns="http://www.w3.org/2000/svg" width="120" height="120" viewBox="0 0 120 120">
  <g id="_01-icon_ocenza_hitos_hitos-5" data-name="01-icon_ocenza_hitos_hitos-5" style="isolation: isolate">
    <g id="Capa_1" data-name="Capa 1">
      <rect id="Rectángulo_2942" data-name="Rectángulo 2942" width="120" height="120" fill="none"/>
      <path id="Trazado_7147" data-name="Trazado 7147" d="M54,115.86H35.74a2,2,0,0,1,0-4H54a2,2,0,1,1,0,4Z" fill="#ffea27"/>
      <path id="Trazado_7148" data-name="Trazado 7148" d="M75.88,115.86h-9.1a2,2,0,0,1,0-4h9.1a2,2,0,0,1,0,4Z" fill="#ffea27"/>
      <path id="Trazado_7149" data-name="Trazado 7149" d="M88.68,115.86a1.962,1.962,0,0,1-1.42-.59A1.81,1.81,0,0,1,87,115a2.209,2.209,0,0,1-.18-.34,2.4,2.4,0,0,1-.12-.38,2.469,2.469,0,0,1,0-.39,2.56,2.56,0,0,1,0-.39,2.291,2.291,0,0,1,.12-.37,1.92,1.92,0,0,1,.18-.35,1.81,1.81,0,0,1,.25-.3,2,2,0,0,1,1.81-.55,1.73,1.73,0,0,1,.37.11,1.86,1.86,0,0,1,.34.19,1.48,1.48,0,0,1,.31.25,2,2,0,0,1,.58,1.41,2.469,2.469,0,0,1,0,.39,2.4,2.4,0,0,1-.12.38,2.21,2.21,0,0,1-.18.34,1.811,1.811,0,0,1-.25.3A2,2,0,0,1,88.68,115.86Z" fill="#ffea27"/>
      <g id="Grupo_8574" data-name="Grupo 8574" style="mix-blend-mode: multiply;isolation: isolate">
        <path id="Trazado_7150" data-name="Trazado 7150" d="M43.24,115.86H25a2,2,0,0,1,0-4H43.2a2,2,0,1,1,0,4Z" fill="#f4d314"/>
      </g>
      <path id="Trazado_7151" data-name="Trazado 7151" d="M70.42,103.64H25a2,2,0,1,1,0-4H70.42a2,2,0,0,1,0,4Z" fill="#ffea27"/>
      <g id="Grupo_8575" data-name="Grupo 8575" style="mix-blend-mode: multiply;isolation: isolate">
        <path id="Trazado_7152" data-name="Trazado 7152" d="M25,103.63a2.56,2.56,0,0,1-.39,0,2.4,2.4,0,0,1-.38-.12,2.791,2.791,0,0,1-.34-.18,1.81,1.81,0,0,1-.3-.25,1.48,1.48,0,0,1-.25-.31,1.41,1.41,0,0,1-.19-.34,1.58,1.58,0,0,1-.11-.37,1.72,1.72,0,0,1,0-.39,2,2,0,1,1,4,0,1.72,1.72,0,0,1,0,.39,1.58,1.58,0,0,1-.11.37,1.83,1.83,0,0,1-.18.34,1.94,1.94,0,0,1-.26.31,1.85,1.85,0,0,1-.64.43A2,2,0,0,1,25,103.63Z" fill="#f4d314"/>
      </g>
      <g id="Grupo_8576" data-name="Grupo 8576" style="mix-blend-mode: multiply;isolation: isolate">
        <path id="Trazado_7153" data-name="Trazado 7153" d="M88.68,103.64H62.92a2,2,0,1,1,0-4H88.68a2,2,0,0,1,0,4Z" fill="#f4d314"/>
      </g>
      <path id="Trazado_7154" data-name="Trazado 7154" d="M38.24,81.37H35a2,2,0,0,1,0-4h3.24a2,2,0,0,1,0,4Z" fill="#95a6b1"/>
      <path id="Trazado_7155" data-name="Trazado 7155" d="M113.39,86.46H34.85a2,2,0,0,1-2-2V63.15a2,2,0,0,1,2-2h78.54a2,2,0,1,1,0,4H36.85V82.46h76.54a2,2,0,0,1,0,4Z" fill="#95a6b1"/>
      <path id="Trazado_7156" data-name="Trazado 7156" d="M34.85,88.46H25a2,2,0,0,1-2-2V61.14a2,2,0,0,1,2-2h9.81a2,2,0,0,1,2,2V86.46a2,2,0,0,1-1.96,2Zm-7.81-4h5.81V63.14H27Z" fill="#95a6b1"/>
      <path id="Trazado_7157" data-name="Trazado 7157" d="M38.2,75.8H35a2,2,0,0,1,0-4h3.2a2,2,0,0,1,0,4Z" fill="#95a6b1"/>
      <path id="Trazado_7158" data-name="Trazado 7158" d="M38.24,70.21H35a2,2,0,0,1,0-4h3.24a2,2,0,0,1,0,4Z" fill="#95a6b1"/>
      <path id="Trazado_7159" data-name="Trazado 7159" d="M66.26,86.46a2,2,0,0,1-2-2V74.88a2,2,0,0,1,4,0v9.58A2,2,0,0,1,66.26,86.46Z" fill="#95a6b1"/>
      <path id="Trazado_7160" data-name="Trazado 7160" d="M66.26,69.7a2,2,0,0,1-2-2V63.15a2,2,0,1,1,4,0V67.7A2,2,0,0,1,66.26,69.7Z" fill="#95a6b1"/>
      <path id="Trazado_7161" data-name="Trazado 7161" d="M42.87,56.33A9.5,9.5,0,1,1,51.5,42.88h0a9.5,9.5,0,0,1-8.63,13.45Zm0-15a5.43,5.43,0,0,0-2.28.5,5.5,5.5,0,1,0,7.29,2.72h0a5.52,5.52,0,0,0-5.03-3.22Z" fill="#ffea27"/>
      <path id="Trazado_7162" data-name="Trazado 7162" d="M77.31,65.15H48.26a2,2,0,0,1-2-2V59.43a2,2,0,0,1,4,0v1.72H75.31V49.54H56.6a2,2,0,0,1,0-4H77.31a2,2,0,0,1,2,2V63.15A2,2,0,0,1,77.31,65.15Z" fill="#95a6b1"/>
      <path id="Trazado_7163" data-name="Trazado 7163" d="M62.79,49.54a2,2,0,0,1-2-2V38a2,2,0,0,1,4,0v9.53a2,2,0,0,1-2,2.01Z" fill="#95a6b1"/>
      <path id="Trazado_7164" data-name="Trazado 7164" d="M69.46,40H56.6a2,2,0,0,1,0-4H69.46a2,2,0,0,1,0,4Z" fill="#95a6b1"/>
      <path id="Trazado_7165" data-name="Trazado 7165" d="M77.31,57.34H56.5a2,2,0,0,1,0-4H77.31a2,2,0,0,1,0,4Z" fill="#95a6b1"/>
      <path id="Trazado_7166" data-name="Trazado 7166" d="M113.77,24a11.07,11.07,0,0,1-7-2.35,7.43,7.43,0,0,0-9.34,0,11.44,11.44,0,0,1-13.89,0,7.45,7.45,0,0,0-9.35,0,11.42,11.42,0,0,1-13.88,0,7.45,7.45,0,0,0-9.35,0,11.44,11.44,0,0,1-13.89,0,7.45,7.45,0,0,0-9.35,0A11.07,11.07,0,0,1,20.82,24a11.07,11.07,0,0,1-7-2.35A7.11,7.11,0,0,0,9.19,20a2,2,0,0,1,0-4,11,11,0,0,1,7,2.35,7.391,7.391,0,0,0,9.31,0,11.44,11.44,0,0,1,13.89,0,7.45,7.45,0,0,0,9.35,0,11.44,11.44,0,0,1,13.89,0,7.43,7.43,0,0,0,9.34,0,11.44,11.44,0,0,1,13.89,0,7.45,7.45,0,0,0,9.35,0,11.42,11.42,0,0,1,13.88,0A7.13,7.13,0,0,0,113.77,20a2,2,0,0,1,0,4Z" fill="#95a6b1"/>
      <path id="Trazado_7167" data-name="Trazado 7167" d="M25,81.37H18.2a2,2,0,0,1-2-2V67.7a2,2,0,0,1,2-2H25a2,2,0,0,1,2,2V79.37A2,2,0,0,1,25,81.37Zm-4.84-4H23V69.7H20.2Z" fill="#95a6b1"/>
    </g>
  </g>
</svg>
