<svg xmlns="http://www.w3.org/2000/svg" width="108.62" height="97.532" viewBox="0 0 108.62 97.532">
  <g id="_01-icon_ocenza_hitos_hitos-3" data-name="01-icon_ocenza_hitos_hitos-3" transform="translate(-7.1 -18.328)" style="isolation: isolate">
    <g id="Capa_1" data-name="Capa 1">
      <path id="Trazado_7058" data-name="Trazado 7058" d="M54,115.86H35.74a2,2,0,0,1,0-4H54a2,2,0,1,1,0,4Z" fill="#ffea27"/>
      <path id="Trazado_7059" data-name="Trazado 7059" d="M75.88,115.86h-9.1a2,2,0,0,1,0-4h9.1a2,2,0,0,1,0,4Z" fill="#ffea27"/>
      <path id="Trazado_7060" data-name="Trazado 7060" d="M88.68,115.86a2,2,0,0,1-1.41-.59A1.87,1.87,0,0,1,87,115a1.995,1.995,0,0,1-.33-1.11,2,2,0,0,1,4,0,2.2,2.2,0,0,1-.15.77,1.629,1.629,0,0,1-.19.34,1.42,1.42,0,0,1-.25.3A2,2,0,0,1,88.68,115.86Z" fill="#ffea27"/>
      <g id="Grupo_8568" data-name="Grupo 8568" style="mix-blend-mode: multiply;isolation: isolate">
        <path id="Trazado_7061" data-name="Trazado 7061" d="M43.24,115.86H25a2,2,0,0,1,0-4H43.2a2,2,0,1,1,0,4Z" fill="#f4d314"/>
      </g>
      <path id="Trazado_7062" data-name="Trazado 7062" d="M70.42,103.64H25a2,2,0,1,1,0-4H70.42a2,2,0,0,1,0,4Z" fill="#ffea27"/>
      <g id="Grupo_8569" data-name="Grupo 8569" style="mix-blend-mode: multiply;isolation: isolate">
        <path id="Trazado_7063" data-name="Trazado 7063" d="M25,103.64a2,2,0,0,1-2-2,1.81,1.81,0,0,1,0-.4,1.73,1.73,0,0,1,.11-.37,2.31,2.31,0,0,1,.18-.35,3.611,3.611,0,0,1,.25-.3,2.6,2.6,0,0,1,.31-.25,1.83,1.83,0,0,1,.34-.18,2.4,2.4,0,0,1,.38-.12,2,2,0,0,1,1.8.55,2.339,2.339,0,0,1,.25.3,2.31,2.31,0,0,1,.18.35,2.65,2.65,0,0,1,.12.37,2.71,2.71,0,0,1,0,.4,1.82,1.82,0,0,1-.16.76,1.84,1.84,0,0,1-.43.65A2,2,0,0,1,25,103.64Z" fill="#f4d314"/>
      </g>
      <g id="Grupo_8570" data-name="Grupo 8570" style="mix-blend-mode: multiply;isolation: isolate">
        <path id="Trazado_7064" data-name="Trazado 7064" d="M88.68,103.64H62.92a2,2,0,1,1,0-4H88.68a2,2,0,0,1,0,4Z" fill="#f4d314"/>
      </g>
      <path id="Trazado_7065" data-name="Trazado 7065" d="M23.91,83.67H20.67a2,2,0,1,1,0-4h3.24a2,2,0,0,1,0,4Z" fill="#95a6b1"/>
      <path id="Trazado_7066" data-name="Trazado 7066" d="M70.25,84.19H67a2,2,0,0,1,0-4h3.24a2,2,0,0,1,0,4Z" fill="#95a6b1"/>
      <path id="Trazado_7067" data-name="Trazado 7067" d="M70.23,88.76H20.52a2,2,0,0,1-2-2V65.45a2,2,0,0,1,2-2H70.23a2,2,0,0,1,2,2V86.76A2,2,0,0,1,70.23,88.76Zm-47.71-4H68.23V67.45H22.52Z" fill="#95a6b1"/>
      <path id="Trazado_7068" data-name="Trazado 7068" d="M20.52,90.76H10.71a2,2,0,0,1-2-2V63.44a2,2,0,0,1,2-2h9.81a2,2,0,0,1,2,2V88.76A2,2,0,0,1,20.52,90.76Zm-7.81-4h5.81V65.44H12.71Z" fill="#95a6b1"/>
      <path id="Trazado_7069" data-name="Trazado 7069" d="M23.87,78.1h-3.2a2,2,0,1,1,0-4h3.2a2,2,0,0,1,0,4Z" fill="#95a6b1"/>
      <path id="Trazado_7070" data-name="Trazado 7070" d="M23.91,72.51H20.67a2,2,0,1,1,0-4h3.24a2,2,0,0,1,0,4Z" fill="#95a6b1"/>
      <path id="Trazado_7071" data-name="Trazado 7071" d="M80.07,90.76H70.25a2,2,0,0,1-2-2V63.44a2,2,0,0,1,2-2h9.82a2,2,0,0,1,2,2V88.76A2,2,0,0,1,80.07,90.76Zm-7.82-4h5.82V65.44H72.25Z" fill="#95a6b1"/>
      <path id="Trazado_7072" data-name="Trazado 7072" d="M70.25,78.1H67a2,2,0,0,1,0-4h3.29a2,2,0,0,1,0,4Z" fill="#95a6b1"/>
      <path id="Trazado_7073" data-name="Trazado 7073" d="M70.25,72H67a2,2,0,0,1,0-4h3.24a2,2,0,0,1,0,4Z" fill="#95a6b1"/>
      <path id="Trazado_7074" data-name="Trazado 7074" d="M51.93,88.76a2,2,0,0,1-2-2V77.18a2,2,0,0,1,4,0v9.58A2,2,0,0,1,51.93,88.76Z" fill="#95a6b1"/>
      <path id="Trazado_7075" data-name="Trazado 7075" d="M51.93,72a2,2,0,0,1-2-2V65.45a2,2,0,0,1,4,0V70A2,2,0,0,1,51.93,72Z" fill="#95a6b1"/>
      <path id="Trazado_7076" data-name="Trazado 7076" d="M28.53,58.64a9.5,9.5,0,1,1,8.762-6.007A9.51,9.51,0,0,1,28.53,58.64Zm0-15a5.51,5.51,0,1,0,5,3.22h0a5.51,5.51,0,0,0-5.01-3.23Z" fill="#ffea27"/>
      <path id="Trazado_7077" data-name="Trazado 7077" d="M63,67.45H34a2,2,0,0,1-2-2V61.73a2,2,0,0,1,4,0v1.72H61V51.84H42.28a2,2,0,1,1,0-4H63a2,2,0,0,1,2,2V65.45A2,2,0,0,1,63,67.45Z" fill="#95a6b1"/>
      <path id="Trazado_7078" data-name="Trazado 7078" d="M48.46,51.84a2,2,0,0,1-2-2V40.31a2,2,0,0,1,4,0v9.53A2,2,0,0,1,48.46,51.84Z" fill="#95a6b1"/>
      <path id="Trazado_7079" data-name="Trazado 7079" d="M55.13,42.31H42.28a2,2,0,0,1,0-4H55.13a2,2,0,0,1,0,4Z" fill="#95a6b1"/>
      <path id="Trazado_7080" data-name="Trazado 7080" d="M63,59.64H42.17a2,2,0,0,1,0-4H63a2,2,0,0,1,0,4Z" fill="#95a6b1"/>
      <path id="Trazado_7081" data-name="Trazado 7081" d="M103,83.67H99.74a2,2,0,0,1,0-4H103a2,2,0,0,1,0,4Z" fill="#95a6b1"/>
      <path id="Trazado_7082" data-name="Trazado 7082" d="M111.56,88.76h-12a2,2,0,0,1-2-2V65.45a2,2,0,0,1,2-2h12a2,2,0,0,1,0,4h-10V84.76h10a2,2,0,0,1,0,4Z" fill="#95a6b1"/>
      <path id="Trazado_7083" data-name="Trazado 7083" d="M99.59,90.76H89.78a2,2,0,0,1-2-2V63.44a2,2,0,0,1,2-2h9.81a2,2,0,0,1,2,2V88.76A2,2,0,0,1,99.59,90.76Zm-7.81-4h5.81V65.44H91.78Z" fill="#95a6b1"/>
      <path id="Trazado_7084" data-name="Trazado 7084" d="M102.94,78.1h-3.2a2,2,0,0,1,0-4h3.2a2,2,0,0,1,0,4Z" fill="#95a6b1"/>
      <path id="Trazado_7085" data-name="Trazado 7085" d="M103,72.51H99.74a2,2,0,0,1,0-4H103a2,2,0,0,1,0,4Z" fill="#95a6b1"/>
      <path id="Trazado_7086" data-name="Trazado 7086" d="M113.67,26.33A11,11,0,0,1,106.73,24a7.45,7.45,0,0,0-9.35,0A11.42,11.42,0,0,1,83.5,24a7.45,7.45,0,0,0-9.35,0,11.44,11.44,0,0,1-13.89,0,7.45,7.45,0,0,0-9.35,0A11.42,11.42,0,0,1,37,24a7.46,7.46,0,0,0-9.36,0,11,11,0,0,1-6.94,2.35,11,11,0,0,1-7-2.35,7.11,7.11,0,0,0-4.6-1.67,2,2,0,1,1,0-4,11,11,0,0,1,7,2.35,7.11,7.11,0,0,0,4.68,1.65,7.08,7.08,0,0,0,4.67-1.65,11.45,11.45,0,0,1,13.9,0,7.45,7.45,0,0,0,9.35,0,11.42,11.42,0,0,1,13.88,0,7.45,7.45,0,0,0,9.35,0,11.44,11.44,0,0,1,13.89,0,7.43,7.43,0,0,0,9.34,0,11.44,11.44,0,0,1,13.89,0,7.1,7.1,0,0,0,4.67,1.65,2,2,0,0,1,0,4Z" fill="#95a6b1"/>
    </g>
  </g>
</svg>
