<svg id="Capa_1" data-name="Capa 1" xmlns="http://www.w3.org/2000/svg" viewBox="0 0 500 300"><defs><style>.cls-1{fill:none;}.cls-2{fill:#19a500;}.cls-3{fill:#fff;}.cls-4{fill:#a1d005;}.cls-5{fill:#feec35;}.cls-6{fill:#00bc00;}</style></defs><title>pictograma_ocensa_conport_mangueras</title><rect class="cls-1" width="500" height="300"/><g id="Grupo_6330" data-name="Grupo 6330"><g id="Grupo_6103" data-name="Grupo 6103"><g id="Línea_651" data-name="Línea 651"><path class="cls-2" d="M135.5,249H117.29a2,2,0,1,1,0-4H135.5a2,2,0,0,1,0,4Z"/></g><g id="Línea_652" data-name="Línea 652"><path class="cls-3" d="M124.79,249h-18.2a2,2,0,0,1,0-4h18.2a2,2,0,0,1,0,4Z"/></g><g id="Línea_653" data-name="Línea 653"><path class="cls-4" d="M93.76,249h-9.1a2,2,0,0,1,0-4h9.1a2,2,0,1,1,0,4Z"/></g><g id="Línea_654" data-name="Línea 654"><path class="cls-5" d="M71.85,249a2,2,0,0,1-.76-.15,2.2,2.2,0,0,1-.65-.44,2.34,2.34,0,0,1-.25-.3,2.31,2.31,0,0,1-.18-.35,2.29,2.29,0,0,1-.12-.37,2.56,2.56,0,0,1,0-.39,1.72,1.72,0,0,1,0-.39,1.66,1.66,0,0,1,.11-.38,1.83,1.83,0,0,1,.18-.34,2.6,2.6,0,0,1,.25-.31,2.08,2.08,0,0,1,2.83,0,2.6,2.6,0,0,1,.25.31,1.83,1.83,0,0,1,.18.34,2.4,2.4,0,0,1,.12.38,2.55,2.55,0,0,1,0,.78,2.29,2.29,0,0,1-.12.37,2.31,2.31,0,0,1-.18.35,2.34,2.34,0,0,1-.25.3A2,2,0,0,1,71.85,249Z"/></g></g><g id="Grupo_6104" data-name="Grupo 6104"><g id="Línea_652-2" data-name="Línea 652-2"><path class="cls-3" d="M110.27,259h-8.42a2,2,0,0,1,0-4h8.42a2,2,0,1,1,0,4Z"/></g><g id="Línea_653-2" data-name="Línea 653-2"><path class="cls-4" d="M132.2,259h-9.1a2,2,0,0,1,0-4h9.1a2,2,0,1,1,0,4Z"/></g><g id="Línea_654-2" data-name="Línea 654-2"><path class="cls-5" d="M145,259a2,2,0,0,1-2-2,2,2,0,0,1,.59-1.42,2.07,2.07,0,0,1,2.82,0A2,2,0,0,1,147,257a1.72,1.72,0,0,1,0,.39,1.58,1.58,0,0,1-.11.37,1.7,1.7,0,0,1-.19.35,1.73,1.73,0,0,1-.25.3A2,2,0,0,1,145,259Z"/></g></g></g><g id="Grupo_6331" data-name="Grupo 6331"><g id="Grupo_6103-2" data-name="Grupo 6103-2"><g id="Línea_651-2" data-name="Línea 651-2"><path class="cls-2" d="M351.42,259H333.21a2,2,0,0,1,0-4h18.21a2,2,0,1,1,0,4Z"/></g><g id="Línea_652-3" data-name="Línea 652-3"><path class="cls-3" d="M362.12,259h-18.2a2,2,0,0,1,0-4h18.2a2,2,0,1,1,0,4Z"/></g><g id="Línea_653-3" data-name="Línea 653-3"><path class="cls-4" d="M384.05,259H375a2,2,0,0,1,0-4h9.1a2,2,0,1,1,0,4Z"/></g><g id="Línea_654-3" data-name="Línea 654-3"><path class="cls-5" d="M396.85,259a2,2,0,0,1-1.41-.59,2.34,2.34,0,0,1-.25-.3,2.31,2.31,0,0,1-.18-.35,2.29,2.29,0,0,1-.12-.37,2.58,2.58,0,0,1,0-.39,2,2,0,0,1,.59-1.42,2.08,2.08,0,0,1,2.83,0,2,2,0,0,1,.59,1.42,2.58,2.58,0,0,1,0,.39,2.29,2.29,0,0,1-.12.37,2.31,2.31,0,0,1-.18.35,2.34,2.34,0,0,1-.25.3A2,2,0,0,1,396.85,259Z"/></g></g><g id="Grupo_6104-2" data-name="Grupo 6104-2"><g id="Línea_652-4" data-name="Línea 652-4"><path class="cls-3" d="M366.85,249h-8.41a2,2,0,0,1,0-4h8.41a2,2,0,0,1,0,4Z"/></g><g id="Línea_653-4" data-name="Línea 653-4"><path class="cls-4" d="M345.61,249h-9.1a2,2,0,0,1,0-4h9.1a2,2,0,0,1,0,4Z"/></g><g id="Línea_654-4" data-name="Línea 654-4"><path class="cls-5" d="M323.71,249a2.58,2.58,0,0,1-.39,0,2.38,2.38,0,0,1-.38-.11,2.27,2.27,0,0,1-.34-.19,1.81,1.81,0,0,1-.3-.25,1.73,1.73,0,0,1-.25-.3,1.7,1.7,0,0,1-.19-.35,1.58,1.58,0,0,1-.11-.37,1.92,1.92,0,0,1,0-.78,2.38,2.38,0,0,1,.11-.38,1.86,1.86,0,0,1,.19-.34,1.48,1.48,0,0,1,.25-.31,2.07,2.07,0,0,1,2.82,0,1.48,1.48,0,0,1,.25.31,1.86,1.86,0,0,1,.19.34,1.66,1.66,0,0,1,.11.38,1.92,1.92,0,0,1,0,.78,1.58,1.58,0,0,1-.11.37,2.31,2.31,0,0,1-.18.35,2.43,2.43,0,0,1-.26.3A2,2,0,0,1,323.71,249Z"/></g></g></g><path class="cls-6" d="M283.53,83.72c-.5.14-.63.5-1,.5a.84.84,0,0,1-.91-.86,1,1,0,0,1,1.1-1l.79,0Zm-1.89-4.29c0,.51-.82,1.18-1.28,1.18-.23,0-.37-.09-.59-.1a1.15,1.15,0,0,1-.12-.61c0-.69.37-.74,1.19-1.28.49.32.8.16.8.81m-3-1.69c-.66.54-.3.59-.89.59a5.51,5.51,0,0,1-.8,0V77.13a1.39,1.39,0,0,1,.85-.31,2.88,2.88,0,0,0,.84,0Zm-3.89-2.46a3.58,3.58,0,0,1-.89.3.88.88,0,0,1-.81-.66,5.17,5.17,0,0,1,1.09-1.23c.24,0,.42.39.61.6Zm-4.35-2.87c0,.38-1.15,2-1.57,2s-.61-.49-.61-1c0-1.06.26-1,1.16-1.94h1a7.78,7.78,0,0,1,0,.9m-4.18-1.57c0,.24-.1.18-.19.26v1.23c-.39.46-.6.6-1,.6a.82.82,0,0,1-.85-.9c0-.37.65-2,1.28-2,.24,0,.38.19.6.2,0,.22.2.41.2.65m-4.08,1.27a1.87,1.87,0,0,1-.4.91h-.89c-.2-.1-.2-.38-.4-.49V70.39c.2-.11.37-.4.6-.4s.94.79,1.09.87Zm-4.93,0c0,.38-.32,1.28-.71,1.28-.23,0-.41-.2-.61-.41V71.53a1,1,0,0,0,.4-.49h.62a6.82,6.82,0,0,1,.3,1.08m-3,.57a1,1,0,0,1-.9,1,1,1,0,0,1,0-2,1,1,0,0,1,.9,1m-7.78,31.4c0,2.6-.33,3.84-3.36,4.6h-1.35c-1.56-1.1-4-2.61-4-4.79,0-.24.34-.43.35-.67.12-2.07,2.16-2.78,3.68-3.36h1.23c2.11,0,3.47,2.46,3.47,4.22M232,73c0,.28-.56.63-.81.63-.47,0-.71-.52-.71-.9s.5-1.28.95-1.28a.63.63,0,0,1,.57.32Zm-4.36,1c0,.42-.4,1.19-.81,1.19-.2,0-.84-.73-1.09-.88V72.1a2.89,2.89,0,0,0,.61-.4c.67.26,1.29,1.79,1.29,2.22m-4.18,1.44c-.2.22-.38.7-.8.7-.63,0-1.29-1.7-1.29-1.9,0-.44.65-1,1.05-1,.76,0,.39.3,1,.88Zm-4.08,2.57c-.43,0-.4,0-.8,0s-1.57-2.08-1.57-2.27.19-.44.31-.75h.71a19.86,19.86,0,0,1,1.35,1.92Zm-3.89,1.31a1.08,1.08,0,0,1-.85.9c-.44,0-1.14-.47-1.14-.89V78c0-.24.54-.41.62-.41.66,0,1.37,1,1.37,1.66M212.21,82c0,.51-.47,1.37-1,1.37s-1.28-1.62-1.28-1.93,0-.49,0-.81h1.29c.28.38,1,.81,1,1.37m-3.13,3.55a.85.85,0,0,1-.8.86c-.42,0-.47-.3-1.08-.5V84.52c.2-.11.37-.3.6-.3.55,0,1.28,1,1.28,1.32m-2.56,3.89c0,.24-.19.24-.2.46h-.45c0-.13-.06-.17-.19-.19v-.82h.64c0,.22.2.31.2.55m83.85,4.65c0-3.38-2.73-8.37-4.15-10.41a34.15,34.15,0,0,0-3.77-6c-2.4-2.15-4.31-4.62-6.75-6.37-2.54-1.08-9-4.3-9.29-4.3h-6.58c-.24,0,.05.19-.19.19h-2.85c-.23,0,0,.19-.19.19h-1.2a2.82,2.82,0,0,1-2,.67c-.55,0-.31-.15-.95-.55v-1.1c0-.77.67-1.91.67-2.68V61c0-1,4.69-16.38,6-21.63.48-1.91,1-3.7,1.46-5.44.7-2.54,1.41-5.36,3.22-7.39a14.61,14.61,0,0,0,.71-2.41,9.42,9.42,0,0,0-1.74-2.84H260.9c-.39.39-.91.71-1.32,1.08A23.31,23.31,0,0,0,258,26.49v1.44a10.39,10.39,0,0,1-1.66,2.88c-.24,0-.46-.18-.72-.26V29c0-.24,1.24-2.92,1.24-3.16v-2.5c0-.24-.19.07-.19-.16V21.94c-.11-.48-1.61-1.27-2.23-1.27-1.84,0-2.56,1.59-2.7,3.45-.07,1.05-.19,1.38-.19,1.62,0,1,0-1.21.19,2.66,0,.31-.44,2.41-1.43,2.41-.05,0-.75-.39-.75-.72V28.35c0-.24.19.07.19-.17V27c0-.24.19.07.19-.17V24c0-.24-.19.07-.2-.17V22.13c-.34-.8-.67-3.65-2.37-3.65-1,0-1.75.82-2.53,1.57a24.12,24.12,0,0,0-1.16,4.07v5.3a1.17,1.17,0,0,1-.72.35c-.81,0-.61-1-.57-1.47V23.65c-.37-1.35-.81-4.12-2.85-4.12h-1.25a11.9,11.9,0,0,0-1.82,4.74c0,1.83,1.13,3.24,1.13,3.54v3a1,1,0,0,1-.9.89c-.51,0-1.09-.24-1.09-.92V29.52a3.14,3.14,0,0,1-.57-1.84c0-.23.19-.38.19-.61,0-1.6-2-5.74-4-5.74a2.58,2.58,0,0,0-2.23,2.6v1.44c.23.68,1.71,3.39,1.71,4.63v1.44c0,.35-.57.53-.8.61-1.74-1.56-1.82-3.82-2.47-5.93a9.78,9.78,0,0,0-2.2-1.37h-1.71a4,4,0,0,0-.88,1.75c0,3.84,4,7.84,4,9.38v1.45a1.14,1.14,0,0,1,.38.73v1.63c1.67,7.45,3.74,15,5.43,22.35.18.79,1.5,4.58,1.5,5,0,1.42-1.95,1.85-3.1,1.85h-1.9a2.49,2.49,0,0,1-1.32.28h-2.09c-3.66,1.57-7.78,2.77-11.19,4.78-.65,1-2,1.69-2.75,2.37-1.91,1.94-3.5,4-5.41,5.89a9.08,9.08,0,0,1-1,2.16,37.33,37.33,0,0,0-6.8,14.91,3.78,3.78,0,0,0-.1,2.43,6.21,6.21,0,0,0,.5,1.79c1.54-.11,2-1.87,3.09-2.73,1.72-1.38,3.87-2.83,5.47-4.23,3.3-2.89,6.76-6.2,10.79-7.3,1.56-.63,10.14-3.28,12.84-3.28h2c.23,0-.05-.19.19-.19h2.4c.48.27,3.76,4.43,3.76,5.69,0,.42-4.31,3.52-5.08,4.41-1.07,1.22-1.68,2.78-2.67,3.9a4.18,4.18,0,0,1-1.07,2.06v2.59a5.46,5.46,0,0,1,.66,2.45v1.25c2.15,6.45,6.64,6.27,6.64,7.29,0,.75-1,.86-1,1.38,0,.24.11.17.19.25v1.71a3.45,3.45,0,0,1,.48,2.25v1.66c.14,0,.18-.2.19,0v1.27a15.9,15.9,0,0,1,.85,3.3v1.35c1,2.91,1.34,6.33,2.21,9.17.17.58.82,2.2.82,2.38v1.35c0,.88,1.14,2.79,2.09,2.79.72,0,1.23-.66,1.23-1.57,0-.24-.19-.15-.19-.39v-3.55c0-.23.19.08.19-.16v-2.68c0-.24.19.07.19-.17v-3.06c0-.23.19.07.19-.16v-3.73c0-.23.19.08.19-.16v-3.1a10.66,10.66,0,0,1,.47-1.73V122c-.21-.11-.18-.12-.18-.36,0-.93,1.32-3.42,1.32-4.07,0-1.84-1.83-1.06-2.84-1.91.76-1,1.9-.42,2.79-.93a3.11,3.11,0,0,1,1.42-.67c.79-1,2.4-1.61,3.05-2.57a13.36,13.36,0,0,1,1.52-2.19c0-1.82,1.36-3.13,1.56-4.72a10.07,10.07,0,0,0,.09-3.19c0-2.13-2.43-5.9-3.37-7.07-.82-.6-1.61-1.33-2.37-2-.39-.34-1.24-.4-1.52-.85-.91-.21-1.94-.29-1.94-1.32,0-.85,2.88-2.71,3-2.74,1.43-1.49,5.7-3.18,8.37-3.18h5.1c4.17,0,16.78,5.74,17.72,6.18.4.35,5.93,5.77,8,5.76h1.23c1.2-1,1.55-.59,1.55-2.08"/><path class="cls-6" d="M252.3,175.39c-2,6.68-4.75,12.91-6.07,19.82-.1.52-.7.95-.7,1.45a10.37,10.37,0,0,1-1.18,4h-.43c-.94-1.4-1.81-3.08-2.93-4.6-.84-1.13-.91-3-1.62-4.27-1-1.68-1-4-2.56-5.4-1.35-4-2.52-8.56-4.23-12.59-2-4.68-7.56-18.46-7.56-19.56,0-.42.48-.57.7-.9,1.13.44,3.69,1.52,4,1.52h1.93c.24,0,0,.19.19.19h1.36a9.27,9.27,0,0,0,1.26.28H236c.24,0-.05.19.19.19h2.18c.24,0,0,.19.19.19h6.17c.24,0-.05-.19.19-.19h1.71c.23,0-.05-.19.19-.19H248a3.88,3.88,0,0,0,1.13-.28h1.2c.24,0,0-.19.19-.19h1.37c1.06,0,6.93-2,7.41-2a1.17,1.17,0,0,1,.61.11v1.35c0,.23-.7,1.51-.83,2.29-.72,4-2.58,7.56-3.95,11.36-.39,1.09-1.18,1.73-1.45,2.78-.39,1.47-.94,3.06-1.39,4.61m51.25,20.06v-1.27a18.89,18.89,0,0,1-.89-2.82c-.42-1.26-2-2.25-2.66-3.24-3.42-2.74-12.21-8.58-18.13-8.58H280.7c-.24,0,0-.19-.19-.19h-2.72c-.51.5-1.78.47-2.27.47h-1.23c-5.07,1.42-9.16,6-13.58,8.8-2,.86-4.7,5.53-6.81,5.53-.24,0-.34,0-.43-.07v-1c1.56-5.15,7.67-8.74,9.49-13.75v-1.63c-.09-.18-1.67-2.6-2.62-2.6H257.9c-.37,0-.54-.78-.54-1,0-1,1.44-3,1.67-3.77.62-2.29,5.45-17.6,5.45-19.9,0-1.62-3.2-4.47-3.76-5.13a2.13,2.13,0,0,1-.85-.48c-1.21-.31-2.44-.69-3.59-1.07l-3-.1c-1.41-.46-3.25-1.21-4.76-1.71-.68.39-1.25.67-1.71.89-.25.48-1.31,4.33-2.93,4.33-3.22,0-2.29-4.17-6.64-4.17-1.6,0-10,2.14-10.81,2.49-1.32.57-2.42,1.31-3.62,1.91-.38.88-1.55,1.74-1.55,2.76,0,.24.85,2.22.85,2.45v1.25c1.35,5,6.45,18.33,6.45,19.16s-1.31,1.47-2,1.47h-1.22c-2,.52-8.49.78-8.49,2.88v1.35c.92,2.72,3.89,4,6.11,6.25,1.92,1.37,8.22,6,8.22,6.78,0,.34-.27.29-.53.29-1.74,0-7.44-3.23-8.64-3.23h-1.68a23.3,23.3,0,0,1-3.06-.76h-1.5a7.87,7.87,0,0,1-3.22-.76l-2.29-.09c-.09,0-.06-.19-.3-.19h-1.68c-.43,0-1.07-.48-1.63-.48h-1.37c-.24,0,.05-.19-.19-.19h-2.18c-.24,0,.05.19-.19.19h-1.36c-.24,0-.55.29-.79.29h-1.43c-.27.42-1,.38-1.13.38h-1.4c-1.8,0-3.76.82-5.79,1-1.26.9-2.9,1.62-4.18,2.38-2.19,2.17-5.28,4.3-6,7.31-.23,1-1,1.85-1,2.94v2.58a12.49,12.49,0,0,0,5.16,7.34h1.71c.23,0,.2.19.29.19l2.85.1c.09,0,.06.19.29.18h1.62a11.13,11.13,0,0,1,3-.66h2.31c.24,0,0,.19.19.19h2.24c5-1.26,10-2.25,15.24-3.45.66-.15,4.65-2,6.28-2,.27,0,.9.22.9.72,0,1.8-8.61,8.46-10.31,9.4-1.24.7-2.29,1.65-3.77,1.86-1.1.89-3.56,1.34-3.56,3.15s5.71,3.75,7.37,3.75h2.4c.24,0,0,.19.19.19h4.55c.24,0,0,.19.2.19H221c.23,0,0-.19.19-.19h1.19a7.74,7.74,0,0,1,2.47-1c4.42-.78,7.1-5.12,9.67-8.53.33-.95,1.75-5.34,1.75-5.69v-1.36c0-.24.19.07.19-.17v-1.38c0-.33,1.38-3.67,1.75-3.67,1.53,0,3.56,7.56,3.57,8.48v1.37c.13,0,.18-.2.18,0v3.8c-.08.08-.19-.15-.19.09v1.27c0,3.67-6.36,5.62-6.36,9,0,2,1.62,2.47,3.26,3.7h5.85c.24,0-.05-.19.19-.19s-.05.19.19.18h1.12a.24.24,0,0,1,.25-.18c2.38,0,2.85-.09,3.09-.09s1-.11,1.2.35c.44,1,.65,55.73,1.1,56.82h2.15s.29-51,.29-51.73v-1.72c-.36-.28-.23-.93-.32-1.2s-.53-.83-.54-1.07V230c2.65-1.32,5.8-1.76,8.76-2.49.76-.58,3.58-.66,3.57-2.39v-1.8a15.81,15.81,0,0,1-1-3.67c-.24-1.08-1.44-2.2-1.9-3.24a32.81,32.81,0,0,1-2.32-3.26c-.7-.86-3.05-2.73-3.05-3.39v-.35a1.19,1.19,0,0,1,.95-.26,51.57,51.57,0,0,1,6.1,1.35,20,20,0,0,1,3.44,1.84c2.87,1,6.54,3.05,7.28,6.24.72.75,4.2,1.2,4.39,1.2h2.75a33.29,33.29,0,0,1,6.7-2c2.31-.67,4.28-1.95,6.47-2.57a13.23,13.23,0,0,0,1-1.22v-1.68c0-.23.19.07.19-.16v-1.6c-.22-.58-.37-1.17-.52-1.7-.91-.82-1.62-2.13-2.67-2.67-2.82-1.5-13.75-5-14.89-5h-2.63c-.58,0-2.28-.67-2.59-.67h-2.06s-1.1-.21-1.1-.66c0-.74,6-2.09,7.89-2.41,1.15-.19,2.12-.81,3.17-1a8.72,8.72,0,0,1,2.55-.09c.09,0,.06-.19.3-.19h9c.65,0,1.81.66,2.3.66h1.18c.23,0-.05.19.19.19h1.7c.24,0,0-.19.19-.19h1.2a20.28,20.28,0,0,0,3.73-1.35"/></svg>